<?xml version="1.0" encoding="UTF-8" standalone="no"?>
<svg width="26px" height="24px" viewBox="0 0 26 24" version="1.1" xmlns="http://www.w3.org/2000/svg" xmlns:xlink="http://www.w3.org/1999/xlink">
    <!-- Generator: Sketch 46.1 (44463) - http://www.bohemiancoding.com/sketch -->
    <title>Cart</title>
    <desc>Created with Sketch.</desc>
    <defs></defs>
    <g id="Symbols" stroke="none" stroke-width="1" fill="none" fill-rule="evenodd">
        <g id="Header-Black" transform="translate(-981.000000, -25.000000)" stroke="#000000" stroke-width="0.3" fill="#000000" fill-rule="nonzero">
            <g id="Group-4" transform="translate(997.000000, 34.500000) scale(-1, 1) translate(-997.000000, -34.500000) translate(982.000000, 21.000000)">
                <g id="Cart" transform="translate(6.000000, 5.000000)">
                    <path d="M16.6005595,12.9234174 L19.1025618,5.47680085 L1.1334173,5.47680085 L3.68896415,12.9234174 L16.6005595,12.9234174 Z M16.2533594,13.956776 L3.474537,13.956776 C3.17478549,13.956776 2.90769109,13.7629552 2.80828748,13.4733027 L0.0399623978,5.40667098 C0.0135119592,5.32959696 0,5.24849026 0,5.16679325 C0,4.7672975 0.316181843,4.4434422 0.706211913,4.4434422 L19.4497618,4.4434422 L20.7787708,0.487962014 C20.8768689,0.195996212 21.1450888,0 21.4465446,0 L23.4955629,0 C23.7741558,0 24,0.231325213 24,0.516679325 C24,0.802033437 23.7741558,1.03335865 23.4955629,1.03335865 L21.6624685,1.03335865 L15.8788061,18.2470588 L4.55779239,18.2470588 C4.27919948,18.2470588 4.05335531,18.0157336 4.05335531,17.7303795 C4.05335531,17.4450254 4.27919948,17.2137002 4.55779239,17.2137002 L15.1590596,17.2137002 L16.2533594,13.956776 Z" id="Combined-Shape"></path>
                    <path d="M4.48421053,22 C3.19360827,22 2.14736842,20.928117 2.14736842,19.6058824 C2.14736842,18.2836477 3.19360827,17.2117647 4.48421053,17.2117647 C5.77481278,17.2117647 6.82105263,18.2836477 6.82105263,19.6058824 C6.82105263,20.928117 5.77481278,22 4.48421053,22 Z M4.48421053,20.9590793 C5.21368137,20.9590793 5.80503432,20.3532324 5.80503432,19.6058824 C5.80503432,18.8585323 5.21368137,18.2526854 4.48421053,18.2526854 C3.75473969,18.2526854 3.16338673,18.8585323 3.16338673,19.6058824 C3.16338673,20.3532324 3.75473969,20.9590793 4.48421053,20.9590793 Z" id="Oval-2-Copy-2"></path>
                    <path d="M15.5368421,22 C14.281121,22 13.2631579,20.9570868 13.2631579,19.6705882 C13.2631579,18.3840896 14.281121,17.3411765 15.5368421,17.3411765 C16.7925632,17.3411765 17.8105263,18.3840896 17.8105263,19.6705882 C17.8105263,20.9570868 16.7925632,22 15.5368421,22 Z M15.5368421,21.0682353 C16.2902748,21.0682353 16.9010526,20.4424874 16.9010526,19.6705882 C16.9010526,18.8986891 16.2902748,18.2729412 15.5368421,18.2729412 C14.7834094,18.2729412 14.1726316,18.8986891 14.1726316,19.6705882 C14.1726316,20.4424874 14.7834094,21.0682353 15.5368421,21.0682353 Z" id="Oval-2-Copy-3"></path>
                </g>
            </g>
        </g>
    </g>
</svg>