<?xml version="1.0" encoding="UTF-8" standalone="no"?>
<svg width="21px" height="20px" viewBox="0 0 21 20" version="1.1" xmlns="http://www.w3.org/2000/svg" xmlns:xlink="http://www.w3.org/1999/xlink">
    <!-- Generator: Sketch 46.1 (44463) - http://www.bohemiancoding.com/sketch -->
    <title>icn_linkedin</title>
    <desc>Created with Sketch.</desc>
    <defs></defs>
    <g id="Symbols" stroke="none" stroke-width="1" fill="none" fill-rule="evenodd" fill-opacity="0.289999992">
        <g id="Footer" transform="translate(-262.000000, -412.000000)" fill="#000000">
            <g id="Social">
                <g transform="translate(147.000000, 411.000000)">
                    <path d="M119.767273,7.50524393 L119.767273,20.9996417 L115.266162,20.9996417 L115.266162,7.50524393 L119.767273,7.50524393 Z M120.063727,3.33088229 C120.063727,4.62659311 119.086272,5.66337671 117.516807,5.66337671 L117.488043,5.66337671 C115.976916,5.66337671 115,4.62659311 115,3.33088229 C115,2.00776513 116.006669,1 117.546471,1 C119.086272,1 120.034513,2.00776513 120.063727,3.33088229 Z M136,13.2623664 L135.99982,20.9996417 L131.498889,20.9996417 L131.498889,13.7801313 C131.498889,11.9667452 130.847552,10.72934 129.218131,10.72934 C127.974604,10.72934 127.233917,11.5635317 126.908608,12.3692422 C126.789595,12.657994 126.760381,13.0603119 126.760381,13.4636149 L126.760381,21 L122.258731,21 C122.258731,21 122.318058,8.7718467 122.258731,7.50560218 L126.760381,7.50560218 L126.760381,9.41697044 C127.357785,8.49814156 128.427736,7.18836932 130.817529,7.18836932 C133.779468,7.18836932 136,9.11747109 136,13.2623664 Z" id="icn_linkedin"></path>
                </g>
            </g>
        </g>
    </g>
</svg>