<?xml version="1.0" encoding="UTF-8" standalone="no"?>
<svg width="54px" height="41px" viewBox="0 0 54 41" version="1.1" xmlns="http://www.w3.org/2000/svg" xmlns:xlink="http://www.w3.org/1999/xlink">
    <!-- Generator: Sketch 46.1 (44463) - http://www.bohemiancoding.com/sketch -->
    <title>icn_awareness</title>
    <desc>Created with Sketch.</desc>
    <defs></defs>
    <g id="Symbols" stroke="none" stroke-width="1" fill="none" fill-rule="evenodd">
        <g id="Footer" transform="translate(-885.000000, -169.000000)" fill="#FFFFFF">
            <g id="Brands">
                <g transform="translate(533.000000, 96.000000)">
                    <g id="Group-7" transform="translate(335.000000, 51.000000)">
                        <path d="M60.2843489,39.2880742 C60.284315,39.2881709 60.2842811,39.2882676 60.2842472,39.2883643 L59.9984982,38.8385579 L60.3870072,38.7575968 C60.3870137,38.7574455 60.3870201,38.7572942 60.3870265,38.757143 L62.2314064,38.3748076 L62.1907465,42.2825004 L60.2843489,39.2880742 Z M60.3626874,38.9862182 C60.3754429,38.9117212 60.3836866,38.8355413 60.3870072,38.7575968 Z M38.2243113,35.2954332 C38.3914688,35.0188022 38.4931187,34.6983152 38.4931187,34.3519643 C38.4931187,34.1090689 38.4434232,33.8785431 38.3575855,33.6671341 L49.0827734,23.0022251 L57.960193,36.9462225 C57.2271847,37.1902425 56.6940877,37.8728236 56.6940877,38.6847241 C56.6940877,38.7274557 56.7042527,38.7679383 56.7065116,38.8095454 L47.1175431,40.8021876 C46.8317941,40.1522174 46.1812351,39.6967885 45.4233791,39.6967885 C45.0924523,39.6967885 44.7863734,39.7901233 44.517566,39.9408084 L38.2243113,35.2954332 Z M35.8324905,32.7037613 C35.2192031,33.0040071 34.7934032,33.6258644 34.7934032,34.3523016 C34.7934032,34.7796177 34.9447486,35.1675757 35.1898376,35.4801911 L31.0075113,38.6040963 L25.041795,32.7464929 L32.965965,23.5299604 L35.8324905,32.7037613 Z M30.9430201,39.5244002 L32.5728059,41.1245863 L28.7744902,41.1448276 L30.9430201,39.5244002 Z M63.0444922,27.8344949 L68.9559953,36.2649908 L62.9451013,37.514328 L63.0444922,27.8344949 Z M41.2767431,46.7981065 C41.1050679,46.7463788 40.9266159,46.7092698 40.7368695,46.7092698 C40.3234935,46.7092698 39.9462596,46.8487097 39.6379218,47.078111 L34.2753279,41.8120029 L43.595489,41.7602752 C43.65422,42.243817 43.8981796,42.6655105 44.2584719,42.9578846 L41.2767431,46.7981065 Z M58.5443407,40.5270186 C59.0695316,40.5270186 59.5405092,40.3066135 59.8782126,39.956889 L62.1777579,43.5699587 L62.1766284,43.5980716 L51.4028746,51.504543 L42.5717621,48.7089964 C42.5762799,48.6561442 42.5875743,48.605541 42.5875743,48.5515642 C42.5875743,47.9769366 42.318767,47.4709044 41.9053909,47.1335496 L44.8871197,43.2922032 C45.0576655,43.343931 45.234988,43.38104 45.4236049,43.38104 C46.4446211,43.38104 47.2736321,42.5556453 47.2736321,41.5379584 C47.2736321,41.5177171 47.2679849,41.4997248 47.2679849,41.4806081 L56.88406,39.4845923 C57.1844917,40.0997025 57.8113324,40.5270186 58.5443407,40.5270186 Z M23.3127312,33.680066 L21.8986689,30.643873 L24.0807522,32.7872004 L23.3127312,33.680066 Z M52.5287031,51.8605647 L64.4206052,47.0926172 L68.4312562,53.3921554 L63.3589291,55.2892138 L52.5287031,51.8605647 Z M23.6381236,34.3783904 L24.5823377,33.2797384 L30.4384981,39.0282638 L27.5956908,41.1513498 L26.7937865,41.1558479 L23.6381236,34.3783904 Z M23.1350698,34.9638134 L26.0207959,41.1598961 L17.770217,41.2037523 L23.1350698,34.9638134 Z M21.3157635,31.0575824 L22.8100162,34.2647019 L18.3159637,39.4914519 L21.3157635,31.0575824 Z M26.3452848,41.855859 L26.4243458,42.0256609 L20.901371,46.1515099 L17.7016599,41.9030887 L26.3452848,41.855859 Z M37.7522043,35.8181082 L43.9709157,40.4095067 C43.8195704,40.6017989 43.7066262,40.8233285 43.6422479,41.066224 L33.569878,41.1190762 L31.5120334,39.0994456 L35.7316313,35.946303 C36.0026975,36.0992371 36.3099059,36.1936965 36.6430915,36.1936965 C37.0609853,36.1936965 37.442737,36.0508829 37.7522043,35.8181082 Z M21.3234438,46.7124184 L26.7266976,42.6754062 L29.0262429,47.6097821 L21.4544591,46.8867184 L21.3234438,46.7124184 Z M39.1634429,47.5953883 C38.9917676,47.8753928 38.8878589,48.2003779 38.8878589,48.5512268 C38.8878589,48.9065739 38.9928971,49.2349325 39.1668312,49.5160615 L36.0811938,53.4923498 L30.3650843,47.7382018 L29.7201725,47.6763535 L29.8116574,47.6347464 L27.3020357,42.2449415 L27.8340032,41.8479874 L33.2790465,41.8176255 L39.1634429,47.5953883 Z M44.3397917,55.9506541 L49.8062944,57.5935718 L48.8327148,62.12762 L45.8396916,59.8932069 L44.3397917,55.9506541 Z M50.9856584,52.1071711 L49.9544773,56.906605 L44.0249031,55.1242473 L36.8405181,54.2572455 L36.5796169,53.9941088 L39.651701,50.0369373 C39.9566505,50.2584669 40.3304961,50.3934088 40.7370954,50.3934088 C41.4565504,50.3934088 42.0732261,49.979587 42.3793051,49.3835935 L50.9856584,52.1071711 Z M64.0377241,46.4911137 L53.7981966,50.5967213 L62.4971643,44.1386264 L62.5299181,44.1228831 L64.0377241,46.4911137 Z M49.4519882,62.5901334 L51.6589192,52.3199295 L62.7229399,55.8216721 L59.5514648,60.0667197 L49.9037653,62.9274882 L49.4519882,62.5901334 Z M70.808846,44.5315322 L70.8506354,44.7373186 L69.2084257,53.1014681 L69.1033876,53.1397016 L65.083701,46.8266692 L70.808846,44.5315322 Z M70.6676657,43.8330954 L64.7008199,46.2249408 L62.8846761,43.3731684 L62.9377599,38.228508 L69.2671567,36.9150734 L70.6676657,43.8330954 Z M37.9673631,33.0694539 C37.6319186,32.725352 37.1631999,32.509445 36.6436563,32.509445 C36.5984786,32.509445 36.5566892,32.5195656 36.5126409,32.5229391 L33.4936406,22.8610983 L33.9375116,22.6080823 L48.483604,22.6080823 L37.9673631,33.0694539 Z M31.7663839,23.8481984 L24.5390801,32.2539549 L21.8351942,29.5978483 L21.870207,29.4988909 L31.7663839,23.8481984 Z M60.2798424,38.0677023 C60.0449183,37.415483 59.4564787,36.9386883 58.740412,36.8622212 L49.6653399,22.6078574 L49.9036523,22.6078574 L62.3444636,27.5399842 L62.238296,37.6606275 L60.2798424,38.0677023 Z" id="icn_awareness"></path>
                    </g>
                </g>
            </g>
        </g>
    </g>
</svg>