<?xml version="1.0" encoding="UTF-8" standalone="no"?>
<svg width="24px" height="17px" viewBox="0 0 24 17" version="1.1" xmlns="http://www.w3.org/2000/svg" xmlns:xlink="http://www.w3.org/1999/xlink">
    <!-- Generator: Sketch 46.1 (44463) - http://www.bohemiancoding.com/sketch -->
    <title>icn_youtube</title>
    <desc>Created with Sketch.</desc>
    <defs></defs>
    <g id="Symbols" stroke="none" stroke-width="1" fill="none" fill-rule="evenodd" fill-opacity="0.289999992">
        <g id="Footer" transform="translate(-304.000000, -415.000000)" fill="#000000">
            <g id="Social">
                <g transform="translate(147.000000, 411.000000)">
                    <path d="M180.76,7.66708135 C180.76,7.66708135 181,9.62336162 181,11.5788866 L181,13.4128049 C181,15.3690852 180.76,17.3246101 180.76,17.3246101 C180.76,17.3246101 180.52525,18.990092 179.806,19.7235082 C178.89325,20.686542 177.87025,20.6910739 177.4015,20.7477229 C174.043,20.9924468 169,21 169,21 C169,21 162.76,20.9425956 160.84,20.7567868 C160.306,20.6563291 159.10675,20.686542 158.19325,19.7235082 C157.474,18.990092 157.24,17.3246101 157.24,17.3246101 C157.24,17.3246101 157,15.3690852 157,13.4128049 L157,11.5788866 C157,9.62336162 157.24,7.66708135 157.24,7.66708135 C157.24,7.66708135 157.474,6.0015995 158.19325,5.26818323 C159.10675,4.30514951 160.129,4.30061759 160.5985,4.24472386 C163.957,4 168.99475,4 168.99475,4 L169.00525,4 C169.00525,4 174.043,4 177.4015,4.24472386 C177.87025,4.30061759 178.89325,4.30514951 179.806,5.26818323 C180.52525,6.0015995 180.76,7.66708135 180.76,7.66708135 Z M166.522,15.634958 L173.00575,12.2511219 L166.52125,8.8438708 L166.522,15.634958 Z" id="icn_youtube"></path>
                </g>
            </g>
        </g>
    </g>
</svg>