<?xml version="1.0" encoding="UTF-8" standalone="no"?>
<svg width="21px" height="21px" viewBox="0 0 21 21" version="1.1" xmlns="http://www.w3.org/2000/svg" xmlns:xlink="http://www.w3.org/1999/xlink">
    <!-- Generator: Sketch 46.1 (44463) - http://www.bohemiancoding.com/sketch -->
    <title>icn_instagram</title>
    <desc>Created with Sketch.</desc>
    <defs></defs>
    <g id="Symbols" stroke="none" stroke-width="1" fill="none" fill-rule="evenodd" fill-opacity="0.289999992">
        <g id="Footer" transform="translate(-221.000000, -412.000000)" fill="#000000">
            <g id="Social">
                <g transform="translate(147.000000, 411.000000)">
                    <path d="M84.5009844,1 C81.6493297,1 81.291451,1.01246875 80.1714393,1.0634375 C79.0536151,1.114625 78.2906072,1.29159375 77.6229752,1.55125 C76.9323743,1.8194375 76.3465557,2.1781875 75.7629246,2.76203125 C75.178856,3.34565625 74.8201023,3.93146875 74.551037,4.62184375 C74.2907218,5.2896875 74.1135324,6.05290625 74.0632194,7.17028125 C74.0131251,8.29028125 74,8.648375 74,11.5 C74,14.351625 74.0126876,14.7084062 74.0634382,15.8284062 C74.1148449,16.9462187 74.2918155,17.7092187 74.5512557,18.3768437 C74.8196648,19.0674375 75.1784185,19.65325 75.7622684,20.236875 C76.3456807,20.8209375 76.9314993,21.1805625 77.6216627,21.44875 C78.2897322,21.7084062 79.0529589,21.885375 80.1705643,21.9365625 C81.2905759,21.9875312 81.6482359,22 84.4996719,22 C87.3515453,22 87.7083303,21.9875312 88.828342,21.9365625 C89.9461661,21.885375 90.7100491,21.7084062 91.3781185,21.44875 C92.0685007,21.1805625 92.6534443,20.8209375 93.2368566,20.236875 C93.8209252,19.65325 94.179679,19.0674375 94.4487443,18.3770625 C94.7068719,17.7092187 94.8840613,16.946 94.9365618,15.828625 C94.9868749,14.708625 95,14.351625 95,11.5 C95,8.648375 94.9868749,8.2905 94.9365618,7.1705 C94.8840613,6.0526875 94.7068719,5.2896875 94.4487443,4.6220625 C94.179679,3.93146875 93.8209252,3.34565625 93.2368566,2.76203125 C92.652788,2.17796875 92.0687195,1.81921875 91.3774623,1.55125 C90.7080803,1.29159375 89.9446348,1.114625 88.8268107,1.0634375 C87.706799,1.01246875 87.3502328,1 84.4977031,1 L84.5009844,1 Z M83.5590371,2.8921875 C83.8386025,2.89175 84.1505432,2.8921875 84.5009844,2.8921875 C87.3045136,2.8921875 87.6367983,2.90225 88.7439036,2.9525625 C89.7676642,2.999375 90.323295,3.1704375 90.6934239,3.31415625 C91.183429,3.50446875 91.5327764,3.73196875 91.9000615,4.09946875 C92.2675653,4.46696875 92.4950677,4.81696875 92.6858196,5.30696875 C92.8295399,5.67665625 93.0008229,6.23228125 93.0474172,7.25603125 C93.0977302,8.36290625 93.1086678,8.69540625 93.1086678,11.4975938 C93.1086678,14.2997813 93.0977302,14.6322813 93.0474172,15.7391563 C93.0006042,16.7629063 92.8295399,17.3185313 92.6858196,17.6882188 C92.4955052,18.1782188 92.2675653,18.527125 91.9000615,18.8944063 C91.5325576,19.2619063 91.1836477,19.4894063 90.6934239,19.6797188 C90.3237325,19.8240938 89.7676642,19.9947188 88.7439036,20.0415313 C87.6370171,20.0918438 87.3045136,20.1027813 84.5009844,20.1027813 C81.6972364,20.1027813 81.3649517,20.0918438 80.2580652,20.0415313 C79.2343045,19.9942813 78.6786737,19.8232188 78.3083261,19.6795 C77.818321,19.4891875 77.4683174,19.2616875 77.1008136,18.8941875 C76.7333097,18.5266875 76.5058074,18.1775625 76.3150554,17.6873438 C76.1713351,17.3176563 76.0000521,16.7620313 75.9534578,15.7382813 C75.9031448,14.6314063 75.8930822,14.2989063 75.8930822,11.4949688 C75.8930822,8.69103125 75.9031448,8.36028125 75.9534578,7.25340625 C76.0002708,6.22965625 76.1713351,5.67403125 76.3150554,5.30390625 C76.5053698,4.81390625 76.7333097,4.46390625 77.1008136,4.09640625 C77.4683174,3.72890625 77.818321,3.50140625 78.3083261,3.31065625 C78.678455,3.16628125 79.2343045,2.99565625 80.2580652,2.948625 C81.2267003,2.904875 81.6020792,2.89175 83.5590371,2.8895625 L83.5590371,2.8921875 Z M90.1058553,4.635625 C89.410223,4.635625 88.8458421,5.19934375 88.8458421,5.8951875 C88.8458421,6.5908125 89.410223,7.1551875 90.1058553,7.1551875 C90.8014875,7.1551875 91.3658684,6.5908125 91.3658684,5.8951875 C91.3658684,5.1995625 90.8014875,4.6351875 90.1058553,4.6351875 L90.1058553,4.635625 Z M84.5009844,6.1078125 C81.5231096,6.1078125 79.1087407,8.52215625 79.1087407,11.5 C79.1087407,14.4778438 81.5231096,16.8910938 84.5009844,16.8910938 C87.4788592,16.8910938 89.892353,14.4778438 89.892353,11.5 C89.892353,8.52215625 87.4786404,6.1078125 84.5007656,6.1078125 L84.5009844,6.1078125 Z M84.5009844,8 C86.4338795,8 88.0010208,9.56690625 88.0010208,11.5 C88.0010208,13.432875 86.4338795,15 84.5009844,15 C82.5678705,15 81.0009479,13.432875 81.0009479,11.5 C81.0009479,9.56690625 82.5678705,8 84.5009844,8 L84.5009844,8 Z" id="icn_instagram"></path>
                </g>
            </g>
        </g>
    </g>
</svg>