<?xml version="1.0" encoding="UTF-8" standalone="no"?>
<svg width="80px" height="80px" viewBox="0 0 80 80" version="1.1" xmlns="http://www.w3.org/2000/svg" xmlns:xlink="http://www.w3.org/1999/xlink">
    <!-- Generator: Sketch 46.1 (44463) - http://www.bohemiancoding.com/sketch -->
    <title>logo</title>
    <desc>Created with Sketch.</desc>
    <defs>
        <linearGradient x1="-8.03233636%" y1="125.884911%" x2="100%" y2="0%" id="linearGradient-1">
            <stop stop-color="#FF5F6D" offset="0%"></stop>
            <stop stop-color="#FFC371" offset="100%"></stop>
        </linearGradient>
    </defs>
    <g id="Symbols" stroke="none" stroke-width="1" fill="none" fill-rule="evenodd">
        <g id="Header-Black">
            <g id="Header">
                <g id="logo">
                    <circle id="Oval" fill="url(#linearGradient-1)" cx="40" cy="40" r="40"></circle>
                    <g id="Group-2" transform="translate(12.000000, 20.000000)" fill="#FFFFFF">
                        <path d="M14,19.8863636 C21.7320469,19.8863636 28,27.4431818 28,27.4431818 C28,27.4431818 21.7320469,35 14,35 C6.26795313,35 0,27.4431818 0,27.4431818 C0,27.4431818 6.26795313,19.8863636 14,19.8863636 L14,19.8863636 Z" id="Shape" opacity="0.4"></path>
                        <path d="M23.2379981,12.6894309 C28.7400544,18.1600628 27.9622071,27.8033293 27.9622071,27.8033293 C27.9622071,27.8033293 18.2639357,28.576765 12.7619894,23.1060237 C7.26004315,17.6352823 8.03778041,7.9921252 8.03778041,7.9921252 C8.03778041,7.9921252 17.7360518,7.21868952 23.2379981,12.6894309 L23.2379981,12.6894309 Z" id="Shape" opacity="0.699999988"></path>
                        <path d="M42,19.8863636 C34.2679531,19.8863636 28,27.4431818 28,27.4431818 C28,27.4431818 34.2679531,35 42,35 C49.7320469,35 56,27.4431818 56,27.4431818 C56,27.4431818 49.7320469,19.8863636 42,19.8863636 L42,19.8863636 Z" id="Shape" opacity="0.4"></path>
                        <path d="M32.7619157,12.6895039 C27.2599432,18.1601095 28.0377943,27.8033295 28.0377943,27.8033295 C28.0377943,27.8033295 37.7361118,28.5767615 43.2380843,23.1060465 C48.7400568,17.6353315 47.9622057,7.99211141 47.9622057,7.99211141 C47.9622057,7.99211141 38.2639983,7.2187889 32.7619157,12.6895039 L32.7619157,12.6895039 Z" id="Shape" opacity="0.699999988"></path>
                        <path d="M36,13.9204545 C36,21.6085693 28.4,27.8409091 28.4,27.8409091 C28.4,27.8409091 20.8,21.6085693 20.8,13.9204545 C20.8,6.23233975 28.4,0 28.4,0 C28.4,0 36,6.23244851 36,13.9204545 L36,13.9204545 Z" id="Shape"></path>
                    </g>
                </g>
            </g>
        </g>
    </g>
</svg>