<?xml version="1.0" encoding="UTF-8" standalone="no"?>
<svg width="42px" height="42px" viewBox="0 0 42 42" version="1.1" xmlns="http://www.w3.org/2000/svg" xmlns:xlink="http://www.w3.org/1999/xlink">
    <!-- Generator: Sketch 46.1 (44463) - http://www.bohemiancoding.com/sketch -->
    <title>icn_freedomflow</title>
    <desc>Created with Sketch.</desc>
    <defs></defs>
    <g id="Symbols" stroke="none" stroke-width="1" fill="none" fill-rule="evenodd">
        <g id="Footer" transform="translate(-1006.000000, -171.000000)" fill="#FFFFFF">
            <g id="Brands">
                <g transform="translate(533.000000, 96.000000)">
                    <g id="Group-7-Copy-2" transform="translate(448.000000, 51.000000)">
                        <path d="M37.5453232,33.5317207 C38.3109678,33.5317207 38.9730183,33.1185345 39.3409564,32.5076858 C41.695046,33.3721618 43.8907673,34.667685 45.7828504,36.3394815 C42.0236897,38.8328874 38.5312544,43.183845 33.5742111,46.4178901 C33.0610029,46.7524875 32.5656558,47.0394554 32.0810253,47.3037993 C32.0429217,46.8132152 32.0155347,46.3190588 32.0155347,45.8189487 C32.0155347,41.050042 33.7742551,36.69194 36.6617954,33.3316767 C36.9309022,33.4567042 37.2285868,33.5317207 37.5453232,33.5317207 Z M39.4924183,30.6473954 C42.7395616,28.1325562 46.799979,26.6191279 51.2152364,26.6191279 C52.9501421,26.6191279 54.6243201,26.8715644 56.2234815,27.3038024 C61.0566881,30.0829855 64.6705787,34.7447258 66.0458814,40.2947568 C63.9692339,39.7303468 61.4567761,38.4872161 58.1512868,36.4939203 C53.4347725,33.6492466 49.9863946,33.9469311 46.8297475,35.7008886 C44.7364296,33.7873722 42.2858903,32.3084753 39.6388791,31.3523125 C39.6293532,31.1046389 39.580533,30.8664913 39.4924183,30.6473954 Z M37.5453232,29.3292482 C36.7832507,29.3292482 36.1223909,29.7388622 35.7544528,30.3461387 C34.4577389,30.1341873 33.1395916,30.0544078 31.8190629,30.085367 C35.5210681,26.6572316 40.4590597,24.5460526 45.9019242,24.5460526 C48.0142939,24.5460526 50.0456933,24.8794593 51.9663541,25.4653026 C51.7151084,25.4569674 51.4686255,25.4283897 51.2149983,25.4283897 C46.5211081,25.4283897 42.2046819,27.0394585 38.7539225,29.7150474 C38.4121806,29.4745183 37.9954222,29.3292482 37.5453232,29.3292482 Z M29.638583,48.4235696 C27.4738209,49.2023124 25.1494998,47.643636 25.1447368,45.3431297 L25.1447368,45.3026446 C25.1447368,39.9169355 27.2130492,35.0277642 30.5768847,31.3376664 C32.2081962,31.1935871 33.8454613,31.2412166 35.4505764,31.4924624 C35.4612931,31.8782616 35.5767947,32.2378645 35.7696943,32.545075 C32.6963988,36.116099 30.8245583,40.7492615 30.8245583,45.8182343 C30.8245583,46.5160069 30.8709971,47.2018721 30.9388692,47.8805929 C30.4947238,48.0853999 30.0589136,48.2723458 29.638583,48.4235696 Z M51.1946367,53.9301386 C49.841958,53.43241 48.4202165,53.0859052 46.9520363,52.9334907 C48.6166883,51.6117713 50.2777682,50.0042746 52.0864996,48.369391 C52.3139306,49.9721247 52.3508435,51.5820028 52.1900938,53.1656847 C51.7852428,53.3157177 51.438738,53.5812523 51.1946367,53.9301386 Z M61.5519161,41.9785797 C63.7166783,41.1998369 66.0421901,42.7585133 66.0457623,45.0590196 L66.0457623,45.0983139 C66.0457623,50.7364596 63.7893133,55.8435359 60.1408913,59.5836448 C58.7036702,58.2893123 56.9366147,56.8973393 54.924267,55.7137455 C54.9778502,55.5279903 55.0159539,55.3350907 55.0159539,55.1314745 C55.0159539,54.1348265 54.3217535,53.3060727 53.3917869,53.0893584 C53.5644439,51.2187086 53.4882367,49.3147181 53.1476855,47.427398 C54.5217975,46.2283245 55.988787,45.0459215 57.6165262,43.9837829 C59.032314,43.0609608 60.3445075,42.4131992 61.5519161,41.9785797 Z M52.9150153,57.2325321 C53.4222698,57.2325321 53.880704,57.0455862 54.2438792,56.7467109 C56.1609678,57.8683863 57.856579,59.193678 59.2473613,60.4296643 C56.7170425,62.7349336 53.6223138,64.4174467 50.1858432,65.2497728 C49.5440353,65.2092877 48.9093718,65.1461785 48.2842342,65.0497287 C50.2894374,62.7635113 51.7385659,60.0724428 52.5970882,57.2003822 C52.7018731,57.2158618 52.8066581,57.2325321 52.9150153,57.2325321 Z M32.201528,53.4120484 C34.5282306,59.4217044 39.6174459,64.0643928 45.912879,65.7647671 C45.890255,65.7862003 45.8640587,65.8052522 45.840244,65.8266854 C45.6556795,65.8326391 45.4746873,65.8552632 45.2889322,65.8552632 C35.5534562,65.8552632 27.3861825,59.1502161 25.1452131,50.106559 C27.0408684,50.6221487 29.3068433,51.7104835 32.201528,53.4120484 Z M50.8137195,55.1313554 C50.8137195,55.7493485 51.0852078,56.2994696 51.5103014,56.6840781 C50.6410625,59.6883107 49.0716694,62.4746382 46.8866647,64.7870519 C41.1675489,63.4629509 36.4272199,59.5763813 33.9278603,54.4121495 C38.7098652,56.9817626 42.167769,56.2149272 45.4244382,54.050165 C47.2938972,54.0644539 49.1073916,54.4609697 50.816101,55.1015869 C50.816101,55.1111128 50.8137195,55.1206387 50.8137195,55.1313554 Z" id="icn_freedomflow"></path>
                    </g>
                </g>
            </g>
        </g>
    </g>
</svg>