<?xml version="1.0" encoding="UTF-8" standalone="no"?>
<svg width="46px" height="41px" viewBox="0 0 46 41" version="1.1" xmlns="http://www.w3.org/2000/svg" xmlns:xlink="http://www.w3.org/1999/xlink">
    <!-- Generator: Sketch 46.1 (44463) - http://www.bohemiancoding.com/sketch -->
    <title>icn_foodflow</title>
    <desc>Created with Sketch.</desc>
    <defs></defs>
    <g id="Symbols" stroke="none" stroke-width="1" fill="none" fill-rule="evenodd">
        <g id="Footer" transform="translate(-1227.000000, -173.000000)" fill="#FFFFFF">
            <g id="Brands">
                <g transform="translate(533.000000, 96.000000)">
                    <g id="Group-7-Copy-3" transform="translate(672.000000, 51.000000)">
                        <path d="M39.5401628,36.2982443 C40.1822178,36.7526717 40.7006337,37.2070991 41.0400986,37.6539346 C43.4933558,40.8956613 41.3188285,48.4192002 40.5737411,50.7065209 C39.8948114,49.4549476 39.1562313,48.1632459 38.1725425,46.5635313 C38.0673409,46.297816 36.243124,41.4661358 39.5401628,36.2982443 Z M36.7588286,46.3430418 C37.9832881,48.2670375 38.8964811,49.8689212 39.7294172,51.422 C37.4974087,51.4881577 29.6040375,51.4827349 27.1149901,48.1922034 C26.6855074,47.6260671 26.2798848,46.814822 25.9002916,45.8506551 C28.4294674,45.3159708 32.8674552,44.7736947 36.7588286,46.3430418 Z M35.7791526,44.8666409 C31.8964555,43.749552 27.8662594,44.2961664 25.5203729,44.8124132 C23.5432342,39.0306652 22.3458885,29.4291242 22.3458885,29.4291242 C22.3458885,29.4291242 33.2879361,32.4669551 38.6282713,35.7043435 C36.6164269,38.8744897 36.3843327,41.9763091 36.5784676,44.1215535 C35.0036977,41.860262 33.244554,39.8061201 31.3487567,38.4504298 C31.3802087,38.3419746 31.4159989,38.2346039 31.4159989,38.1163877 C31.4159989,37.4558954 30.8802301,36.9201266 30.2197378,36.9201266 C29.5581609,36.9201266 29.0223921,37.4558954 29.0223921,38.1163877 C29.0223921,38.7779646 29.5581609,39.3126488 30.2197378,39.3126488 C30.3531377,39.3126488 30.4756921,39.2779431 30.5960774,39.2378147 C32.4593381,40.5273473 34.2076364,42.5890811 35.7791526,44.8666409 Z M57.2155445,26.8311878 C57.2155445,26.8311878 58.3066041,37.5248729 56.819683,40.588733 C55.584378,43.1341771 49.4675033,45.9963105 47.4252915,46.8954043 C48.484899,45.6243091 49.9316917,43.3706095 51.8871394,39.3957255 C52.5400398,39.3870491 53.0671322,38.8577876 53.0671322,38.2027181 C53.0671322,37.5411412 52.532448,37.0064569 51.8708711,37.0064569 C51.2103788,37.0064569 50.67461,37.5411412 50.67461,38.2027181 C50.67461,38.4684334 50.7776424,38.7005275 50.9229724,38.897916 C48.9675247,42.8738846 47.5359158,45.0755256 46.5099294,46.2761249 C45.9210175,43.931323 44.5262833,37.6734566 45.723629,35.2050157 C47.2105501,32.1411556 57.2155445,26.8311878 57.2155445,26.8311878 Z M47.8458808,57.7848511 C48.6191666,55.5474198 49.4987384,51.7146122 48.2287278,48.0314728 C55.4952278,46.4924931 68.0554273,46.7972523 68.0554273,46.7972523 C68.0554273,46.7972523 64.7084991,53.1614049 61.1945498,58.5049938 C59.0167689,55.6808197 56.3834761,54.8077552 54.6156559,54.5615618 C56.7901832,53.3316796 59.1436615,52.2319436 61.6522309,51.3718937 C61.7498406,51.4456432 61.8604649,51.5052936 61.986273,51.5399993 C62.5057735,51.6820756 63.0415423,51.3762319 63.1836186,50.8556468 C63.3246104,50.3372308 63.0198512,49.801462 62.5003507,49.6593857 C61.9808502,49.5173093 61.4450814,49.8231531 61.3019205,50.3426536 C61.3019205,50.3437381 61.303005,50.3448227 61.3019205,50.3459072 C56.0917315,52.1310802 51.5311893,54.9379014 47.8458808,57.7848511 Z M52.909113,55.5745336 C53.6335939,55.520306 57.6247461,55.4172735 60.5552063,59.4626534 C59.1235973,61.5731921 57.6984957,63.4364528 56.4881354,64.5654717 C51.9829053,60.9842802 48.3409789,60.4072984 46.2423703,60.4799634 C48.1598587,58.8401204 50.3962054,57.1373734 52.909113,55.5745336 Z M44.7812615,61.7714482 C45.4927278,61.5675524 49.7072978,60.6652049 55.6181076,65.2669601 C51.9512364,67.6800888 44.2075334,65.6855972 41.5894243,64.9068887 C42.4755035,63.9698356 43.5437874,62.9015516 44.7812615,61.7714482 Z M46.1121156,59.1755724 C43.8844453,61.0334104 42.0548057,62.8326826 40.6752552,64.2989972 C40.557039,62.3847625 40.1459937,52.5652265 43.9950696,49.6022298 C44.6891831,49.0686301 45.7954263,48.6348092 47.1565394,48.2812451 C48.6684052,53.0901498 46.370239,58.6441418 46.1121156,59.1755724 Z" id="icn_foodflow"></path>
                    </g>
                </g>
            </g>
        </g>
    </g>
</svg>