<?xml version="1.0" encoding="UTF-8" standalone="no"?>
<svg width="23px" height="19px" viewBox="0 0 23 19" version="1.1" xmlns="http://www.w3.org/2000/svg" xmlns:xlink="http://www.w3.org/1999/xlink">
    <!-- Generator: Sketch 46.1 (44463) - http://www.bohemiancoding.com/sketch -->
    <title>icn_twitter</title>
    <desc>Created with Sketch.</desc>
    <defs></defs>
    <g id="Symbols" stroke="none" stroke-width="1" fill="none" fill-rule="evenodd" fill-opacity="0.289999992">
        <g id="Footer" transform="translate(-181.000000, -413.000000)" fill="#000000">
            <g id="Social">
                <g transform="translate(147.000000, 411.000000)">
                    <path d="M45.1678124,7.05429749 L45.2176687,7.87610108 L44.3867303,7.77547207 C41.3621144,7.38972753 38.7197302,6.0815504 36.4761965,3.88448368 L35.3793578,2.79433607 L35.0968387,3.59936815 C34.4985631,5.39391883 34.8807947,7.28909852 36.1272024,8.56373264 C36.7919531,9.26813571 36.6423842,9.36876472 35.4956892,8.94947718 C35.0968387,8.81530517 34.7478446,8.71467616 34.714607,8.76499066 C34.5982757,8.88239117 34.9971261,10.4085978 35.3128827,11.0123719 C35.7449707,11.850947 36.6257654,12.6727505 37.589654,13.1591241 L38.4039736,13.5448686 L37.4400851,13.5616401 C36.509434,13.5616401 36.4761965,13.5784116 36.5759091,13.9306132 C36.9082845,15.0207608 38.2211672,16.1779944 39.6836188,16.6811394 L40.7139825,17.033341 L39.816569,17.570029 C38.4870675,18.3415181 36.9249033,18.7775771 35.362739,18.8111202 C34.6148944,18.8278917 34,18.8949777 34,18.9452922 C34,19.1130072 36.0274898,20.0522113 37.2074223,20.4211843 C40.74722,21.5113319 44.9517684,21.0417299 48.1093344,19.1800932 C50.3528682,17.8551446 52.5964019,15.2220188 53.6433843,12.6727505 C54.2084225,11.3142589 54.7734606,8.83207667 54.7734606,7.64130005 C54.7734606,6.86981098 54.8233169,6.76918197 55.7539679,5.84674938 C56.3023873,5.31006132 56.8175691,4.72305877 56.9172817,4.55534375 C57.0834694,4.23668522 57.0668507,4.23668522 56.2192935,4.52180075 C54.8066981,5.02494579 54.6072729,4.95785979 55.3052612,4.20314221 C55.820443,3.66645416 56.4353375,2.69370707 56.4353375,2.40859154 C56.4353375,2.35827703 56.1860559,2.44213454 55.9035369,2.59307806 C55.604399,2.76079307 54.9396483,3.0123656 54.4410852,3.16330911 L53.5436717,3.44842464 L52.7293521,2.89496508 C52.2806453,2.59307806 51.6491321,2.25764802 51.3167568,2.15701901 C50.4691996,1.92221799 49.1729356,1.95576099 48.4084723,2.22410502 C46.3311262,2.97882259 45.0182435,4.92431678 45.1678124,7.05429749 Z" id="icn_twitter"></path>
                </g>
            </g>
        </g>
    </g>
</svg>