<?xml version="1.0" encoding="UTF-8" standalone="no"?>
<svg width="53px" height="36px" viewBox="0 0 53 36" version="1.1" xmlns="http://www.w3.org/2000/svg" xmlns:xlink="http://www.w3.org/1999/xlink">
    <!-- Generator: Sketch 46.1 (44463) - http://www.bohemiancoding.com/sketch -->
    <title>icn_healthflow</title>
    <desc>Created with Sketch.</desc>
    <defs></defs>
    <g id="Symbols" stroke="none" stroke-width="1" fill="none" fill-rule="evenodd">
        <g id="Footer" transform="translate(-1113.000000, -173.000000)" fill="#FFFFFF">
            <g id="Brands">
                <g transform="translate(533.000000, 96.000000)">
                    <g id="Group-7-Copy" transform="translate(560.000000, 51.000000)">
                        <path d="M38.8779891,42.5908739 C39.6059819,39.570066 40.8622132,36.6453847 41.8920566,34.5405423 C44.340154,30.0424775 47.2676613,26.1554247 47.2676613,26.1554247 C47.2676613,26.1554247 49.7490511,29.4403048 52.0539915,33.4687853 C53.0749569,35.6134042 55.2600448,40.7180614 55.5274933,45.6658222 C55.5263836,45.6823957 55.5208349,45.6989693 55.5208349,45.7166477 L55.5297128,45.7166477 C55.594078,46.9541404 55.5496882,48.1816889 55.3221905,49.3462579 C55.0824856,50.5738064 54.5531372,52.1284065 53.7574501,53.9691768 C52.7431431,54.0089534 51.9297001,54.8343168 51.9297001,55.8552482 C51.9297001,55.8784512 51.9363585,55.8994444 51.9363585,55.9226473 C51.4025712,55.9778926 50.8832105,56.018774 50.3904837,56.0486064 C48.3607601,56.1712508 46.6184605,56.2828461 44.6808457,57.9821887 C44.0405229,57.6617665 43.4002,57.4330513 42.6766463,57.1822381 C42.2649309,57.0397054 41.8088257,56.8805992 41.293904,56.6839263 C39.7746631,53.6167124 38.8225019,51.1461467 38.4707127,49.3462579 C38.2576417,48.2568224 38.2398858,47.0878338 38.3353238,45.8923275 C39.0943894,45.6437241 39.6459327,44.941005 39.6459327,44.1023828 C39.6459327,43.4814267 39.3407528,42.935604 38.8779891,42.5908739 Z M56.399309,43.2684011 C55.8633022,39.82331 54.6503509,36.572682 53.7170553,34.4302729 C56.2483837,32.492271 58.5222512,31.5486829 58.5222512,31.5486829 C58.5222512,31.5486829 60.7961187,34.7208627 61.0313846,38.6598459 C59.5643017,39.7338128 57.5423463,41.4210014 56.399309,43.2684011 Z M36.8780067,42.4273481 C35.484167,40.5081296 33.4011756,38.9789423 32.1160909,38.1447396 C32.5045017,34.4477304 34.5852736,31.5484619 34.5852736,31.5484619 C34.5852736,31.5484619 37.4506351,32.7406534 40.3304234,35.1957505 C39.4148838,37.1790534 38.4316497,39.6485142 37.8068633,42.2163114 C37.7857781,42.2152065 37.7658027,42.209682 37.7447176,42.209682 C37.4306597,42.209682 37.1387968,42.2925498 36.8780067,42.4273481 Z M56.6442297,45.6692474 C56.9116783,42.9136164 61.4904861,39.5558127 63.3204556,38.4409644 C66.6064106,37.5957128 69.2886642,37.2399336 69.2886642,37.2399336 C69.2886642,37.2399336 68.5806469,41.050748 67.3277448,45.1643062 C66.17361,47.3453869 63.7299515,50.6446307 58.6528682,53.6345013 C57.5153795,54.3040733 56.5032921,54.7615036 55.5711063,55.0973944 C55.415742,54.74493 55.1549519,54.4532353 54.8297966,54.2521428 C55.6177156,52.4091626 56.1648199,50.8181007 56.412293,49.5563001 C56.6575467,48.2989192 56.7085949,46.9851882 56.6442297,45.6692474 Z M25.3578549,43.4335843 L25.2823922,43.4512628 C24.3413285,40.0503678 23.8186386,37.2394917 23.8186386,37.2394917 C23.8186386,37.2394917 27.2222265,37.6925024 31.0586149,38.7863575 C32.1927743,39.4890765 34.6386523,41.1497474 36.0813208,43.2048691 C35.9348344,43.4733609 35.8449451,43.7761046 35.8449451,44.1020513 C35.8449451,44.9506177 36.4086956,45.6599662 37.1810781,45.8997304 C37.1855171,45.9428216 37.1977242,45.9870178 37.2010535,46.030109 L37.2088217,46.0290041 C37.1300298,47.241084 37.1622124,48.4321707 37.3819419,49.5569631 C37.7059875,51.2220536 38.5061136,53.4053442 39.7545767,56.0493798 C38.5527229,55.5157111 37.0634451,54.7665861 35.1413668,53.6340594 C26.6762319,48.6509417 25.3700621,43.4855148 25.3578549,43.4335843 Z M68.3696844,45.6039475 C70.6435519,45.3133577 72.5456548,45.1586711 72.5456548,45.1586711 C72.5456548,45.1586711 71.6057008,50.347301 64.4800282,55.8773463 C54.2359721,63.8304463 43.1385221,61.5256163 43.1385221,61.5256163 C45.8673851,57.4319464 47.726208,57.3159315 50.4572904,57.1513008 C51.037687,57.1170487 51.6580345,57.0761673 52.3249912,56.9977191 C52.6723414,57.4507298 53.213897,57.7468441 53.8298054,57.7468441 C54.7520035,57.7468441 55.5188373,57.0938457 55.6930673,56.2276009 C56.7573127,55.8618776 57.918106,55.350307 59.2165076,54.5846084 C64.6009904,51.4157433 67.1645013,47.9341904 68.3696844,45.6039475 Z M43.8458736,58.8066681 C43.200002,59.511597 42.5263868,60.4054644 41.8106013,61.5424108 C41.8106013,61.5424108 36.4949227,61.0529383 29.5623458,56.0499323 C22.0970912,50.6624197 20.5623138,45.1577872 20.5623138,45.1577872 C20.5623138,45.1577872 22.6686098,45.3301523 25.1022806,45.6516794 C26.232001,47.7410531 28.8177069,51.1949835 34.5761736,54.5848294 C38.543512,56.9194919 40.7219414,57.6752463 42.312206,58.2254886 C42.8859442,58.4243713 43.3764515,58.5978413 43.8458736,58.8066681 Z" id="icn_healthflow"></path>
                    </g>
                </g>
            </g>
        </g>
    </g>
</svg>