<?xml version="1.0" encoding="UTF-8" standalone="no"?>
<!DOCTYPE svg  PUBLIC '-//W3C//DTD SVG 1.1//EN'  'http://www.w3.org/Graphics/SVG/1.1/DTD/svg11.dtd'>
<svg xmlns="http://www.w3.org/2000/svg" version="1.1">
<defs>
<font id="BronzeScriptPersonalUse" horiz-adv-x="914">
<font-face ascent="800" font-family="Bronze Script Personal Use" panose-1="0 0 0 0 0 0 0 0 0 0" underline-position="-200" unicode-range="U+0020-00FE" cap-height="677" underline-thickness="50" font-weight="400" x-height="281" bbox="-192 -413.941 899 888.512" units-per-em="1000" descent="-200"/>
<missing-glyph/>
<glyph glyph-name="space" unicode=" " horiz-adv-x="156"/>
<glyph glyph-name="exclam" unicode="!" horiz-adv-x="175" d="M71 143q0 -3 -2.5 -9.5t-5.5 -11.5t-5.5 -5.5t-2.5 8.5q-1 11 0.5 23t1.5 24q3 79 -6 157q-5 42 -11.5 83t-8.5 83q-2 35 4.5 71t32.5 62q3 3 8.5 8t10.5 7.5t9.5 1t4.5 -11.5q1 -6 -2.5 -12t-5.5 -11q-7 -15 -10 -33q-7 -37 -6 -75l2 -76q2 -72 0.5 -142t-8.5 -141z M60 -8q17 0 25 -13.5t7 -29.5t-10.5 -29.5t-25.5 -13.5q-18 0 -25.5 13.5t-6.5 29.5t10 29.5t26 13.5z"/>
<glyph glyph-name="quotedbl" unicode='&quot;' horiz-adv-x="169" d="M81 456q0 12 10.5 14t16.5 -7q8 -11 11 -22.5t5 -23.5q3 -29 -1 -60t-12 -59q-1 -3 -3.5 -7t-5.5 -7t-6 -2.5t-4 7.5q-4 14 -4 27.5t-1 27.5q-1 16 -1.5 32t-2.5 33q-1 11 -2.5 23.5t0.5 23.5zM23 431q1 9 10.5 12.5t15.5 -3.5q13 -16 15 -37q4 -25 0.5 -53.5 t-12.5 -51.5q-2 -6 -8.5 -11.5t-9.5 5.5q-4 11 -4 23.5t-1 23.5q-2 22 -6 46t0 46z"/>
<glyph glyph-name="numbersign" unicode="#" horiz-adv-x="367" d="M224 -54q-1 -3 -4 -8.5t-5.5 -9t-4.5 -3t-1 9.5q1 11 3.5 23t4.5 23q8 46 12 91h-3q-26 -7 -52.5 -8.5t-52.5 -0.5q-3 -28 -7 -55.5t-9 -55.5q0 -2 -2 -8t-4.5 -11t-5 -6.5t-3.5 5.5q-1 10 0.5 20t3.5 20q5 47 6 92l-49 4q-15 2 -27 8q-8 5 -2.5 11.5t10.5 8.5 q17 5 34.5 8t34.5 5v3q0 34 -2 68.5t-4 69.5l-24 2t-24 3q-5 1 -16.5 4t-9.5 11t9 10.5t15 4.5q12 3 24.5 5t24.5 4q0 27 3.5 54t15.5 52q2 5 6.5 13t9.5 10q7 3 9.5 -5.5t2.5 -12.5q-2 -13 -2.5 -25t-0.5 -25l-2 -55q51 7 102 18q2 34 7 67t21 63q3 6 7.5 14.5t11.5 11.5 q7 2 8.5 -7.5t0.5 -13.5q-3 -14 -4 -27t-3 -27l-6 -72l28 7q5 1 16 -4.5t12 -11.5q2 -10 -5 -17t-13 -12q-20 -15 -44 -24l-3 -27l-12 -97l14 3q5 2 14 -3.5t11 -9.5q5 -6 1 -13.5t-9 -11.5q-18 -17 -40 -26q-5 -32 -11.5 -64t-13.5 -64zM133 211q-2 -24 -3.5 -48.5 t-3.5 -48.5l108 21q2 30 2 60v60q-25 -5 -50 -6.5t-51 -0.5z"/>
<glyph glyph-name="dollar" unicode="$" horiz-adv-x="931" d="M17 397q34 18 67 33t71 26q2 0 4 10t4 22t4 23.5t4 15.5q11 17 33 26t38 17q43 17 87.5 30t89.5 25q46 11 92 19t93 12q16 2 39 4t46.5 1.5t45 -6t34.5 -18.5q1 -2 -1 -14t-3 -16l-3 -48q0 -2 2 -2q38 -11 74.5 -28.5t60.5 -50.5v-1q-8 2 -18 -1.5t-20 -10t-18.5 -13.5 t-13.5 -13q15 -8 24.5 -23t13.5 -32.5t3 -35.5t-6 -33q-8 21 -24.5 32.5t-36.5 17t-41.5 7t-40.5 2.5q-22 2 -46 1t-45 7q-8 3 -11 12.5t-3.5 21t1 22.5t2.5 18q-90 -7 -177.5 -27.5t-171.5 -49.5q-4 -1 -4 -3q1 -5 4 -16.5t5 -24.5t3 -24t-3 -14q-11 -9 -28.5 -10.5 t-31.5 -3.5q-19 -3 -38.5 -6t-38.5 -6q-17 -4 -32.5 -8.5t-30.5 -10.5q-7 -4 -14 -6.5t-14 -7.5q-4 -4 -9 -10t-8 -8q5 17 12 33t13 31q1 3 6.5 12.5t10.5 20t9 19t3 10.5q-12 17 -28.5 33t-38.5 18zM747 457q3 27 3 55t2 54q0 14 1 28t3 28q1 7 -3 11t-10 6.5t-13 3.5 t-13 2q-58 9 -120 0.5t-120 -20.5q-63 -13 -124.5 -29.5t-121.5 -42.5q-11 -6 -22.5 -12t-21.5 -14t-12 -24t-4 -27q-4 -32 -4 -64.5v-65.5q4 0 11 3t14 7.5t13.5 9t11.5 6.5q18 8 36.5 14.5t37.5 13.5q38 11 76 21t78 19q38 8 75.5 15.5t76.5 10.5q35 4 75.5 5.5 t74.5 -14.5zM660 519q-5 -4 -8 -7.5t-9 -5.5q-5 -2 -8 0l-6 4q-2 -2 -6 -4t-8 -3q-15 -3 -21 10v1q-4 -5 -8.5 -8.5t-11.5 -5.5q-7 -4 -12 6q-3 6 -1.5 11.5t4 10.5t4.5 10.5t1 11.5q-9 -4 -12.5 -9.5t-5.5 -12.5t-3 -14t-4 -14q-3 -8 -12 -4q-4 1 -4 5q0 2 0.5 4.5t0.5 3.5 q-7 -2 -9.5 -2t-7.5 -5t-12 -9t-15 -4q-5 1 -8 4t-5 7q-8 -8 -19.5 -16t-24.5 -6q-8 1 -12 9q-12 -14 -25 -18q-14 -6 -16 10q-2 13 4 21.5t11 18.5q1 2 -1.5 2.5t-3.5 -1.5q-4 -10 -9 -21.5t-12.5 -22t-17.5 -17t-23 -5.5q-15 1 -17.5 11t3 22.5t15.5 22.5t21 11q6 0 8 -5 q4 -6 1 -14q-3 -11 -13.5 -19.5t-21.5 -10.5q1 -6 5 -6.5t8.5 1.5t8.5 5t6 5q12 10 17.5 22.5t10.5 25.5q1 1 -0.5 4.5t-4 7.5t-4 8.5t-0.5 7.5q5 13 17 11q6 0 8 -6q2 -5 1 -11t-1 -12q10 1 14 -0.5t-2 -13.5q-4 -8 -8.5 -16.5t-5.5 -17.5q0 -5 3 -5q10 0 17 10t12.5 22.5 l11 25t12.5 16.5q4 1 8 -1q1 -2 1 -6q-2 -6 -5 -10.5t-1 -11.5q3 -6 6.5 -12.5t2.5 -13.5h1q10 12 16 29.5t22 25.5q18 7 24 -10q5 -7 3 -12.5t-1 -13.5q4 1 7 5q8 6 9 17t4 20q2 2 5.5 2.5t5.5 -0.5q5 -1 4 -6v-1q5 5 12 8q5 3 8.5 1t5.5 -7q2 -6 0.5 -11t-4 -10.5l-5 -11 t-1.5 -11.5q7 6 12 13t9 14.5t8.5 14t12.5 11.5q10 5 25 0q2 3 8.5 4t4.5 -7q-2 -9 -7 -19t-5 -20q0 -7 4 -1q10 10 15 23.5t9.5 27t11.5 26t21 20.5q7 4 12 -4q6 -11 2 -23.5t-12 -20.5q-7 -9 -21 -21.5t-12 -25.5q2 -8 11 -6q7 3 10.5 9.5t7.5 12.5q2 1 6 1t4 -5l-2 -6 q-8 -19 -26 -26q-12 -7 -21 7q-2 2 -2 5zM878 485q-24 23 -54 37.5t-62 22.5q-1 -28 -1.5 -55t-2.5 -55l-1 1v-3q-13 -1 -31.5 -2t-36.5 -4.5t-33.5 -10.5t-23.5 -19q-4 -3 2 -4q13 -5 28 -6.5t30.5 -1.5h30.5t29 -1t28 -2.5t28 -6.5q14 -4 25 -11.5t24 -13.5q0 30 -10.5 52 t-39.5 33q17 15 34 28.5t37 21.5zM156 445q-29 -8 -57 -19.5t-55 -25.5q33 -18 53 -53q1 -1 -2 -7.5t-7 -14t-7.5 -14t-4.5 -9.5q-12 -22 -20 -46q25 13 51 19t53 10t53.5 7.5t52.5 11.5q-9 9 -23 12.5t-30 4t-32 -1t-27 -2.5v64t2 64zM385 166q0 5 -4 11h28q14 -6 25 -24.5 t17 -32.5q0 12 1 29t-6 28h36q-6 -5 -5.5 -12t0.5 -14v-120q0 -7 -0.5 -15.5t5.5 -13.5h-101q5 7 6.5 17t1 21.5t-2 22.5t-1.5 19v84zM334 177q18 0 26.5 -10t11.5 -24.5t2 -31t-1 -29.5v-39q0 -23 -13 -32.5t-35 -8.5q-19 0 -27.5 10t-11.5 24.5t-2 31t1 29.5q0 10 -0.5 19 t0.5 19q0 24 13 33t36 9zM281 551q6 0 10 -1q8 -1 13.5 -7.5t6.5 -15.5q3 -21 -11.5 -40.5t-32.5 -30.5q-9 -6 -13.5 -15.5l-9 -19t-10 -18.5t-16.5 -14q-11 -8 -26 -5q-6 2 -10 7t-3 12q0 11 7.5 18.5t17.5 9.5q3 1 7.5 -1t2.5 -7q-6 -4 -11 -4q-6 -2 -8 -8t1 -11 q2 -2 4 -2.5t4 -1.5q10 -1 16.5 5.5t11 16.5t6.5 20t4 17q-13 -13 -30 -17q-13 -2 -21 6q-8 4 -8 18q0 13 6 25q13 30 42 48q6 3 12.5 6t13.5 5q5 2 10.5 6t10.5 5q6 0 3 -6zM384 294q-2 7 -5 18.5t-4 23.5t1 22.5t10 16.5q5 5 15.5 5t14.5 -8q3 -8 -1 -10.5t-9 -2t-8.5 4 t0.5 7.5q-8 -4 -8.5 -14t3 -21.5t8.5 -22.5t7 -17q6 -18 8.5 -42.5t-10.5 -41.5q-5 -7 -16.5 -9.5t-24.5 -2.5t-26 1.5t-20 1.5q6 7 7.5 18t1 23.5t-2 24t-1.5 20.5v61q0 8 0.5 15t-5.5 14h37q-7 -6 -6 -16t1 -18v-69q0 -8 -1 -24t5 -23q7 -11 18.5 -4t13.5 16 q4 13 1.5 26.5t-4.5 26.5zM590 317q-2 -4 -7.5 -14.5t-10 -22t-5.5 -22t5 -13.5q-3 6 2 6.5t10.5 -2t7 -7t-8.5 -8.5q-12 -5 -17 4.5t-4 17.5q0 8 3 16t4 15t-2 11t-14 3v-76q8 0 20.5 -1.5t21.5 5.5q-3 -7 -4 -13t-3 -13h-68q5 6 5.5 12.5t0.5 13.5v121q0 7 -0.5 15 t-5.5 14h62q12 -12 12.5 -29t-4.5 -33zM502 374q0 -7 3.5 -14.5t6.5 -15t2.5 -14.5t-7.5 -13q-7 -5 -16.5 -4.5t-10.5 10.5q0 6 3.5 8.5t7.5 2.5t7 -2.5t2 -6.5q7 1 7 6t-4 10.5t-9 10t-9 5.5q-7 2 -16 0.5t-12 -9.5q-6 -12 -2 -21t12 -16t18 -13.5t16 -13.5q7 -10 11 -23 t2 -25.5t-10 -21.5t-23 -11q-13 -1 -26 -0.5t-27 0.5q4 2 2.5 9.5t-4 16.5t-4 18.5t3.5 15.5t16 6.5t13 -10.5q0 -5 -3.5 -7.5t-7.5 -2.5t-7 2t-3 7q-6 -2 -6 -7t3.5 -10t8.5 -9.5t8 -5.5q7 -2 17 -2t15 5q10 10 8 20t-9.5 18.5t-17.5 15.5t-15 12q-9 8 -15 20.5t-6 25.5 t6.5 23.5t21.5 13.5q13 3 26.5 2t25.5 -1zM146 -65l-21 -109h-21q-3 18 -5.5 36t-4.5 36q-2 -18 -5.5 -36t-6.5 -36h-21l-19 109h23q2 -20 3.5 -40.5t5.5 -40.5q2 20 5 40.5t7 40.5h18l12 -81q2 20 4.5 40.5t4.5 40.5h21zM252 -65l-21 -109h-20q-4 18 -6.5 36t-4.5 36 q-2 -18 -5 -36l-6 -36h-22l-18 109h22q2 -20 4 -40.5t5 -40.5q2 20 5 40.5t7 40.5h19l11 -81q2 20 4.5 40.5t4.5 40.5h21zM358 -65l-20 -109h-21q-4 18 -6 36t-5 36q-2 -18 -5 -36l-6 -36h-21l-19 109h22q2 -20 4.5 -40.5t4.5 -40.5q2 20 5 40.5t7 40.5h19l12 -81 q1 20 3.5 40.5t5.5 40.5h20zM546 -122q7 -3 10.5 -9.5t5 -14t2.5 -15t4 -13.5h-25q-3 6 -4 13.5t-3 14t-6 11t-13 3.5v-42h-26v108q14 2 31.5 3t30.5 -7q15 -11 11 -28t-18 -24zM748 -174h-25q-10 19 -18 38.5t-17 37.5q1 -19 1 -38v-38h-23v109h28l33 -74q-2 19 -2 37.5 v36.5h23v-109zM487 2q6 7 7.5 18t1 23t-2 23.5t-1.5 19.5v62q0 8 0.5 14.5t-5.5 14.5h37q-5 -5 -6.5 -15t-1 -20.5t1.5 -21t1 -17.5v-81h51q11 0 27 -1.5t27 6.5q-2 -4 -3.5 -14.5t-6.5 -10.5h-127zM478 -174h-25l-7 25h-26l-5 -25h-26l29 109h31zM848 -170 q-20 -8 -38.5 -4.5t-30.5 14.5t-16 29t7 39q6 14 19.5 21t30.5 7h5t8.5 -1t8 -2t3.5 -2l-4 -20q-13 6 -23.5 4t-18 -9t-10 -18t1.5 -23q8 -23 30 -20q5 1 4 10.5t-1 13.5h-13v20h37v-59zM573 90q-6 11 -10.5 22.5t-8.5 22.5q-5 11 -7 22.5t-11 19.5h38q-6 -14 1 -32t13 -30 q6 14 11 30.5t0 31.5h39q-11 -6 -13 -19t-5 -23t-11.5 -23.5t-8.5 -23.5q0 -11 -1.5 -27.5t6.5 -25.5h-37q9 9 7 26.5t-2 28.5zM347 135q0 8 -5 13.5t-11 7.5t-11.5 -1t-7.5 -11q-1 -7 -0.5 -14.5t0.5 -13.5q0 -18 -0.5 -36.5t0.5 -36.5q0 -8 4.5 -13t10.5 -7t11.5 0.5 t7.5 11.5q1 6 1 13.5v14.5v72zM451 17q-2 31 -10.5 62.5t-28.5 56.5v-113q0 -7 5.5 -11.5t12.5 -5.5t13.5 1.5t7.5 9.5zM262 536q-14 -3 -25.5 -11.5t-21.5 -18.5q-3 -3 -7.5 -12.5t-7.5 -19t-2 -17t11 -7.5q15 0 24 9.5t15 23t9 28.5zM582 -65h26v-109h-26v109zM259 464 q7 2 14.5 9.5t12.5 17t7 19.5t0 17q-3 11 -16 11q-7 -18 -10 -36.5t-8 -37.5zM553 323q10 0 22.5 1t13.5 16q0 8 -3.5 11.5t-9 5t-12 1.5h-11.5v-35zM635 553q-1 4 -2 6.5t-6 0.5q-8 -4 -12.5 -11.5t-6.5 -15.5q-2 -5 0.5 -13.5t10.5 -1.5q6 6 10.5 16t5.5 19zM486 510 q5 -7 12 -3q8 2 11.5 10.5t1.5 16.5q-1 5 -4.5 8t-10.5 -2q-10 -7 -12 -23zM349 -160q0 7 4.5 11t10.5 4t10.5 -4t4.5 -11q0 -8 -4.5 -11.5t-10.5 -3.5t-10.5 3.5t-4.5 11.5zM622 -160q0 7 4.5 11t10.5 4t10.5 -4t4.5 -11q0 -8 -4.5 -11.5t-10.5 -3.5t-10.5 3.5t-4.5 11.5z M523 -113q9 0 13 5t3 11t-5.5 10.5t-13.5 3.5q-5 -1 -4 -13t1 -17h6zM443 -130q-2 11 -4.5 22.5t-5.5 22.5l-10 -45h20zM437 518q-3 -4 -7 -11t-3 -12q2 -6 8 -5t7 7q1 9 -5 21zM320 482q6 -1 14 7.5t9 13.5q2 4 -1 6t-6 -1q-5 -5 -9 -12t-7 -14zM704 607q-18 -18 -24 -42 q8 10 15.5 19.5t9.5 22.5h-1zM383 539q0 4 0.5 6.5t-0.5 6.5q-3 0 -4 -3q-1 -4 2 -10h2z"/>
<glyph glyph-name="percent" unicode="%" d="M17 397q34 18 67 33t71 26q2 0 4 10t4 22t4 23.5t4 15.5q11 17 33 26t38 17q43 17 87.5 30t89.5 25q46 11 92 19t93 12q16 2 39 4t46.5 1.5t45 -6t34.5 -18.5q1 -2 -1 -14t-3 -16l-3 -48q0 -2 2 -2q38 -11 74.5 -28.5t60.5 -50.5v-1q-8 2 -18 -1.5t-20 -10t-18.5 -13.5 t-13.5 -13q15 -8 24.5 -23t13.5 -32.5t3 -35.5t-6 -33q-8 21 -24.5 32.5t-36.5 17t-41.5 7t-40.5 2.5q-22 2 -46 1t-45 7q-8 3 -11 12.5t-3.5 21t1 22.5t2.5 18q-90 -7 -177.5 -27.5t-171.5 -49.5q-4 -1 -4 -3q1 -5 4 -16.5t5 -24.5t3 -24t-3 -14q-11 -9 -28.5 -10.5 t-31.5 -3.5q-19 -3 -38.5 -6t-38.5 -6q-17 -4 -32.5 -8.5t-30.5 -10.5q-7 -4 -14 -6.5t-14 -7.5q-4 -4 -9 -10t-8 -8q5 17 12 33t13 31q1 3 6.5 12.5t10.5 20t9 19t3 10.5q-12 17 -28.5 33t-38.5 18zM747 457q3 27 3 55t2 54q0 14 1 28t3 28q1 7 -3 11t-10 6.5t-13 3.5 t-13 2q-58 9 -120 0.5t-120 -20.5q-63 -13 -124.5 -29.5t-121.5 -42.5q-11 -6 -22.5 -12t-21.5 -14t-12 -24t-4 -27q-4 -32 -4 -64.5v-65.5q4 0 11 3t14 7.5t13.5 9t11.5 6.5q18 8 36.5 14.5t37.5 13.5q38 11 76 21t78 19q38 8 75.5 15.5t76.5 10.5q35 4 75.5 5.5 t74.5 -14.5zM660 519q-5 -4 -8 -7.5t-9 -5.5q-5 -2 -8 0l-6 4q-2 -2 -6 -4t-8 -3q-15 -3 -21 10v1q-4 -5 -8.5 -8.5t-11.5 -5.5q-7 -4 -12 6q-3 6 -1.5 11.5t4 10.5t4.5 10.5t1 11.5q-9 -4 -12.5 -9.5t-5.5 -12.5t-3 -14t-4 -14q-3 -8 -12 -4q-4 1 -4 5q0 2 0.5 4.5t0.5 3.5 q-7 -2 -9.5 -2t-7.5 -5t-12 -9t-15 -4q-5 1 -8 4t-5 7q-8 -8 -19.5 -16t-24.5 -6q-8 1 -12 9q-12 -14 -25 -18q-14 -6 -16 10q-2 13 4 21.5t11 18.5q1 2 -1.5 2.5t-3.5 -1.5q-4 -10 -9 -21.5t-12.5 -22t-17.5 -17t-23 -5.5q-15 1 -17.5 11t3 22.5t15.5 22.5t21 11q6 0 8 -5 q4 -6 1 -14q-3 -11 -13.5 -19.5t-21.5 -10.5q1 -6 5 -6.5t8.5 1.5t8.5 5t6 5q12 10 17.5 22.5t10.5 25.5q1 1 -0.5 4.5t-4 7.5t-4 8.5t-0.5 7.5q5 13 17 11q6 0 8 -6q2 -5 1 -11t-1 -12q10 1 14 -0.5t-2 -13.5q-4 -8 -8.5 -16.5t-5.5 -17.5q0 -5 3 -5q10 0 17 10t12.5 22.5 l11 25t12.5 16.5q4 1 8 -1q1 -2 1 -6q-2 -6 -5 -10.5t-1 -11.5q3 -6 6.5 -12.5t2.5 -13.5h1q10 12 16 29.5t22 25.5q18 7 24 -10q5 -7 3 -12.5t-1 -13.5q4 1 7 5q8 6 9 17t4 20q2 2 5.5 2.5t5.5 -0.5q5 -1 4 -6v-1q5 5 12 8q5 3 8.5 1t5.5 -7q2 -6 0.5 -11t-4 -10.5l-5 -11 t-1.5 -11.5q7 6 12 13t9 14.5t8.5 14t12.5 11.5q10 5 25 0q2 3 8.5 4t4.5 -7q-2 -9 -7 -19t-5 -20q0 -7 4 -1q10 10 15 23.5t9.5 27t11.5 26t21 20.5q7 4 12 -4q6 -11 2 -23.5t-12 -20.5q-7 -9 -21 -21.5t-12 -25.5q2 -8 11 -6q7 3 10.5 9.5t7.5 12.5q2 1 6 1t4 -5l-2 -6 q-8 -19 -26 -26q-12 -7 -21 7q-2 2 -2 5zM878 485q-24 23 -54 37.5t-62 22.5q-1 -28 -1.5 -55t-2.5 -55l-1 1v-3q-13 -1 -31.5 -2t-36.5 -4.5t-33.5 -10.5t-23.5 -19q-4 -3 2 -4q13 -5 28 -6.5t30.5 -1.5h30.5t29 -1t28 -2.5t28 -6.5q14 -4 25 -11.5t24 -13.5q0 30 -10.5 52 t-39.5 33q17 15 34 28.5t37 21.5zM156 445q-29 -8 -57 -19.5t-55 -25.5q33 -18 53 -53q1 -1 -2 -7.5t-7 -14t-7.5 -14t-4.5 -9.5q-12 -22 -20 -46q25 13 51 19t53 10t53.5 7.5t52.5 11.5q-9 9 -23 12.5t-30 4t-32 -1t-27 -2.5v64t2 64zM385 166q0 5 -4 11h28q14 -6 25 -24.5 t17 -32.5q0 12 1 29t-6 28h36q-6 -5 -5.5 -12t0.5 -14v-120q0 -7 -0.5 -15.5t5.5 -13.5h-101q5 7 6.5 17t1 21.5t-2 22.5t-1.5 19v84zM334 177q18 0 26.5 -10t11.5 -24.5t2 -31t-1 -29.5v-39q0 -23 -13 -32.5t-35 -8.5q-19 0 -27.5 10t-11.5 24.5t-2 31t1 29.5q0 10 -0.5 19 t0.5 19q0 24 13 33t36 9zM281 551q6 0 10 -1q8 -1 13.5 -7.5t6.5 -15.5q3 -21 -11.5 -40.5t-32.5 -30.5q-9 -6 -13.5 -15.5l-9 -19t-10 -18.5t-16.5 -14q-11 -8 -26 -5q-6 2 -10 7t-3 12q0 11 7.5 18.5t17.5 9.5q3 1 7.5 -1t2.5 -7q-6 -4 -11 -4q-6 -2 -8 -8t1 -11 q2 -2 4 -2.5t4 -1.5q10 -1 16.5 5.5t11 16.5t6.5 20t4 17q-13 -13 -30 -17q-13 -2 -21 6q-8 4 -8 18q0 13 6 25q13 30 42 48q6 3 12.5 6t13.5 5q5 2 10.5 6t10.5 5q6 0 3 -6zM384 294q-2 7 -5 18.5t-4 23.5t1 22.5t10 16.5q5 5 15.5 5t14.5 -8q3 -8 -1 -10.5t-9 -2t-8.5 4 t0.5 7.5q-8 -4 -8.5 -14t3 -21.5t8.5 -22.5t7 -17q6 -18 8.5 -42.5t-10.5 -41.5q-5 -7 -16.5 -9.5t-24.5 -2.5t-26 1.5t-20 1.5q6 7 7.5 18t1 23.5t-2 24t-1.5 20.5v61q0 8 0.5 15t-5.5 14h37q-7 -6 -6 -16t1 -18v-69q0 -8 -1 -24t5 -23q7 -11 18.5 -4t13.5 16 q4 13 1.5 26.5t-4.5 26.5zM590 317q-2 -4 -7.5 -14.5t-10 -22t-5.5 -22t5 -13.5q-3 6 2 6.5t10.5 -2t7 -7t-8.5 -8.5q-12 -5 -17 4.5t-4 17.5q0 8 3 16t4 15t-2 11t-14 3v-76q8 0 20.5 -1.5t21.5 5.5q-3 -7 -4 -13t-3 -13h-68q5 6 5.5 12.5t0.5 13.5v121q0 7 -0.5 15 t-5.5 14h62q12 -12 12.5 -29t-4.5 -33zM502 374q0 -7 3.5 -14.5t6.5 -15t2.5 -14.5t-7.5 -13q-7 -5 -16.5 -4.5t-10.5 10.5q0 6 3.5 8.5t7.5 2.5t7 -2.5t2 -6.5q7 1 7 6t-4 10.5t-9 10t-9 5.5q-7 2 -16 0.5t-12 -9.5q-6 -12 -2 -21t12 -16t18 -13.5t16 -13.5q7 -10 11 -23 t2 -25.5t-10 -21.5t-23 -11q-13 -1 -26 -0.5t-27 0.5q4 2 2.5 9.5t-4 16.5t-4 18.5t3.5 15.5t16 6.5t13 -10.5q0 -5 -3.5 -7.5t-7.5 -2.5t-7 2t-3 7q-6 -2 -6 -7t3.5 -10t8.5 -9.5t8 -5.5q7 -2 17 -2t15 5q10 10 8 20t-9.5 18.5t-17.5 15.5t-15 12q-9 8 -15 20.5t-6 25.5 t6.5 23.5t21.5 13.5q13 3 26.5 2t25.5 -1zM146 -65l-21 -109h-21q-3 18 -5.5 36t-4.5 36q-2 -18 -5.5 -36t-6.5 -36h-21l-19 109h23q2 -20 3.5 -40.5t5.5 -40.5q2 20 5 40.5t7 40.5h18l12 -81q2 20 4.5 40.5t4.5 40.5h21zM252 -65l-21 -109h-20q-4 18 -6.5 36t-4.5 36 q-2 -18 -5 -36l-6 -36h-22l-18 109h22q2 -20 4 -40.5t5 -40.5q2 20 5 40.5t7 40.5h19l11 -81q2 20 4.5 40.5t4.5 40.5h21zM358 -65l-20 -109h-21q-4 18 -6 36t-5 36q-2 -18 -5 -36l-6 -36h-21l-19 109h22q2 -20 4.5 -40.5t4.5 -40.5q2 20 5 40.5t7 40.5h19l12 -81 q1 20 3.5 40.5t5.5 40.5h20zM546 -122q7 -3 10.5 -9.5t5 -14t2.5 -15t4 -13.5h-25q-3 6 -4 13.5t-3 14t-6 11t-13 3.5v-42h-26v108q14 2 31.5 3t30.5 -7q15 -11 11 -28t-18 -24zM748 -174h-25q-10 19 -18 38.5t-17 37.5q1 -19 1 -38v-38h-23v109h28l33 -74q-2 19 -2 37.5 v36.5h23v-109zM487 2q6 7 7.5 18t1 23t-2 23.5t-1.5 19.5v62q0 8 0.5 14.5t-5.5 14.5h37q-5 -5 -6.5 -15t-1 -20.5t1.5 -21t1 -17.5v-81h51q11 0 27 -1.5t27 6.5q-2 -4 -3.5 -14.5t-6.5 -10.5h-127zM478 -174h-25l-7 25h-26l-5 -25h-26l29 109h31zM848 -170 q-20 -8 -38.5 -4.5t-30.5 14.5t-16 29t7 39q6 14 19.5 21t30.5 7h5t8.5 -1t8 -2t3.5 -2l-4 -20q-13 6 -23.5 4t-18 -9t-10 -18t1.5 -23q8 -23 30 -20q5 1 4 10.5t-1 13.5h-13v20h37v-59zM573 90q-6 11 -10.5 22.5t-8.5 22.5q-5 11 -7 22.5t-11 19.5h38q-6 -14 1 -32t13 -30 q6 14 11 30.5t0 31.5h39q-11 -6 -13 -19t-5 -23t-11.5 -23.5t-8.5 -23.5q0 -11 -1.5 -27.5t6.5 -25.5h-37q9 9 7 26.5t-2 28.5zM347 135q0 8 -5 13.5t-11 7.5t-11.5 -1t-7.5 -11q-1 -7 -0.5 -14.5t0.5 -13.5q0 -18 -0.5 -36.5t0.5 -36.5q0 -8 4.5 -13t10.5 -7t11.5 0.5 t7.5 11.5q1 6 1 13.5v14.5v72zM451 17q-2 31 -10.5 62.5t-28.5 56.5v-113q0 -7 5.5 -11.5t12.5 -5.5t13.5 1.5t7.5 9.5zM262 536q-14 -3 -25.5 -11.5t-21.5 -18.5q-3 -3 -7.5 -12.5t-7.5 -19t-2 -17t11 -7.5q15 0 24 9.5t15 23t9 28.5zM582 -65h26v-109h-26v109zM259 464 q7 2 14.5 9.5t12.5 17t7 19.5t0 17q-3 11 -16 11q-7 -18 -10 -36.5t-8 -37.5zM553 323q10 0 22.5 1t13.5 16q0 8 -3.5 11.5t-9 5t-12 1.5h-11.5v-35zM635 553q-1 4 -2 6.5t-6 0.5q-8 -4 -12.5 -11.5t-6.5 -15.5q-2 -5 0.5 -13.5t10.5 -1.5q6 6 10.5 16t5.5 19zM486 510 q5 -7 12 -3q8 2 11.5 10.5t1.5 16.5q-1 5 -4.5 8t-10.5 -2q-10 -7 -12 -23zM349 -160q0 7 4.5 11t10.5 4t10.5 -4t4.5 -11q0 -8 -4.5 -11.5t-10.5 -3.5t-10.5 3.5t-4.5 11.5zM622 -160q0 7 4.5 11t10.5 4t10.5 -4t4.5 -11q0 -8 -4.5 -11.5t-10.5 -3.5t-10.5 3.5t-4.5 11.5z M523 -113q9 0 13 5t3 11t-5.5 10.5t-13.5 3.5q-5 -1 -4 -13t1 -17h6zM443 -130q-2 11 -4.5 22.5t-5.5 22.5l-10 -45h20zM437 518q-3 -4 -7 -11t-3 -12q2 -6 8 -5t7 7q1 9 -5 21zM320 482q6 -1 14 7.5t9 13.5q2 4 -1 6t-6 -1q-5 -5 -9 -12t-7 -14zM704 607q-18 -18 -24 -42 q8 10 15.5 19.5t9.5 22.5h-1zM383 539q0 4 0.5 6.5t-0.5 6.5q-3 0 -4 -3q-1 -4 2 -10h2z"/>
<glyph glyph-name="ampersand" unicode="&amp;" horiz-adv-x="439" d="M293 195l-34 -4q-11 -2 -22.5 -3t-22.5 1q-6 1 -13.5 3.5t-12.5 7t-5.5 10t5.5 13.5q10 11 25.5 16t28.5 10q39 12 78 18q18 3 35.5 4t34.5 -5q6 -2 13.5 -6.5t12 -10t4 -11.5t-10.5 -11q-22 -11 -46.5 -17.5t-49.5 -10.5q8 -14 13 -30.5t7 -32.5q5 -38 -1.5 -77.5 t-23.5 -74.5q-17 -33 -47.5 -58t-70.5 -24q-38 2 -69 25.5t-49 55.5q-19 34 -23 74.5t3.5 80t23.5 74.5t36 58q5 6 11 12.5t13 12.5q-9 12 -15 24q-19 34 -23.5 74t8.5 76q6 17 16 32t24 26t31 16t36 2q34 -7 50 -32.5t18 -56.5l17 5q11 2 27.5 4.5t27.5 -4.5 q3 -2 -2.5 -4.5t-13.5 -4.5t-16 -3t-9 -1q-8 -2 -15.5 -3.5t-15.5 -4.5v-4q-2 -19 -7 -38t-16 -34q-5 -6 -12 -10.5t-14.5 -5.5t-13.5 2t-9 13q-5 17 5 34.5t21 28.5q14 14 29 22q0 25 -10 44q-12 21 -28 24t-32 -4t-29 -22t-19 -30q-15 -35 -14 -77t22 -74q8 5 19 10 q14 5 25.5 -0.5t9.5 -22.5t-14 -25t-29 0q-9 4 -17 11l-7.5 -7.5t-5.5 -6.5q-25 -29 -38.5 -66t-15.5 -75t7.5 -75.5t34.5 -66.5q21 -26 53 -40t65 1q17 7 29.5 20.5t21.5 30t14 34.5t8 35q5 28 3 59t-16 57zM263 422q0 6 1 9q-9 -5 -18 -14q-3 -3 -9.5 -12t-11 -18.5 t-4.5 -17.5t10 -8q8 0 13.5 7.5t9.5 17.5t6 20t3 16zM189 305q-6 1 -12.5 -2t-12.5 -8q5 -5 10.5 -9t10.5 -1q3 2 6 11t-2 9z"/>
<glyph glyph-name="quotesingle" unicode="&apos;" horiz-adv-x="62" d="M-9 456q0 12 10.5 14t16.5 -7q8 -11 11 -22.5t5 -23.5q3 -29 -1 -60t-12 -59q-1 -3 -3.5 -7t-5.5 -7t-6 -2.5t-4 7.5q-4 14 -4 27.5t-1 27.5q-1 16 -1.5 32t-2.5 33q-1 11 -2.5 23.5t0.5 23.5z"/>
<glyph glyph-name="parenleft" unicode="(" horiz-adv-x="240" d="M195 -123q6 -6 11.5 -13.5t8.5 -15.5q2 -5 1 -9t-8 -1q-11 5 -18.5 13.5t-15.5 17.5q-17 20 -31 42t-25 45q-34 65 -51.5 137.5t-16.5 146.5q0 39 6.5 78.5t19.5 77t33.5 71t49.5 61.5q10 9 21 17l22 16q7 4 9.5 1.5t1.5 -8t-4 -11.5t-5 -9q-38 -48 -62 -106 q-32 -75 -41.5 -158t0.5 -164q8 -61 29 -122.5t65 -106.5z"/>
<glyph glyph-name="parenright" unicode=")" horiz-adv-x="233" d="M-2 514q-2 2 -6 9.5t-7 15.5t-4 14t5 6q12 -2 23.5 -11t19.5 -17q33 -34 56 -79q36 -67 49.5 -144t7.5 -152q-6 -79 -33 -155t-82 -135q-6 -6 -17 -19t-21 -15q-6 0 -5.5 4t3 9.5t6 10.5t4.5 7q40 45 65 102q29 64 38.5 137t1 146t-34.5 141.5t-69 124.5z"/>
<glyph glyph-name="asterisk" unicode="*" horiz-adv-x="277" d="M12 395q-5 3 -8.5 11.5t1.5 12.5q5 3 11.5 3t11.5 -1q19 -3 35.5 -10t33.5 -15l16 -9v61q0 5 4 10.5t8 6.5q6 2 10.5 -3t6.5 -10q11 -24 13 -53v-14q11 8 20.5 16t20.5 16q3 2 10.5 3t10.5 -2q5 -4 3 -10.5t-4 -11.5q-8 -14 -18.5 -25.5t-22.5 -21.5l-2 -2q28 -21 53 -44 q4 -3 9.5 -10.5t-3.5 -9.5q-5 -2 -11 1.5t-11 5.5q-16 8 -31 16t-31 16q-3 -17 -6.5 -33.5t-7.5 -33.5q-1 -5 -3.5 -12.5t-7.5 -8.5q-6 -2 -7.5 5.5t-1.5 11.5q-2 14 -2 28.5t1 28.5q-17 -10 -34.5 -18t-34.5 -15q-2 -1 -10.5 -3t-9.5 3q-1 6 3 10t9 8q14 12 28.5 23 t28.5 22l10 8q-23 12 -46 23.5t-45 25.5z"/>
<glyph glyph-name="plus" unicode="+" horiz-adv-x="229" d="M74 233q0 12 10.5 14t16.5 -7q13 -20 16 -46q0 -5 0.5 -9.5t0.5 -9.5q13 2 25.5 3t25.5 1q13 1 15 -9.5t-6 -17.5q-19 -15 -46 -18q-5 -1 -8.5 -1.5t-8.5 -0.5q-5 -30 -12 -57q-1 -3 -3 -7t-5 -7t-6 -2.5t-5 7.5q-3 14 -3 27.5t-1 26.5q0 3 -0.5 6t-0.5 6q-17 1 -34 4 t-33 8q-3 0 -7 2.5t-7 5t-2.5 5.5t7.5 5q13 4 27 4t27 2q5 0 10 0.5t10 1.5q0 4 -0.5 7.5t-0.5 8.5q-2 11 -3 23t1 24z"/>
<glyph glyph-name="comma" unicode="," horiz-adv-x="160" d="M59 69q1 14 12 14.5t16 -10.5q10 -25 9 -53q-2 -33 -11 -64.5t-20 -63.5q-2 -5 -5.5 -9.5t-7 -6.5t-6 0t-2.5 11q-1 17 1 33.5t4 33.5q2 29 4 57.5t6 57.5z"/>
<glyph glyph-name="hyphen" unicode="-" horiz-adv-x="214" d="M149 160q8 -4 14 -16t2 -20t-13 -12.5t-17 -6.5q-27 -8 -54 -2t-53 14q-3 1 -9 4t-10 7.5t-4.5 9t5.5 9.5q9 5 21.5 5.5t23.5 2.5q10 1 22 4t25 4.5t25 1t22 -4.5z"/>
<glyph glyph-name="period" unicode="." horiz-adv-x="147" d="M64 88q17 0 25 -13.5t7 -29.5t-10.5 -29.5t-26.5 -13.5t-24.5 13.5t-6.5 29.5t10 29.5t26 13.5z"/>
<glyph glyph-name="slash" unicode="/" horiz-adv-x="301" d="M30 -36q-1 -2 -6 -8t-10.5 -12t-9.5 -8t-2 4q5 14 12.5 27t15.5 26q20 38 39 77.5t36 79.5q34 78 60.5 158t63.5 157q15 32 34 62.5t48 53.5q8 6 11 4.5t3 -6.5t-2 -12t-5 -11q-8 -12 -14 -24.5t-12 -25.5q-35 -75 -67.5 -151t-67.5 -151q-30 -62 -61 -122t-66 -118z"/>
<glyph glyph-name="zero" unicode="0" d="M17 397q34 18 67 33t71 26q2 0 4 10t4 22t4 23.5t4 15.5q11 17 33 26t38 17q43 17 87.5 30t89.5 25q46 11 92 19t93 12q16 2 39 4t46.5 1.5t45 -6t34.5 -18.5q1 -2 -1 -14t-3 -16l-3 -48q0 -2 2 -2q38 -11 74.5 -28.5t60.5 -50.5v-1q-8 2 -18 -1.5t-20 -10t-18.5 -13.5 t-13.5 -13q15 -8 24.5 -23t13.5 -32.5t3 -35.5t-6 -33q-8 21 -24.5 32.5t-36.5 17t-41.5 7t-40.5 2.5q-22 2 -46 1t-45 7q-8 3 -11 12.5t-3.5 21t1 22.5t2.5 18q-90 -7 -177.5 -27.5t-171.5 -49.5q-4 -1 -4 -3q1 -5 4 -16.5t5 -24.5t3 -24t-3 -14q-11 -9 -28.5 -10.5 t-31.5 -3.5q-19 -3 -38.5 -6t-38.5 -6q-17 -4 -32.5 -8.5t-30.5 -10.5q-7 -4 -14 -6.5t-14 -7.5q-4 -4 -9 -10t-8 -8q5 17 12 33t13 31q1 3 6.5 12.5t10.5 20t9 19t3 10.5q-12 17 -28.5 33t-38.5 18zM747 457q3 27 3 55t2 54q0 14 1 28t3 28q1 7 -3 11t-10 6.5t-13 3.5 t-13 2q-58 9 -120 0.5t-120 -20.5q-63 -13 -124.5 -29.5t-121.5 -42.5q-11 -6 -22.5 -12t-21.5 -14t-12 -24t-4 -27q-4 -32 -4 -64.5v-65.5q4 0 11 3t14 7.5t13.5 9t11.5 6.5q18 8 36.5 14.5t37.5 13.5q38 11 76 21t78 19q38 8 75.5 15.5t76.5 10.5q35 4 75.5 5.5 t74.5 -14.5zM660 519q-5 -4 -8 -7.5t-9 -5.5q-5 -2 -8 0l-6 4q-2 -2 -6 -4t-8 -3q-15 -3 -21 10v1q-4 -5 -8.5 -8.5t-11.5 -5.5q-7 -4 -12 6q-3 6 -1.5 11.5t4 10.5t4.5 10.5t1 11.5q-9 -4 -12.5 -9.5t-5.5 -12.5t-3 -14t-4 -14q-3 -8 -12 -4q-4 1 -4 5q0 2 0.5 4.5t0.5 3.5 q-7 -2 -9.5 -2t-7.5 -5t-12 -9t-15 -4q-5 1 -8 4t-5 7q-8 -8 -19.5 -16t-24.5 -6q-8 1 -12 9q-12 -14 -25 -18q-14 -6 -16 10q-2 13 4 21.5t11 18.5q1 2 -1.5 2.5t-3.5 -1.5q-4 -10 -9 -21.5t-12.5 -22t-17.5 -17t-23 -5.5q-15 1 -17.5 11t3 22.5t15.5 22.5t21 11q6 0 8 -5 q4 -6 1 -14q-3 -11 -13.5 -19.5t-21.5 -10.5q1 -6 5 -6.5t8.5 1.5t8.5 5t6 5q12 10 17.5 22.5t10.5 25.5q1 1 -0.5 4.5t-4 7.5t-4 8.5t-0.5 7.5q5 13 17 11q6 0 8 -6q2 -5 1 -11t-1 -12q10 1 14 -0.5t-2 -13.5q-4 -8 -8.5 -16.5t-5.5 -17.5q0 -5 3 -5q10 0 17 10t12.5 22.5 l11 25t12.5 16.5q4 1 8 -1q1 -2 1 -6q-2 -6 -5 -10.5t-1 -11.5q3 -6 6.5 -12.5t2.5 -13.5h1q10 12 16 29.5t22 25.5q18 7 24 -10q5 -7 3 -12.5t-1 -13.5q4 1 7 5q8 6 9 17t4 20q2 2 5.5 2.5t5.5 -0.5q5 -1 4 -6v-1q5 5 12 8q5 3 8.5 1t5.5 -7q2 -6 0.5 -11t-4 -10.5l-5 -11 t-1.5 -11.5q7 6 12 13t9 14.5t8.5 14t12.5 11.5q10 5 25 0q2 3 8.5 4t4.5 -7q-2 -9 -7 -19t-5 -20q0 -7 4 -1q10 10 15 23.5t9.5 27t11.5 26t21 20.5q7 4 12 -4q6 -11 2 -23.5t-12 -20.5q-7 -9 -21 -21.5t-12 -25.5q2 -8 11 -6q7 3 10.5 9.5t7.5 12.5q2 1 6 1t4 -5l-2 -6 q-8 -19 -26 -26q-12 -7 -21 7q-2 2 -2 5zM878 485q-24 23 -54 37.5t-62 22.5q-1 -28 -1.5 -55t-2.5 -55l-1 1v-3q-13 -1 -31.5 -2t-36.5 -4.5t-33.5 -10.5t-23.5 -19q-4 -3 2 -4q13 -5 28 -6.5t30.5 -1.5h30.5t29 -1t28 -2.5t28 -6.5q14 -4 25 -11.5t24 -13.5q0 30 -10.5 52 t-39.5 33q17 15 34 28.5t37 21.5zM156 445q-29 -8 -57 -19.5t-55 -25.5q33 -18 53 -53q1 -1 -2 -7.5t-7 -14t-7.5 -14t-4.5 -9.5q-12 -22 -20 -46q25 13 51 19t53 10t53.5 7.5t52.5 11.5q-9 9 -23 12.5t-30 4t-32 -1t-27 -2.5v64t2 64zM385 166q0 5 -4 11h28q14 -6 25 -24.5 t17 -32.5q0 12 1 29t-6 28h36q-6 -5 -5.5 -12t0.5 -14v-120q0 -7 -0.5 -15.5t5.5 -13.5h-101q5 7 6.5 17t1 21.5t-2 22.5t-1.5 19v84zM334 177q18 0 26.5 -10t11.5 -24.5t2 -31t-1 -29.5v-39q0 -23 -13 -32.5t-35 -8.5q-19 0 -27.5 10t-11.5 24.5t-2 31t1 29.5q0 10 -0.5 19 t0.5 19q0 24 13 33t36 9zM281 551q6 0 10 -1q8 -1 13.5 -7.5t6.5 -15.5q3 -21 -11.5 -40.5t-32.5 -30.5q-9 -6 -13.5 -15.5l-9 -19t-10 -18.5t-16.5 -14q-11 -8 -26 -5q-6 2 -10 7t-3 12q0 11 7.5 18.5t17.5 9.5q3 1 7.5 -1t2.5 -7q-6 -4 -11 -4q-6 -2 -8 -8t1 -11 q2 -2 4 -2.5t4 -1.5q10 -1 16.5 5.5t11 16.5t6.5 20t4 17q-13 -13 -30 -17q-13 -2 -21 6q-8 4 -8 18q0 13 6 25q13 30 42 48q6 3 12.5 6t13.5 5q5 2 10.5 6t10.5 5q6 0 3 -6zM384 294q-2 7 -5 18.5t-4 23.5t1 22.5t10 16.5q5 5 15.5 5t14.5 -8q3 -8 -1 -10.5t-9 -2t-8.5 4 t0.5 7.5q-8 -4 -8.5 -14t3 -21.5t8.5 -22.5t7 -17q6 -18 8.5 -42.5t-10.5 -41.5q-5 -7 -16.5 -9.5t-24.5 -2.5t-26 1.5t-20 1.5q6 7 7.5 18t1 23.5t-2 24t-1.5 20.5v61q0 8 0.5 15t-5.5 14h37q-7 -6 -6 -16t1 -18v-69q0 -8 -1 -24t5 -23q7 -11 18.5 -4t13.5 16 q4 13 1.5 26.5t-4.5 26.5zM590 317q-2 -4 -7.5 -14.5t-10 -22t-5.5 -22t5 -13.5q-3 6 2 6.5t10.5 -2t7 -7t-8.5 -8.5q-12 -5 -17 4.5t-4 17.5q0 8 3 16t4 15t-2 11t-14 3v-76q8 0 20.5 -1.5t21.5 5.5q-3 -7 -4 -13t-3 -13h-68q5 6 5.5 12.5t0.5 13.5v121q0 7 -0.5 15 t-5.5 14h62q12 -12 12.5 -29t-4.5 -33zM502 374q0 -7 3.5 -14.5t6.5 -15t2.5 -14.5t-7.5 -13q-7 -5 -16.5 -4.5t-10.5 10.5q0 6 3.5 8.5t7.5 2.5t7 -2.5t2 -6.5q7 1 7 6t-4 10.5t-9 10t-9 5.5q-7 2 -16 0.5t-12 -9.5q-6 -12 -2 -21t12 -16t18 -13.5t16 -13.5q7 -10 11 -23 t2 -25.5t-10 -21.5t-23 -11q-13 -1 -26 -0.5t-27 0.5q4 2 2.5 9.5t-4 16.5t-4 18.5t3.5 15.5t16 6.5t13 -10.5q0 -5 -3.5 -7.5t-7.5 -2.5t-7 2t-3 7q-6 -2 -6 -7t3.5 -10t8.5 -9.5t8 -5.5q7 -2 17 -2t15 5q10 10 8 20t-9.5 18.5t-17.5 15.5t-15 12q-9 8 -15 20.5t-6 25.5 t6.5 23.5t21.5 13.5q13 3 26.5 2t25.5 -1zM146 -65l-21 -109h-21q-3 18 -5.5 36t-4.5 36q-2 -18 -5.5 -36t-6.5 -36h-21l-19 109h23q2 -20 3.5 -40.5t5.5 -40.5q2 20 5 40.5t7 40.5h18l12 -81q2 20 4.5 40.5t4.5 40.5h21zM252 -65l-21 -109h-20q-4 18 -6.5 36t-4.5 36 q-2 -18 -5 -36l-6 -36h-22l-18 109h22q2 -20 4 -40.5t5 -40.5q2 20 5 40.5t7 40.5h19l11 -81q2 20 4.5 40.5t4.5 40.5h21zM358 -65l-20 -109h-21q-4 18 -6 36t-5 36q-2 -18 -5 -36l-6 -36h-21l-19 109h22q2 -20 4.5 -40.5t4.5 -40.5q2 20 5 40.5t7 40.5h19l12 -81 q1 20 3.5 40.5t5.5 40.5h20zM546 -122q7 -3 10.5 -9.5t5 -14t2.5 -15t4 -13.5h-25q-3 6 -4 13.5t-3 14t-6 11t-13 3.5v-42h-26v108q14 2 31.5 3t30.5 -7q15 -11 11 -28t-18 -24zM748 -174h-25q-10 19 -18 38.5t-17 37.5q1 -19 1 -38v-38h-23v109h28l33 -74q-2 19 -2 37.5 v36.5h23v-109zM487 2q6 7 7.5 18t1 23t-2 23.5t-1.5 19.5v62q0 8 0.5 14.5t-5.5 14.5h37q-5 -5 -6.5 -15t-1 -20.5t1.5 -21t1 -17.5v-81h51q11 0 27 -1.5t27 6.5q-2 -4 -3.5 -14.5t-6.5 -10.5h-127zM478 -174h-25l-7 25h-26l-5 -25h-26l29 109h31zM848 -170 q-20 -8 -38.5 -4.5t-30.5 14.5t-16 29t7 39q6 14 19.5 21t30.5 7h5t8.5 -1t8 -2t3.5 -2l-4 -20q-13 6 -23.5 4t-18 -9t-10 -18t1.5 -23q8 -23 30 -20q5 1 4 10.5t-1 13.5h-13v20h37v-59zM573 90q-6 11 -10.5 22.5t-8.5 22.5q-5 11 -7 22.5t-11 19.5h38q-6 -14 1 -32t13 -30 q6 14 11 30.5t0 31.5h39q-11 -6 -13 -19t-5 -23t-11.5 -23.5t-8.5 -23.5q0 -11 -1.5 -27.5t6.5 -25.5h-37q9 9 7 26.5t-2 28.5zM347 135q0 8 -5 13.5t-11 7.5t-11.5 -1t-7.5 -11q-1 -7 -0.5 -14.5t0.5 -13.5q0 -18 -0.5 -36.5t0.5 -36.5q0 -8 4.5 -13t10.5 -7t11.5 0.5 t7.5 11.5q1 6 1 13.5v14.5v72zM451 17q-2 31 -10.5 62.5t-28.5 56.5v-113q0 -7 5.5 -11.5t12.5 -5.5t13.5 1.5t7.5 9.5zM262 536q-14 -3 -25.5 -11.5t-21.5 -18.5q-3 -3 -7.5 -12.5t-7.5 -19t-2 -17t11 -7.5q15 0 24 9.5t15 23t9 28.5zM582 -65h26v-109h-26v109zM259 464 q7 2 14.5 9.5t12.5 17t7 19.5t0 17q-3 11 -16 11q-7 -18 -10 -36.5t-8 -37.5zM553 323q10 0 22.5 1t13.5 16q0 8 -3.5 11.5t-9 5t-12 1.5h-11.5v-35zM635 553q-1 4 -2 6.5t-6 0.5q-8 -4 -12.5 -11.5t-6.5 -15.5q-2 -5 0.5 -13.5t10.5 -1.5q6 6 10.5 16t5.5 19zM486 510 q5 -7 12 -3q8 2 11.5 10.5t1.5 16.5q-1 5 -4.5 8t-10.5 -2q-10 -7 -12 -23zM349 -160q0 7 4.5 11t10.5 4t10.5 -4t4.5 -11q0 -8 -4.5 -11.5t-10.5 -3.5t-10.5 3.5t-4.5 11.5zM622 -160q0 7 4.5 11t10.5 4t10.5 -4t4.5 -11q0 -8 -4.5 -11.5t-10.5 -3.5t-10.5 3.5t-4.5 11.5z M523 -113q9 0 13 5t3 11t-5.5 10.5t-13.5 3.5q-5 -1 -4 -13t1 -17h6zM443 -130q-2 11 -4.5 22.5t-5.5 22.5l-10 -45h20zM437 518q-3 -4 -7 -11t-3 -12q2 -6 8 -5t7 7q1 9 -5 21zM320 482q6 -1 14 7.5t9 13.5q2 4 -1 6t-6 -1q-5 -5 -9 -12t-7 -14zM704 607q-18 -18 -24 -42 q8 10 15.5 19.5t9.5 22.5h-1zM383 539q0 4 0.5 6.5t-0.5 6.5q-3 0 -4 -3q-1 -4 2 -10h2z"/>
<glyph glyph-name="one" unicode="1" d="M17 397q34 18 67 33t71 26q2 0 4 10t4 22t4 23.5t4 15.5q11 17 33 26t38 17q43 17 87.5 30t89.5 25q46 11 92 19t93 12q16 2 39 4t46.5 1.5t45 -6t34.5 -18.5q1 -2 -1 -14t-3 -16l-3 -48q0 -2 2 -2q38 -11 74.5 -28.5t60.5 -50.5v-1q-8 2 -18 -1.5t-20 -10t-18.5 -13.5 t-13.5 -13q15 -8 24.5 -23t13.5 -32.5t3 -35.5t-6 -33q-8 21 -24.5 32.5t-36.5 17t-41.5 7t-40.5 2.5q-22 2 -46 1t-45 7q-8 3 -11 12.5t-3.5 21t1 22.5t2.5 18q-90 -7 -177.5 -27.5t-171.5 -49.5q-4 -1 -4 -3q1 -5 4 -16.5t5 -24.5t3 -24t-3 -14q-11 -9 -28.5 -10.5 t-31.5 -3.5q-19 -3 -38.5 -6t-38.5 -6q-17 -4 -32.5 -8.5t-30.5 -10.5q-7 -4 -14 -6.5t-14 -7.5q-4 -4 -9 -10t-8 -8q5 17 12 33t13 31q1 3 6.5 12.5t10.5 20t9 19t3 10.5q-12 17 -28.5 33t-38.5 18zM747 457q3 27 3 55t2 54q0 14 1 28t3 28q1 7 -3 11t-10 6.5t-13 3.5 t-13 2q-58 9 -120 0.5t-120 -20.5q-63 -13 -124.5 -29.5t-121.5 -42.5q-11 -6 -22.5 -12t-21.5 -14t-12 -24t-4 -27q-4 -32 -4 -64.5v-65.5q4 0 11 3t14 7.5t13.5 9t11.5 6.5q18 8 36.5 14.5t37.5 13.5q38 11 76 21t78 19q38 8 75.5 15.5t76.5 10.5q35 4 75.5 5.5 t74.5 -14.5zM660 519q-5 -4 -8 -7.5t-9 -5.5q-5 -2 -8 0l-6 4q-2 -2 -6 -4t-8 -3q-15 -3 -21 10v1q-4 -5 -8.5 -8.5t-11.5 -5.5q-7 -4 -12 6q-3 6 -1.5 11.5t4 10.5t4.5 10.5t1 11.5q-9 -4 -12.5 -9.5t-5.5 -12.5t-3 -14t-4 -14q-3 -8 -12 -4q-4 1 -4 5q0 2 0.5 4.5t0.5 3.5 q-7 -2 -9.5 -2t-7.5 -5t-12 -9t-15 -4q-5 1 -8 4t-5 7q-8 -8 -19.5 -16t-24.5 -6q-8 1 -12 9q-12 -14 -25 -18q-14 -6 -16 10q-2 13 4 21.5t11 18.5q1 2 -1.5 2.5t-3.5 -1.5q-4 -10 -9 -21.5t-12.5 -22t-17.5 -17t-23 -5.5q-15 1 -17.5 11t3 22.5t15.5 22.5t21 11q6 0 8 -5 q4 -6 1 -14q-3 -11 -13.5 -19.5t-21.5 -10.5q1 -6 5 -6.5t8.5 1.5t8.5 5t6 5q12 10 17.5 22.5t10.5 25.5q1 1 -0.5 4.5t-4 7.5t-4 8.5t-0.5 7.5q5 13 17 11q6 0 8 -6q2 -5 1 -11t-1 -12q10 1 14 -0.5t-2 -13.5q-4 -8 -8.5 -16.5t-5.5 -17.5q0 -5 3 -5q10 0 17 10t12.5 22.5 l11 25t12.5 16.5q4 1 8 -1q1 -2 1 -6q-2 -6 -5 -10.5t-1 -11.5q3 -6 6.5 -12.5t2.5 -13.5h1q10 12 16 29.5t22 25.5q18 7 24 -10q5 -7 3 -12.5t-1 -13.5q4 1 7 5q8 6 9 17t4 20q2 2 5.5 2.5t5.5 -0.5q5 -1 4 -6v-1q5 5 12 8q5 3 8.5 1t5.5 -7q2 -6 0.5 -11t-4 -10.5l-5 -11 t-1.5 -11.5q7 6 12 13t9 14.5t8.5 14t12.5 11.5q10 5 25 0q2 3 8.5 4t4.5 -7q-2 -9 -7 -19t-5 -20q0 -7 4 -1q10 10 15 23.5t9.5 27t11.5 26t21 20.5q7 4 12 -4q6 -11 2 -23.5t-12 -20.5q-7 -9 -21 -21.5t-12 -25.5q2 -8 11 -6q7 3 10.5 9.5t7.5 12.5q2 1 6 1t4 -5l-2 -6 q-8 -19 -26 -26q-12 -7 -21 7q-2 2 -2 5zM878 485q-24 23 -54 37.5t-62 22.5q-1 -28 -1.5 -55t-2.5 -55l-1 1v-3q-13 -1 -31.5 -2t-36.5 -4.5t-33.5 -10.5t-23.5 -19q-4 -3 2 -4q13 -5 28 -6.5t30.5 -1.5h30.5t29 -1t28 -2.5t28 -6.5q14 -4 25 -11.5t24 -13.5q0 30 -10.5 52 t-39.5 33q17 15 34 28.5t37 21.5zM156 445q-29 -8 -57 -19.5t-55 -25.5q33 -18 53 -53q1 -1 -2 -7.5t-7 -14t-7.5 -14t-4.5 -9.5q-12 -22 -20 -46q25 13 51 19t53 10t53.5 7.5t52.5 11.5q-9 9 -23 12.5t-30 4t-32 -1t-27 -2.5v64t2 64zM385 166q0 5 -4 11h28q14 -6 25 -24.5 t17 -32.5q0 12 1 29t-6 28h36q-6 -5 -5.5 -12t0.5 -14v-120q0 -7 -0.5 -15.5t5.5 -13.5h-101q5 7 6.5 17t1 21.5t-2 22.5t-1.5 19v84zM334 177q18 0 26.5 -10t11.5 -24.5t2 -31t-1 -29.5v-39q0 -23 -13 -32.5t-35 -8.5q-19 0 -27.5 10t-11.5 24.5t-2 31t1 29.5q0 10 -0.5 19 t0.5 19q0 24 13 33t36 9zM281 551q6 0 10 -1q8 -1 13.5 -7.5t6.5 -15.5q3 -21 -11.5 -40.5t-32.5 -30.5q-9 -6 -13.5 -15.5l-9 -19t-10 -18.5t-16.5 -14q-11 -8 -26 -5q-6 2 -10 7t-3 12q0 11 7.5 18.5t17.5 9.5q3 1 7.5 -1t2.5 -7q-6 -4 -11 -4q-6 -2 -8 -8t1 -11 q2 -2 4 -2.5t4 -1.5q10 -1 16.5 5.5t11 16.5t6.5 20t4 17q-13 -13 -30 -17q-13 -2 -21 6q-8 4 -8 18q0 13 6 25q13 30 42 48q6 3 12.5 6t13.5 5q5 2 10.5 6t10.5 5q6 0 3 -6zM384 294q-2 7 -5 18.5t-4 23.5t1 22.5t10 16.5q5 5 15.5 5t14.5 -8q3 -8 -1 -10.5t-9 -2t-8.5 4 t0.5 7.5q-8 -4 -8.5 -14t3 -21.5t8.5 -22.5t7 -17q6 -18 8.5 -42.5t-10.5 -41.5q-5 -7 -16.5 -9.5t-24.5 -2.5t-26 1.5t-20 1.5q6 7 7.5 18t1 23.5t-2 24t-1.5 20.5v61q0 8 0.5 15t-5.5 14h37q-7 -6 -6 -16t1 -18v-69q0 -8 -1 -24t5 -23q7 -11 18.5 -4t13.5 16 q4 13 1.5 26.5t-4.5 26.5zM590 317q-2 -4 -7.5 -14.5t-10 -22t-5.5 -22t5 -13.5q-3 6 2 6.5t10.5 -2t7 -7t-8.5 -8.5q-12 -5 -17 4.5t-4 17.5q0 8 3 16t4 15t-2 11t-14 3v-76q8 0 20.5 -1.5t21.5 5.5q-3 -7 -4 -13t-3 -13h-68q5 6 5.5 12.5t0.5 13.5v121q0 7 -0.5 15 t-5.5 14h62q12 -12 12.5 -29t-4.5 -33zM502 374q0 -7 3.5 -14.5t6.5 -15t2.5 -14.5t-7.5 -13q-7 -5 -16.5 -4.5t-10.5 10.5q0 6 3.5 8.5t7.5 2.5t7 -2.5t2 -6.5q7 1 7 6t-4 10.5t-9 10t-9 5.5q-7 2 -16 0.5t-12 -9.5q-6 -12 -2 -21t12 -16t18 -13.5t16 -13.5q7 -10 11 -23 t2 -25.5t-10 -21.5t-23 -11q-13 -1 -26 -0.5t-27 0.5q4 2 2.5 9.5t-4 16.5t-4 18.5t3.5 15.5t16 6.5t13 -10.5q0 -5 -3.5 -7.5t-7.5 -2.5t-7 2t-3 7q-6 -2 -6 -7t3.5 -10t8.5 -9.5t8 -5.5q7 -2 17 -2t15 5q10 10 8 20t-9.5 18.5t-17.5 15.5t-15 12q-9 8 -15 20.5t-6 25.5 t6.5 23.5t21.5 13.5q13 3 26.5 2t25.5 -1zM146 -65l-21 -109h-21q-3 18 -5.5 36t-4.5 36q-2 -18 -5.5 -36t-6.5 -36h-21l-19 109h23q2 -20 3.5 -40.5t5.5 -40.5q2 20 5 40.5t7 40.5h18l12 -81q2 20 4.5 40.5t4.5 40.5h21zM252 -65l-21 -109h-20q-4 18 -6.5 36t-4.5 36 q-2 -18 -5 -36l-6 -36h-22l-18 109h22q2 -20 4 -40.5t5 -40.5q2 20 5 40.5t7 40.5h19l11 -81q2 20 4.5 40.5t4.5 40.5h21zM358 -65l-20 -109h-21q-4 18 -6 36t-5 36q-2 -18 -5 -36l-6 -36h-21l-19 109h22q2 -20 4.5 -40.5t4.5 -40.5q2 20 5 40.5t7 40.5h19l12 -81 q1 20 3.5 40.5t5.5 40.5h20zM546 -122q7 -3 10.5 -9.5t5 -14t2.5 -15t4 -13.5h-25q-3 6 -4 13.5t-3 14t-6 11t-13 3.5v-42h-26v108q14 2 31.5 3t30.5 -7q15 -11 11 -28t-18 -24zM748 -174h-25q-10 19 -18 38.5t-17 37.5q1 -19 1 -38v-38h-23v109h28l33 -74q-2 19 -2 37.5 v36.5h23v-109zM487 2q6 7 7.5 18t1 23t-2 23.5t-1.5 19.5v62q0 8 0.5 14.5t-5.5 14.5h37q-5 -5 -6.5 -15t-1 -20.5t1.5 -21t1 -17.5v-81h51q11 0 27 -1.5t27 6.5q-2 -4 -3.5 -14.5t-6.5 -10.5h-127zM478 -174h-25l-7 25h-26l-5 -25h-26l29 109h31zM848 -170 q-20 -8 -38.5 -4.5t-30.5 14.5t-16 29t7 39q6 14 19.5 21t30.5 7h5t8.5 -1t8 -2t3.5 -2l-4 -20q-13 6 -23.5 4t-18 -9t-10 -18t1.5 -23q8 -23 30 -20q5 1 4 10.5t-1 13.5h-13v20h37v-59zM573 90q-6 11 -10.5 22.5t-8.5 22.5q-5 11 -7 22.5t-11 19.5h38q-6 -14 1 -32t13 -30 q6 14 11 30.5t0 31.5h39q-11 -6 -13 -19t-5 -23t-11.5 -23.5t-8.5 -23.5q0 -11 -1.5 -27.5t6.5 -25.5h-37q9 9 7 26.5t-2 28.5zM347 135q0 8 -5 13.5t-11 7.5t-11.5 -1t-7.5 -11q-1 -7 -0.5 -14.5t0.5 -13.5q0 -18 -0.5 -36.5t0.5 -36.5q0 -8 4.5 -13t10.5 -7t11.5 0.5 t7.5 11.5q1 6 1 13.5v14.5v72zM451 17q-2 31 -10.5 62.5t-28.5 56.5v-113q0 -7 5.5 -11.5t12.5 -5.5t13.5 1.5t7.5 9.5zM262 536q-14 -3 -25.5 -11.5t-21.5 -18.5q-3 -3 -7.5 -12.5t-7.5 -19t-2 -17t11 -7.5q15 0 24 9.5t15 23t9 28.5zM582 -65h26v-109h-26v109zM259 464 q7 2 14.5 9.5t12.5 17t7 19.5t0 17q-3 11 -16 11q-7 -18 -10 -36.5t-8 -37.5zM553 323q10 0 22.5 1t13.5 16q0 8 -3.5 11.5t-9 5t-12 1.5h-11.5v-35zM635 553q-1 4 -2 6.5t-6 0.5q-8 -4 -12.5 -11.5t-6.5 -15.5q-2 -5 0.5 -13.5t10.5 -1.5q6 6 10.5 16t5.5 19zM486 510 q5 -7 12 -3q8 2 11.5 10.5t1.5 16.5q-1 5 -4.5 8t-10.5 -2q-10 -7 -12 -23zM349 -160q0 7 4.5 11t10.5 4t10.5 -4t4.5 -11q0 -8 -4.5 -11.5t-10.5 -3.5t-10.5 3.5t-4.5 11.5zM622 -160q0 7 4.5 11t10.5 4t10.5 -4t4.5 -11q0 -8 -4.5 -11.5t-10.5 -3.5t-10.5 3.5t-4.5 11.5z M523 -113q9 0 13 5t3 11t-5.5 10.5t-13.5 3.5q-5 -1 -4 -13t1 -17h6zM443 -130q-2 11 -4.5 22.5t-5.5 22.5l-10 -45h20zM437 518q-3 -4 -7 -11t-3 -12q2 -6 8 -5t7 7q1 9 -5 21zM320 482q6 -1 14 7.5t9 13.5q2 4 -1 6t-6 -1q-5 -5 -9 -12t-7 -14zM704 607q-18 -18 -24 -42 q8 10 15.5 19.5t9.5 22.5h-1zM383 539q0 4 0.5 6.5t-0.5 6.5q-3 0 -4 -3q-1 -4 2 -10h2z"/>
<glyph glyph-name="two" unicode="2" d="M17 397q34 18 67 33t71 26q2 0 4 10t4 22t4 23.5t4 15.5q11 17 33 26t38 17q43 17 87.5 30t89.5 25q46 11 92 19t93 12q16 2 39 4t46.5 1.5t45 -6t34.5 -18.5q1 -2 -1 -14t-3 -16l-3 -48q0 -2 2 -2q38 -11 74.5 -28.5t60.5 -50.5v-1q-8 2 -18 -1.5t-20 -10t-18.5 -13.5 t-13.5 -13q15 -8 24.5 -23t13.5 -32.5t3 -35.5t-6 -33q-8 21 -24.5 32.5t-36.5 17t-41.5 7t-40.5 2.5q-22 2 -46 1t-45 7q-8 3 -11 12.5t-3.5 21t1 22.5t2.5 18q-90 -7 -177.5 -27.5t-171.5 -49.5q-4 -1 -4 -3q1 -5 4 -16.5t5 -24.5t3 -24t-3 -14q-11 -9 -28.5 -10.5 t-31.5 -3.5q-19 -3 -38.5 -6t-38.5 -6q-17 -4 -32.5 -8.5t-30.5 -10.5q-7 -4 -14 -6.5t-14 -7.5q-4 -4 -9 -10t-8 -8q5 17 12 33t13 31q1 3 6.5 12.5t10.5 20t9 19t3 10.5q-12 17 -28.5 33t-38.5 18zM747 457q3 27 3 55t2 54q0 14 1 28t3 28q1 7 -3 11t-10 6.5t-13 3.5 t-13 2q-58 9 -120 0.5t-120 -20.5q-63 -13 -124.5 -29.5t-121.5 -42.5q-11 -6 -22.5 -12t-21.5 -14t-12 -24t-4 -27q-4 -32 -4 -64.5v-65.5q4 0 11 3t14 7.5t13.5 9t11.5 6.5q18 8 36.5 14.5t37.5 13.5q38 11 76 21t78 19q38 8 75.5 15.5t76.5 10.5q35 4 75.5 5.5 t74.5 -14.5zM660 519q-5 -4 -8 -7.5t-9 -5.5q-5 -2 -8 0l-6 4q-2 -2 -6 -4t-8 -3q-15 -3 -21 10v1q-4 -5 -8.5 -8.5t-11.5 -5.5q-7 -4 -12 6q-3 6 -1.5 11.5t4 10.5t4.5 10.5t1 11.5q-9 -4 -12.5 -9.5t-5.5 -12.5t-3 -14t-4 -14q-3 -8 -12 -4q-4 1 -4 5q0 2 0.5 4.5t0.5 3.5 q-7 -2 -9.5 -2t-7.5 -5t-12 -9t-15 -4q-5 1 -8 4t-5 7q-8 -8 -19.5 -16t-24.5 -6q-8 1 -12 9q-12 -14 -25 -18q-14 -6 -16 10q-2 13 4 21.5t11 18.5q1 2 -1.5 2.5t-3.5 -1.5q-4 -10 -9 -21.5t-12.5 -22t-17.5 -17t-23 -5.5q-15 1 -17.5 11t3 22.5t15.5 22.5t21 11q6 0 8 -5 q4 -6 1 -14q-3 -11 -13.5 -19.5t-21.5 -10.5q1 -6 5 -6.5t8.5 1.5t8.5 5t6 5q12 10 17.5 22.5t10.5 25.5q1 1 -0.5 4.5t-4 7.5t-4 8.5t-0.5 7.5q5 13 17 11q6 0 8 -6q2 -5 1 -11t-1 -12q10 1 14 -0.5t-2 -13.5q-4 -8 -8.5 -16.5t-5.5 -17.5q0 -5 3 -5q10 0 17 10t12.5 22.5 l11 25t12.5 16.5q4 1 8 -1q1 -2 1 -6q-2 -6 -5 -10.5t-1 -11.5q3 -6 6.5 -12.5t2.5 -13.5h1q10 12 16 29.5t22 25.5q18 7 24 -10q5 -7 3 -12.5t-1 -13.5q4 1 7 5q8 6 9 17t4 20q2 2 5.5 2.5t5.5 -0.5q5 -1 4 -6v-1q5 5 12 8q5 3 8.5 1t5.5 -7q2 -6 0.5 -11t-4 -10.5l-5 -11 t-1.5 -11.5q7 6 12 13t9 14.5t8.5 14t12.5 11.5q10 5 25 0q2 3 8.5 4t4.5 -7q-2 -9 -7 -19t-5 -20q0 -7 4 -1q10 10 15 23.5t9.5 27t11.5 26t21 20.5q7 4 12 -4q6 -11 2 -23.5t-12 -20.5q-7 -9 -21 -21.5t-12 -25.5q2 -8 11 -6q7 3 10.5 9.5t7.5 12.5q2 1 6 1t4 -5l-2 -6 q-8 -19 -26 -26q-12 -7 -21 7q-2 2 -2 5zM878 485q-24 23 -54 37.5t-62 22.5q-1 -28 -1.5 -55t-2.5 -55l-1 1v-3q-13 -1 -31.5 -2t-36.5 -4.5t-33.5 -10.5t-23.5 -19q-4 -3 2 -4q13 -5 28 -6.5t30.5 -1.5h30.5t29 -1t28 -2.5t28 -6.5q14 -4 25 -11.5t24 -13.5q0 30 -10.5 52 t-39.5 33q17 15 34 28.5t37 21.5zM156 445q-29 -8 -57 -19.5t-55 -25.5q33 -18 53 -53q1 -1 -2 -7.5t-7 -14t-7.5 -14t-4.5 -9.5q-12 -22 -20 -46q25 13 51 19t53 10t53.5 7.5t52.5 11.5q-9 9 -23 12.5t-30 4t-32 -1t-27 -2.5v64t2 64zM385 166q0 5 -4 11h28q14 -6 25 -24.5 t17 -32.5q0 12 1 29t-6 28h36q-6 -5 -5.5 -12t0.5 -14v-120q0 -7 -0.5 -15.5t5.5 -13.5h-101q5 7 6.5 17t1 21.5t-2 22.5t-1.5 19v84zM334 177q18 0 26.5 -10t11.5 -24.5t2 -31t-1 -29.5v-39q0 -23 -13 -32.5t-35 -8.5q-19 0 -27.5 10t-11.5 24.5t-2 31t1 29.5q0 10 -0.5 19 t0.5 19q0 24 13 33t36 9zM281 551q6 0 10 -1q8 -1 13.5 -7.5t6.5 -15.5q3 -21 -11.5 -40.5t-32.5 -30.5q-9 -6 -13.5 -15.5l-9 -19t-10 -18.5t-16.5 -14q-11 -8 -26 -5q-6 2 -10 7t-3 12q0 11 7.5 18.5t17.5 9.5q3 1 7.5 -1t2.5 -7q-6 -4 -11 -4q-6 -2 -8 -8t1 -11 q2 -2 4 -2.5t4 -1.5q10 -1 16.5 5.5t11 16.5t6.5 20t4 17q-13 -13 -30 -17q-13 -2 -21 6q-8 4 -8 18q0 13 6 25q13 30 42 48q6 3 12.5 6t13.5 5q5 2 10.5 6t10.5 5q6 0 3 -6zM384 294q-2 7 -5 18.5t-4 23.5t1 22.5t10 16.5q5 5 15.5 5t14.5 -8q3 -8 -1 -10.5t-9 -2t-8.5 4 t0.5 7.5q-8 -4 -8.5 -14t3 -21.5t8.5 -22.5t7 -17q6 -18 8.5 -42.5t-10.5 -41.5q-5 -7 -16.5 -9.5t-24.5 -2.5t-26 1.5t-20 1.5q6 7 7.5 18t1 23.5t-2 24t-1.5 20.5v61q0 8 0.5 15t-5.5 14h37q-7 -6 -6 -16t1 -18v-69q0 -8 -1 -24t5 -23q7 -11 18.5 -4t13.5 16 q4 13 1.5 26.5t-4.5 26.5zM590 317q-2 -4 -7.5 -14.5t-10 -22t-5.5 -22t5 -13.5q-3 6 2 6.5t10.5 -2t7 -7t-8.5 -8.5q-12 -5 -17 4.5t-4 17.5q0 8 3 16t4 15t-2 11t-14 3v-76q8 0 20.5 -1.5t21.5 5.5q-3 -7 -4 -13t-3 -13h-68q5 6 5.5 12.5t0.5 13.5v121q0 7 -0.5 15 t-5.5 14h62q12 -12 12.5 -29t-4.5 -33zM502 374q0 -7 3.5 -14.5t6.5 -15t2.5 -14.5t-7.5 -13q-7 -5 -16.5 -4.5t-10.5 10.5q0 6 3.5 8.5t7.5 2.5t7 -2.5t2 -6.5q7 1 7 6t-4 10.5t-9 10t-9 5.5q-7 2 -16 0.5t-12 -9.5q-6 -12 -2 -21t12 -16t18 -13.5t16 -13.5q7 -10 11 -23 t2 -25.5t-10 -21.5t-23 -11q-13 -1 -26 -0.5t-27 0.5q4 2 2.5 9.5t-4 16.5t-4 18.5t3.5 15.5t16 6.5t13 -10.5q0 -5 -3.5 -7.5t-7.5 -2.5t-7 2t-3 7q-6 -2 -6 -7t3.5 -10t8.5 -9.5t8 -5.5q7 -2 17 -2t15 5q10 10 8 20t-9.5 18.5t-17.5 15.5t-15 12q-9 8 -15 20.5t-6 25.5 t6.5 23.5t21.5 13.5q13 3 26.5 2t25.5 -1zM146 -65l-21 -109h-21q-3 18 -5.5 36t-4.5 36q-2 -18 -5.5 -36t-6.5 -36h-21l-19 109h23q2 -20 3.5 -40.5t5.5 -40.5q2 20 5 40.5t7 40.5h18l12 -81q2 20 4.5 40.5t4.5 40.5h21zM252 -65l-21 -109h-20q-4 18 -6.5 36t-4.5 36 q-2 -18 -5 -36l-6 -36h-22l-18 109h22q2 -20 4 -40.5t5 -40.5q2 20 5 40.5t7 40.5h19l11 -81q2 20 4.5 40.5t4.5 40.5h21zM358 -65l-20 -109h-21q-4 18 -6 36t-5 36q-2 -18 -5 -36l-6 -36h-21l-19 109h22q2 -20 4.5 -40.5t4.5 -40.5q2 20 5 40.5t7 40.5h19l12 -81 q1 20 3.5 40.5t5.5 40.5h20zM546 -122q7 -3 10.5 -9.5t5 -14t2.5 -15t4 -13.5h-25q-3 6 -4 13.5t-3 14t-6 11t-13 3.5v-42h-26v108q14 2 31.5 3t30.5 -7q15 -11 11 -28t-18 -24zM748 -174h-25q-10 19 -18 38.5t-17 37.5q1 -19 1 -38v-38h-23v109h28l33 -74q-2 19 -2 37.5 v36.5h23v-109zM487 2q6 7 7.5 18t1 23t-2 23.5t-1.5 19.5v62q0 8 0.5 14.5t-5.5 14.5h37q-5 -5 -6.5 -15t-1 -20.5t1.5 -21t1 -17.5v-81h51q11 0 27 -1.5t27 6.5q-2 -4 -3.5 -14.5t-6.5 -10.5h-127zM478 -174h-25l-7 25h-26l-5 -25h-26l29 109h31zM848 -170 q-20 -8 -38.5 -4.5t-30.5 14.5t-16 29t7 39q6 14 19.5 21t30.5 7h5t8.5 -1t8 -2t3.5 -2l-4 -20q-13 6 -23.5 4t-18 -9t-10 -18t1.5 -23q8 -23 30 -20q5 1 4 10.5t-1 13.5h-13v20h37v-59zM573 90q-6 11 -10.5 22.5t-8.5 22.5q-5 11 -7 22.5t-11 19.5h38q-6 -14 1 -32t13 -30 q6 14 11 30.5t0 31.5h39q-11 -6 -13 -19t-5 -23t-11.5 -23.5t-8.5 -23.5q0 -11 -1.5 -27.5t6.5 -25.5h-37q9 9 7 26.5t-2 28.5zM347 135q0 8 -5 13.5t-11 7.5t-11.5 -1t-7.5 -11q-1 -7 -0.5 -14.5t0.5 -13.5q0 -18 -0.5 -36.5t0.5 -36.5q0 -8 4.5 -13t10.5 -7t11.5 0.5 t7.5 11.5q1 6 1 13.5v14.5v72zM451 17q-2 31 -10.5 62.5t-28.5 56.5v-113q0 -7 5.5 -11.5t12.5 -5.5t13.5 1.5t7.5 9.5zM262 536q-14 -3 -25.5 -11.5t-21.5 -18.5q-3 -3 -7.5 -12.5t-7.5 -19t-2 -17t11 -7.5q15 0 24 9.5t15 23t9 28.5zM582 -65h26v-109h-26v109zM259 464 q7 2 14.5 9.5t12.5 17t7 19.5t0 17q-3 11 -16 11q-7 -18 -10 -36.5t-8 -37.5zM553 323q10 0 22.5 1t13.5 16q0 8 -3.5 11.5t-9 5t-12 1.5h-11.5v-35zM635 553q-1 4 -2 6.5t-6 0.5q-8 -4 -12.5 -11.5t-6.5 -15.5q-2 -5 0.5 -13.5t10.5 -1.5q6 6 10.5 16t5.5 19zM486 510 q5 -7 12 -3q8 2 11.5 10.5t1.5 16.5q-1 5 -4.5 8t-10.5 -2q-10 -7 -12 -23zM349 -160q0 7 4.5 11t10.5 4t10.5 -4t4.5 -11q0 -8 -4.5 -11.5t-10.5 -3.5t-10.5 3.5t-4.5 11.5zM622 -160q0 7 4.5 11t10.5 4t10.5 -4t4.5 -11q0 -8 -4.5 -11.5t-10.5 -3.5t-10.5 3.5t-4.5 11.5z M523 -113q9 0 13 5t3 11t-5.5 10.5t-13.5 3.5q-5 -1 -4 -13t1 -17h6zM443 -130q-2 11 -4.5 22.5t-5.5 22.5l-10 -45h20zM437 518q-3 -4 -7 -11t-3 -12q2 -6 8 -5t7 7q1 9 -5 21zM320 482q6 -1 14 7.5t9 13.5q2 4 -1 6t-6 -1q-5 -5 -9 -12t-7 -14zM704 607q-18 -18 -24 -42 q8 10 15.5 19.5t9.5 22.5h-1zM383 539q0 4 0.5 6.5t-0.5 6.5q-3 0 -4 -3q-1 -4 2 -10h2z"/>
<glyph glyph-name="three" unicode="3" d="M17 397q34 18 67 33t71 26q2 0 4 10t4 22t4 23.5t4 15.5q11 17 33 26t38 17q43 17 87.5 30t89.5 25q46 11 92 19t93 12q16 2 39 4t46.5 1.5t45 -6t34.5 -18.5q1 -2 -1 -14t-3 -16l-3 -48q0 -2 2 -2q38 -11 74.5 -28.5t60.5 -50.5v-1q-8 2 -18 -1.5t-20 -10t-18.5 -13.5 t-13.5 -13q15 -8 24.5 -23t13.5 -32.5t3 -35.5t-6 -33q-8 21 -24.5 32.5t-36.5 17t-41.5 7t-40.5 2.5q-22 2 -46 1t-45 7q-8 3 -11 12.5t-3.5 21t1 22.5t2.5 18q-90 -7 -177.5 -27.5t-171.5 -49.5q-4 -1 -4 -3q1 -5 4 -16.5t5 -24.5t3 -24t-3 -14q-11 -9 -28.5 -10.5 t-31.5 -3.5q-19 -3 -38.5 -6t-38.5 -6q-17 -4 -32.5 -8.5t-30.5 -10.5q-7 -4 -14 -6.5t-14 -7.5q-4 -4 -9 -10t-8 -8q5 17 12 33t13 31q1 3 6.5 12.5t10.5 20t9 19t3 10.5q-12 17 -28.5 33t-38.5 18zM747 457q3 27 3 55t2 54q0 14 1 28t3 28q1 7 -3 11t-10 6.5t-13 3.5 t-13 2q-58 9 -120 0.5t-120 -20.5q-63 -13 -124.5 -29.5t-121.5 -42.5q-11 -6 -22.5 -12t-21.5 -14t-12 -24t-4 -27q-4 -32 -4 -64.5v-65.5q4 0 11 3t14 7.5t13.5 9t11.5 6.5q18 8 36.5 14.5t37.5 13.5q38 11 76 21t78 19q38 8 75.5 15.5t76.5 10.5q35 4 75.5 5.5 t74.5 -14.5zM660 519q-5 -4 -8 -7.5t-9 -5.5q-5 -2 -8 0l-6 4q-2 -2 -6 -4t-8 -3q-15 -3 -21 10v1q-4 -5 -8.5 -8.5t-11.5 -5.5q-7 -4 -12 6q-3 6 -1.5 11.5t4 10.5t4.5 10.5t1 11.5q-9 -4 -12.5 -9.5t-5.5 -12.5t-3 -14t-4 -14q-3 -8 -12 -4q-4 1 -4 5q0 2 0.5 4.5t0.5 3.5 q-7 -2 -9.5 -2t-7.5 -5t-12 -9t-15 -4q-5 1 -8 4t-5 7q-8 -8 -19.5 -16t-24.5 -6q-8 1 -12 9q-12 -14 -25 -18q-14 -6 -16 10q-2 13 4 21.5t11 18.5q1 2 -1.5 2.5t-3.5 -1.5q-4 -10 -9 -21.5t-12.5 -22t-17.5 -17t-23 -5.5q-15 1 -17.5 11t3 22.5t15.5 22.5t21 11q6 0 8 -5 q4 -6 1 -14q-3 -11 -13.5 -19.5t-21.5 -10.5q1 -6 5 -6.5t8.5 1.5t8.5 5t6 5q12 10 17.5 22.5t10.5 25.5q1 1 -0.5 4.5t-4 7.5t-4 8.5t-0.5 7.5q5 13 17 11q6 0 8 -6q2 -5 1 -11t-1 -12q10 1 14 -0.5t-2 -13.5q-4 -8 -8.5 -16.5t-5.5 -17.5q0 -5 3 -5q10 0 17 10t12.5 22.5 l11 25t12.5 16.5q4 1 8 -1q1 -2 1 -6q-2 -6 -5 -10.5t-1 -11.5q3 -6 6.5 -12.5t2.5 -13.5h1q10 12 16 29.5t22 25.5q18 7 24 -10q5 -7 3 -12.5t-1 -13.5q4 1 7 5q8 6 9 17t4 20q2 2 5.5 2.5t5.5 -0.5q5 -1 4 -6v-1q5 5 12 8q5 3 8.5 1t5.5 -7q2 -6 0.5 -11t-4 -10.5l-5 -11 t-1.5 -11.5q7 6 12 13t9 14.5t8.5 14t12.5 11.5q10 5 25 0q2 3 8.5 4t4.5 -7q-2 -9 -7 -19t-5 -20q0 -7 4 -1q10 10 15 23.5t9.5 27t11.5 26t21 20.5q7 4 12 -4q6 -11 2 -23.5t-12 -20.5q-7 -9 -21 -21.5t-12 -25.5q2 -8 11 -6q7 3 10.5 9.5t7.5 12.5q2 1 6 1t4 -5l-2 -6 q-8 -19 -26 -26q-12 -7 -21 7q-2 2 -2 5zM878 485q-24 23 -54 37.5t-62 22.5q-1 -28 -1.5 -55t-2.5 -55l-1 1v-3q-13 -1 -31.5 -2t-36.5 -4.5t-33.5 -10.5t-23.5 -19q-4 -3 2 -4q13 -5 28 -6.5t30.5 -1.5h30.5t29 -1t28 -2.5t28 -6.5q14 -4 25 -11.5t24 -13.5q0 30 -10.5 52 t-39.5 33q17 15 34 28.5t37 21.5zM156 445q-29 -8 -57 -19.5t-55 -25.5q33 -18 53 -53q1 -1 -2 -7.5t-7 -14t-7.5 -14t-4.5 -9.5q-12 -22 -20 -46q25 13 51 19t53 10t53.5 7.5t52.5 11.5q-9 9 -23 12.5t-30 4t-32 -1t-27 -2.5v64t2 64zM385 166q0 5 -4 11h28q14 -6 25 -24.5 t17 -32.5q0 12 1 29t-6 28h36q-6 -5 -5.5 -12t0.5 -14v-120q0 -7 -0.5 -15.5t5.5 -13.5h-101q5 7 6.5 17t1 21.5t-2 22.5t-1.5 19v84zM334 177q18 0 26.5 -10t11.5 -24.5t2 -31t-1 -29.5v-39q0 -23 -13 -32.5t-35 -8.5q-19 0 -27.5 10t-11.5 24.5t-2 31t1 29.5q0 10 -0.5 19 t0.5 19q0 24 13 33t36 9zM281 551q6 0 10 -1q8 -1 13.5 -7.5t6.5 -15.5q3 -21 -11.5 -40.5t-32.5 -30.5q-9 -6 -13.5 -15.5l-9 -19t-10 -18.5t-16.5 -14q-11 -8 -26 -5q-6 2 -10 7t-3 12q0 11 7.5 18.5t17.5 9.5q3 1 7.5 -1t2.5 -7q-6 -4 -11 -4q-6 -2 -8 -8t1 -11 q2 -2 4 -2.5t4 -1.5q10 -1 16.5 5.5t11 16.5t6.5 20t4 17q-13 -13 -30 -17q-13 -2 -21 6q-8 4 -8 18q0 13 6 25q13 30 42 48q6 3 12.5 6t13.5 5q5 2 10.5 6t10.5 5q6 0 3 -6zM384 294q-2 7 -5 18.5t-4 23.5t1 22.5t10 16.5q5 5 15.5 5t14.5 -8q3 -8 -1 -10.5t-9 -2t-8.5 4 t0.5 7.5q-8 -4 -8.5 -14t3 -21.5t8.5 -22.5t7 -17q6 -18 8.5 -42.5t-10.5 -41.5q-5 -7 -16.5 -9.5t-24.5 -2.5t-26 1.5t-20 1.5q6 7 7.5 18t1 23.5t-2 24t-1.5 20.5v61q0 8 0.5 15t-5.5 14h37q-7 -6 -6 -16t1 -18v-69q0 -8 -1 -24t5 -23q7 -11 18.5 -4t13.5 16 q4 13 1.5 26.5t-4.5 26.5zM590 317q-2 -4 -7.5 -14.5t-10 -22t-5.5 -22t5 -13.5q-3 6 2 6.5t10.5 -2t7 -7t-8.5 -8.5q-12 -5 -17 4.5t-4 17.5q0 8 3 16t4 15t-2 11t-14 3v-76q8 0 20.5 -1.5t21.5 5.5q-3 -7 -4 -13t-3 -13h-68q5 6 5.5 12.5t0.5 13.5v121q0 7 -0.5 15 t-5.5 14h62q12 -12 12.5 -29t-4.5 -33zM502 374q0 -7 3.5 -14.5t6.5 -15t2.5 -14.5t-7.5 -13q-7 -5 -16.5 -4.5t-10.5 10.5q0 6 3.5 8.5t7.5 2.5t7 -2.5t2 -6.5q7 1 7 6t-4 10.5t-9 10t-9 5.5q-7 2 -16 0.5t-12 -9.5q-6 -12 -2 -21t12 -16t18 -13.5t16 -13.5q7 -10 11 -23 t2 -25.5t-10 -21.5t-23 -11q-13 -1 -26 -0.5t-27 0.5q4 2 2.5 9.5t-4 16.5t-4 18.5t3.5 15.5t16 6.5t13 -10.5q0 -5 -3.5 -7.5t-7.5 -2.5t-7 2t-3 7q-6 -2 -6 -7t3.5 -10t8.5 -9.5t8 -5.5q7 -2 17 -2t15 5q10 10 8 20t-9.5 18.5t-17.5 15.5t-15 12q-9 8 -15 20.5t-6 25.5 t6.5 23.5t21.5 13.5q13 3 26.5 2t25.5 -1zM146 -65l-21 -109h-21q-3 18 -5.5 36t-4.5 36q-2 -18 -5.5 -36t-6.5 -36h-21l-19 109h23q2 -20 3.5 -40.5t5.5 -40.5q2 20 5 40.5t7 40.5h18l12 -81q2 20 4.5 40.5t4.5 40.5h21zM252 -65l-21 -109h-20q-4 18 -6.5 36t-4.5 36 q-2 -18 -5 -36l-6 -36h-22l-18 109h22q2 -20 4 -40.5t5 -40.5q2 20 5 40.5t7 40.5h19l11 -81q2 20 4.5 40.5t4.5 40.5h21zM358 -65l-20 -109h-21q-4 18 -6 36t-5 36q-2 -18 -5 -36l-6 -36h-21l-19 109h22q2 -20 4.5 -40.5t4.5 -40.5q2 20 5 40.5t7 40.5h19l12 -81 q1 20 3.5 40.5t5.5 40.5h20zM546 -122q7 -3 10.5 -9.5t5 -14t2.5 -15t4 -13.5h-25q-3 6 -4 13.5t-3 14t-6 11t-13 3.5v-42h-26v108q14 2 31.5 3t30.5 -7q15 -11 11 -28t-18 -24zM748 -174h-25q-10 19 -18 38.5t-17 37.5q1 -19 1 -38v-38h-23v109h28l33 -74q-2 19 -2 37.5 v36.5h23v-109zM487 2q6 7 7.5 18t1 23t-2 23.5t-1.5 19.5v62q0 8 0.5 14.5t-5.5 14.5h37q-5 -5 -6.5 -15t-1 -20.5t1.5 -21t1 -17.5v-81h51q11 0 27 -1.5t27 6.5q-2 -4 -3.5 -14.5t-6.5 -10.5h-127zM478 -174h-25l-7 25h-26l-5 -25h-26l29 109h31zM848 -170 q-20 -8 -38.5 -4.5t-30.5 14.5t-16 29t7 39q6 14 19.5 21t30.5 7h5t8.5 -1t8 -2t3.5 -2l-4 -20q-13 6 -23.5 4t-18 -9t-10 -18t1.5 -23q8 -23 30 -20q5 1 4 10.5t-1 13.5h-13v20h37v-59zM573 90q-6 11 -10.5 22.5t-8.5 22.5q-5 11 -7 22.5t-11 19.5h38q-6 -14 1 -32t13 -30 q6 14 11 30.5t0 31.5h39q-11 -6 -13 -19t-5 -23t-11.5 -23.5t-8.5 -23.5q0 -11 -1.5 -27.5t6.5 -25.5h-37q9 9 7 26.5t-2 28.5zM347 135q0 8 -5 13.5t-11 7.5t-11.5 -1t-7.5 -11q-1 -7 -0.5 -14.5t0.5 -13.5q0 -18 -0.5 -36.5t0.5 -36.5q0 -8 4.5 -13t10.5 -7t11.5 0.5 t7.5 11.5q1 6 1 13.5v14.5v72zM451 17q-2 31 -10.5 62.5t-28.5 56.5v-113q0 -7 5.5 -11.5t12.5 -5.5t13.5 1.5t7.5 9.5zM262 536q-14 -3 -25.5 -11.5t-21.5 -18.5q-3 -3 -7.5 -12.5t-7.5 -19t-2 -17t11 -7.5q15 0 24 9.5t15 23t9 28.5zM582 -65h26v-109h-26v109zM259 464 q7 2 14.5 9.5t12.5 17t7 19.5t0 17q-3 11 -16 11q-7 -18 -10 -36.5t-8 -37.5zM553 323q10 0 22.5 1t13.5 16q0 8 -3.5 11.5t-9 5t-12 1.5h-11.5v-35zM635 553q-1 4 -2 6.5t-6 0.5q-8 -4 -12.5 -11.5t-6.5 -15.5q-2 -5 0.5 -13.5t10.5 -1.5q6 6 10.5 16t5.5 19zM486 510 q5 -7 12 -3q8 2 11.5 10.5t1.5 16.5q-1 5 -4.5 8t-10.5 -2q-10 -7 -12 -23zM349 -160q0 7 4.5 11t10.5 4t10.5 -4t4.5 -11q0 -8 -4.5 -11.5t-10.5 -3.5t-10.5 3.5t-4.5 11.5zM622 -160q0 7 4.5 11t10.5 4t10.5 -4t4.5 -11q0 -8 -4.5 -11.5t-10.5 -3.5t-10.5 3.5t-4.5 11.5z M523 -113q9 0 13 5t3 11t-5.5 10.5t-13.5 3.5q-5 -1 -4 -13t1 -17h6zM443 -130q-2 11 -4.5 22.5t-5.5 22.5l-10 -45h20zM437 518q-3 -4 -7 -11t-3 -12q2 -6 8 -5t7 7q1 9 -5 21zM320 482q6 -1 14 7.5t9 13.5q2 4 -1 6t-6 -1q-5 -5 -9 -12t-7 -14zM704 607q-18 -18 -24 -42 q8 10 15.5 19.5t9.5 22.5h-1zM383 539q0 4 0.5 6.5t-0.5 6.5q-3 0 -4 -3q-1 -4 2 -10h2z"/>
<glyph glyph-name="four" unicode="4" d="M17 397q34 18 67 33t71 26q2 0 4 10t4 22t4 23.5t4 15.5q11 17 33 26t38 17q43 17 87.5 30t89.5 25q46 11 92 19t93 12q16 2 39 4t46.5 1.5t45 -6t34.5 -18.5q1 -2 -1 -14t-3 -16l-3 -48q0 -2 2 -2q38 -11 74.5 -28.5t60.5 -50.5v-1q-8 2 -18 -1.5t-20 -10t-18.5 -13.5 t-13.5 -13q15 -8 24.5 -23t13.5 -32.5t3 -35.5t-6 -33q-8 21 -24.5 32.5t-36.5 17t-41.5 7t-40.5 2.5q-22 2 -46 1t-45 7q-8 3 -11 12.5t-3.5 21t1 22.5t2.5 18q-90 -7 -177.5 -27.5t-171.5 -49.5q-4 -1 -4 -3q1 -5 4 -16.5t5 -24.5t3 -24t-3 -14q-11 -9 -28.5 -10.5 t-31.5 -3.5q-19 -3 -38.5 -6t-38.5 -6q-17 -4 -32.5 -8.5t-30.5 -10.5q-7 -4 -14 -6.5t-14 -7.5q-4 -4 -9 -10t-8 -8q5 17 12 33t13 31q1 3 6.5 12.5t10.5 20t9 19t3 10.5q-12 17 -28.5 33t-38.5 18zM747 457q3 27 3 55t2 54q0 14 1 28t3 28q1 7 -3 11t-10 6.5t-13 3.5 t-13 2q-58 9 -120 0.5t-120 -20.5q-63 -13 -124.5 -29.5t-121.5 -42.5q-11 -6 -22.5 -12t-21.5 -14t-12 -24t-4 -27q-4 -32 -4 -64.5v-65.5q4 0 11 3t14 7.5t13.5 9t11.5 6.5q18 8 36.5 14.5t37.5 13.5q38 11 76 21t78 19q38 8 75.5 15.5t76.5 10.5q35 4 75.5 5.5 t74.5 -14.5zM660 519q-5 -4 -8 -7.5t-9 -5.5q-5 -2 -8 0l-6 4q-2 -2 -6 -4t-8 -3q-15 -3 -21 10v1q-4 -5 -8.5 -8.5t-11.5 -5.5q-7 -4 -12 6q-3 6 -1.5 11.5t4 10.5t4.5 10.5t1 11.5q-9 -4 -12.5 -9.5t-5.5 -12.5t-3 -14t-4 -14q-3 -8 -12 -4q-4 1 -4 5q0 2 0.5 4.5t0.5 3.5 q-7 -2 -9.5 -2t-7.5 -5t-12 -9t-15 -4q-5 1 -8 4t-5 7q-8 -8 -19.5 -16t-24.5 -6q-8 1 -12 9q-12 -14 -25 -18q-14 -6 -16 10q-2 13 4 21.5t11 18.5q1 2 -1.5 2.5t-3.5 -1.5q-4 -10 -9 -21.5t-12.5 -22t-17.5 -17t-23 -5.5q-15 1 -17.5 11t3 22.5t15.5 22.5t21 11q6 0 8 -5 q4 -6 1 -14q-3 -11 -13.5 -19.5t-21.5 -10.5q1 -6 5 -6.5t8.5 1.5t8.5 5t6 5q12 10 17.5 22.5t10.5 25.5q1 1 -0.5 4.5t-4 7.5t-4 8.5t-0.5 7.5q5 13 17 11q6 0 8 -6q2 -5 1 -11t-1 -12q10 1 14 -0.5t-2 -13.5q-4 -8 -8.5 -16.5t-5.5 -17.5q0 -5 3 -5q10 0 17 10t12.5 22.5 l11 25t12.5 16.5q4 1 8 -1q1 -2 1 -6q-2 -6 -5 -10.5t-1 -11.5q3 -6 6.5 -12.5t2.5 -13.5h1q10 12 16 29.5t22 25.5q18 7 24 -10q5 -7 3 -12.5t-1 -13.5q4 1 7 5q8 6 9 17t4 20q2 2 5.5 2.5t5.5 -0.5q5 -1 4 -6v-1q5 5 12 8q5 3 8.5 1t5.5 -7q2 -6 0.5 -11t-4 -10.5l-5 -11 t-1.5 -11.5q7 6 12 13t9 14.5t8.5 14t12.5 11.5q10 5 25 0q2 3 8.5 4t4.5 -7q-2 -9 -7 -19t-5 -20q0 -7 4 -1q10 10 15 23.5t9.5 27t11.5 26t21 20.5q7 4 12 -4q6 -11 2 -23.5t-12 -20.5q-7 -9 -21 -21.5t-12 -25.5q2 -8 11 -6q7 3 10.5 9.5t7.5 12.5q2 1 6 1t4 -5l-2 -6 q-8 -19 -26 -26q-12 -7 -21 7q-2 2 -2 5zM878 485q-24 23 -54 37.5t-62 22.5q-1 -28 -1.5 -55t-2.5 -55l-1 1v-3q-13 -1 -31.5 -2t-36.5 -4.5t-33.5 -10.5t-23.5 -19q-4 -3 2 -4q13 -5 28 -6.5t30.5 -1.5h30.5t29 -1t28 -2.5t28 -6.5q14 -4 25 -11.5t24 -13.5q0 30 -10.5 52 t-39.5 33q17 15 34 28.5t37 21.5zM156 445q-29 -8 -57 -19.5t-55 -25.5q33 -18 53 -53q1 -1 -2 -7.5t-7 -14t-7.5 -14t-4.5 -9.5q-12 -22 -20 -46q25 13 51 19t53 10t53.5 7.5t52.5 11.5q-9 9 -23 12.5t-30 4t-32 -1t-27 -2.5v64t2 64zM385 166q0 5 -4 11h28q14 -6 25 -24.5 t17 -32.5q0 12 1 29t-6 28h36q-6 -5 -5.5 -12t0.5 -14v-120q0 -7 -0.5 -15.5t5.5 -13.5h-101q5 7 6.5 17t1 21.5t-2 22.5t-1.5 19v84zM334 177q18 0 26.5 -10t11.5 -24.5t2 -31t-1 -29.5v-39q0 -23 -13 -32.5t-35 -8.5q-19 0 -27.5 10t-11.5 24.5t-2 31t1 29.5q0 10 -0.5 19 t0.5 19q0 24 13 33t36 9zM281 551q6 0 10 -1q8 -1 13.5 -7.5t6.5 -15.5q3 -21 -11.5 -40.5t-32.5 -30.5q-9 -6 -13.5 -15.5l-9 -19t-10 -18.5t-16.5 -14q-11 -8 -26 -5q-6 2 -10 7t-3 12q0 11 7.5 18.5t17.5 9.5q3 1 7.5 -1t2.5 -7q-6 -4 -11 -4q-6 -2 -8 -8t1 -11 q2 -2 4 -2.5t4 -1.5q10 -1 16.5 5.5t11 16.5t6.5 20t4 17q-13 -13 -30 -17q-13 -2 -21 6q-8 4 -8 18q0 13 6 25q13 30 42 48q6 3 12.5 6t13.5 5q5 2 10.5 6t10.5 5q6 0 3 -6zM384 294q-2 7 -5 18.5t-4 23.5t1 22.5t10 16.5q5 5 15.5 5t14.5 -8q3 -8 -1 -10.5t-9 -2t-8.5 4 t0.5 7.5q-8 -4 -8.5 -14t3 -21.5t8.5 -22.5t7 -17q6 -18 8.5 -42.5t-10.5 -41.5q-5 -7 -16.5 -9.5t-24.5 -2.5t-26 1.5t-20 1.5q6 7 7.5 18t1 23.5t-2 24t-1.5 20.5v61q0 8 0.5 15t-5.5 14h37q-7 -6 -6 -16t1 -18v-69q0 -8 -1 -24t5 -23q7 -11 18.5 -4t13.5 16 q4 13 1.5 26.5t-4.5 26.5zM590 317q-2 -4 -7.5 -14.5t-10 -22t-5.5 -22t5 -13.5q-3 6 2 6.5t10.5 -2t7 -7t-8.5 -8.5q-12 -5 -17 4.5t-4 17.5q0 8 3 16t4 15t-2 11t-14 3v-76q8 0 20.5 -1.5t21.5 5.5q-3 -7 -4 -13t-3 -13h-68q5 6 5.5 12.5t0.5 13.5v121q0 7 -0.5 15 t-5.5 14h62q12 -12 12.5 -29t-4.5 -33zM502 374q0 -7 3.5 -14.5t6.5 -15t2.5 -14.5t-7.5 -13q-7 -5 -16.5 -4.5t-10.5 10.5q0 6 3.5 8.5t7.5 2.5t7 -2.5t2 -6.5q7 1 7 6t-4 10.5t-9 10t-9 5.5q-7 2 -16 0.5t-12 -9.5q-6 -12 -2 -21t12 -16t18 -13.5t16 -13.5q7 -10 11 -23 t2 -25.5t-10 -21.5t-23 -11q-13 -1 -26 -0.5t-27 0.5q4 2 2.5 9.5t-4 16.5t-4 18.5t3.5 15.5t16 6.5t13 -10.5q0 -5 -3.5 -7.5t-7.5 -2.5t-7 2t-3 7q-6 -2 -6 -7t3.5 -10t8.5 -9.5t8 -5.5q7 -2 17 -2t15 5q10 10 8 20t-9.5 18.5t-17.5 15.5t-15 12q-9 8 -15 20.5t-6 25.5 t6.5 23.5t21.5 13.5q13 3 26.5 2t25.5 -1zM146 -65l-21 -109h-21q-3 18 -5.5 36t-4.5 36q-2 -18 -5.5 -36t-6.5 -36h-21l-19 109h23q2 -20 3.5 -40.5t5.5 -40.5q2 20 5 40.5t7 40.5h18l12 -81q2 20 4.5 40.5t4.5 40.5h21zM252 -65l-21 -109h-20q-4 18 -6.5 36t-4.5 36 q-2 -18 -5 -36l-6 -36h-22l-18 109h22q2 -20 4 -40.5t5 -40.5q2 20 5 40.5t7 40.5h19l11 -81q2 20 4.5 40.5t4.5 40.5h21zM358 -65l-20 -109h-21q-4 18 -6 36t-5 36q-2 -18 -5 -36l-6 -36h-21l-19 109h22q2 -20 4.5 -40.5t4.5 -40.5q2 20 5 40.5t7 40.5h19l12 -81 q1 20 3.5 40.5t5.5 40.5h20zM546 -122q7 -3 10.5 -9.5t5 -14t2.5 -15t4 -13.5h-25q-3 6 -4 13.5t-3 14t-6 11t-13 3.5v-42h-26v108q14 2 31.5 3t30.5 -7q15 -11 11 -28t-18 -24zM748 -174h-25q-10 19 -18 38.5t-17 37.5q1 -19 1 -38v-38h-23v109h28l33 -74q-2 19 -2 37.5 v36.5h23v-109zM487 2q6 7 7.5 18t1 23t-2 23.5t-1.5 19.5v62q0 8 0.5 14.5t-5.5 14.5h37q-5 -5 -6.5 -15t-1 -20.5t1.5 -21t1 -17.5v-81h51q11 0 27 -1.5t27 6.5q-2 -4 -3.5 -14.5t-6.5 -10.5h-127zM478 -174h-25l-7 25h-26l-5 -25h-26l29 109h31zM848 -170 q-20 -8 -38.5 -4.5t-30.5 14.5t-16 29t7 39q6 14 19.5 21t30.5 7h5t8.5 -1t8 -2t3.5 -2l-4 -20q-13 6 -23.5 4t-18 -9t-10 -18t1.5 -23q8 -23 30 -20q5 1 4 10.5t-1 13.5h-13v20h37v-59zM573 90q-6 11 -10.5 22.5t-8.5 22.5q-5 11 -7 22.5t-11 19.5h38q-6 -14 1 -32t13 -30 q6 14 11 30.5t0 31.5h39q-11 -6 -13 -19t-5 -23t-11.5 -23.5t-8.5 -23.5q0 -11 -1.5 -27.5t6.5 -25.5h-37q9 9 7 26.5t-2 28.5zM347 135q0 8 -5 13.5t-11 7.5t-11.5 -1t-7.5 -11q-1 -7 -0.5 -14.5t0.5 -13.5q0 -18 -0.5 -36.5t0.5 -36.5q0 -8 4.5 -13t10.5 -7t11.5 0.5 t7.5 11.5q1 6 1 13.5v14.5v72zM451 17q-2 31 -10.5 62.5t-28.5 56.5v-113q0 -7 5.5 -11.5t12.5 -5.5t13.5 1.5t7.5 9.5zM262 536q-14 -3 -25.5 -11.5t-21.5 -18.5q-3 -3 -7.5 -12.5t-7.5 -19t-2 -17t11 -7.5q15 0 24 9.5t15 23t9 28.5zM582 -65h26v-109h-26v109zM259 464 q7 2 14.5 9.5t12.5 17t7 19.5t0 17q-3 11 -16 11q-7 -18 -10 -36.5t-8 -37.5zM553 323q10 0 22.5 1t13.5 16q0 8 -3.5 11.5t-9 5t-12 1.5h-11.5v-35zM635 553q-1 4 -2 6.5t-6 0.5q-8 -4 -12.5 -11.5t-6.5 -15.5q-2 -5 0.5 -13.5t10.5 -1.5q6 6 10.5 16t5.5 19zM486 510 q5 -7 12 -3q8 2 11.5 10.5t1.5 16.5q-1 5 -4.5 8t-10.5 -2q-10 -7 -12 -23zM349 -160q0 7 4.5 11t10.5 4t10.5 -4t4.5 -11q0 -8 -4.5 -11.5t-10.5 -3.5t-10.5 3.5t-4.5 11.5zM622 -160q0 7 4.5 11t10.5 4t10.5 -4t4.5 -11q0 -8 -4.5 -11.5t-10.5 -3.5t-10.5 3.5t-4.5 11.5z M523 -113q9 0 13 5t3 11t-5.5 10.5t-13.5 3.5q-5 -1 -4 -13t1 -17h6zM443 -130q-2 11 -4.5 22.5t-5.5 22.5l-10 -45h20zM437 518q-3 -4 -7 -11t-3 -12q2 -6 8 -5t7 7q1 9 -5 21zM320 482q6 -1 14 7.5t9 13.5q2 4 -1 6t-6 -1q-5 -5 -9 -12t-7 -14zM704 607q-18 -18 -24 -42 q8 10 15.5 19.5t9.5 22.5h-1zM383 539q0 4 0.5 6.5t-0.5 6.5q-3 0 -4 -3q-1 -4 2 -10h2z"/>
<glyph glyph-name="five" unicode="5" d="M17 397q34 18 67 33t71 26q2 0 4 10t4 22t4 23.5t4 15.5q11 17 33 26t38 17q43 17 87.5 30t89.5 25q46 11 92 19t93 12q16 2 39 4t46.5 1.5t45 -6t34.5 -18.5q1 -2 -1 -14t-3 -16l-3 -48q0 -2 2 -2q38 -11 74.5 -28.5t60.5 -50.5v-1q-8 2 -18 -1.5t-20 -10t-18.5 -13.5 t-13.5 -13q15 -8 24.5 -23t13.5 -32.5t3 -35.5t-6 -33q-8 21 -24.5 32.5t-36.5 17t-41.5 7t-40.5 2.5q-22 2 -46 1t-45 7q-8 3 -11 12.5t-3.5 21t1 22.5t2.5 18q-90 -7 -177.5 -27.5t-171.5 -49.5q-4 -1 -4 -3q1 -5 4 -16.5t5 -24.5t3 -24t-3 -14q-11 -9 -28.5 -10.5 t-31.5 -3.5q-19 -3 -38.5 -6t-38.5 -6q-17 -4 -32.5 -8.5t-30.5 -10.5q-7 -4 -14 -6.5t-14 -7.5q-4 -4 -9 -10t-8 -8q5 17 12 33t13 31q1 3 6.5 12.5t10.5 20t9 19t3 10.5q-12 17 -28.5 33t-38.5 18zM747 457q3 27 3 55t2 54q0 14 1 28t3 28q1 7 -3 11t-10 6.5t-13 3.5 t-13 2q-58 9 -120 0.5t-120 -20.5q-63 -13 -124.5 -29.5t-121.5 -42.5q-11 -6 -22.5 -12t-21.5 -14t-12 -24t-4 -27q-4 -32 -4 -64.5v-65.5q4 0 11 3t14 7.5t13.5 9t11.5 6.5q18 8 36.5 14.5t37.5 13.5q38 11 76 21t78 19q38 8 75.5 15.5t76.5 10.5q35 4 75.5 5.5 t74.5 -14.5zM660 519q-5 -4 -8 -7.5t-9 -5.5q-5 -2 -8 0l-6 4q-2 -2 -6 -4t-8 -3q-15 -3 -21 10v1q-4 -5 -8.5 -8.5t-11.5 -5.5q-7 -4 -12 6q-3 6 -1.5 11.5t4 10.5t4.5 10.5t1 11.5q-9 -4 -12.5 -9.5t-5.5 -12.5t-3 -14t-4 -14q-3 -8 -12 -4q-4 1 -4 5q0 2 0.5 4.5t0.5 3.5 q-7 -2 -9.5 -2t-7.5 -5t-12 -9t-15 -4q-5 1 -8 4t-5 7q-8 -8 -19.5 -16t-24.5 -6q-8 1 -12 9q-12 -14 -25 -18q-14 -6 -16 10q-2 13 4 21.5t11 18.5q1 2 -1.5 2.5t-3.5 -1.5q-4 -10 -9 -21.5t-12.5 -22t-17.5 -17t-23 -5.5q-15 1 -17.5 11t3 22.5t15.5 22.5t21 11q6 0 8 -5 q4 -6 1 -14q-3 -11 -13.5 -19.5t-21.5 -10.5q1 -6 5 -6.5t8.5 1.5t8.5 5t6 5q12 10 17.5 22.5t10.5 25.5q1 1 -0.5 4.5t-4 7.5t-4 8.5t-0.5 7.5q5 13 17 11q6 0 8 -6q2 -5 1 -11t-1 -12q10 1 14 -0.5t-2 -13.5q-4 -8 -8.5 -16.5t-5.5 -17.5q0 -5 3 -5q10 0 17 10t12.5 22.5 l11 25t12.5 16.5q4 1 8 -1q1 -2 1 -6q-2 -6 -5 -10.5t-1 -11.5q3 -6 6.5 -12.5t2.5 -13.5h1q10 12 16 29.5t22 25.5q18 7 24 -10q5 -7 3 -12.5t-1 -13.5q4 1 7 5q8 6 9 17t4 20q2 2 5.5 2.5t5.5 -0.5q5 -1 4 -6v-1q5 5 12 8q5 3 8.5 1t5.5 -7q2 -6 0.5 -11t-4 -10.5l-5 -11 t-1.5 -11.5q7 6 12 13t9 14.5t8.5 14t12.5 11.5q10 5 25 0q2 3 8.5 4t4.5 -7q-2 -9 -7 -19t-5 -20q0 -7 4 -1q10 10 15 23.5t9.5 27t11.5 26t21 20.5q7 4 12 -4q6 -11 2 -23.5t-12 -20.5q-7 -9 -21 -21.5t-12 -25.5q2 -8 11 -6q7 3 10.5 9.5t7.5 12.5q2 1 6 1t4 -5l-2 -6 q-8 -19 -26 -26q-12 -7 -21 7q-2 2 -2 5zM878 485q-24 23 -54 37.5t-62 22.5q-1 -28 -1.5 -55t-2.5 -55l-1 1v-3q-13 -1 -31.5 -2t-36.5 -4.5t-33.5 -10.5t-23.5 -19q-4 -3 2 -4q13 -5 28 -6.5t30.5 -1.5h30.5t29 -1t28 -2.5t28 -6.5q14 -4 25 -11.5t24 -13.5q0 30 -10.5 52 t-39.5 33q17 15 34 28.5t37 21.5zM156 445q-29 -8 -57 -19.5t-55 -25.5q33 -18 53 -53q1 -1 -2 -7.5t-7 -14t-7.5 -14t-4.5 -9.5q-12 -22 -20 -46q25 13 51 19t53 10t53.5 7.5t52.5 11.5q-9 9 -23 12.5t-30 4t-32 -1t-27 -2.5v64t2 64zM385 166q0 5 -4 11h28q14 -6 25 -24.5 t17 -32.5q0 12 1 29t-6 28h36q-6 -5 -5.5 -12t0.5 -14v-120q0 -7 -0.5 -15.5t5.5 -13.5h-101q5 7 6.5 17t1 21.5t-2 22.5t-1.5 19v84zM334 177q18 0 26.5 -10t11.5 -24.5t2 -31t-1 -29.5v-39q0 -23 -13 -32.5t-35 -8.5q-19 0 -27.5 10t-11.5 24.5t-2 31t1 29.5q0 10 -0.5 19 t0.5 19q0 24 13 33t36 9zM281 551q6 0 10 -1q8 -1 13.5 -7.5t6.5 -15.5q3 -21 -11.5 -40.5t-32.5 -30.5q-9 -6 -13.5 -15.5l-9 -19t-10 -18.5t-16.5 -14q-11 -8 -26 -5q-6 2 -10 7t-3 12q0 11 7.5 18.5t17.5 9.5q3 1 7.5 -1t2.5 -7q-6 -4 -11 -4q-6 -2 -8 -8t1 -11 q2 -2 4 -2.5t4 -1.5q10 -1 16.5 5.5t11 16.5t6.5 20t4 17q-13 -13 -30 -17q-13 -2 -21 6q-8 4 -8 18q0 13 6 25q13 30 42 48q6 3 12.5 6t13.5 5q5 2 10.5 6t10.5 5q6 0 3 -6zM384 294q-2 7 -5 18.5t-4 23.5t1 22.5t10 16.5q5 5 15.5 5t14.5 -8q3 -8 -1 -10.5t-9 -2t-8.5 4 t0.5 7.5q-8 -4 -8.5 -14t3 -21.5t8.5 -22.5t7 -17q6 -18 8.5 -42.5t-10.5 -41.5q-5 -7 -16.5 -9.5t-24.5 -2.5t-26 1.5t-20 1.5q6 7 7.5 18t1 23.5t-2 24t-1.5 20.5v61q0 8 0.5 15t-5.5 14h37q-7 -6 -6 -16t1 -18v-69q0 -8 -1 -24t5 -23q7 -11 18.5 -4t13.5 16 q4 13 1.5 26.5t-4.5 26.5zM590 317q-2 -4 -7.5 -14.5t-10 -22t-5.5 -22t5 -13.5q-3 6 2 6.5t10.5 -2t7 -7t-8.5 -8.5q-12 -5 -17 4.5t-4 17.5q0 8 3 16t4 15t-2 11t-14 3v-76q8 0 20.5 -1.5t21.5 5.5q-3 -7 -4 -13t-3 -13h-68q5 6 5.5 12.5t0.5 13.5v121q0 7 -0.5 15 t-5.5 14h62q12 -12 12.5 -29t-4.5 -33zM502 374q0 -7 3.5 -14.5t6.5 -15t2.5 -14.5t-7.5 -13q-7 -5 -16.5 -4.5t-10.5 10.5q0 6 3.5 8.5t7.5 2.5t7 -2.5t2 -6.5q7 1 7 6t-4 10.5t-9 10t-9 5.5q-7 2 -16 0.5t-12 -9.5q-6 -12 -2 -21t12 -16t18 -13.5t16 -13.5q7 -10 11 -23 t2 -25.5t-10 -21.5t-23 -11q-13 -1 -26 -0.5t-27 0.5q4 2 2.5 9.5t-4 16.5t-4 18.5t3.5 15.5t16 6.5t13 -10.5q0 -5 -3.5 -7.5t-7.5 -2.5t-7 2t-3 7q-6 -2 -6 -7t3.5 -10t8.5 -9.5t8 -5.5q7 -2 17 -2t15 5q10 10 8 20t-9.5 18.5t-17.5 15.5t-15 12q-9 8 -15 20.5t-6 25.5 t6.5 23.5t21.5 13.5q13 3 26.5 2t25.5 -1zM146 -65l-21 -109h-21q-3 18 -5.5 36t-4.5 36q-2 -18 -5.5 -36t-6.5 -36h-21l-19 109h23q2 -20 3.5 -40.5t5.5 -40.5q2 20 5 40.5t7 40.5h18l12 -81q2 20 4.5 40.5t4.5 40.5h21zM252 -65l-21 -109h-20q-4 18 -6.5 36t-4.5 36 q-2 -18 -5 -36l-6 -36h-22l-18 109h22q2 -20 4 -40.5t5 -40.5q2 20 5 40.5t7 40.5h19l11 -81q2 20 4.5 40.5t4.5 40.5h21zM358 -65l-20 -109h-21q-4 18 -6 36t-5 36q-2 -18 -5 -36l-6 -36h-21l-19 109h22q2 -20 4.5 -40.5t4.5 -40.5q2 20 5 40.5t7 40.5h19l12 -81 q1 20 3.5 40.5t5.5 40.5h20zM546 -122q7 -3 10.5 -9.5t5 -14t2.5 -15t4 -13.5h-25q-3 6 -4 13.5t-3 14t-6 11t-13 3.5v-42h-26v108q14 2 31.5 3t30.5 -7q15 -11 11 -28t-18 -24zM748 -174h-25q-10 19 -18 38.5t-17 37.5q1 -19 1 -38v-38h-23v109h28l33 -74q-2 19 -2 37.5 v36.5h23v-109zM487 2q6 7 7.5 18t1 23t-2 23.5t-1.5 19.5v62q0 8 0.5 14.5t-5.5 14.5h37q-5 -5 -6.5 -15t-1 -20.5t1.5 -21t1 -17.5v-81h51q11 0 27 -1.5t27 6.5q-2 -4 -3.5 -14.5t-6.5 -10.5h-127zM478 -174h-25l-7 25h-26l-5 -25h-26l29 109h31zM848 -170 q-20 -8 -38.5 -4.5t-30.5 14.5t-16 29t7 39q6 14 19.5 21t30.5 7h5t8.5 -1t8 -2t3.5 -2l-4 -20q-13 6 -23.5 4t-18 -9t-10 -18t1.5 -23q8 -23 30 -20q5 1 4 10.5t-1 13.5h-13v20h37v-59zM573 90q-6 11 -10.5 22.5t-8.5 22.5q-5 11 -7 22.5t-11 19.5h38q-6 -14 1 -32t13 -30 q6 14 11 30.5t0 31.5h39q-11 -6 -13 -19t-5 -23t-11.5 -23.5t-8.5 -23.5q0 -11 -1.5 -27.5t6.5 -25.5h-37q9 9 7 26.5t-2 28.5zM347 135q0 8 -5 13.5t-11 7.5t-11.5 -1t-7.5 -11q-1 -7 -0.5 -14.5t0.5 -13.5q0 -18 -0.5 -36.5t0.5 -36.5q0 -8 4.5 -13t10.5 -7t11.5 0.5 t7.5 11.5q1 6 1 13.5v14.5v72zM451 17q-2 31 -10.5 62.5t-28.5 56.5v-113q0 -7 5.5 -11.5t12.5 -5.5t13.5 1.5t7.5 9.5zM262 536q-14 -3 -25.5 -11.5t-21.5 -18.5q-3 -3 -7.5 -12.5t-7.5 -19t-2 -17t11 -7.5q15 0 24 9.5t15 23t9 28.5zM582 -65h26v-109h-26v109zM259 464 q7 2 14.5 9.5t12.5 17t7 19.5t0 17q-3 11 -16 11q-7 -18 -10 -36.5t-8 -37.5zM553 323q10 0 22.5 1t13.5 16q0 8 -3.5 11.5t-9 5t-12 1.5h-11.5v-35zM635 553q-1 4 -2 6.5t-6 0.5q-8 -4 -12.5 -11.5t-6.5 -15.5q-2 -5 0.5 -13.5t10.5 -1.5q6 6 10.5 16t5.5 19zM486 510 q5 -7 12 -3q8 2 11.5 10.5t1.5 16.5q-1 5 -4.5 8t-10.5 -2q-10 -7 -12 -23zM349 -160q0 7 4.5 11t10.5 4t10.5 -4t4.5 -11q0 -8 -4.5 -11.5t-10.5 -3.5t-10.5 3.5t-4.5 11.5zM622 -160q0 7 4.5 11t10.5 4t10.5 -4t4.5 -11q0 -8 -4.5 -11.5t-10.5 -3.5t-10.5 3.5t-4.5 11.5z M523 -113q9 0 13 5t3 11t-5.5 10.5t-13.5 3.5q-5 -1 -4 -13t1 -17h6zM443 -130q-2 11 -4.5 22.5t-5.5 22.5l-10 -45h20zM437 518q-3 -4 -7 -11t-3 -12q2 -6 8 -5t7 7q1 9 -5 21zM320 482q6 -1 14 7.5t9 13.5q2 4 -1 6t-6 -1q-5 -5 -9 -12t-7 -14zM704 607q-18 -18 -24 -42 q8 10 15.5 19.5t9.5 22.5h-1zM383 539q0 4 0.5 6.5t-0.5 6.5q-3 0 -4 -3q-1 -4 2 -10h2z"/>
<glyph glyph-name="six" unicode="6" d="M17 397q34 18 67 33t71 26q2 0 4 10t4 22t4 23.5t4 15.5q11 17 33 26t38 17q43 17 87.5 30t89.5 25q46 11 92 19t93 12q16 2 39 4t46.5 1.5t45 -6t34.5 -18.5q1 -2 -1 -14t-3 -16l-3 -48q0 -2 2 -2q38 -11 74.5 -28.5t60.5 -50.5v-1q-8 2 -18 -1.5t-20 -10t-18.5 -13.5 t-13.5 -13q15 -8 24.5 -23t13.5 -32.5t3 -35.5t-6 -33q-8 21 -24.5 32.5t-36.5 17t-41.5 7t-40.5 2.5q-22 2 -46 1t-45 7q-8 3 -11 12.5t-3.5 21t1 22.5t2.5 18q-90 -7 -177.5 -27.5t-171.5 -49.5q-4 -1 -4 -3q1 -5 4 -16.5t5 -24.5t3 -24t-3 -14q-11 -9 -28.5 -10.5 t-31.5 -3.5q-19 -3 -38.5 -6t-38.5 -6q-17 -4 -32.5 -8.5t-30.5 -10.5q-7 -4 -14 -6.5t-14 -7.5q-4 -4 -9 -10t-8 -8q5 17 12 33t13 31q1 3 6.5 12.5t10.5 20t9 19t3 10.5q-12 17 -28.5 33t-38.5 18zM747 457q3 27 3 55t2 54q0 14 1 28t3 28q1 7 -3 11t-10 6.5t-13 3.5 t-13 2q-58 9 -120 0.5t-120 -20.5q-63 -13 -124.5 -29.5t-121.5 -42.5q-11 -6 -22.5 -12t-21.5 -14t-12 -24t-4 -27q-4 -32 -4 -64.5v-65.5q4 0 11 3t14 7.5t13.5 9t11.5 6.5q18 8 36.5 14.5t37.5 13.5q38 11 76 21t78 19q38 8 75.5 15.5t76.5 10.5q35 4 75.5 5.5 t74.5 -14.5zM660 519q-5 -4 -8 -7.5t-9 -5.5q-5 -2 -8 0l-6 4q-2 -2 -6 -4t-8 -3q-15 -3 -21 10v1q-4 -5 -8.5 -8.5t-11.5 -5.5q-7 -4 -12 6q-3 6 -1.5 11.5t4 10.5t4.5 10.5t1 11.5q-9 -4 -12.5 -9.5t-5.5 -12.5t-3 -14t-4 -14q-3 -8 -12 -4q-4 1 -4 5q0 2 0.5 4.5t0.5 3.5 q-7 -2 -9.5 -2t-7.5 -5t-12 -9t-15 -4q-5 1 -8 4t-5 7q-8 -8 -19.5 -16t-24.5 -6q-8 1 -12 9q-12 -14 -25 -18q-14 -6 -16 10q-2 13 4 21.5t11 18.5q1 2 -1.5 2.5t-3.5 -1.5q-4 -10 -9 -21.5t-12.5 -22t-17.5 -17t-23 -5.5q-15 1 -17.5 11t3 22.5t15.5 22.5t21 11q6 0 8 -5 q4 -6 1 -14q-3 -11 -13.5 -19.5t-21.5 -10.5q1 -6 5 -6.5t8.5 1.5t8.5 5t6 5q12 10 17.5 22.5t10.5 25.5q1 1 -0.5 4.5t-4 7.5t-4 8.5t-0.5 7.5q5 13 17 11q6 0 8 -6q2 -5 1 -11t-1 -12q10 1 14 -0.5t-2 -13.5q-4 -8 -8.5 -16.5t-5.5 -17.5q0 -5 3 -5q10 0 17 10t12.5 22.5 l11 25t12.5 16.5q4 1 8 -1q1 -2 1 -6q-2 -6 -5 -10.5t-1 -11.5q3 -6 6.5 -12.5t2.5 -13.5h1q10 12 16 29.5t22 25.5q18 7 24 -10q5 -7 3 -12.5t-1 -13.5q4 1 7 5q8 6 9 17t4 20q2 2 5.5 2.5t5.5 -0.5q5 -1 4 -6v-1q5 5 12 8q5 3 8.5 1t5.5 -7q2 -6 0.5 -11t-4 -10.5l-5 -11 t-1.5 -11.5q7 6 12 13t9 14.5t8.5 14t12.5 11.5q10 5 25 0q2 3 8.5 4t4.5 -7q-2 -9 -7 -19t-5 -20q0 -7 4 -1q10 10 15 23.5t9.5 27t11.5 26t21 20.5q7 4 12 -4q6 -11 2 -23.5t-12 -20.5q-7 -9 -21 -21.5t-12 -25.5q2 -8 11 -6q7 3 10.5 9.5t7.5 12.5q2 1 6 1t4 -5l-2 -6 q-8 -19 -26 -26q-12 -7 -21 7q-2 2 -2 5zM878 485q-24 23 -54 37.5t-62 22.5q-1 -28 -1.5 -55t-2.5 -55l-1 1v-3q-13 -1 -31.5 -2t-36.5 -4.5t-33.5 -10.5t-23.5 -19q-4 -3 2 -4q13 -5 28 -6.5t30.5 -1.5h30.5t29 -1t28 -2.5t28 -6.5q14 -4 25 -11.5t24 -13.5q0 30 -10.5 52 t-39.5 33q17 15 34 28.5t37 21.5zM156 445q-29 -8 -57 -19.5t-55 -25.5q33 -18 53 -53q1 -1 -2 -7.5t-7 -14t-7.5 -14t-4.5 -9.5q-12 -22 -20 -46q25 13 51 19t53 10t53.5 7.5t52.5 11.5q-9 9 -23 12.5t-30 4t-32 -1t-27 -2.5v64t2 64zM385 166q0 5 -4 11h28q14 -6 25 -24.5 t17 -32.5q0 12 1 29t-6 28h36q-6 -5 -5.5 -12t0.5 -14v-120q0 -7 -0.5 -15.5t5.5 -13.5h-101q5 7 6.5 17t1 21.5t-2 22.5t-1.5 19v84zM334 177q18 0 26.5 -10t11.5 -24.5t2 -31t-1 -29.5v-39q0 -23 -13 -32.5t-35 -8.5q-19 0 -27.5 10t-11.5 24.5t-2 31t1 29.5q0 10 -0.5 19 t0.5 19q0 24 13 33t36 9zM281 551q6 0 10 -1q8 -1 13.5 -7.5t6.5 -15.5q3 -21 -11.5 -40.5t-32.5 -30.5q-9 -6 -13.5 -15.5l-9 -19t-10 -18.5t-16.5 -14q-11 -8 -26 -5q-6 2 -10 7t-3 12q0 11 7.5 18.5t17.5 9.5q3 1 7.5 -1t2.5 -7q-6 -4 -11 -4q-6 -2 -8 -8t1 -11 q2 -2 4 -2.5t4 -1.5q10 -1 16.5 5.5t11 16.5t6.5 20t4 17q-13 -13 -30 -17q-13 -2 -21 6q-8 4 -8 18q0 13 6 25q13 30 42 48q6 3 12.5 6t13.5 5q5 2 10.5 6t10.5 5q6 0 3 -6zM384 294q-2 7 -5 18.5t-4 23.5t1 22.5t10 16.5q5 5 15.5 5t14.5 -8q3 -8 -1 -10.5t-9 -2t-8.5 4 t0.5 7.5q-8 -4 -8.5 -14t3 -21.5t8.5 -22.5t7 -17q6 -18 8.5 -42.5t-10.5 -41.5q-5 -7 -16.5 -9.5t-24.5 -2.5t-26 1.5t-20 1.5q6 7 7.5 18t1 23.5t-2 24t-1.5 20.5v61q0 8 0.5 15t-5.5 14h37q-7 -6 -6 -16t1 -18v-69q0 -8 -1 -24t5 -23q7 -11 18.5 -4t13.5 16 q4 13 1.5 26.5t-4.5 26.5zM590 317q-2 -4 -7.5 -14.5t-10 -22t-5.5 -22t5 -13.5q-3 6 2 6.5t10.5 -2t7 -7t-8.5 -8.5q-12 -5 -17 4.5t-4 17.5q0 8 3 16t4 15t-2 11t-14 3v-76q8 0 20.5 -1.5t21.5 5.5q-3 -7 -4 -13t-3 -13h-68q5 6 5.5 12.5t0.5 13.5v121q0 7 -0.5 15 t-5.5 14h62q12 -12 12.5 -29t-4.5 -33zM502 374q0 -7 3.5 -14.5t6.5 -15t2.5 -14.5t-7.5 -13q-7 -5 -16.5 -4.5t-10.5 10.5q0 6 3.5 8.5t7.5 2.5t7 -2.5t2 -6.5q7 1 7 6t-4 10.5t-9 10t-9 5.5q-7 2 -16 0.5t-12 -9.5q-6 -12 -2 -21t12 -16t18 -13.5t16 -13.5q7 -10 11 -23 t2 -25.5t-10 -21.5t-23 -11q-13 -1 -26 -0.5t-27 0.5q4 2 2.5 9.5t-4 16.5t-4 18.5t3.5 15.5t16 6.5t13 -10.5q0 -5 -3.5 -7.5t-7.5 -2.5t-7 2t-3 7q-6 -2 -6 -7t3.5 -10t8.5 -9.5t8 -5.5q7 -2 17 -2t15 5q10 10 8 20t-9.5 18.5t-17.5 15.5t-15 12q-9 8 -15 20.5t-6 25.5 t6.5 23.5t21.5 13.5q13 3 26.5 2t25.5 -1zM146 -65l-21 -109h-21q-3 18 -5.5 36t-4.5 36q-2 -18 -5.5 -36t-6.5 -36h-21l-19 109h23q2 -20 3.5 -40.5t5.5 -40.5q2 20 5 40.5t7 40.5h18l12 -81q2 20 4.5 40.5t4.5 40.5h21zM252 -65l-21 -109h-20q-4 18 -6.5 36t-4.5 36 q-2 -18 -5 -36l-6 -36h-22l-18 109h22q2 -20 4 -40.5t5 -40.5q2 20 5 40.5t7 40.5h19l11 -81q2 20 4.5 40.5t4.5 40.5h21zM358 -65l-20 -109h-21q-4 18 -6 36t-5 36q-2 -18 -5 -36l-6 -36h-21l-19 109h22q2 -20 4.5 -40.5t4.5 -40.5q2 20 5 40.5t7 40.5h19l12 -81 q1 20 3.5 40.5t5.5 40.5h20zM546 -122q7 -3 10.5 -9.5t5 -14t2.5 -15t4 -13.5h-25q-3 6 -4 13.5t-3 14t-6 11t-13 3.5v-42h-26v108q14 2 31.5 3t30.5 -7q15 -11 11 -28t-18 -24zM748 -174h-25q-10 19 -18 38.5t-17 37.5q1 -19 1 -38v-38h-23v109h28l33 -74q-2 19 -2 37.5 v36.5h23v-109zM487 2q6 7 7.5 18t1 23t-2 23.5t-1.5 19.5v62q0 8 0.5 14.5t-5.5 14.5h37q-5 -5 -6.5 -15t-1 -20.5t1.5 -21t1 -17.5v-81h51q11 0 27 -1.5t27 6.5q-2 -4 -3.5 -14.5t-6.5 -10.5h-127zM478 -174h-25l-7 25h-26l-5 -25h-26l29 109h31zM848 -170 q-20 -8 -38.5 -4.5t-30.5 14.5t-16 29t7 39q6 14 19.5 21t30.5 7h5t8.5 -1t8 -2t3.5 -2l-4 -20q-13 6 -23.5 4t-18 -9t-10 -18t1.5 -23q8 -23 30 -20q5 1 4 10.5t-1 13.5h-13v20h37v-59zM573 90q-6 11 -10.5 22.5t-8.5 22.5q-5 11 -7 22.5t-11 19.5h38q-6 -14 1 -32t13 -30 q6 14 11 30.5t0 31.5h39q-11 -6 -13 -19t-5 -23t-11.5 -23.5t-8.5 -23.5q0 -11 -1.5 -27.5t6.5 -25.5h-37q9 9 7 26.5t-2 28.5zM347 135q0 8 -5 13.5t-11 7.5t-11.5 -1t-7.5 -11q-1 -7 -0.5 -14.5t0.5 -13.5q0 -18 -0.5 -36.5t0.5 -36.5q0 -8 4.5 -13t10.5 -7t11.5 0.5 t7.5 11.5q1 6 1 13.5v14.5v72zM451 17q-2 31 -10.5 62.5t-28.5 56.5v-113q0 -7 5.5 -11.5t12.5 -5.5t13.5 1.5t7.5 9.5zM262 536q-14 -3 -25.5 -11.5t-21.5 -18.5q-3 -3 -7.5 -12.5t-7.5 -19t-2 -17t11 -7.5q15 0 24 9.5t15 23t9 28.5zM582 -65h26v-109h-26v109zM259 464 q7 2 14.5 9.5t12.5 17t7 19.5t0 17q-3 11 -16 11q-7 -18 -10 -36.5t-8 -37.5zM553 323q10 0 22.5 1t13.5 16q0 8 -3.5 11.5t-9 5t-12 1.5h-11.5v-35zM635 553q-1 4 -2 6.5t-6 0.5q-8 -4 -12.5 -11.5t-6.5 -15.5q-2 -5 0.5 -13.5t10.5 -1.5q6 6 10.5 16t5.5 19zM486 510 q5 -7 12 -3q8 2 11.5 10.5t1.5 16.5q-1 5 -4.5 8t-10.5 -2q-10 -7 -12 -23zM349 -160q0 7 4.5 11t10.5 4t10.5 -4t4.5 -11q0 -8 -4.5 -11.5t-10.5 -3.5t-10.5 3.5t-4.5 11.5zM622 -160q0 7 4.5 11t10.5 4t10.5 -4t4.5 -11q0 -8 -4.5 -11.5t-10.5 -3.5t-10.5 3.5t-4.5 11.5z M523 -113q9 0 13 5t3 11t-5.5 10.5t-13.5 3.5q-5 -1 -4 -13t1 -17h6zM443 -130q-2 11 -4.5 22.5t-5.5 22.5l-10 -45h20zM437 518q-3 -4 -7 -11t-3 -12q2 -6 8 -5t7 7q1 9 -5 21zM320 482q6 -1 14 7.5t9 13.5q2 4 -1 6t-6 -1q-5 -5 -9 -12t-7 -14zM704 607q-18 -18 -24 -42 q8 10 15.5 19.5t9.5 22.5h-1zM383 539q0 4 0.5 6.5t-0.5 6.5q-3 0 -4 -3q-1 -4 2 -10h2z"/>
<glyph glyph-name="seven" unicode="7" d="M17 397q34 18 67 33t71 26q2 0 4 10t4 22t4 23.5t4 15.5q11 17 33 26t38 17q43 17 87.5 30t89.5 25q46 11 92 19t93 12q16 2 39 4t46.5 1.5t45 -6t34.5 -18.5q1 -2 -1 -14t-3 -16l-3 -48q0 -2 2 -2q38 -11 74.5 -28.5t60.5 -50.5v-1q-8 2 -18 -1.5t-20 -10t-18.5 -13.5 t-13.5 -13q15 -8 24.5 -23t13.5 -32.5t3 -35.5t-6 -33q-8 21 -24.5 32.5t-36.5 17t-41.5 7t-40.5 2.5q-22 2 -46 1t-45 7q-8 3 -11 12.5t-3.5 21t1 22.5t2.5 18q-90 -7 -177.5 -27.5t-171.5 -49.5q-4 -1 -4 -3q1 -5 4 -16.5t5 -24.5t3 -24t-3 -14q-11 -9 -28.5 -10.5 t-31.5 -3.5q-19 -3 -38.5 -6t-38.5 -6q-17 -4 -32.5 -8.5t-30.5 -10.5q-7 -4 -14 -6.5t-14 -7.5q-4 -4 -9 -10t-8 -8q5 17 12 33t13 31q1 3 6.5 12.5t10.5 20t9 19t3 10.5q-12 17 -28.5 33t-38.5 18zM747 457q3 27 3 55t2 54q0 14 1 28t3 28q1 7 -3 11t-10 6.5t-13 3.5 t-13 2q-58 9 -120 0.5t-120 -20.5q-63 -13 -124.5 -29.5t-121.5 -42.5q-11 -6 -22.5 -12t-21.5 -14t-12 -24t-4 -27q-4 -32 -4 -64.5v-65.5q4 0 11 3t14 7.5t13.5 9t11.5 6.5q18 8 36.5 14.5t37.5 13.5q38 11 76 21t78 19q38 8 75.5 15.5t76.5 10.5q35 4 75.5 5.5 t74.5 -14.5zM660 519q-5 -4 -8 -7.5t-9 -5.5q-5 -2 -8 0l-6 4q-2 -2 -6 -4t-8 -3q-15 -3 -21 10v1q-4 -5 -8.5 -8.5t-11.5 -5.5q-7 -4 -12 6q-3 6 -1.5 11.5t4 10.5t4.5 10.5t1 11.5q-9 -4 -12.5 -9.5t-5.5 -12.5t-3 -14t-4 -14q-3 -8 -12 -4q-4 1 -4 5q0 2 0.5 4.5t0.5 3.5 q-7 -2 -9.5 -2t-7.5 -5t-12 -9t-15 -4q-5 1 -8 4t-5 7q-8 -8 -19.5 -16t-24.5 -6q-8 1 -12 9q-12 -14 -25 -18q-14 -6 -16 10q-2 13 4 21.5t11 18.5q1 2 -1.5 2.5t-3.5 -1.5q-4 -10 -9 -21.5t-12.5 -22t-17.5 -17t-23 -5.5q-15 1 -17.5 11t3 22.5t15.5 22.5t21 11q6 0 8 -5 q4 -6 1 -14q-3 -11 -13.5 -19.5t-21.5 -10.5q1 -6 5 -6.5t8.5 1.5t8.5 5t6 5q12 10 17.5 22.5t10.5 25.5q1 1 -0.5 4.5t-4 7.5t-4 8.5t-0.5 7.5q5 13 17 11q6 0 8 -6q2 -5 1 -11t-1 -12q10 1 14 -0.5t-2 -13.5q-4 -8 -8.5 -16.5t-5.5 -17.5q0 -5 3 -5q10 0 17 10t12.5 22.5 l11 25t12.5 16.5q4 1 8 -1q1 -2 1 -6q-2 -6 -5 -10.5t-1 -11.5q3 -6 6.5 -12.5t2.5 -13.5h1q10 12 16 29.5t22 25.5q18 7 24 -10q5 -7 3 -12.5t-1 -13.5q4 1 7 5q8 6 9 17t4 20q2 2 5.5 2.5t5.5 -0.5q5 -1 4 -6v-1q5 5 12 8q5 3 8.5 1t5.5 -7q2 -6 0.5 -11t-4 -10.5l-5 -11 t-1.5 -11.5q7 6 12 13t9 14.5t8.5 14t12.5 11.5q10 5 25 0q2 3 8.5 4t4.5 -7q-2 -9 -7 -19t-5 -20q0 -7 4 -1q10 10 15 23.5t9.5 27t11.5 26t21 20.5q7 4 12 -4q6 -11 2 -23.5t-12 -20.5q-7 -9 -21 -21.5t-12 -25.5q2 -8 11 -6q7 3 10.5 9.5t7.5 12.5q2 1 6 1t4 -5l-2 -6 q-8 -19 -26 -26q-12 -7 -21 7q-2 2 -2 5zM878 485q-24 23 -54 37.5t-62 22.5q-1 -28 -1.5 -55t-2.5 -55l-1 1v-3q-13 -1 -31.5 -2t-36.5 -4.5t-33.5 -10.5t-23.5 -19q-4 -3 2 -4q13 -5 28 -6.5t30.5 -1.5h30.5t29 -1t28 -2.5t28 -6.5q14 -4 25 -11.5t24 -13.5q0 30 -10.5 52 t-39.5 33q17 15 34 28.5t37 21.5zM156 445q-29 -8 -57 -19.5t-55 -25.5q33 -18 53 -53q1 -1 -2 -7.5t-7 -14t-7.5 -14t-4.5 -9.5q-12 -22 -20 -46q25 13 51 19t53 10t53.5 7.5t52.5 11.5q-9 9 -23 12.5t-30 4t-32 -1t-27 -2.5v64t2 64zM385 166q0 5 -4 11h28q14 -6 25 -24.5 t17 -32.5q0 12 1 29t-6 28h36q-6 -5 -5.5 -12t0.5 -14v-120q0 -7 -0.5 -15.5t5.5 -13.5h-101q5 7 6.5 17t1 21.5t-2 22.5t-1.5 19v84zM334 177q18 0 26.5 -10t11.5 -24.5t2 -31t-1 -29.5v-39q0 -23 -13 -32.5t-35 -8.5q-19 0 -27.5 10t-11.5 24.5t-2 31t1 29.5q0 10 -0.5 19 t0.5 19q0 24 13 33t36 9zM281 551q6 0 10 -1q8 -1 13.5 -7.5t6.5 -15.5q3 -21 -11.5 -40.5t-32.5 -30.5q-9 -6 -13.5 -15.5l-9 -19t-10 -18.5t-16.5 -14q-11 -8 -26 -5q-6 2 -10 7t-3 12q0 11 7.5 18.5t17.5 9.5q3 1 7.5 -1t2.5 -7q-6 -4 -11 -4q-6 -2 -8 -8t1 -11 q2 -2 4 -2.5t4 -1.5q10 -1 16.5 5.5t11 16.5t6.5 20t4 17q-13 -13 -30 -17q-13 -2 -21 6q-8 4 -8 18q0 13 6 25q13 30 42 48q6 3 12.5 6t13.5 5q5 2 10.5 6t10.5 5q6 0 3 -6zM384 294q-2 7 -5 18.5t-4 23.5t1 22.5t10 16.5q5 5 15.5 5t14.5 -8q3 -8 -1 -10.5t-9 -2t-8.5 4 t0.5 7.5q-8 -4 -8.5 -14t3 -21.5t8.5 -22.5t7 -17q6 -18 8.5 -42.5t-10.5 -41.5q-5 -7 -16.5 -9.5t-24.5 -2.5t-26 1.5t-20 1.5q6 7 7.5 18t1 23.5t-2 24t-1.5 20.5v61q0 8 0.5 15t-5.5 14h37q-7 -6 -6 -16t1 -18v-69q0 -8 -1 -24t5 -23q7 -11 18.5 -4t13.5 16 q4 13 1.5 26.5t-4.5 26.5zM590 317q-2 -4 -7.5 -14.5t-10 -22t-5.5 -22t5 -13.5q-3 6 2 6.5t10.5 -2t7 -7t-8.5 -8.5q-12 -5 -17 4.5t-4 17.5q0 8 3 16t4 15t-2 11t-14 3v-76q8 0 20.5 -1.5t21.5 5.5q-3 -7 -4 -13t-3 -13h-68q5 6 5.5 12.5t0.5 13.5v121q0 7 -0.5 15 t-5.5 14h62q12 -12 12.5 -29t-4.5 -33zM502 374q0 -7 3.5 -14.5t6.5 -15t2.5 -14.5t-7.5 -13q-7 -5 -16.5 -4.5t-10.5 10.5q0 6 3.5 8.5t7.5 2.5t7 -2.5t2 -6.5q7 1 7 6t-4 10.5t-9 10t-9 5.5q-7 2 -16 0.5t-12 -9.5q-6 -12 -2 -21t12 -16t18 -13.5t16 -13.5q7 -10 11 -23 t2 -25.5t-10 -21.5t-23 -11q-13 -1 -26 -0.5t-27 0.5q4 2 2.5 9.5t-4 16.5t-4 18.5t3.5 15.5t16 6.5t13 -10.5q0 -5 -3.5 -7.5t-7.5 -2.5t-7 2t-3 7q-6 -2 -6 -7t3.5 -10t8.5 -9.5t8 -5.5q7 -2 17 -2t15 5q10 10 8 20t-9.5 18.5t-17.5 15.5t-15 12q-9 8 -15 20.5t-6 25.5 t6.5 23.5t21.5 13.5q13 3 26.5 2t25.5 -1zM146 -65l-21 -109h-21q-3 18 -5.5 36t-4.5 36q-2 -18 -5.5 -36t-6.5 -36h-21l-19 109h23q2 -20 3.5 -40.5t5.5 -40.5q2 20 5 40.5t7 40.5h18l12 -81q2 20 4.5 40.5t4.5 40.5h21zM252 -65l-21 -109h-20q-4 18 -6.5 36t-4.5 36 q-2 -18 -5 -36l-6 -36h-22l-18 109h22q2 -20 4 -40.5t5 -40.5q2 20 5 40.5t7 40.5h19l11 -81q2 20 4.5 40.5t4.5 40.5h21zM358 -65l-20 -109h-21q-4 18 -6 36t-5 36q-2 -18 -5 -36l-6 -36h-21l-19 109h22q2 -20 4.5 -40.5t4.5 -40.5q2 20 5 40.5t7 40.5h19l12 -81 q1 20 3.5 40.5t5.5 40.5h20zM546 -122q7 -3 10.5 -9.5t5 -14t2.5 -15t4 -13.5h-25q-3 6 -4 13.5t-3 14t-6 11t-13 3.5v-42h-26v108q14 2 31.5 3t30.5 -7q15 -11 11 -28t-18 -24zM748 -174h-25q-10 19 -18 38.5t-17 37.5q1 -19 1 -38v-38h-23v109h28l33 -74q-2 19 -2 37.5 v36.5h23v-109zM487 2q6 7 7.5 18t1 23t-2 23.5t-1.5 19.5v62q0 8 0.5 14.5t-5.5 14.5h37q-5 -5 -6.5 -15t-1 -20.5t1.5 -21t1 -17.5v-81h51q11 0 27 -1.5t27 6.5q-2 -4 -3.5 -14.5t-6.5 -10.5h-127zM478 -174h-25l-7 25h-26l-5 -25h-26l29 109h31zM848 -170 q-20 -8 -38.5 -4.5t-30.5 14.5t-16 29t7 39q6 14 19.5 21t30.5 7h5t8.5 -1t8 -2t3.5 -2l-4 -20q-13 6 -23.5 4t-18 -9t-10 -18t1.5 -23q8 -23 30 -20q5 1 4 10.5t-1 13.5h-13v20h37v-59zM573 90q-6 11 -10.5 22.5t-8.5 22.5q-5 11 -7 22.5t-11 19.5h38q-6 -14 1 -32t13 -30 q6 14 11 30.5t0 31.5h39q-11 -6 -13 -19t-5 -23t-11.5 -23.5t-8.5 -23.5q0 -11 -1.5 -27.5t6.5 -25.5h-37q9 9 7 26.5t-2 28.5zM347 135q0 8 -5 13.5t-11 7.5t-11.5 -1t-7.5 -11q-1 -7 -0.5 -14.5t0.5 -13.5q0 -18 -0.5 -36.5t0.5 -36.5q0 -8 4.5 -13t10.5 -7t11.5 0.5 t7.5 11.5q1 6 1 13.5v14.5v72zM451 17q-2 31 -10.5 62.5t-28.5 56.5v-113q0 -7 5.5 -11.5t12.5 -5.5t13.5 1.5t7.5 9.5zM262 536q-14 -3 -25.5 -11.5t-21.5 -18.5q-3 -3 -7.5 -12.5t-7.5 -19t-2 -17t11 -7.5q15 0 24 9.5t15 23t9 28.5zM582 -65h26v-109h-26v109zM259 464 q7 2 14.5 9.5t12.5 17t7 19.5t0 17q-3 11 -16 11q-7 -18 -10 -36.5t-8 -37.5zM553 323q10 0 22.5 1t13.5 16q0 8 -3.5 11.5t-9 5t-12 1.5h-11.5v-35zM635 553q-1 4 -2 6.5t-6 0.5q-8 -4 -12.5 -11.5t-6.5 -15.5q-2 -5 0.5 -13.5t10.5 -1.5q6 6 10.5 16t5.5 19zM486 510 q5 -7 12 -3q8 2 11.5 10.5t1.5 16.5q-1 5 -4.5 8t-10.5 -2q-10 -7 -12 -23zM349 -160q0 7 4.5 11t10.5 4t10.5 -4t4.5 -11q0 -8 -4.5 -11.5t-10.5 -3.5t-10.5 3.5t-4.5 11.5zM622 -160q0 7 4.5 11t10.5 4t10.5 -4t4.5 -11q0 -8 -4.5 -11.5t-10.5 -3.5t-10.5 3.5t-4.5 11.5z M523 -113q9 0 13 5t3 11t-5.5 10.5t-13.5 3.5q-5 -1 -4 -13t1 -17h6zM443 -130q-2 11 -4.5 22.5t-5.5 22.5l-10 -45h20zM437 518q-3 -4 -7 -11t-3 -12q2 -6 8 -5t7 7q1 9 -5 21zM320 482q6 -1 14 7.5t9 13.5q2 4 -1 6t-6 -1q-5 -5 -9 -12t-7 -14zM704 607q-18 -18 -24 -42 q8 10 15.5 19.5t9.5 22.5h-1zM383 539q0 4 0.5 6.5t-0.5 6.5q-3 0 -4 -3q-1 -4 2 -10h2z"/>
<glyph glyph-name="eight" unicode="8" d="M17 397q34 18 67 33t71 26q2 0 4 10t4 22t4 23.5t4 15.5q11 17 33 26t38 17q43 17 87.5 30t89.5 25q46 11 92 19t93 12q16 2 39 4t46.5 1.5t45 -6t34.5 -18.5q1 -2 -1 -14t-3 -16l-3 -48q0 -2 2 -2q38 -11 74.5 -28.5t60.5 -50.5v-1q-8 2 -18 -1.5t-20 -10t-18.5 -13.5 t-13.5 -13q15 -8 24.5 -23t13.5 -32.5t3 -35.5t-6 -33q-8 21 -24.5 32.5t-36.5 17t-41.5 7t-40.5 2.5q-22 2 -46 1t-45 7q-8 3 -11 12.5t-3.5 21t1 22.5t2.5 18q-90 -7 -177.5 -27.5t-171.5 -49.5q-4 -1 -4 -3q1 -5 4 -16.5t5 -24.5t3 -24t-3 -14q-11 -9 -28.5 -10.5 t-31.5 -3.5q-19 -3 -38.5 -6t-38.5 -6q-17 -4 -32.5 -8.5t-30.5 -10.5q-7 -4 -14 -6.5t-14 -7.5q-4 -4 -9 -10t-8 -8q5 17 12 33t13 31q1 3 6.5 12.5t10.5 20t9 19t3 10.5q-12 17 -28.5 33t-38.5 18zM747 457q3 27 3 55t2 54q0 14 1 28t3 28q1 7 -3 11t-10 6.5t-13 3.5 t-13 2q-58 9 -120 0.5t-120 -20.5q-63 -13 -124.5 -29.5t-121.5 -42.5q-11 -6 -22.5 -12t-21.5 -14t-12 -24t-4 -27q-4 -32 -4 -64.5v-65.5q4 0 11 3t14 7.5t13.5 9t11.5 6.5q18 8 36.5 14.5t37.5 13.5q38 11 76 21t78 19q38 8 75.5 15.5t76.5 10.5q35 4 75.5 5.5 t74.5 -14.5zM660 519q-5 -4 -8 -7.5t-9 -5.5q-5 -2 -8 0l-6 4q-2 -2 -6 -4t-8 -3q-15 -3 -21 10v1q-4 -5 -8.5 -8.5t-11.5 -5.5q-7 -4 -12 6q-3 6 -1.5 11.5t4 10.5t4.5 10.5t1 11.5q-9 -4 -12.5 -9.5t-5.5 -12.5t-3 -14t-4 -14q-3 -8 -12 -4q-4 1 -4 5q0 2 0.5 4.5t0.5 3.5 q-7 -2 -9.5 -2t-7.5 -5t-12 -9t-15 -4q-5 1 -8 4t-5 7q-8 -8 -19.5 -16t-24.5 -6q-8 1 -12 9q-12 -14 -25 -18q-14 -6 -16 10q-2 13 4 21.5t11 18.5q1 2 -1.5 2.5t-3.5 -1.5q-4 -10 -9 -21.5t-12.5 -22t-17.5 -17t-23 -5.5q-15 1 -17.5 11t3 22.5t15.5 22.5t21 11q6 0 8 -5 q4 -6 1 -14q-3 -11 -13.5 -19.5t-21.5 -10.5q1 -6 5 -6.5t8.5 1.5t8.5 5t6 5q12 10 17.5 22.5t10.5 25.5q1 1 -0.5 4.5t-4 7.5t-4 8.5t-0.5 7.5q5 13 17 11q6 0 8 -6q2 -5 1 -11t-1 -12q10 1 14 -0.5t-2 -13.5q-4 -8 -8.5 -16.5t-5.5 -17.5q0 -5 3 -5q10 0 17 10t12.5 22.5 l11 25t12.5 16.5q4 1 8 -1q1 -2 1 -6q-2 -6 -5 -10.5t-1 -11.5q3 -6 6.5 -12.5t2.5 -13.5h1q10 12 16 29.5t22 25.5q18 7 24 -10q5 -7 3 -12.5t-1 -13.5q4 1 7 5q8 6 9 17t4 20q2 2 5.5 2.5t5.5 -0.5q5 -1 4 -6v-1q5 5 12 8q5 3 8.5 1t5.5 -7q2 -6 0.5 -11t-4 -10.5l-5 -11 t-1.5 -11.5q7 6 12 13t9 14.5t8.5 14t12.5 11.5q10 5 25 0q2 3 8.5 4t4.5 -7q-2 -9 -7 -19t-5 -20q0 -7 4 -1q10 10 15 23.5t9.5 27t11.5 26t21 20.5q7 4 12 -4q6 -11 2 -23.5t-12 -20.5q-7 -9 -21 -21.5t-12 -25.5q2 -8 11 -6q7 3 10.5 9.5t7.5 12.5q2 1 6 1t4 -5l-2 -6 q-8 -19 -26 -26q-12 -7 -21 7q-2 2 -2 5zM878 485q-24 23 -54 37.5t-62 22.5q-1 -28 -1.5 -55t-2.5 -55l-1 1v-3q-13 -1 -31.5 -2t-36.5 -4.5t-33.5 -10.5t-23.5 -19q-4 -3 2 -4q13 -5 28 -6.5t30.5 -1.5h30.5t29 -1t28 -2.5t28 -6.5q14 -4 25 -11.5t24 -13.5q0 30 -10.5 52 t-39.5 33q17 15 34 28.5t37 21.5zM156 445q-29 -8 -57 -19.5t-55 -25.5q33 -18 53 -53q1 -1 -2 -7.5t-7 -14t-7.5 -14t-4.5 -9.5q-12 -22 -20 -46q25 13 51 19t53 10t53.5 7.5t52.5 11.5q-9 9 -23 12.5t-30 4t-32 -1t-27 -2.5v64t2 64zM385 166q0 5 -4 11h28q14 -6 25 -24.5 t17 -32.5q0 12 1 29t-6 28h36q-6 -5 -5.5 -12t0.5 -14v-120q0 -7 -0.5 -15.5t5.5 -13.5h-101q5 7 6.5 17t1 21.5t-2 22.5t-1.5 19v84zM334 177q18 0 26.5 -10t11.5 -24.5t2 -31t-1 -29.5v-39q0 -23 -13 -32.5t-35 -8.5q-19 0 -27.5 10t-11.5 24.5t-2 31t1 29.5q0 10 -0.5 19 t0.5 19q0 24 13 33t36 9zM281 551q6 0 10 -1q8 -1 13.5 -7.5t6.5 -15.5q3 -21 -11.5 -40.5t-32.5 -30.5q-9 -6 -13.5 -15.5l-9 -19t-10 -18.5t-16.5 -14q-11 -8 -26 -5q-6 2 -10 7t-3 12q0 11 7.5 18.5t17.5 9.5q3 1 7.5 -1t2.5 -7q-6 -4 -11 -4q-6 -2 -8 -8t1 -11 q2 -2 4 -2.5t4 -1.5q10 -1 16.5 5.5t11 16.5t6.5 20t4 17q-13 -13 -30 -17q-13 -2 -21 6q-8 4 -8 18q0 13 6 25q13 30 42 48q6 3 12.5 6t13.5 5q5 2 10.5 6t10.5 5q6 0 3 -6zM384 294q-2 7 -5 18.5t-4 23.5t1 22.5t10 16.5q5 5 15.5 5t14.5 -8q3 -8 -1 -10.5t-9 -2t-8.5 4 t0.5 7.5q-8 -4 -8.5 -14t3 -21.5t8.5 -22.5t7 -17q6 -18 8.5 -42.5t-10.5 -41.5q-5 -7 -16.5 -9.5t-24.5 -2.5t-26 1.5t-20 1.5q6 7 7.5 18t1 23.5t-2 24t-1.5 20.5v61q0 8 0.5 15t-5.5 14h37q-7 -6 -6 -16t1 -18v-69q0 -8 -1 -24t5 -23q7 -11 18.5 -4t13.5 16 q4 13 1.5 26.5t-4.5 26.5zM590 317q-2 -4 -7.5 -14.5t-10 -22t-5.5 -22t5 -13.5q-3 6 2 6.5t10.5 -2t7 -7t-8.5 -8.5q-12 -5 -17 4.5t-4 17.5q0 8 3 16t4 15t-2 11t-14 3v-76q8 0 20.5 -1.5t21.5 5.5q-3 -7 -4 -13t-3 -13h-68q5 6 5.5 12.5t0.5 13.5v121q0 7 -0.5 15 t-5.5 14h62q12 -12 12.5 -29t-4.5 -33zM502 374q0 -7 3.5 -14.5t6.5 -15t2.5 -14.5t-7.5 -13q-7 -5 -16.5 -4.5t-10.5 10.5q0 6 3.5 8.5t7.5 2.5t7 -2.5t2 -6.5q7 1 7 6t-4 10.5t-9 10t-9 5.5q-7 2 -16 0.5t-12 -9.5q-6 -12 -2 -21t12 -16t18 -13.5t16 -13.5q7 -10 11 -23 t2 -25.5t-10 -21.5t-23 -11q-13 -1 -26 -0.5t-27 0.5q4 2 2.5 9.5t-4 16.5t-4 18.5t3.5 15.5t16 6.5t13 -10.5q0 -5 -3.5 -7.5t-7.5 -2.5t-7 2t-3 7q-6 -2 -6 -7t3.5 -10t8.5 -9.5t8 -5.5q7 -2 17 -2t15 5q10 10 8 20t-9.5 18.5t-17.5 15.5t-15 12q-9 8 -15 20.5t-6 25.5 t6.5 23.5t21.5 13.5q13 3 26.5 2t25.5 -1zM146 -65l-21 -109h-21q-3 18 -5.5 36t-4.5 36q-2 -18 -5.5 -36t-6.5 -36h-21l-19 109h23q2 -20 3.5 -40.5t5.5 -40.5q2 20 5 40.5t7 40.5h18l12 -81q2 20 4.5 40.5t4.5 40.5h21zM252 -65l-21 -109h-20q-4 18 -6.5 36t-4.5 36 q-2 -18 -5 -36l-6 -36h-22l-18 109h22q2 -20 4 -40.5t5 -40.5q2 20 5 40.5t7 40.5h19l11 -81q2 20 4.5 40.5t4.5 40.5h21zM358 -65l-20 -109h-21q-4 18 -6 36t-5 36q-2 -18 -5 -36l-6 -36h-21l-19 109h22q2 -20 4.5 -40.5t4.5 -40.5q2 20 5 40.5t7 40.5h19l12 -81 q1 20 3.5 40.5t5.5 40.5h20zM546 -122q7 -3 10.5 -9.5t5 -14t2.5 -15t4 -13.5h-25q-3 6 -4 13.5t-3 14t-6 11t-13 3.5v-42h-26v108q14 2 31.5 3t30.5 -7q15 -11 11 -28t-18 -24zM748 -174h-25q-10 19 -18 38.5t-17 37.5q1 -19 1 -38v-38h-23v109h28l33 -74q-2 19 -2 37.5 v36.5h23v-109zM487 2q6 7 7.5 18t1 23t-2 23.5t-1.5 19.5v62q0 8 0.5 14.5t-5.5 14.5h37q-5 -5 -6.5 -15t-1 -20.5t1.5 -21t1 -17.5v-81h51q11 0 27 -1.5t27 6.5q-2 -4 -3.5 -14.5t-6.5 -10.5h-127zM478 -174h-25l-7 25h-26l-5 -25h-26l29 109h31zM848 -170 q-20 -8 -38.5 -4.5t-30.5 14.5t-16 29t7 39q6 14 19.5 21t30.5 7h5t8.5 -1t8 -2t3.5 -2l-4 -20q-13 6 -23.5 4t-18 -9t-10 -18t1.5 -23q8 -23 30 -20q5 1 4 10.5t-1 13.5h-13v20h37v-59zM573 90q-6 11 -10.5 22.5t-8.5 22.5q-5 11 -7 22.5t-11 19.5h38q-6 -14 1 -32t13 -30 q6 14 11 30.5t0 31.5h39q-11 -6 -13 -19t-5 -23t-11.5 -23.5t-8.5 -23.5q0 -11 -1.5 -27.5t6.5 -25.5h-37q9 9 7 26.5t-2 28.5zM347 135q0 8 -5 13.5t-11 7.5t-11.5 -1t-7.5 -11q-1 -7 -0.5 -14.5t0.5 -13.5q0 -18 -0.5 -36.5t0.5 -36.5q0 -8 4.5 -13t10.5 -7t11.5 0.5 t7.5 11.5q1 6 1 13.5v14.5v72zM451 17q-2 31 -10.5 62.5t-28.5 56.5v-113q0 -7 5.5 -11.5t12.5 -5.5t13.5 1.5t7.5 9.5zM262 536q-14 -3 -25.5 -11.5t-21.5 -18.5q-3 -3 -7.5 -12.5t-7.5 -19t-2 -17t11 -7.5q15 0 24 9.5t15 23t9 28.5zM582 -65h26v-109h-26v109zM259 464 q7 2 14.5 9.5t12.5 17t7 19.5t0 17q-3 11 -16 11q-7 -18 -10 -36.5t-8 -37.5zM553 323q10 0 22.5 1t13.5 16q0 8 -3.5 11.5t-9 5t-12 1.5h-11.5v-35zM635 553q-1 4 -2 6.5t-6 0.5q-8 -4 -12.5 -11.5t-6.5 -15.5q-2 -5 0.5 -13.5t10.5 -1.5q6 6 10.5 16t5.5 19zM486 510 q5 -7 12 -3q8 2 11.5 10.5t1.5 16.5q-1 5 -4.5 8t-10.5 -2q-10 -7 -12 -23zM349 -160q0 7 4.5 11t10.5 4t10.5 -4t4.5 -11q0 -8 -4.5 -11.5t-10.5 -3.5t-10.5 3.5t-4.5 11.5zM622 -160q0 7 4.5 11t10.5 4t10.5 -4t4.5 -11q0 -8 -4.5 -11.5t-10.5 -3.5t-10.5 3.5t-4.5 11.5z M523 -113q9 0 13 5t3 11t-5.5 10.5t-13.5 3.5q-5 -1 -4 -13t1 -17h6zM443 -130q-2 11 -4.5 22.5t-5.5 22.5l-10 -45h20zM437 518q-3 -4 -7 -11t-3 -12q2 -6 8 -5t7 7q1 9 -5 21zM320 482q6 -1 14 7.5t9 13.5q2 4 -1 6t-6 -1q-5 -5 -9 -12t-7 -14zM704 607q-18 -18 -24 -42 q8 10 15.5 19.5t9.5 22.5h-1zM383 539q0 4 0.5 6.5t-0.5 6.5q-3 0 -4 -3q-1 -4 2 -10h2z"/>
<glyph glyph-name="nine" unicode="9" d="M17 397q34 18 67 33t71 26q2 0 4 10t4 22t4 23.5t4 15.5q11 17 33 26t38 17q43 17 87.5 30t89.5 25q46 11 92 19t93 12q16 2 39 4t46.5 1.5t45 -6t34.5 -18.5q1 -2 -1 -14t-3 -16l-3 -48q0 -2 2 -2q38 -11 74.5 -28.5t60.5 -50.5v-1q-8 2 -18 -1.5t-20 -10t-18.5 -13.5 t-13.5 -13q15 -8 24.5 -23t13.5 -32.5t3 -35.5t-6 -33q-8 21 -24.5 32.5t-36.5 17t-41.5 7t-40.5 2.5q-22 2 -46 1t-45 7q-8 3 -11 12.5t-3.5 21t1 22.5t2.5 18q-90 -7 -177.5 -27.5t-171.5 -49.5q-4 -1 -4 -3q1 -5 4 -16.5t5 -24.5t3 -24t-3 -14q-11 -9 -28.5 -10.5 t-31.5 -3.5q-19 -3 -38.5 -6t-38.5 -6q-17 -4 -32.5 -8.5t-30.5 -10.5q-7 -4 -14 -6.5t-14 -7.5q-4 -4 -9 -10t-8 -8q5 17 12 33t13 31q1 3 6.5 12.5t10.5 20t9 19t3 10.5q-12 17 -28.5 33t-38.5 18zM747 457q3 27 3 55t2 54q0 14 1 28t3 28q1 7 -3 11t-10 6.5t-13 3.5 t-13 2q-58 9 -120 0.5t-120 -20.5q-63 -13 -124.5 -29.5t-121.5 -42.5q-11 -6 -22.5 -12t-21.5 -14t-12 -24t-4 -27q-4 -32 -4 -64.5v-65.5q4 0 11 3t14 7.5t13.5 9t11.5 6.5q18 8 36.5 14.5t37.5 13.5q38 11 76 21t78 19q38 8 75.5 15.5t76.5 10.5q35 4 75.5 5.5 t74.5 -14.5zM660 519q-5 -4 -8 -7.5t-9 -5.5q-5 -2 -8 0l-6 4q-2 -2 -6 -4t-8 -3q-15 -3 -21 10v1q-4 -5 -8.5 -8.5t-11.5 -5.5q-7 -4 -12 6q-3 6 -1.5 11.5t4 10.5t4.5 10.5t1 11.5q-9 -4 -12.5 -9.5t-5.5 -12.5t-3 -14t-4 -14q-3 -8 -12 -4q-4 1 -4 5q0 2 0.5 4.5t0.5 3.5 q-7 -2 -9.5 -2t-7.5 -5t-12 -9t-15 -4q-5 1 -8 4t-5 7q-8 -8 -19.5 -16t-24.5 -6q-8 1 -12 9q-12 -14 -25 -18q-14 -6 -16 10q-2 13 4 21.5t11 18.5q1 2 -1.5 2.5t-3.5 -1.5q-4 -10 -9 -21.5t-12.5 -22t-17.5 -17t-23 -5.5q-15 1 -17.5 11t3 22.5t15.5 22.5t21 11q6 0 8 -5 q4 -6 1 -14q-3 -11 -13.5 -19.5t-21.5 -10.5q1 -6 5 -6.5t8.5 1.5t8.5 5t6 5q12 10 17.5 22.5t10.5 25.5q1 1 -0.5 4.5t-4 7.5t-4 8.5t-0.5 7.5q5 13 17 11q6 0 8 -6q2 -5 1 -11t-1 -12q10 1 14 -0.5t-2 -13.5q-4 -8 -8.5 -16.5t-5.5 -17.5q0 -5 3 -5q10 0 17 10t12.5 22.5 l11 25t12.5 16.5q4 1 8 -1q1 -2 1 -6q-2 -6 -5 -10.5t-1 -11.5q3 -6 6.5 -12.5t2.5 -13.5h1q10 12 16 29.5t22 25.5q18 7 24 -10q5 -7 3 -12.5t-1 -13.5q4 1 7 5q8 6 9 17t4 20q2 2 5.5 2.5t5.5 -0.5q5 -1 4 -6v-1q5 5 12 8q5 3 8.5 1t5.5 -7q2 -6 0.5 -11t-4 -10.5l-5 -11 t-1.5 -11.5q7 6 12 13t9 14.5t8.5 14t12.5 11.5q10 5 25 0q2 3 8.5 4t4.5 -7q-2 -9 -7 -19t-5 -20q0 -7 4 -1q10 10 15 23.5t9.5 27t11.5 26t21 20.5q7 4 12 -4q6 -11 2 -23.5t-12 -20.5q-7 -9 -21 -21.5t-12 -25.5q2 -8 11 -6q7 3 10.5 9.5t7.5 12.5q2 1 6 1t4 -5l-2 -6 q-8 -19 -26 -26q-12 -7 -21 7q-2 2 -2 5zM878 485q-24 23 -54 37.5t-62 22.5q-1 -28 -1.5 -55t-2.5 -55l-1 1v-3q-13 -1 -31.5 -2t-36.5 -4.5t-33.5 -10.5t-23.5 -19q-4 -3 2 -4q13 -5 28 -6.5t30.5 -1.5h30.5t29 -1t28 -2.5t28 -6.5q14 -4 25 -11.5t24 -13.5q0 30 -10.5 52 t-39.5 33q17 15 34 28.5t37 21.5zM156 445q-29 -8 -57 -19.5t-55 -25.5q33 -18 53 -53q1 -1 -2 -7.5t-7 -14t-7.5 -14t-4.5 -9.5q-12 -22 -20 -46q25 13 51 19t53 10t53.5 7.5t52.5 11.5q-9 9 -23 12.5t-30 4t-32 -1t-27 -2.5v64t2 64zM385 166q0 5 -4 11h28q14 -6 25 -24.5 t17 -32.5q0 12 1 29t-6 28h36q-6 -5 -5.5 -12t0.5 -14v-120q0 -7 -0.5 -15.5t5.5 -13.5h-101q5 7 6.5 17t1 21.5t-2 22.5t-1.5 19v84zM334 177q18 0 26.5 -10t11.5 -24.5t2 -31t-1 -29.5v-39q0 -23 -13 -32.5t-35 -8.5q-19 0 -27.5 10t-11.5 24.5t-2 31t1 29.5q0 10 -0.5 19 t0.5 19q0 24 13 33t36 9zM281 551q6 0 10 -1q8 -1 13.5 -7.5t6.5 -15.5q3 -21 -11.5 -40.5t-32.5 -30.5q-9 -6 -13.5 -15.5l-9 -19t-10 -18.5t-16.5 -14q-11 -8 -26 -5q-6 2 -10 7t-3 12q0 11 7.5 18.5t17.5 9.5q3 1 7.5 -1t2.5 -7q-6 -4 -11 -4q-6 -2 -8 -8t1 -11 q2 -2 4 -2.5t4 -1.5q10 -1 16.5 5.5t11 16.5t6.5 20t4 17q-13 -13 -30 -17q-13 -2 -21 6q-8 4 -8 18q0 13 6 25q13 30 42 48q6 3 12.5 6t13.5 5q5 2 10.5 6t10.5 5q6 0 3 -6zM384 294q-2 7 -5 18.5t-4 23.5t1 22.5t10 16.5q5 5 15.5 5t14.5 -8q3 -8 -1 -10.5t-9 -2t-8.5 4 t0.5 7.5q-8 -4 -8.5 -14t3 -21.5t8.5 -22.5t7 -17q6 -18 8.5 -42.5t-10.5 -41.5q-5 -7 -16.5 -9.5t-24.5 -2.5t-26 1.5t-20 1.5q6 7 7.5 18t1 23.5t-2 24t-1.5 20.5v61q0 8 0.5 15t-5.5 14h37q-7 -6 -6 -16t1 -18v-69q0 -8 -1 -24t5 -23q7 -11 18.5 -4t13.5 16 q4 13 1.5 26.5t-4.5 26.5zM590 317q-2 -4 -7.5 -14.5t-10 -22t-5.5 -22t5 -13.5q-3 6 2 6.5t10.5 -2t7 -7t-8.5 -8.5q-12 -5 -17 4.5t-4 17.5q0 8 3 16t4 15t-2 11t-14 3v-76q8 0 20.5 -1.5t21.5 5.5q-3 -7 -4 -13t-3 -13h-68q5 6 5.5 12.5t0.5 13.5v121q0 7 -0.5 15 t-5.5 14h62q12 -12 12.5 -29t-4.5 -33zM502 374q0 -7 3.5 -14.5t6.5 -15t2.5 -14.5t-7.5 -13q-7 -5 -16.5 -4.5t-10.5 10.5q0 6 3.5 8.5t7.5 2.5t7 -2.5t2 -6.5q7 1 7 6t-4 10.5t-9 10t-9 5.5q-7 2 -16 0.5t-12 -9.5q-6 -12 -2 -21t12 -16t18 -13.5t16 -13.5q7 -10 11 -23 t2 -25.5t-10 -21.5t-23 -11q-13 -1 -26 -0.5t-27 0.5q4 2 2.5 9.5t-4 16.5t-4 18.5t3.5 15.5t16 6.5t13 -10.5q0 -5 -3.5 -7.5t-7.5 -2.5t-7 2t-3 7q-6 -2 -6 -7t3.5 -10t8.5 -9.5t8 -5.5q7 -2 17 -2t15 5q10 10 8 20t-9.5 18.5t-17.5 15.5t-15 12q-9 8 -15 20.5t-6 25.5 t6.5 23.5t21.5 13.5q13 3 26.5 2t25.5 -1zM146 -65l-21 -109h-21q-3 18 -5.5 36t-4.5 36q-2 -18 -5.5 -36t-6.5 -36h-21l-19 109h23q2 -20 3.5 -40.5t5.5 -40.5q2 20 5 40.5t7 40.5h18l12 -81q2 20 4.5 40.5t4.5 40.5h21zM252 -65l-21 -109h-20q-4 18 -6.5 36t-4.5 36 q-2 -18 -5 -36l-6 -36h-22l-18 109h22q2 -20 4 -40.5t5 -40.5q2 20 5 40.5t7 40.5h19l11 -81q2 20 4.5 40.5t4.5 40.5h21zM358 -65l-20 -109h-21q-4 18 -6 36t-5 36q-2 -18 -5 -36l-6 -36h-21l-19 109h22q2 -20 4.5 -40.5t4.5 -40.5q2 20 5 40.5t7 40.5h19l12 -81 q1 20 3.5 40.5t5.5 40.5h20zM546 -122q7 -3 10.5 -9.5t5 -14t2.5 -15t4 -13.5h-25q-3 6 -4 13.5t-3 14t-6 11t-13 3.5v-42h-26v108q14 2 31.5 3t30.5 -7q15 -11 11 -28t-18 -24zM748 -174h-25q-10 19 -18 38.5t-17 37.5q1 -19 1 -38v-38h-23v109h28l33 -74q-2 19 -2 37.5 v36.5h23v-109zM487 2q6 7 7.5 18t1 23t-2 23.5t-1.5 19.5v62q0 8 0.5 14.5t-5.5 14.5h37q-5 -5 -6.5 -15t-1 -20.5t1.5 -21t1 -17.5v-81h51q11 0 27 -1.5t27 6.5q-2 -4 -3.5 -14.5t-6.5 -10.5h-127zM478 -174h-25l-7 25h-26l-5 -25h-26l29 109h31zM848 -170 q-20 -8 -38.5 -4.5t-30.5 14.5t-16 29t7 39q6 14 19.5 21t30.5 7h5t8.5 -1t8 -2t3.5 -2l-4 -20q-13 6 -23.5 4t-18 -9t-10 -18t1.5 -23q8 -23 30 -20q5 1 4 10.5t-1 13.5h-13v20h37v-59zM573 90q-6 11 -10.5 22.5t-8.5 22.5q-5 11 -7 22.5t-11 19.5h38q-6 -14 1 -32t13 -30 q6 14 11 30.5t0 31.5h39q-11 -6 -13 -19t-5 -23t-11.5 -23.5t-8.5 -23.5q0 -11 -1.5 -27.5t6.5 -25.5h-37q9 9 7 26.5t-2 28.5zM347 135q0 8 -5 13.5t-11 7.5t-11.5 -1t-7.5 -11q-1 -7 -0.5 -14.5t0.5 -13.5q0 -18 -0.5 -36.5t0.5 -36.5q0 -8 4.5 -13t10.5 -7t11.5 0.5 t7.5 11.5q1 6 1 13.5v14.5v72zM451 17q-2 31 -10.5 62.5t-28.5 56.5v-113q0 -7 5.5 -11.5t12.5 -5.5t13.5 1.5t7.5 9.5zM262 536q-14 -3 -25.5 -11.5t-21.5 -18.5q-3 -3 -7.5 -12.5t-7.5 -19t-2 -17t11 -7.5q15 0 24 9.5t15 23t9 28.5zM582 -65h26v-109h-26v109zM259 464 q7 2 14.5 9.5t12.5 17t7 19.5t0 17q-3 11 -16 11q-7 -18 -10 -36.5t-8 -37.5zM553 323q10 0 22.5 1t13.5 16q0 8 -3.5 11.5t-9 5t-12 1.5h-11.5v-35zM635 553q-1 4 -2 6.5t-6 0.5q-8 -4 -12.5 -11.5t-6.5 -15.5q-2 -5 0.5 -13.5t10.5 -1.5q6 6 10.5 16t5.5 19zM486 510 q5 -7 12 -3q8 2 11.5 10.5t1.5 16.5q-1 5 -4.5 8t-10.5 -2q-10 -7 -12 -23zM349 -160q0 7 4.5 11t10.5 4t10.5 -4t4.5 -11q0 -8 -4.5 -11.5t-10.5 -3.5t-10.5 3.5t-4.5 11.5zM622 -160q0 7 4.5 11t10.5 4t10.5 -4t4.5 -11q0 -8 -4.5 -11.5t-10.5 -3.5t-10.5 3.5t-4.5 11.5z M523 -113q9 0 13 5t3 11t-5.5 10.5t-13.5 3.5q-5 -1 -4 -13t1 -17h6zM443 -130q-2 11 -4.5 22.5t-5.5 22.5l-10 -45h20zM437 518q-3 -4 -7 -11t-3 -12q2 -6 8 -5t7 7q1 9 -5 21zM320 482q6 -1 14 7.5t9 13.5q2 4 -1 6t-6 -1q-5 -5 -9 -12t-7 -14zM704 607q-18 -18 -24 -42 q8 10 15.5 19.5t9.5 22.5h-1zM383 539q0 4 0.5 6.5t-0.5 6.5q-3 0 -4 -3q-1 -4 2 -10h2z"/>
<glyph glyph-name="colon" unicode=":" horiz-adv-x="155" d="M63 81q15 0 21.5 -11.5t5.5 -25t-9 -24.5t-22 -11t-20.5 11t-5.5 24.5t8.5 25t21.5 11.5zM74 275q17 0 25 -13.5t7 -29.5t-10.5 -29.5t-26.5 -13.5t-24.5 13.5t-6.5 29.5t10 29.5t26 13.5z"/>
<glyph glyph-name="semicolon" unicode=";" horiz-adv-x="155" d="M44 69q1 14 12 14.5t16 -10.5q10 -25 9 -53q-2 -33 -11 -64.5t-20 -63.5q-2 -5 -5.5 -9.5t-7 -6.5t-6 0t-2.5 11q-1 17 1 33.5t4 33.5q2 29 4 57.5t6 57.5zM74 275q17 0 25 -13.5t7 -29.5t-10.5 -29.5t-26.5 -13.5t-24.5 13.5t-6.5 29.5t10 29.5t26 13.5z"/>
<glyph glyph-name="less" unicode="&lt;" horiz-adv-x="273" d="M191 330q5 3 12 3t13 -3t9.5 -8.5t0.5 -11.5q-4 -10 -16.5 -14.5t-20.5 -9.5q-31 -17 -60 -39t-52 -49q-12 -12 -16 -24q-2 -4 3.5 -6t7.5 -3q17 -9 33.5 -19t31.5 -22q25 -20 48.5 -40.5t44.5 -44.5q4 -5 2.5 -7.5t-5 -3.5t-8 0t-7.5 4q-10 10 -21 19.5t-22 19.5 q-15 13 -31 24.5t-33 22.5q-15 9 -31 16t-30 16q-16 10 -12.5 25.5t17.5 34t35.5 38t43 36.5t39 29t24.5 17z"/>
<glyph glyph-name="equal" unicode="=" horiz-adv-x="293" d="M209 215q12 1 14.5 -9.5t-5.5 -17.5q-21 -15 -46 -18q-29 -5 -60 -1.5t-60 10.5q-3 1 -7 3t-7 5t-3 6t7 5q14 4 27.5 4t27.5 2q28 2 56 7t56 4zM209 151q12 1 14.5 -9.5t-5.5 -17.5q-21 -15 -46 -18q-29 -5 -60 -1.5t-60 11.5q-3 0 -7 2.5t-7 5t-3 5.5t7 5q14 4 27.5 4 t27.5 2q28 2 56 7t56 4z"/>
<glyph glyph-name="greater" unicode="&gt;" horiz-adv-x="264" d="M33 270q-5 1 -9.5 5.5t-6.5 10.5t-1.5 12t5.5 9q8 6 19 1.5t19 -8.5q32 -13 62 -28t58 -35q13 -8 26.5 -19.5t18.5 -26.5q6 -19 -5.5 -28.5t-25.5 -17.5q-31 -20 -58.5 -44t-51.5 -52q-1 -2 -4.5 -6.5l-7 -9t-7.5 -8t-6 -2.5q-6 2 -6.5 6.5t1.5 9.5t5.5 9.5t5.5 6.5 q22 29 47 53t53 47q8 6 16 11.5t16 10.5q5 4 1.5 7.5l-6.5 6.5q-12 13 -27.5 22.5t-31.5 17.5q-23 12 -48 23t-51 16z"/>
<glyph glyph-name="question" unicode="?" horiz-adv-x="310" d="M112 158q2 -9 4.5 -18.5t6.5 -18.5q2 -4 5 -9.5t1 -10.5q-1 -5 -6 -2.5t-11 7.5t-10.5 10.5t-5.5 6.5q-14 21 -17 52q-3 33 6.5 65t26.5 61q-25 5 -43 22.5t-24 46.5q-8 34 -2 73t22.5 75t43 65t60.5 43q19 8 36 6.5t30 -10.5t21 -24.5t9 -35.5q2 -41 -12.5 -79.5 t-34.5 -73.5q-12 -23 -28 -45.5t-31 -45.5q37 10 68 29q1 0 6.5 3.5t11.5 7t11 5t5 -2.5q0 -7 -4.5 -12.5t-11.5 -10t-14 -8t-12 -5.5q-17 -8 -34 -14.5t-36 -8.5h-2q-20 -33 -31.5 -68t-3.5 -75zM66 390q1 -31 16 -49.5t41 -22.5l1 1q23 32 46.5 61t41.5 63q8 14 16.5 33 t13 39t3.5 39.5t-12 34.5q-13 16 -30 12.5t-34 -15.5t-31.5 -28t-21.5 -26q-22 -30 -37 -67t-13 -75zM115 -8q18 0 25.5 -13.5t6.5 -29.5t-10.5 -29.5t-25.5 -13.5q-17 0 -25 13.5t-7 29.5t10 29.5t26 13.5z"/>
<glyph glyph-name="at" unicode="@" horiz-adv-x="319" d="M180 -91q6 18 9 37q2 5 1 14t2 13q1 2 3.5 1t4.5 -4t3.5 -5.5t1.5 -3.5q4 -11 4 -25q-2 -29 -17 -58.5t-41 -42.5q-17 -9 -33.5 -7t-31 11t-26 22.5t-18.5 27.5q-18 35 -26 73t-11 76q-8 88 7 172q6 40 18 80t35 74q20 31 53 47.5t70 0.5q34 -14 53.5 -47t29.5 -66 q16 -59 16 -125t-28 -121q-4 -11 -11.5 -20t-15.5 -14q-23 -14 -37.5 -1.5t-23.5 33.5l-11 -27q-3 -6 -7.5 -14.5t-10 -15t-13 -10.5t-16.5 -1q-14 5 -21.5 19t-10.5 28q-11 38 -10.5 79t10.5 79q3 13 10 29.5t17.5 29.5t25 18t31.5 -5q9 -6 7.5 -9t-7.5 -5t-13.5 -3.5 t-10.5 -3.5q-13 -8 -19 -24.5t-11 -30.5q-11 -35 -15.5 -76t4.5 -77q2 -8 6 -17.5t12 -13.5q6 -3 11.5 5t7.5 12q9 17 14 34.5t9 36.5q-1 2 -1 5q-3 18 -3.5 36.5t1.5 36.5q1 13 2.5 28.5t9.5 26.5q5 6 10 7.5t11 0.5q13 -5 13.5 -18.5t-0.5 -24.5q-2 -17 -4.5 -33t-6.5 -32 v-2q0 -5 0.5 -23.5t4 -36t10.5 -27t20 4.5l15 16l4 11q6 14 10 28.5t7 28.5q14 77 -5 154q-4 17 -10.5 35t-15.5 34.5t-22 30t-30 20.5q-19 7 -36 4t-31 -12.5t-25 -24.5t-19 -30q-18 -36 -29 -76.5t-15 -83t-3 -85t7 -81.5q3 -18 6.5 -38t10.5 -39t16.5 -36t24.5 -29 q16 -14 30.5 -14t26.5 8t21 22t15 29z"/>
<glyph glyph-name="A" unicode="A" horiz-adv-x="315" d="M265 -3q13 -1 25.5 8.5t23.5 16.5q2 2 7 5.5t8 1.5t-0.5 -8t-5.5 -8q-7 -11 -17.5 -20t-22.5 -14t-24.5 -3.5t-23.5 12.5t-16.5 24t-10.5 27q-5 13 -8 26t-5 27q-9 42 -12 83q-20 -3 -38.5 -7t-37.5 -8q-10 -2 -19 -4.5t-19 -4.5q-6 -36 -11.5 -71.5t-10.5 -71.5 q-1 -5 -1.5 -10.5t-2.5 -10.5t-5 -3.5t-5 5.5q-7 16 -7 29q1 43 6 89l4 44q-14 3 -27 8t-27 11q-3 1 -9 3.5t-11 6t-8 7.5t0 10q4 9 15.5 10t19.5 3l43 3h12q5 42 13 82.5t17 82.5q16 73 39 147q5 17 10.5 34.5t12.5 34.5l12 32t17 29q5 6 12.5 9.5t13.5 -3.5q5 -5 6 -10.5 t3 -11.5l3 -25q2 -24 3 -48t3 -49q5 -74 5.5 -147t2.5 -147v-9q3 0 6 -0.5t7 -0.5q17 0 32.5 -1t32.5 -3q11 -2 8 -9.5t-11 -10.5q-10 -5 -21 -4t-22 0q-8 -1 -16 -1.5t-16 -2.5q1 -23 2.5 -46.5t4.5 -46.5q2 -14 4.5 -27t7.5 -26q3 -11 9.5 -24t19.5 -14zM80 214 q14 1 26.5 1h25.5h48q-6 73 -5.5 146t5.5 146l2 38t1 38v19.5t-1 19.5q0 5 -1 9q-2 8 -3 8q-3 -2 -5 -7.5t-4 -9.5l-6 -15q-3 -8 -6 -16.5t-5 -16.5q-5 -17 -9 -35t-8 -35q-15 -72 -27.5 -143.5t-26.5 -143.5q0 -1 -0.5 -1.5t-0.5 -1.5z"/>
<glyph glyph-name="B" unicode="B" horiz-adv-x="282" d="M65 489q3 34 15 67q4 11 9 22t13 19q1 2 3 4t4 2t4.5 -3t3.5 -5q2 -5 2 -10v-10q0 -22 -3 -41q-3 -26 -7.5 -51.5t-8.5 -51.5q-5 -32 -9.5 -65t-8.5 -65l-4 -28q5 -1 10.5 -2t10.5 -3q11 -4 20.5 -8t18.5 -9l13 12q23 26 37 57.5t22 63.5q8 35 12 70.5t0 70.5 q-2 15 -4 31.5t-7.5 32t-14.5 28.5t-25 20t-33 7.5t-33 -5t-30.5 -15t-24.5 -22.5q-20 -26 -28.5 -59.5t-5.5 -65.5q2 -17 4.5 -32.5t4.5 -31.5q2 -6 3 -11.5t1 -12.5v-4.5t-2 -2.5q-2 -1 -4.5 1t-4.5 4q-27 21 -35 50q-11 32 -9 65q2 32 14 63t36 54q13 11 26 20t30 15 q17 7 34.5 9t35.5 0q33 -3 59.5 -22.5t40.5 -48.5q17 -33 19.5 -70.5t-2.5 -73.5q-9 -67 -43 -129q-13 -23 -28.5 -43.5t-35.5 -37.5q29 -21 47 -46q20 -27 30.5 -60.5t8.5 -67.5q-1 -31 -14.5 -60t-40.5 -46q-14 -9 -31 -12.5t-33 0.5q-17 4 -29 14.5t-20 24.5 q-18 32 -23 69.5t-7 72.5q-2 20 -2 39.5v39.5q-20 3 -34 17q-13 14 -6 29t23 20q7 2 19 4q2 54 7 106.5t10 106.5zM132 219q-27 -15 -59 -15q-1 -12 -1 -24v-23q-1 -36 1.5 -73.5t16.5 -71.5q5 -14 14.5 -27t26.5 -14q17 0 30 9.5t20 23.5q15 29 16 63t-8 64q-8 26 -22 48.5 t-35 39.5zM98 228q4 1 7 2t7 3q-9 5 -18 9t-18 7q-1 -7 -1.5 -13.5t-0.5 -12.5q11 0 24 5zM46 225v14t1 14q-14 0 -21 -5q-5 -5 -1 -10.5t9 -7.5q8 -4 12 -5z"/>
<glyph glyph-name="C" unicode="C" horiz-adv-x="230" d="M168 -19q10 3 19 8.5t17 12.5q7 6 13 13.5t14 12.5q3 3 4 1t0.5 -5.5t-2 -7t-1.5 -4.5q-8 -17 -21 -29q-21 -21 -52.5 -27t-56.5 14q-25 19 -38.5 48t-22.5 58q-20 69 -26 141t-4 143q3 77 18 152q8 33 19.5 65.5t33.5 59.5q9 11 22.5 22.5t28.5 18.5t30.5 7t29.5 -12 t20 -29t11 -34t7 -35t3 -36q12 8 31 15q12 5 22 4q3 0 5 -1.5t-1 -3.5q-5 -5 -12 -8.5l-13 -6.5l-22 -11l-9 -6q1 -29 -3 -58.5t-12 -57.5q-7 -33 -24 -65q-3 -6 -7.5 -13t-10.5 -12.5t-13 -8.5t-16 -1q-17 5 -20.5 22.5t-1.5 32.5q2 18 7 35t12 33q11 24 25 46.5t33 41.5 l2 28q1 19 0.5 37t-4.5 36q-3 13 -10 28.5t-22 19.5q-15 3 -28.5 -6t-21.5 -20q-10 -14 -16.5 -30t-11.5 -33q-12 -35 -20 -70.5t-13 -71.5q-10 -71 -11.5 -143t8.5 -143q4 -30 10.5 -60.5t19.5 -58.5q5 -11 12.5 -22.5t18.5 -19.5t24.5 -9.5t26.5 3.5zM188 398q5 23 8.5 46 t5.5 46q-22 -26 -36 -57.5t-19 -64.5q-2 -9 -2 -19t3 -18q4 -8 9 -5t9 8q9 14 13.5 31t8.5 33z"/>
<glyph glyph-name="D" unicode="D" horiz-adv-x="305" d="M47 492q-1 17 0.5 32.5t4.5 31.5q2 8 4.5 15t5.5 15q2 4 4 8.5t5 8.5q1 2 4 -1.5t5.5 -9t4.5 -11t2 -7.5q3 -11 4 -22t1 -22q1 -24 0.5 -47.5t-0.5 -47.5v-58t-1 -58q-1 -33 -2 -65.5t-3 -65.5q-3 -72 -13.5 -114t-17.5 -63.5t-5.5 -29t24.5 -11.5q29 -5 50 5t36 30 t24.5 47.5t15 56.5t7.5 56.5t3 48.5q3 74 -0.5 148t-22.5 152q-8 31 -21 64t-42 51q-30 19 -63 12.5t-55 -32.5q-21 -26 -26.5 -60t-2.5 -65q2 -16 4.5 -31.5t5.5 -31.5q0 -2 1.5 -9t2.5 -14.5t0.5 -12.5t-4.5 -3q-26 13 -38 42t-14 56q-3 27 2 54.5t17.5 51.5t32 42.5 t46.5 27.5q28 10 57 6.5t55 -19.5q29 -17 48 -46t30 -60q14 -35 20 -71.5t10 -73.5q6 -75 3 -152q-2 -38 -7 -76t-15 -76q-9 -32 -24.5 -64t-44.5 -52q-22 -15 -49 -19t-50.5 1t-39 18.5t-13.5 32.5q1 7 3.5 11t6.5 11t8.5 20.5t8.5 40.5t7.5 71t5.5 111q2 56 -0.5 111 t-5.5 111z"/>
<glyph glyph-name="E" unicode="E" horiz-adv-x="220" d="M153 -21q20 6 38 19q7 6 12.5 12t11.5 12q1 2 5 6t6 0q2 -5 -1.5 -11.5t-5.5 -10.5q-4 -6 -8 -11.5t-9 -10.5q-23 -22 -53.5 -27.5t-57.5 11.5q-30 18 -48 50t-27 64q-11 34 -12.5 71t8.5 72q6 23 20 45.5t35 36.5q-5 7 -11 18q-18 30 -26.5 65.5t-8.5 70.5q1 37 7 72.5 t23 68.5q7 14 17.5 28.5t23 26.5t27.5 19.5t33 7.5q17 0 30.5 -9.5t23 -23.5t15 -30t8.5 -31q2 -8 2.5 -14.5t1.5 -14.5q5 2 9 5t9 5q8 3 21.5 8t22.5 1q4 -2 0.5 -4.5t-5.5 -3.5q-7 -5 -14 -8t-15 -6q-16 -8 -28 -16q0 -24 -3 -48.5t-8 -47.5l-10 -34t-14 -32 q-4 -6 -9.5 -12t-12 -9.5t-13.5 -3t-14 6.5q-12 11 -12 27.5t2 30.5q6 32 23 63q16 30 39 53v3q-1 19 -2.5 37.5t-6.5 36.5q-3 14 -9.5 30t-22.5 21q-15 5 -29 -3t-24 -19q-11 -13 -18 -28t-12 -32q-9 -30 -10.5 -61t-2.5 -63q-1 -23 1 -45.5t6 -45.5q2 -12 6 -25t11 -24 q2 0 3 1q13 5 24.5 4t23.5 -4q8 -3 14 -7.5t8 -12.5q4 -14 -10 -25q-12 -8 -27 -5.5t-26 10.5q-6 3 -11 8l-2 -2q-24 -25 -30.5 -62.5t-5.5 -71.5q0 -33 5.5 -68t22.5 -64q12 -22 31.5 -34t44.5 -6zM199 463q1 12 1.5 24.5t0.5 24.5q-8 -10 -15 -21t-13 -23 q-8 -16 -13 -33.5t-6 -34.5q0 -6 1.5 -15t9.5 -11q7 -2 11.5 6t6.5 13q8 17 11 35t5 35zM133 301q-18 3 -29 -2q3 -2 6.5 -4.5t7.5 -4.5q5 -3 13 -3.5t13 4.5q4 4 -2 6.5t-9 3.5z"/>
<glyph glyph-name="F" unicode="F" horiz-adv-x="273" d="M22 613q45 10 90 20.5t90 21.5q21 5 42 9.5t42 9.5q20 4 43.5 4.5t38.5 -14.5q8 -8 5 -15t-10.5 -13t-17.5 -10t-16 -6q-18 -5 -36.5 -8.5t-37.5 -6.5q-31 -5 -61.5 -9t-60.5 -7q-1 -3 -1 -7q0 -9 -0.5 -17.5t-1.5 -17.5q-4 -72 -6.5 -144t-5.5 -144l-2 -25 q13 5 25.5 9.5t24.5 9.5q13 7 25 8t24 -1t23 -4q8 -2 15 -4t15 -4q5 -2 8.5 -4.5t2.5 -7.5q0 -10 -12 -13t-19 -5q-23 -6 -46 -10t-46 -9l-41 -7l-4 -98l-4 -98q-1 -5 -1 -10.5v-10.5q0 -3 -1 -7t-3 -7t-4.5 -3.5t-6.5 3.5q-7 8 -9 18.5t-4 19.5q-4 24 -5 48t-3 48 q-1 19 -1.5 37.5t0.5 36.5v17q-3 0 -6.5 -1t-6.5 -1q-17 -2 -33.5 -4t-33.5 -2q-8 0 -9 4.5t4 9.5q7 6 16.5 7.5t17.5 3.5q25 4 53 14q3 67 9 137q5 54 10.5 108.5t16.5 108.5l4 15l-31 -2q-14 -1 -27 -2t-27 -1q-7 0 -16.5 1t-13.5 9q-3 5 0 8.5t7.5 6.5t10 4.5t8.5 2.5z "/>
<glyph glyph-name="G" unicode="G" horiz-adv-x="284" d="M193 256q0 28 3 57l3 29l2 14t3 15q1 3 2 7t3 7q5 4 8 -2t4 -9q2 -6 1.5 -11.5t-0.5 -11.5q-2 -71 7.5 -141t13.5 -140q2 -38 1.5 -76t-9.5 -74q-8 -33 -28.5 -62t-53.5 -42q-31 -12 -61.5 -2t-50.5 36q-15 20 -20 46q-2 12 -2 23.5t2 23.5q3 20 18 33q5 5 10.5 5.5 t3.5 -8.5q-4 -16 -9.5 -30t-4.5 -31q1 -16 7.5 -31.5t18 -26.5t26 -17t31.5 -4q35 5 53 33.5t23 59.5q8 35 8 72t-2 73l-2 31q-3 -20 -8.5 -40t-16.5 -37q-8 -14 -20.5 -23t-28.5 -11q-17 -2 -32 5t-27 19q-23 25 -33 59t-16 66q-6 37 -8.5 74.5t-2.5 74.5q2 75 14 150 t45 142q14 29 35 57.5t52 40.5q15 5 31 4.5t30 -10.5q14 -12 23 -32l8 3q1 1 7 2.5t12 2.5t10.5 1t3.5 -3q-1 -5 -7 -7.5t-9 -4.5q-5 -3 -10 -5l-10 -4l3 -9q8 -35 4.5 -70.5t-17.5 -67.5q-6 -15 -14.5 -29.5t-21.5 -25.5t-29 -10.5t-25 16.5q-8 14 -8 31.5t3 32.5 q2 17 8 34t14 33q11 20 25.5 38.5t34.5 31.5q-5 20 -18 29t-28.5 5t-26.5 -13q-27 -22 -40.5 -57t-21.5 -67q-40 -149 -38 -301q1 -36 4 -72t13 -70q4 -15 10.5 -30.5t17.5 -26.5t24.5 -13.5t26.5 6.5q14 9 21 26t11 32q9 34 12 72q3 26 4 52.5t1 52.5zM224 601q0 8 -1 13 q-23 -17 -38 -42.5t-23 -52.5q-5 -16 -6.5 -34t3.5 -35q2 -5 5.5 -10t10.5 -2q6 4 10.5 10t7.5 12q8 16 13.5 33t9.5 34q8 38 8 74z"/>
<glyph glyph-name="H" unicode="H" horiz-adv-x="317" d="M323 274q4 -1 8 -2.5t3 -6.5t-5.5 -8t-9.5 -5q-8 -3 -15.5 -3.5t-15.5 -1.5q-6 0 -12.5 -1t-12.5 -2q-3 -1 -7 -1l-2 -132t1 -132q0 -8 1.5 -18t-0.5 -18q-1 -5 -4 -5t-6 2t-6 5.5t-4 5.5q-7 13 -7 30q-1 27 -1.5 54.5t-0.5 54.5q-1 36 -1.5 72.5t-0.5 73.5 q-31 -8 -60.5 -16t-58.5 -17l-8 -194q-1 -5 -1 -10.5v-10.5q0 -3 -1 -7t-3 -7t-4.5 -3.5t-6.5 3.5q-7 8 -8.5 18.5t-3.5 19.5q-4 24 -5.5 48t-3.5 48q-1 19 -1.5 37t0.5 37v11q-16 0 -31 3t-30 8q-8 2 -15 4.5t-14 5.5q-5 2 -9.5 3.5t-6.5 6.5q-2 6 0 9.5t6.5 6t10 4 t8.5 2.5q42 7 84 12l4 54t4 55q5 54 10.5 108.5t16.5 108.5q1 3 2.5 9t4 12t6 10t8.5 3q6 -1 5.5 -9.5t-0.5 -13.5q-1 -9 -1.5 -17.5t-0.5 -17.5q-5 -72 -7.5 -144t-5.5 -144q0 -2 -0.5 -4.5t-0.5 -4.5l58 4l59 4v155l2 142v23t1 23v11t2 11q1 4 3 10.5t5 12.5t7.5 10.5 t9.5 5.5q5 0 7.5 -5t3 -12.5t-0.5 -14t-1 -9.5l-2 -63q-2 -75 -3 -149t-3 -149q17 1 33.5 1.5t33.5 -0.5z"/>
<glyph glyph-name="I" unicode="I" horiz-adv-x="277" d="M24 -26q16 7 32.5 11.5t33.5 8.5q10 3 20 5.5t21 4.5q-4 23 -5.5 44.5t-3.5 44.5q-2 19 -3 37t-1 36q0 57 1.5 113.5t5.5 113.5q3 60 9 120l6 45q1 5 1.5 11t2.5 12h-4q-23 -3 -47 -5.5t-48 -4.5q-8 -1 -16.5 -0.5t-13.5 8.5q-6 11 3.5 18t17.5 9q45 13 89 27t89 28 q6 1 25.5 7t40 9t34.5 -0.5t8 -20.5q-6 -20 -25 -32t-36 -19q-14 -5 -28.5 -8t-29.5 -6l-35 -6v-2q-1 -10 -1 -19.5v-20.5q-2 -74 -2.5 -147t-1.5 -147q0 -60 -0.5 -119t-1.5 -119l14 3l32 6t32 5q14 2 29 -4.5t17 -22.5q1 -12 -5 -18.5t-15.5 -10t-20 -5t-18.5 -2.5 q-27 -3 -54.5 -6.5t-54.5 -7.5q-21 -3 -42 -5.5t-42 -3.5q-8 -1 -16 -0.5t-13 5.5q-5 4 -4 9t5.5 9t10 7t8.5 5z"/>
<glyph glyph-name="J" unicode="J" horiz-adv-x="331" d="M84 617q44 15 86.5 31t87.5 28q11 2 21 2.5t21 -4.5q10 -5 17 -13.5t4 -20.5q-5 -18 -24 -27.5t-35 -14.5l-15 -5q0 -2 -0.5 -3t-0.5 -3v-61q2 -71 6.5 -141.5t6.5 -141.5q1 -38 0 -74.5t-5 -74.5q-4 -35 -12 -69.5t-25 -66.5q-7 -14 -17 -27t-22.5 -23t-27.5 -15t-32 -3 q-17 3 -31 12t-25.5 22t-20 28t-14.5 30q-25 60 -25 127.5t29 126.5q6 13 16.5 23t23.5 17q3 2 10.5 5t9.5 -2t0.5 -12t-3.5 -12q-4 -12 -8.5 -23t-9.5 -22q-23 -50 -31 -105.5t8 -109.5q4 -14 11.5 -29.5t18 -28t24.5 -20.5t31 -6t29.5 12.5t20.5 24.5q11 14 17.5 31.5 t10.5 34.5q9 36 11 74t1 76q0 38 -1 75.5t-3 75.5q-2 66 -3 131t7 131q0 4 2 10q-34 -8 -67.5 -13t-66.5 -9q-31 -5 -59 -6q-8 -1 -15.5 1t-10.5 10q-5 11 4 18.5t18 9.5z"/>
<glyph glyph-name="K" unicode="K" horiz-adv-x="282" d="M253 7q8 5 15.5 11t15.5 10q2 1 6 1.5t6 -1.5t0.5 -5t-3.5 -5q-8 -13 -19.5 -23t-24.5 -18q-17 -9 -34.5 -10.5t-34.5 6.5t-29.5 23t-21.5 31q-17 32 -26 67t-12 70q-1 14 -1.5 27t-2.5 27q-1 6 5 13.5t9 12.5q40 57 66 121.5t46 130.5q10 30 18 60q5 15 9 30t10 29 q4 8 7 14.5t8 13.5q4 9 10 14t11 1.5t9 -8.5q6 -10 5 -23q-4 -33 -13 -64t-20 -62q-12 -33 -26.5 -64.5t-31.5 -62.5q-17 -32 -36.5 -62.5t-40.5 -60.5l-21 -29q-1 -1 -2.5 -2t-1.5 -3q0 -4 1 -8l2 -8q2 -9 4 -17.5t4 -17.5q5 -18 10.5 -35.5t10.5 -34.5q5 -16 11 -31.5 t14 -29.5q7 -14 17 -27t26 -16q13 -2 24 3t22 12zM14 175q0 19 0.5 37.5t0.5 37.5q2 71 5.5 141t9.5 140q2 25 4.5 49.5t5.5 50.5q2 10 3.5 20.5t4.5 20.5q0 1 2 6.5t4.5 10.5t5.5 7.5t6 -0.5q5 -5 4 -18t-1 -21l-2 -42q-1 -32 -1.5 -64t-0.5 -64q-2 -81 -3 -162.5 t-3 -162.5q-2 -54 -2 -106t-2 -106q0 -3 -0.5 -8.5t-2 -10t-4 -6.5t-6.5 2q-7 7 -9 17.5t-4 19.5q-2 11 -3 21.5t-3 21.5q-9 84 -9 168z"/>
<glyph glyph-name="L" unicode="L" horiz-adv-x="261" d="M172 29q7 4 14 3l14 -2q6 -1 12 -1.5t12 -2.5q8 -3 8 -11t-3 -15q-8 -19 -26.5 -28t-37.5 -14q-32 -8 -65 1t-56 35q-11 14 -13.5 31t-3.5 34v36.5t1 37.5q2 75 2 150.5t-1 151.5q-2 66 -6 130l-4 61q0 8 -0.5 14.5t-0.5 14.5q-2 10 -1 16q2 6 7.5 4.5t9.5 -3.5 q5 -2 8 -7l6 -10q6 -14 10 -29.5t7 -30.5q5 -34 6 -68.5t1 -68.5q-2 -75 -9 -150t-12 -150q-3 -38 -3 -75q-1 -9 -0.5 -18.5t1.5 -19.5q0 -7 1.5 -15t6.5 -13q14 -11 31.5 -8.5t33.5 5.5q13 3 25.5 6.5t24.5 8.5z"/>
<glyph glyph-name="M" unicode="M" horiz-adv-x="413" d="M328 13q2 -8 6 -20.5t15 -14.5t21 5t18 13l22 21q2 3 5 6t7 5q3 2 2.5 -1t-1.5 -5q-2 -5 -5 -10.5t-7 -10.5q-8 -11 -17.5 -21.5t-22.5 -17.5q-16 -8 -30.5 -4t-24.5 19q-13 20 -18 44.5t-8 47.5q-5 32 -7.5 64t-4.5 64q-3 66 -2.5 131t2.5 131q1 38 3 76.5t1 76.5v4 t-0.5 8.5t-1.5 7t-2 1.5q-2 -2 -3 -5.5t-2 -6.5q-5 -10 -8 -20t-6 -21q-21 -72 -33.5 -146t-23.5 -148q-5 -38 -9.5 -76.5t-9.5 -76.5l-1 -3v-33q-1 -19 -1.5 -38t-2.5 -38q-1 -12 -2 -23.5t-9 -21.5h1q-4 -2 -8 -3q-3 -1 -6.5 -0.5t-4.5 3.5q-5 8 -5 13q-1 7 -0.5 13 t0.5 13q1 10 1.5 20t2.5 21v2v45q0 78 -2.5 155t-7.5 155q-2 38 -3.5 76.5t-4.5 76.5q-1 10 -1.5 19t-2.5 19l-4 16q-1 1 -1 2.5t-1 2.5q-1 0 -3.5 -4.5t-4.5 -10t-4 -10.5l-2 -5q-11 -36 -18 -73.5t-12 -74.5q-5 -36 -8.5 -72.5t-6.5 -73.5q-5 -62 -8.5 -123.5t-4.5 -123.5 q-1 -28 -0.5 -55t-1.5 -54q0 -2 -0.5 -7t-1.5 -10t-3 -8.5t-6 -0.5q-9 6 -13.5 19.5t-6.5 24.5q-3 13 -3.5 26t-0.5 27t0.5 28t1.5 28q1 34 3.5 68t5.5 69q8 72 17.5 143t23.5 143q4 18 7.5 36.5t8.5 37.5q4 16 8.5 32t12.5 30q4 6 10 12t14 4t12 -9t6 -14q7 -17 10.5 -34.5 t6.5 -34.5q12 -64 16.5 -128t6.5 -128q2 14 4.5 29t5.5 30q6 37 12.5 73t13.5 73l14 64t17 63q3 11 7.5 21t11.5 18q5 5 12.5 8t14.5 -1q7 -2 10 -10t4 -14q7 -31 8 -62.5t2 -63.5q2 -71 0.5 -141.5t-3.5 -142.5q0 -29 -0.5 -58.5t0.5 -58.5q1 -28 2.5 -57t9.5 -56z"/>
<glyph glyph-name="N" unicode="N" horiz-adv-x="301" d="M228 -23q6 1 11 4l10 6q11 8 20.5 18t18.5 21q1 0 4.5 4t7.5 7.5t7 5.5t3 -2q0 -11 -7 -22.5t-12 -19.5q-6 -9 -16.5 -21t-23 -19.5t-25 -7.5t-22.5 14q-8 11 -12 25t-6 28q-4 27 -6 56q-5 72 -2.5 143t7.5 143q3 37 7.5 74t9.5 75q3 19 5.5 38t4.5 39v1q-3 -7 -5 -13.5 t-4 -13.5q-11 -35 -18.5 -70.5t-14.5 -70.5q-14 -70 -28 -139t-31 -139q-4 -17 -8 -35t-9 -35q-4 -14 -8.5 -31.5t-16.5 -28.5q-12 -10 -22.5 -3.5t-14.5 19.5q-5 17 -6 34.5t-2 34.5q-2 72 0 144l4 144l3 121q1 17 1.5 33.5t-1.5 33.5q0 8 -1 16l-2 16q-2 7 -2.5 13.5 t-3.5 12.5q-1 6 -7 12q-2 2 -7 6.5t-4 7.5q0 5 6.5 3.5t9.5 -2.5q11 -6 19 -16q21 -26 23 -60.5t1 -65.5q0 -70 -3 -140t-5 -140q-2 -33 -2.5 -66t0.5 -66q0 -5 0.5 -9t0.5 -9q0 -2 1 -6t2 -7t2.5 -3.5t3.5 5.5q5 13 7.5 26t4.5 26q15 76 28.5 151t31.5 150q9 36 19.5 72.5 t22.5 71.5q6 17 13 33.5t16 33.5q6 12 16 22l5 4q6 3 14 -3l2 -2q1 -1 1.5 -2t-0.5 0q3 -5 2 -12.5t-1 -13.5l-3 -46q-4 -46 -6 -94q-5 -72 -10 -142t-10 -142q-2 -30 -3.5 -60.5t-1.5 -60.5q0 -16 0.5 -31.5t2.5 -30.5q1 -8 2 -15.5t3 -14.5q1 -3 3.5 -10t5.5 -7z"/>
<glyph glyph-name="O" unicode="O" horiz-adv-x="319" d="M5 610q-8 -18 -12 -43.5t-1.5 -51t10.5 -49t24 -38.5q6 45 19.5 88.5t39.5 81.5q9 13 20.5 25.5t25 21t29 12t32.5 -1.5q16 -5 26.5 -15.5t16.5 -24.5t7 -30t0 -31q10 -24 15 -49t9 -51q5 -33 6 -66t0 -66q0 -36 -3.5 -72t-8.5 -71q-5 -37 -14 -74t-23 -72 q-5 -12 -11.5 -25t-15.5 -24.5t-20.5 -19.5t-25.5 -10q-18 -3 -32.5 4t-26 19.5t-19.5 28.5t-13 30q-14 34 -21.5 69.5t-12.5 71.5q-5 38 -6.5 75t-0.5 75q0 29 3 61q-24 13 -38.5 37t-21 52t-5.5 58t9 55q9 26 28 51.5t49 30.5q3 1 10 1.5t9 -3.5q1 -1 -1.5 -3.5t-6.5 -4.5 t-7 -4t-4 -3q-11 -9 -21 -20.5t-16 -24.5zM239 289q0 48 -3.5 97t-14.5 97q-15 -32 -39 -56q-22 -22 -52 -37.5t-62 -14.5q-5 -54 -6 -109t4 -109q3 -35 8.5 -72t20.5 -70q7 -14 17 -27t27 -14q15 -2 27 8.5t20 22.5q19 31 28.5 67t14.5 71q5 36 7.5 72.5t2.5 73.5zM72 409 h9.5t9.5 1q33 6 60 26.5t45 48.5q4 7 8 14.5t7 16.5l-13 46q-2 7 -4.5 13.5t-5.5 13.5q-2 4 -4.5 7.5t-4.5 8.5q-2 7 5 6.5t11 -2.5q5 -2 10 -5.5t9 -7.5l10 -12q-1 16 -9 31q-8 14 -22.5 20t-29.5 1q-14 -4 -24 -14.5t-17 -22.5q-18 -31 -26 -66.5t-15 -69.5z"/>
<glyph glyph-name="P" unicode="P" horiz-adv-x="299" d="M70 565q-1 10 5.5 19t13.5 14t15 6t12 -9q3 -8 2 -19.5t-2 -20.5l-3 -47l-6 -140q-2 -50 -4.5 -99t-4.5 -99q10 2 19 6q29 11 49.5 34.5t34.5 51.5q15 31 22.5 65t10.5 69q3 37 2 75t-9 74q-7 30 -23 57.5t-48 37.5q-32 9 -63 -3.5t-51 -38.5q-20 -27 -26.5 -61t-1.5 -67 q2 -14 7 -28t7 -28q2 -6 2.5 -13t-1.5 -13q-2 -7 -6 -6.5t-9 2.5q-13 5 -19 15.5t-11 22.5q-6 14 -9 30t-4 32q-1 35 10 69t35 60q23 25 53.5 39t65.5 12q34 -2 60.5 -20t45.5 -46q20 -30 31 -64t14 -69.5t-2 -71.5t-15 -69q-10 -30 -25.5 -59.5t-37 -53.5t-49 -41 t-60.5 -22l-3 -91q-1 -20 -1.5 -40t-2.5 -40q0 -9 -1 -13q-2 -4 -5 -5.5t-6 1.5q-4 4 -5.5 9t-2.5 10q-1 11 -0.5 21.5t-0.5 21.5v124q-5 1 -9 1.5t-9 2.5t-14 6t-10 10q0 3 5.5 4t12.5 0.5t13 -1t8 -0.5h3q1 42 1 84.5v85.5q1 38 1 76v76q0 18 0.5 37t-1.5 37z"/>
<glyph glyph-name="Q" unicode="Q" horiz-adv-x="324" d="M310 15q2 6 7 12.5t12 7.5q4 1 4 -3t-1.5 -9.5t-4 -10.5t-2.5 -6q-6 -13 -13 -26t-16 -24q-10 -11 -23 -18t-28 -2q-16 5 -28.5 17.5t-22.5 25.5q-18 -19 -39 -25q-18 -4 -32.5 2.5t-26 18.5t-19.5 27.5t-14 29.5q-11 23 -17.5 48t-11.5 50q-12 -9 -19 -17q-5 -9 -10 1 q-4 8 5 17q5 5 10 9.5t11 8.5l-3 22q-5 38 -7 75.5t-1 75.5q0 32 3 67q-24 13 -38.5 36.5t-21 52t-5.5 58t9 53.5q8 27 27 52.5t48 32.5q5 1 10 1t10 -2q2 -1 0.5 -3t-5 -4.5t-7 -4.5t-4.5 -2q-11 -9 -21 -20.5t-17 -24.5q-9 -19 -13 -45t-2.5 -52.5t10 -50.5t25.5 -39 q2 11 4 21t4 21q7 33 18.5 65t29.5 61q9 13 20 26t24 22.5t28.5 14t32.5 1.5q18 -4 29.5 -14.5t17.5 -25t7.5 -31.5t0.5 -33q11 -24 16 -49t8 -51q5 -33 6.5 -66t0.5 -66q-1 -71 -12 -142q-6 -37 -14 -73t-22 -71l-14 -31q4 -8 9 -15t10 -15q5 -6 10.5 -12t13.5 -7 q8 -2 15 3.5t12 10.5q8 10 15 21.5t12 22.5zM241 291q1 48 -2.5 96.5t-15.5 96.5q-13 -27 -35 -51q-23 -25 -53.5 -41t-63.5 -15q-12 -107 -3 -213q15 1 28.5 -5t25 -15t21.5 -21t18 -23q10 -15 18.5 -30.5t17.5 -31.5l4 -8q13 27 19.5 57.5t11.5 59.5q5 36 7 72t2 72z M82 458l-4 -24l-4 -24h7.5t8.5 1q34 5 61.5 25.5t45.5 48.5q5 7 8.5 15t7.5 17l-12 47q-2 7 -5 13.5t-6 13.5q-2 4 -4.5 7.5t-3.5 8.5q-2 7 4.5 6.5t10.5 -2.5q5 -2 10 -5.5t10 -7.5q6 -6 8 -10q-1 15 -7 27q-8 14 -21.5 21t-29.5 3t-26.5 -15.5t-18.5 -25.5 q-17 -32 -25 -68.5t-15 -71.5zM145 -27q11 1 20 7.5t16 15.5q-18 25 -34 51t-35 52q-8 10 -18 22t-24 17q3 -32 9 -65.5t21 -62.5q7 -13 18 -25.5t27 -11.5z"/>
<glyph glyph-name="R" unicode="R" horiz-adv-x="298" d="M257 -3l15 7.5t15 8.5q6 4 12.5 8.5t13.5 6.5q6 2 6 -1t-2 -7q-5 -10 -15 -20q-19 -21 -47 -32.5t-56 3.5q-27 15 -42.5 43t-23.5 56q-9 32 -13.5 64t-6.5 64v10t4 10q2 2 5 2.5t6 2.5l7 5q27 22 44 48q20 29 31.5 62.5t18.5 68.5q7 36 9 73t-6 72q-8 34 -28 58t-54 32 q-33 8 -63.5 -4t-50.5 -39q-19 -26 -25.5 -58.5t-3.5 -64.5q1 -14 3.5 -27.5t6.5 -27.5q1 -3 3.5 -8.5t4.5 -12t1.5 -11.5t-5.5 -6q-5 -2 -10.5 1t-10.5 6q-6 5 -9 10.5t-6 12.5q-15 30 -18 65q-2 35 7 67.5t31 59.5q22 26 51.5 41.5t62.5 17.5q32 2 62 -7.5t53 -32.5 q26 -26 38 -59.5t13 -69.5t-7 -72t-21 -67q-14 -32 -33.5 -61t-43.5 -54q-8 -9 -17 -16.5t-19 -15.5q-1 -1 -5 -3q-2 -1 -5 -2q-1 -4 0.5 -9.5t2.5 -8.5q13 -66 41 -131q6 -14 14 -28t20 -25q11 -9 22 -9.5t23 4.5zM38 175q1 78 4.5 154.5t13.5 152.5q2 18 5 36l6 36 q2 11 4 22.5t9 21.5q4 5 6.5 5.5t4 -2.5t2 -7t0.5 -8q0 -22 -1 -43.5t-1 -43.5q-2 -78 -3.5 -156.5t-3.5 -156.5l-5 -235q0 -3 -0.5 -8.5t-2 -10.5t-4 -7t-6.5 2q-8 7 -10 17.5t-4 19.5q-2 11 -3 21.5t-2 21.5q-9 84 -9 168z"/>
<glyph glyph-name="S" unicode="S" horiz-adv-x="247" d="M182 147q20 -5 39 -15.5t33 -25.5l7.5 -10t4.5 -11q0 -3 -2.5 -2t-6 2.5t-6.5 4t-4 2.5q-14 9 -29 16.5t-32 12.5q6 -29 5.5 -58t-10.5 -56q-12 -31 -38.5 -50.5t-61.5 -13.5q-17 3 -29.5 12t-21 22.5t-12.5 29t-4 31.5q-1 32 14 60t44 42q15 8 32 10.5t34 1.5 q-5 11 -9.5 20l-9.5 19q-18 31 -38 60.5t-33 63.5q-10 25 -16 50.5t-7 52.5q-1 26 1 52.5t7 52.5q7 31 20.5 61t36.5 53q11 10 25 17t28 8.5t27.5 -3.5t24.5 -18q18 -21 24 -49t7 -57q13 8 27 13.5t28 6.5q5 0 9 -1.5t-4 -6.5q-6 -4 -12.5 -7t-13.5 -6q-9 -5 -17.5 -9 t-16.5 -10v-8q-1 -35 -7.5 -72t-20.5 -70q-5 -12 -16 -25.5t-28 -8.5q-16 5 -19.5 21t-2.5 30q4 32 18.5 62.5t35.5 55.5q2 3 5 5.5t6 5.5l-2 27q-1 12 -3.5 29.5t-8.5 33t-17 26t-28 9.5q-16 -1 -28.5 -9.5t-22.5 -21t-16.5 -27.5t-10.5 -29q-10 -35 -10 -71.5t8 -71.5 t23 -66.5t34 -62.5q20 -31 37.5 -62t27.5 -66v-2h2zM161 56q-1 36 -14 74q-22 2 -39 -1q-33 -5 -54 -28t-23 -56q-1 -15 3 -31.5t12.5 -29t22 -19.5t31.5 -4q34 6 48 34.5t13 60.5zM187 391q6 23 8.5 48t2.5 50q-14 -17 -24.5 -35.5t-17.5 -38.5l-4 -18t-3 -19q0 -7 0.5 -15 t5.5 -13q6 -6 11 -1t9.5 13t7.5 17z"/>
<glyph glyph-name="T" unicode="T" horiz-adv-x="228" d="M-54 606q85 15 168 32.5t168 32.5q18 3 36 5.5t37 3.5h12t16 -2t13.5 -6t4.5 -11q-1 -6 -5 -10.5t-9 -8.5q-8 -6 -16 -10.5t-17 -9.5q-27 -12 -56 -18t-58 -10q-26 -3 -52.5 -6t-52.5 -5q-1 -10 -1 -19.5v-20.5q-3 -147 -3 -294l-3 -259v-20q0 -8 -4 -14.5t-12 3.5 q-6 8 -8 18l-4 20q-5 24 -7 48l-4 48q-2 19 -3 37t-1 36q0 57 1.5 113.5t5.5 113.5l4 60t6 60q1 11 2 22.5t3 22.5q1 5 1.5 11t2.5 12l-54 -4t-53 -4q-17 -1 -34.5 -2.5t-34.5 0.5q-6 1 -16.5 4.5t-8.5 11.5q2 10 15 13.5t21 5.5z"/>
<glyph glyph-name="U" unicode="U" horiz-adv-x="333" d="M265 11q10 -7 21.5 0.5t18.5 13.5q8 6 15.5 13t15.5 14q2 1 4.5 3t4.5 1t0.5 -4.5t-2.5 -5.5q-4 -8 -9.5 -15.5t-11.5 -14.5q-7 -8 -15.5 -15t-18.5 -11.5t-20 -4t-19 8.5q-16 12 -22.5 32.5t-11.5 38.5q-9 39 -12 79q-8 -35 -16.5 -70t-21.5 -68q-6 -15 -14 -31t-21 -27 q-14 -11 -30 -8t-28 16q-11 11 -17.5 26.5t-11.5 30.5q-6 17 -10 35.5t-7 36.5q-13 72 -15 147q-5 136 21 268q6 29 14 57.5t19 54.5q8 18 16 31q2 3 6 8t8.5 8t8.5 2t6 -9q6 -24 -1.5 -46.5t-13.5 -45.5q-6 -24 -10.5 -48t-9.5 -49q-11 -68 -15.5 -135.5t-5.5 -136.5 q0 -38 1 -75.5t8 -74.5q2 -17 6.5 -34t14.5 -32q4 -6 10 -11.5t14 -4.5t13 7t9 11q10 14 16.5 29t11.5 31q7 17 12 35.5t10 36.5q5 22 9.5 44.5t9.5 45.5q-1 33 -1 66t2 66q2 37 5 73.5t9 73.5q2 17 5.5 32.5t7.5 32.5q2 7 5.5 17.5t12.5 12.5q-1 -1 -2 -1q6 -1 10.5 -0.5 t9.5 -5.5q4 -5 3.5 -12t-1.5 -14l-10 -82l-5 -73q-3 -37 -5.5 -73t-4.5 -73q-2 -32 -2.5 -64t1.5 -64l2 -30t5 -30q2 -10 6 -22.5t13 -17.5z"/>
<glyph glyph-name="V" unicode="V" horiz-adv-x="233" d="M187 580q9 34 34 60l6 6t6 -1t1.5 -11t-1.5 -11q-3 -24 -7.5 -48t-8.5 -48q-10 -63 -17 -124.5t-14 -123.5l-18 -147q-5 -37 -10.5 -74.5t-17.5 -72.5q-4 -13 -12.5 -25t-24.5 -10t-25.5 14.5t-14.5 26.5q-15 33 -20.5 70.5t-10.5 73.5q-9 72 -15 145.5t-2 146.5 q2 32 5.5 64.5t12.5 63.5q5 14 10 27t12 26q5 7 10 15t13 12q7 4 7 -3v-11q0 -7 -0.5 -13.5t-2.5 -13.5q-2 -10 -3.5 -19.5t-3.5 -19.5q-5 -27 -8 -55l-6 -56q-6 -73 -9.5 -146.5t1.5 -146.5q3 -36 8 -73t19 -71q6 -16 16 -27q5 -5 9 -6q3 -1 4.5 3.5t3.5 6.5q6 16 8.5 33.5 t4.5 34.5q8 74 11 147t10 147q5 60 14.5 118t25.5 116z"/>
<glyph glyph-name="W" unicode="W" horiz-adv-x="329" d="M263 524q6 54 32 101q5 9 10 17.5t12 16.5q4 5 7 5t3 -8q-1 -15 -3.5 -30.5t-4.5 -30.5l-14 -88q-9 -58 -14 -116l-10 -116l-11 -148q-4 -36 -7.5 -73t-14.5 -72q-5 -13 -13.5 -24.5t-24.5 -8.5q-15 3 -23 17t-13 27q-13 34 -19 70t-11 72q-2 8 -2 13l-3 -23 q-3 -19 -6 -37.5t-7 -36.5q-3 -11 -6 -24t-10 -22q-10 -15 -23.5 -9t-20.5 18q-5 9 -8.5 19t-6.5 21q-10 36 -15.5 72.5t-10.5 73.5q-5 36 -7.5 72t-2.5 73q0 67 8 135t31 131q6 17 14 34t20 31q1 2 6 6.5t7 1.5q3 -2 1.5 -9.5t-2.5 -11.5q-2 -14 -5.5 -29t-7.5 -29 q-16 -61 -20 -123.5t-6 -125.5q-2 -74 0 -147q2 -38 4.5 -75.5t11.5 -74.5q2 -7 3.5 -14t4.5 -13q4 -8 7 -4.5t5 9.5l9 37q7 37 12.5 74.5t10.5 75.5l3 28q-3 47 -3 93t2 93q2 37 5.5 73.5t13.5 72.5q4 14 9 28t13 26q7 10 18.5 13t17.5 -11q6 -15 3 -33.5t-5 -34.5 q-3 -18 -7 -36t-7 -36l-12 -76q-6 -40 -12 -79t-11 -79l4 -40l4 -40q4 -37 9.5 -73.5t14.5 -72.5q2 -9 5 -17.5t6 -17.5q2 -5 4.5 -11t6.5 -11q3 -3 5.5 4t2.5 9q2 8 3.5 17t3.5 17q5 38 7 75.5t4 75.5q2 34 3.5 68t3.5 68q3 52 7 103.5t12 103.5zM159 491q-2 -20 -3 -40 l-2 -40q5 29 9.5 59t10.5 59q3 15 6.5 31t3.5 32q1 10 -3.5 2.5t-5.5 -11.5l-5 -18q-4 -18 -6.5 -36.5t-4.5 -37.5z"/>
<glyph glyph-name="X" unicode="X" horiz-adv-x="240" d="M223 632q5 9 13 16t19 9q8 2 10 -2t0.5 -10t-4.5 -12.5t-4 -9.5l-15 -33q-11 -29 -21 -59t-21 -59q-15 -43 -29.5 -85.5t-28.5 -85.5l12 -121q3 -35 7 -68.5t12 -67.5q3 -14 7 -27.5t12 -24.5q1 -2 4.5 0t7.5 5t7 6l4 4l12 17q5 8 10 17t13 14q7 4 7 -3t-1 -11 q-4 -15 -14 -29t-22 -25q-6 -5 -14.5 -9.5t-17.5 -2.5t-14 11t-8 17q-8 20 -12.5 40.5t-9.5 41.5q-8 33 -14.5 66.5t-13.5 68.5l-9 -30q-21 -66 -45 -132q-11 -29 -22 -57t-26 -54q-2 -4 -6 -7t-8 2q-5 10 0 24q11 18 19 40q14 31 25 63l22 64q11 33 21 66.5t20 67.5 q-5 28 -9.5 56t-9.5 56q-6 33 -12 66.5t-11 66.5q-2 16 -4.5 31.5t-5.5 31.5q-2 7 -3 14t-3 14q-2 5 -1 7q2 0 1 4.5t0 6.5q2 6 8 6.5t11 -3.5q8 -7 13.5 -19t9.5 -23q10 -26 17 -54t12 -56q9 -53 15 -107l15 54q9 33 18 65.5t20 64.5l16 42t19 41zM49 612l-1 -2q1 1 1 2z "/>
<glyph glyph-name="Y" unicode="Y" horiz-adv-x="252" d="M11 33q-3 17 4 31q2 5 7 11t11 4t4.5 -10t-1.5 -12v-13.5t2 -13.5q7 -26 33 -33q17 -4 31 4t24 20q10 13 16.5 30t9.5 34.5t4 35.5t2 34q1 35 0.5 69t-1.5 69q-14 -20 -34 -33t-46 -3q-16 6 -27 19t-18.5 28.5t-12 33t-6.5 32.5q-11 63 1.5 129.5t38.5 125.5l5 10 q4 8 6.5 3t3.5 -10q0 -5 -1 -11t-2 -11l-3 -26q-4 -35 -6 -70t-2 -70q0 -18 1 -36t3 -36q3 -17 7 -34t13 -32q8 -12 19 -16t24 4q11 6 21 17.5t14 23.5q-3 63 -3 125q0 33 1.5 66.5t7.5 65.5q3 15 7 29t11 27q2 4 6.5 8t8.5 -1t4.5 -12.5t-1.5 -14.5q-8 -30 -7.5 -62 t2.5 -63q2 -38 4.5 -74.5t5.5 -73.5q5 -72 3 -147.5t-28 -144.5q-11 -28 -30.5 -54t-51.5 -32q-15 -3 -29 0.5t-26 12t-20 20.5t-10 27z"/>
<glyph glyph-name="Z" unicode="Z" horiz-adv-x="263" d="M219 1q10 5 19 12t17 15q5 5 10 11t11 11q4 3 5 1t0 -6q-2 -13 -11 -24.5t-18 -20.5q-11 -11 -26 -18.5t-31 -7.5q-17 -2 -32.5 5t-28.5 17q-9 8 -16.5 16.5t-17.5 14.5l-9 5l-10 -23q-3 -6 -7 -14.5t-9.5 -15.5t-12.5 -11.5t-16 -4.5q-16 0 -24 14t-7 28q0 14 8 27.5 t18 24.5q9 10 19.5 16.5t23.5 7.5q8 30 15 60.5t14 61.5q8 37 16.5 73t17.5 72t18.5 71t20.5 70l10 34l-6 4q-15 8 -24 22t-17 29q-5 8 -9 15t-9 15q-3 4 -7.5 9t-10.5 3q-14 -6 -23.5 -21t-16.5 -28l-11 -22q-2 -3 -4 -9t-7 -5q-5 0 -4.5 7t0.5 10q1 13 10 27q7 14 14.5 28 t18.5 25q26 26 58 4q14 -10 24.5 -24t20.5 -29q6 -11 16 -19q10 28 24 58q6 13 15.5 28t24.5 19q14 4 22.5 -6t9.5 -23q2 -16 -3.5 -32t-12.5 -30t-16 -28t-23 -22q-12 -7 -26 -9l-2 -10q-9 -37 -16.5 -73.5t-15.5 -73.5q-15 -73 -32 -145t-41 -143q9 -5 17 -11.5t14 -14.5 q8 -11 14.5 -22t16.5 -19q11 -9 24 -10t26 4zM232 581q-4 -10 -7 -23l6 3q14 8 24 21t15 27q3 8 5.5 16.5t0.5 16.5t-6.5 7.5t-9.5 -5.5q-11 -13 -17 -30t-11 -33zM41 -7q7 9 11.5 20t8.5 23q-10 -2 -17 -6q-13 -9 -15 -27q0 -5 3.5 -11t8.5 1z"/>
<glyph glyph-name="bracketleft" unicode="[" horiz-adv-x="240" d="M220 578q8 -3 14 -15t2 -20t-13 -12.5t-17 -6.5q-23 -8 -45.5 -4.5t-44.5 10.5q-2 -12 -2 -24t-1 -23q-8 -154 -17 -305t-29 -303l-7 -22l26 2q10 1 22 4t25 4.5t25 1t22 -4.5q8 -4 14 -16t2 -20t-13 -12.5t-17 -6.5q-27 -8 -54 -2t-53 14q-3 1 -9 4t-10 7.5t-4.5 9 t5.5 9.5q3 2 9 4q0 12 1.5 23.5t3.5 22.5q5 44 7 86.5t4 86.5q4 87 0.5 172.5t2.5 171.5q2 31 6.5 63t16.5 61q-4 2 -8 5.5t-7 7t-2.5 7.5t5.5 8q9 5 22 5.5t23 2.5q10 1 22.5 4t25.5 4.5t25 1t22 -5.5z"/>
<glyph glyph-name="backslash" unicode="\" horiz-adv-x="301" d="M250 -36q-35 58 -66 118t-61 122q-35 75 -67.5 151t-67.5 151q-6 13 -12 25.5t-14 24.5q-3 4 -5 11t-2 12t3 6.5t11 -4.5q29 -23 48 -53.5t34 -62.5q37 -77 63.5 -157t60.5 -158q17 -40 36 -79.5t39 -77.5q8 -13 15.5 -26t12.5 -27q2 -6 -2 -4t-9.5 8t-10.5 12t-6 8z"/>
<glyph glyph-name="bracketright" unicode="]" horiz-adv-x="233" d="M12 534q-8 3 -14 15t-2 20q5 8 14 13t17 7q26 8 53.5 2t53.5 -14q3 -1 8.5 -4t9.5 -7.5t5 -9.5t-5 -9l-1 -1q1 -4 1 -14q-2 -14 -2.5 -27t-1.5 -27q-8 -153 -17 -304t-29 -303q-1 -1 -3 -10l8 -3q3 -1 8.5 -4t9.5 -7.5t5 -9.5t-5 -9q-9 -6 -22 -6.5t-23 -2.5 q-11 -1 -23 -3.5t-25 -4t-25 -1.5t-22 5q-8 3 -14 15t-2 20q5 8 14 13t17 7q21 7 43 4t43 -9l4 28q5 43 7.5 86t4.5 86q3 87 0 172.5t2 172.5q2 32 7.5 66t19.5 64l-24 -2q-11 -1 -23 -3.5t-25 -4.5t-25 -1.5t-22 5.5z"/>
<glyph glyph-name="asciicircum" unicode="^" horiz-adv-x="227" d="M205 326q3 -5 0 -9.5t-9 -8.5t-12.5 -5t-10.5 2q-5 5 -7.5 16t-4.5 17q-8 22 -18 45q-4 6 -5 6t-4 -4q-6 -8 -12.5 -15t-14.5 -13q-34 -31 -79 -51q-6 -3 -7.5 3.5t0.5 11.5t14 11t17 9q18 14 34.5 29t28.5 34q13 24 26.5 18.5t25.5 -24t22 -41t16 -31.5z"/>
<glyph glyph-name="underscore" unicode="_" horiz-adv-x="275" d="M207 14q3 0 6.5 -3t6.5 -7.5t4.5 -9t1.5 -7.5q0 -8 -9 -15q-25 -16 -53 -17q-34 -2 -66.5 5t-64.5 18q-5 2 -10 6t-7 9t0 9t10 6q15 3 31 3t31 1q30 2 60 4.5t59 -2.5z"/>
<glyph glyph-name="grave" unicode="`" horiz-adv-x="223" d="M14 475q-4 6 1 13.5t10 10.5q6 3 10.5 1t9.5 -5q12 -9 24.5 -16t25.5 -15q29 -17 57 -37t43 -51q2 -4 -2 -5t-7 -2q-6 -1 -8 0.5t-5 6.5q-9 12 -22.5 20t-27.5 14q-31 14 -58.5 26.5t-50.5 38.5z"/>
<glyph glyph-name="a" unicode="a" horiz-adv-x="225" d="M226 39q2 2 6.5 8t7.5 4t1 -8t-3 -8q-10 -24 -28 -43q-10 -11 -24.5 -17t-28.5 2t-21 23.5t-10 29.5q-5 18 -6 36q-1 -1 -1 -2q-12 -23 -26.5 -47t-35.5 -39q-9 -6 -19 -7.5t-19 5.5q-10 7 -13.5 18.5t-4.5 22.5q-4 35 3 71.5t18 69.5q11 31 26.5 62t41.5 53 q11 10 25.5 15.5t29.5 3.5q6 -1 12 -3t11 -7q3 -4 5 -8q0 -2 -3 -2.5t-5 -0.5q-14 -1 -25 -3t-22 -10q-13 -10 -22.5 -22.5t-17.5 -26.5q-17 -29 -30 -61.5t-21 -65.5q-4 -17 -6.5 -35.5t-0.5 -35.5q1 -6 3.5 -13.5t10.5 -9.5q6 -2 12 3t11 10q12 13 21 28t17 31q7 13 13 27 l12 28q1 15 2.5 30t4.5 29q2 16 6 33.5t12 31.5q5 9 16 11q2 0 4 -0.5t3 -0.5q11 -4 12 -14t-1 -19q-2 -13 -6 -25.5t-9 -25.5l-6 -14q-3 -27 -3 -53q-1 -21 -2 -42.5t4 -41.5q2 -6 5 -14t11 -9q9 -1 16.5 5.5t12.5 12.5z"/>
<glyph glyph-name="b" unicode="b" horiz-adv-x="202" d="M93 242q2 8 7.5 19.5t15.5 13.5q3 4 9.5 0.5t9.5 -7.5q5 -5 7.5 -10.5t4.5 -11.5q5 -16 5 -32.5t-2 -33.5q-2 -19 -5 -37t-8 -36q-2 -6 -2 -7q6 -3 16 -1q17 3 28.5 16t19.5 27l9 16q3 6 8 2.5t3 -9.5q-5 -14 -13 -27.5t-19 -24.5t-26 -17t-31 -2h-1q-3 -10 -6 -19.5 t-8 -18.5q-6 -14 -15.5 -29t-24.5 -21q-18 -8 -31 1t-21.5 25t-13.5 34.5t-7 30.5q-6 36 -7.5 73t-1.5 74q1 38 3 75.5t7 75.5q9 74 30 148q5 16 11 33t17 30q5 5 11.5 7.5t12.5 -1.5q7 -3 10.5 -9t5.5 -12q6 -17 8 -36t3 -37t1 -36.5t-2 -37.5q-2 -34 -7.5 -67t-12.5 -66 q-6 -32 -14 -63.5t-17 -63.5l-16 -56q-2 -6 -4 -13.5t-5 -13.5q2 -14 4 -27.5t7 -27.5q2 -6 5.5 -13.5t11.5 -7.5t13.5 5t9.5 10q11 14 17 29.5t10 32.5q-8 7 -14 16.5t-9 20.5q-8 28 -7 59t10 58zM31 175v-24t1 -23q2 10 5 20l6 20q8 33 15.5 65.5t14.5 64.5q15 72 21 144 q2 19 2.5 37.5t-0.5 37.5q-1 15 -2.5 31t-8.5 30q-4 8 -8 6.5t-8 -7.5t-6.5 -13t-3.5 -10q-5 -18 -8.5 -36t-5.5 -37q-5 -38 -7.5 -77t-4.5 -78q-2 -38 -2.5 -75.5t0.5 -75.5zM119 198q-2 12 -3.5 24t-1.5 24q-1 -1 -1 -4q-2 -8 -3.5 -17t-3.5 -17q-2 -17 -2.5 -35.5 t4.5 -35.5q1 -13 10 -25q3 21 3.5 43t-2.5 43z"/>
<glyph glyph-name="c" unicode="c" horiz-adv-x="161" d="M146 31q4 5 7 8.5t8 7.5q2 2 9 6.5t9 -1.5q2 -4 0 -9t-4 -8q-5 -11 -13.5 -20.5t-17.5 -17.5q-13 -11 -27 -17.5t-31 -6.5q-18 1 -32.5 10t-25.5 23q-20 28 -26.5 63.5t-4.5 69.5q2 32 13 65.5t36 56.5q11 10 26.5 16t29.5 -4q13 -10 14.5 -28t-0.5 -32q-2 -15 -6.5 -31 t-15.5 -27q-6 -7 -15.5 -7.5t-14.5 8.5q-7 11 -2.5 28.5t9.5 28.5q13 28 25 40q-5 8 -14 7q-16 -2 -24.5 -17t-12.5 -29q-5 -17 -7 -35t-4 -35q-2 -18 -1 -36.5t3 -36.5q2 -15 7 -29t13 -26q21 -27 51 -16q12 5 21.5 13t17.5 18zM85 174q8 13 12 31.5t2 34.5l-6 -12t-6 -14 q-9 -21 -11.5 -31t-1 -13t5 -1t5.5 5z"/>
<glyph glyph-name="d" unicode="d" horiz-adv-x="227" d="M178 6q5 2 8.5 3t8.5 4q5 4 9 8t8 9l14 18q2 2 4 5t5 4q2 0 2 -3.5t-1 -8t-2.5 -9t-1.5 -5.5l-10 -18t-13 -16t-19 -11.5t-21 0.5t-14.5 15.5t-6.5 20.5q-5 23 -6 47t-1 47q-1 19 -0.5 38t0.5 39q-6 -21 -12 -41.5t-13 -40.5q-6 -17 -12.5 -35t-14.5 -35 q-7 -14 -15.5 -30t-22.5 -25q-9 -5 -19 -4.5t-18 8.5q-11 11 -13 28.5t-2 33.5q0 33 7 66.5t18 65.5q10 26 23.5 52.5t34.5 45.5q11 11 25.5 17.5t29.5 2.5q2 -1 5 -1.5t5 -2.5q2 23 4 45t4 45q5 37 9.5 73.5t10.5 73.5q3 18 6 36.5t8 35.5q2 7 6.5 16.5t13.5 8.5q2 -1 4 -1 q1 0 1.5 -0.5t1.5 -0.5h2q0 -1 3 -3t4 -4q3 -5 3 -10q2 -17 -1 -34t-5 -34q-6 -37 -13.5 -73.5t-15.5 -73.5q-2 -11 -4.5 -22.5t-5.5 -22.5q-3 -28 -6 -55t-5 -55q-3 -34 -5 -68t-3 -68q0 -29 3 -59l2 -14t3 -14q2 -8 4 -11q0 -1 1 -2q0 -1 1 -1zM116 177q16 53 27 103 q-9 1 -16 -3q-6 -4 -11 -8t-10 -9q-11 -13 -19 -27.5t-15 -28.5q-15 -32 -26.5 -65.5t-18.5 -68.5q-2 -9 -3 -18t-1 -19q0 -7 0.5 -15t5.5 -13q5 -6 11 -2.5t11.5 10.5t9.5 15t6 11q17 32 28 67.5t21 70.5z"/>
<glyph glyph-name="e" unicode="e" horiz-adv-x="123" d="M112 28q1 1 5 5.5t9 9.5t9 8t5 1q2 -8 -4.5 -19t-10.5 -17q-15 -18 -35.5 -27t-43.5 2t-35.5 34.5t-18.5 46.5q-13 53 -5 106q5 37 19 67q7 13 18 25t26 16q17 5 28 -6t13 -26q3 -17 1.5 -35t-4.5 -35q-5 -33 -16.5 -65t-27.5 -62q-2 -4 -5 -9.5t-7 -7.5q-1 -1 -2 -1 q5 -12 14.5 -22t22.5 -12q14 -2 25.5 5.5t19.5 17.5zM20 182q-5 -29 -6 -60.5t7 -60.5l5 9l13 29q14 32 24.5 66t8.5 69q0 6 -1.5 15.5t-7.5 12.5q-5 2 -10 -4.5t-7 -8.5q-11 -15 -16.5 -32.5t-9.5 -34.5z"/>
<glyph glyph-name="f" unicode="f" horiz-adv-x="103" d="M-50 127q13 14 27 26.5t31 21.5q0 9 0.5 18t1.5 18q3 65 6.5 129.5t-0.5 129.5q-1 12 -2 23.5t-3 22.5l-3 14q0 2 -0.5 5t2.5 4q2 1 4.5 -1t3.5 -4q8 -10 10 -22.5t4 -24.5l3 -41q4 -62 4 -123.5t-1 -123.5v-11q12 3 24.5 3t23.5 -4.5t19 -13t11 -22.5q1 -2 1.5 -8.5 t-2.5 -7.5q-3 -2 -8.5 3.5l-7.5 7.5q-9 7 -19.5 7t-21.5 -3q-5 -2 -10 -3.5t-10 -3.5l-2 -72q4 -3 10 -11q20 -29 30 -63t18 -67q8 -37 12.5 -74t6.5 -74t0 -75.5t-13 -73.5q-4 -13 -11.5 -28t-22.5 -18q-16 -4 -27 9t-16 26q-14 33 -18.5 70.5t-5.5 73.5q-2 38 -2 76t1 76 t1.5 74.5t2.5 73.5q-12 5 -25 1q-6 -2 -13 -4.5t-14 -3t-13 2t-10 10.5q-3 7 -1.5 14.5t5.5 15t9.5 14t9.5 11.5zM52 1q-6 15 -17 34q-1 -34 -2 -67t-3 -67q-2 -38 -4 -77t-2 -78q-1 -18 0.5 -36.5t4.5 -36.5q2 -15 6.5 -32.5t15.5 -29.5q6 -7 11 -5.5t9 7.5t6.5 13.5 t3.5 12.5q4 18 4.5 36t1.5 37q2 75 -6 152q-4 35 -10 70t-19 67zM4 93q0 8 0.5 16t0.5 16q-4 -3 -10 -7t-12 -8.5t-9.5 -8.5t-2.5 -6q1 -1 5.5 0t6.5 1q12 1 21 -3z"/>
<glyph glyph-name="g" unicode="g" horiz-adv-x="206" d="M-123 -172q-5 11 -7 24q-2 20 4 35q2 3 4 8.5t6 6.5t3 -6.5t-1 -9.5q-1 -5 -1.5 -9.5t0.5 -9.5q2 -32 23.5 -55t53.5 -24q16 0 31 5.5t28.5 15.5t24 22.5t18.5 25.5q17 30 23 64.5t8 68.5q1 17 1.5 35t0.5 36q-4 -10 -11 -20q-8 -13 -19.5 -26.5t-28.5 -15.5t-26 13.5 t-11 29.5q-7 34 -3 70t13 68q8 29 24 60t45 46q11 6 24.5 6.5t24.5 -7.5q4 -2 8.5 -8t-5.5 -5q-13 1 -28 -2q-14 -5 -24 -18.5t-17 -25.5q-8 -16 -14.5 -31.5t-11.5 -32.5q-5 -18 -9.5 -35.5t-6.5 -35.5q-2 -10 -2 -19.5v-19.5q1 -8 2.5 -16t6.5 -15q7 -9 17 -2t20 21.5 t19 32.5t15 31q0 8 1 17l2 18q2 19 5 37t9 35q3 8 7 16t9 16q4 5 8 9t9 5q7 3 12.5 -2t5.5 -11q1 -7 -1 -13t-4 -13l-15 -44q-5 -13 -9.5 -25t-9.5 -24v-19q0 -38 1 -76t-3 -76q-3 -35 -11.5 -68.5t-29.5 -62.5q-19 -26 -48.5 -42.5t-61.5 -16.5q-32 1 -58 18t-40 46z"/>
<glyph glyph-name="h" unicode="h" horiz-adv-x="203" d="M156 23q6 -7 17 -3q6 3 12 7l12 8q1 1 4.5 4t8 6t7.5 3.5t2 -3.5q-2 -12 -10.5 -24t-17.5 -20q-11 -10 -26 -12.5t-28 8.5q-11 10 -15.5 23.5t-6.5 27.5q-5 30 -6 60l-2 69v19t-1 18q-1 4 -1.5 8t-5.5 -1q-10 -12 -16 -27.5t-11 -30.5q-5 -17 -10 -34.5t-9 -34.5 t-7.5 -34t-8.5 -34q-2 -5 -4.5 -11t-9.5 -6q-8 -1 -9.5 6.5t-1.5 12.5q-2 17 -1.5 35t0.5 35v75q0 77 1 153.5t9 153.5q4 36 9.5 73.5t22.5 70.5q7 14 17 28t25 19q18 5 29 -6t14 -27q3 -17 2.5 -35t-2.5 -35t-5 -35t-6 -35q-7 -35 -15 -69t-17 -69q-14 -55 -29.5 -108.5 t-32.5 -107.5l-3 -7v-2q-1 -14 -1.5 -27t-0.5 -27q2 7 3.5 13.5t3.5 13.5q4 17 9 33.5t10 33.5q5 15 11 30.5t14 29.5q7 9 20 17t24 -3q9 -11 11 -27t4 -29q2 -17 2.5 -34t1.5 -34q0 -30 3 -58q2 -11 4 -22.5t7 -21.5zM36 281q-2 -23 -3 -44.5t-2 -43.5l8 24 q20 63 36.5 126.5t29.5 129.5q7 35 12.5 72t3.5 73q0 5 -1.5 12.5t-4.5 13.5t-7.5 7.5t-11.5 -5.5q-11 -11 -15.5 -29t-8.5 -33q-9 -37 -14 -75l-10 -76q-8 -78 -12 -152z"/>
<glyph glyph-name="i" unicode="i" horiz-adv-x="110" d="M106 81q2 5 6.5 10t10.5 6t8 -7q0 -5 -2.5 -11t-5.5 -11l-12 -24q-8 -14 -17 -26.5t-23 -22.5q-13 -9 -27 -5.5t-23 16.5q-9 14 -13 30.5t-6 32.5q-2 18 -3.5 35.5t-1.5 35.5q0 30 2 60t5 59q1 7 2 12.5t9 4.5q5 -1 16.5 -4.5t12.5 -9.5q2 -5 0.5 -10.5t-1.5 -10.5 l-3 -28q-2 -19 -3.5 -37t-2.5 -36q-2 -19 -3.5 -37.5t-0.5 -37.5q0 -9 1 -18t4 -18q2 -5 4.5 -11.5t9.5 -8.5q6 -2 12 2t11 9.5t9 12t7 10.5q10 17 18 38zM47 425q16 0 22.5 -13t3.5 -27q-4 -14 -15.5 -25t-26.5 -11q-17 0 -23.5 13t-2.5 27q3 14 15 25t27 11z"/>
<glyph glyph-name="j" unicode="j" horiz-adv-x="115" d="M-192 -104q0 16 11 30q2 2 8 6t8 -3q1 -5 -1 -10t-3 -10l-2 -12t0 -12q2 -30 25 -49.5t51 -24.5q33 -5 62.5 12.5t42.5 47.5q6 14 10.5 28t5.5 29q1 13 1 25.5t-2 24.5q-3 35 -10 70t-12 69.5t-6.5 69.5t6.5 70q1 4 3 10t7 1q6 -5 7 -11t1 -13q-1 -17 0.5 -33.5 t3.5 -33.5q5 -35 13 -68.5t16 -67.5q8 -35 11.5 -70t-4.5 -70q-7 -33 -27 -61t-52 -42q-30 -14 -64 -11t-62 21q-11 8 -21 18.5t-16 22.5q-6 11 -8 22.5t-3 24.5zM20 419q14 0 20 -11.5t2 -22.5q-3 -12 -12.5 -21t-22.5 -9q-14 0 -19.5 11.5t-2.5 23.5q4 11 13.5 20t21.5 9z "/>
<glyph glyph-name="k" unicode="k" horiz-adv-x="229" d="M185 -12q8 4 15 11.5t12 15.5q8 13 12.5 27.5t9.5 28.5q0 2 2 6.5t4 1.5q3 -4 2.5 -10t-1.5 -11q-3 -28 -16 -59q-6 -13 -14 -25t-22 -17q-15 -7 -30 -2.5t-26 16.5t-16 27.5t-8 31.5q-3 17 -7 33.5t-12 32.5q-5 7 -10 13q-5 -3 -16 -6t-19 -1q-7 -26 -12 -53 q-2 -13 -3.5 -25.5t-2.5 -26.5l-1 -20h-3q0 -1 1 -2q0 -6 -7 -6t-10 3t-1 5v1h-1v8v18.5v19v10.5q0 17 -0.5 34t-0.5 34l-3 134q-2 76 -2 152t8 152q2 18 5.5 36t8.5 35q5 14 12.5 29.5t21.5 20.5q17 6 26 -3t12.5 -24t4 -32t0.5 -27q0 -68 -7.5 -135t-20.5 -133 q-5 -26 -11 -51.5t-16 -49.5l-6 -12q-2 -3 -4.5 -7.5t-6.5 -6.5q0 -19 -0.5 -37.5t-0.5 -37.5v-9q5 23 13 44.5t17 43.5q13 29 31 59t45 48q9 6 19.5 9t20.5 -1q13 -6 15.5 -20t0.5 -26q-4 -31 -19.5 -58.5t-37.5 -48.5q-8 -8 -16 -15t-18 -13q8 -8 12 -17.5t9 -19.5 q7 -16 13 -31.5t14 -30.5q3 -5 7 -12t9 -13t11.5 -8.5t13.5 2.5zM27 261q-1 -15 -1 -30v-30q2 11 5.5 21t4.5 12q8 27 14 54t11 55q6 35 10.5 70.5t6.5 70.5q3 37 3 75q0 18 -0.5 36.5t-5.5 35.5q-2 5 -5 10t-9 0q-5 -5 -8 -11q-5 -16 -7 -32l-4 -32q-8 -76 -10.5 -152.5 t-4.5 -152.5zM53 131q6 2 12 1.5t11 -1.5q12 8 21.5 19.5t17.5 23.5q9 14 16.5 28t14.5 28q3 8 6 14.5t5 14.5q1 2 1 8.5t2 7.5l-1 1q-9 3 -18.5 -4t-15.5 -12q-8 -8 -15 -17t-13 -18q-13 -19 -22 -39t-17 -42z"/>
<glyph glyph-name="l" unicode="l" horiz-adv-x="147" d="M111 29q9 11 17 22.5t17 22.5q1 1 4.5 5t4.5 0q2 -5 -1 -12t-5 -12q-5 -11 -13 -23t-18.5 -22t-23 -15.5t-26.5 -3.5q-15 3 -26 13t-18 24t-11 29t-7 28q-8 33 -10.5 66.5t-3.5 67.5q-1 38 0 75.5t4 75.5t8.5 75.5t16.5 74.5q5 17 11 34t17 31q8 12 21.5 15.5t21.5 -12.5 q8 -14 10 -32t4 -35q2 -18 2.5 -36t-1.5 -37q-3 -67 -16 -133.5t-35 -129.5q-11 -35 -25 -64l-3 -6q1 -24 8 -52q3 -13 9 -28t19 -22q13 -8 26 -1t22 17zM25 149l3 7q20 58 33.5 117.5t22.5 119.5q5 37 7.5 74t-3.5 74q-2 9 -3.5 18.5t-6.5 17.5l-2.5 5t-4.5 1t-4.5 -5.5 t-3.5 -6.5q-8 -16 -11.5 -34.5t-5.5 -35.5q-11 -75 -15.5 -150.5t-5.5 -150.5v-51z"/>
<glyph glyph-name="m" unicode="m" horiz-adv-x="318" d="M265 -4q14 7 25 18l22 22q4 4 8 9t9 8q5 2 3 -4t-3 -7q-5 -12 -13.5 -22.5t-17.5 -19.5q-11 -11 -24.5 -18.5t-29.5 -5.5q-17 2 -25.5 15.5t-12.5 29.5q-7 32 -5.5 66.5t4.5 66.5q1 10 4 30t6 41.5t3.5 41.5t-3.5 29q-3 7 -9.5 4t-13.5 -10t-13.5 -16t-9.5 -13 q-15 -25 -28 -57q1 -12 0.5 -24t-0.5 -24q0 -17 -2 -35t-5 -36q-2 -15 -5 -31t-9 -31q-2 -6 -7 -12.5t-12 -6.5q-6 -1 -9.5 4t-5.5 11q-3 15 -0.5 32t5.5 32q4 20 9 39t11 39l-3 54l-5 38q-3 16 -8.5 13.5t-12 -12.5t-12 -22.5t-6.5 -16.5q-7 -18 -12.5 -35.5t-10.5 -35.5 q-4 -18 -7.5 -35.5t-6.5 -34.5q-2 -6 -2 -9q-1 -7 -1.5 -13t-0.5 -12q0 -3 -0.5 -8.5t-1.5 -11.5t-3.5 -10t-6.5 -4q-6 1 -6 7v10q0 7 2 17v8q1 34 0 69l-7 117l-4 47q0 1 0.5 5t2 8.5t3.5 7.5t4 2q7 -2 11 -10t6 -18t2.5 -19.5t0.5 -15.5q1 -16 1.5 -31.5t0.5 -31.5v-34 q4 16 8 31t9 30q5 17 11.5 34.5t15.5 33.5q4 7 9 13t13 8q11 3 19 -3t13 -16.5t7.5 -22.5t4.5 -20q5 14 12 27t15 24q8 12 19.5 23.5t26.5 11.5q12 1 18.5 -6.5t9.5 -18.5q5 -17 5 -36t-1 -36q-2 -35 -6.5 -68.5t-8.5 -67.5q-2 -16 -3 -32t2 -32q2 -8 4.5 -15t9.5 -11 q5 -3 12 -2t12 3zM110 64q2 12 2 24.5v25.5q-5 -19 -8 -38t-3 -38q0 -4 0.5 -9.5t3.5 2.5q2 8 3 16.5t2 16.5z"/>
<glyph glyph-name="n" unicode="n" horiz-adv-x="196" d="M168 30q8 9 16 18.5t17 17.5q1 1 4.5 4t5.5 0q1 -2 -1 -6.5t-4 -6.5q-5 -8 -10 -15.5t-10 -14.5t-12.5 -16t-16 -16.5t-18 -12t-19.5 -1.5q-11 2 -16.5 12.5t-7.5 20.5q-6 25 -6 51q-2 36 1.5 71.5t7.5 71.5q2 18 3 36.5t-2 36.5q-1 12 -8 2q-9 -12 -16 -29 q-14 -29 -24.5 -60t-18.5 -63q-1 -29 -2.5 -58t-5.5 -58q0 -3 -1 -10t-3 -14t-5.5 -11t-9.5 1t-6 15t1 17l2 18t3 17q0 5 1 8q-1 5 -1 16q-1 23 -2 46.5t-3 46.5q-2 20 -3.5 41t-2.5 41q-1 8 -0.5 16.5t4.5 15.5q2 4 4.5 6.5t6.5 0.5q6 -4 11 -10q8 -10 9 -24t1 -25 q1 -14 1.5 -28t0.5 -28q3 15 7 26q5 18 10 35t12 34q4 12 12.5 28.5t24.5 17.5q9 1 14 -4.5t7.5 -13t3.5 -16t1 -14.5q2 -19 1.5 -37t-0.5 -37q-1 -34 -3 -68t-3 -68q-2 -15 0 -29q0 -5 0.5 -13t4.5 -11q2 -2 6 -1t8.5 4t8 6t5.5 5q7 6 15 15z"/>
<glyph glyph-name="o" unicode="o" horiz-adv-x="183" d="M38 272q6 7 15.5 13.5t20.5 7.5q18 7 36 -11q12 -12 17.5 -28t8.5 -32q6 -36 3 -74q0 -2 -0.5 -4t-0.5 -4q11 5 20 11.5t17 13.5l4.5 4.5t7 5.5t7 2.5t3.5 -4.5q0 -12 -11 -20.5t-19 -14.5q-15 -12 -30 -16q-3 -29 -10.5 -58t-23.5 -53q-5 -7 -10 -13t-13 -10 q-7 -5 -13.5 -5h-14.5q-15 4 -24.5 15t-15.5 25q-6 17 -8.5 35t-3.5 36q-1 17 -0.5 34.5t2.5 35.5q3 26 10.5 52.5t21.5 49.5zM108 118q-29 2 -44 21.5t-20 45.5q-2 -10 -3 -19.5t-2 -19.5q-2 -18 -3.5 -36t-1.5 -37q0 -14 2 -34t14 -31q6 -6 11.5 -5t11 4.5t9.5 9t7 10.5 q9 15 14.5 31t9.5 33q2 7 3 13.5t2 13.5q-5 -2 -10 0zM58 222q-1 -14 2 -30.5t10 -30t19.5 -21.5t30.5 -5q3 25 2.5 50.5t-7.5 48.5q-3 19 -13 31q-3 4 -7.5 8.5t-9.5 5.5l-4 -3q-5 -5 -8 -9t-6 -9l-3 -5v-1q-5 -15 -6 -30z"/>
<glyph glyph-name="p" unicode="p" horiz-adv-x="179" d="M37 -11q-2 2 -4 6q0 -33 0.5 -66.5t0.5 -67.5q0 -19 -0.5 -37.5t-1.5 -37.5q0 -19 -3 -37q-2 -5 -3.5 -10.5t-6.5 -8.5q-13 -7 -20.5 3.5t-9.5 20.5q-5 17 -5.5 35t-0.5 36q0 38 3.5 75.5t8.5 74.5l7 50v46q-2 69 3 138q2 27 5 54t12 53q1 2 3 7t5 9.5t5.5 5.5t4.5 -4 q3 -14 2.5 -27.5t-2.5 -27.5q-3 -32 -4.5 -63.5t-2.5 -63.5v-1l6 16t7 16q7 14 16.5 28t24.5 20q16 7 30.5 -0.5t22.5 -21.5q9 -15 12 -33t4 -36q1 -33 -5.5 -67.5t-21.5 -63.5q-7 -14 -17.5 -26t-25.5 -16q-14 -3 -27.5 3t-21.5 19zM57 156q-8 -20 -14 -40.5t-11 -40.5v-6 q2 2 6 4q6 2 5.5 -3t-1.5 -9q0 -5 0.5 -10t1.5 -10q2 -11 6 -22.5t12 -19.5q10 -10 19 -4.5t15.5 17.5t10.5 26t6 20q7 27 9.5 55.5t-0.5 56.5q0 5 -2 13.5t-5.5 15.5t-9 10.5t-14.5 -0.5q-14 -8 -21.5 -23.5t-12.5 -29.5z"/>
<glyph glyph-name="q" unicode="q" horiz-adv-x="204" d="M-21 -47q17 3 35.5 5t35.5 4q11 2 22.5 2.5t22.5 1.5q0 25 1.5 49.5t3.5 49.5l-21 -34q-8 -12 -21 -23.5t-29 -6.5t-21 20.5t-7 29.5q-3 34 2 71q4 34 12.5 67t27.5 62q8 13 19.5 23.5t26.5 15.5q11 4 23.5 2.5t21.5 -10.5q2 -2 4 -4.5t0 -4.5q-1 -2 -4 -1.5t-5 0.5 q-6 0 -12.5 -0.5t-11.5 -2.5q-13 -4 -22 -14.5t-16 -21.5q-17 -28 -28 -60t-17 -64q-3 -17 -4.5 -36t3.5 -36q1 -6 5 -14t12 -6q8 1 13 7t9 11q11 14 19 30l16 32l9 22l2 16t3 16q2 18 5.5 36.5t9.5 35.5l5 12.5t7 14t9.5 9t13.5 -2.5q9 -8 7 -19t-5 -20l-12 -36t-14 -36v-4 q-4 -32 -5.5 -63.5t-2.5 -63.5q-1 -11 -1 -22v-22q4 0 8 0.5t8 0.5q10 2 19.5 2.5t19.5 1.5q8 2 15.5 3t15.5 1q3 0 8.5 -1.5t3.5 -6.5t-6.5 -7t-9.5 -4t-9.5 -3t-9.5 -3l-62 -15q0 -25 1 -49.5t2 -49.5q1 -13 -1 -26l-4 -26q-1 -2 -2 -6t-4 -1q-3 2 -4.5 5.5t-3.5 6.5 q-7 18 -9 37t-4 39q-3 31 -3 63l-63 -12q-16 -2 -31.5 -4.5t-31.5 -4.5q-5 -1 -11.5 0t-8.5 7q-5 10 3.5 19.5t16.5 12.5z"/>
<glyph glyph-name="r" unicode="r" horiz-adv-x="141" d="M116 183q-1 -1 1 -0.5t5 1.5t5.5 2.5t3.5 1.5q8 2 7.5 -4t-3.5 -10l-8 -10t-10 -7q-8 -3 -13.5 -0.5t-9 8.5t-5.5 13.5t-3 13.5q-3 17 -3.5 34.5t-1.5 35.5q0 4 0.5 9t-1.5 10q-2 4 -6 -3.5t-5 -8.5q-14 -29 -23 -60.5t-15 -63.5q2 -12 2.5 -24t1.5 -24q1 -17 0.5 -35 t-2.5 -36t-6 -36q-2 -6 -5.5 -12t-10.5 -7q-9 -1 -11 14.5t-0.5 36t4.5 39.5t4 24q0 4 1 7q-1 11 -2 23t-3 25t-3.5 26t-5.5 27q-3 9 5 13q5 3 11 0.5t8 -7.5q4 -8 5 -13l11 47q5 17 10 33t13 31q7 14 23 19q8 2 14.5 -2.5t10.5 -10.5q9 -14 10.5 -31t1.5 -33q0 -8 -1 -17 t-1 -17q-1 -5 -1.5 -11.5t1.5 -10.5z"/>
<glyph glyph-name="s" unicode="s" horiz-adv-x="176" d="M29 -9q-8 12 -6 27q0 3 4 11t9 4q4 -3 5 -10.5t2 -11.5q5 -12 11 -18q9 -9 23.5 -10t25.5 7q13 10 15.5 26t0.5 30q-2 17 -10 32t-19 28l-22 26q-23 -49 -54 -97q-2 -2 -7 -9.5t-9 -0.5q-5 9 0.5 17.5t10.5 16.5q14 20 26 42.5t22 45.5q-2 4 -4.5 8t-4.5 9 q-8 17 -11.5 33.5t0.5 33.5q2 12 7.5 23.5t15.5 18.5q13 6 25 -0.5t14 -20.5q2 -21 -3 -42.5t-13 -42.5q6 -11 12.5 -22t14.5 -22q9 -14 17 -30.5t11.5 -33.5t1.5 -34.5t-11 -33.5q-8 -14 -21.5 -20.5t-28 -6.5t-28 7t-22.5 20zM64 231q1 -11 3.5 -21t6.5 -20q7 22 9 45 q0 5 -1.5 14.5t-9.5 7.5q-7 -2 -8 -11.5t0 -14.5z"/>
<glyph glyph-name="t" unicode="t" horiz-adv-x="108" d="M-38 342q27 13 60 19l10 43l11 37q4 9 11.5 6t11.5 -10q2 -5 1.5 -9.5t-1.5 -9.5l-3 -23q-2 -7 -2.5 -14t-1.5 -14l17 2l46 6q18 2 31 -1q8 -2 17 -5t13 -11q3 -8 -3 -14t-11 -9q-19 -12 -41 -17.5t-43 -10.5q-8 -2 -17 -4l-18 -4q-4 -28 -7.5 -56t-6.5 -56 q-4 -36 -6.5 -73.5t2.5 -74.5q1 -6 2 -14.5t4 -16t8 -13t13 -5.5q14 1 23 14.5t14 24.5q0 1 3.5 6.5t7.5 10.5t8 7t7 -2q5 -8 -0.5 -18.5t-8.5 -16.5q-6 -11 -13 -21t-18 -17q-11 -8 -25.5 -9t-24.5 10q-13 11 -18 29t-7 34q-6 36 -6 74q-2 38 0 75t6 75q1 8 1.5 15t2.5 15 q-6 0 -8 1q-11 2 -23 6.5t-21 12.5q-8 7 -7 14t10 12z"/>
<glyph glyph-name="u" unicode="u" horiz-adv-x="199" d="M172 33q6 0 11 3.5t10 6.5q4 3 8.5 7t9.5 3q5 0 2.5 -6t-4.5 -8q-5 -8 -16 -15q-9 -6 -19 -7t-19 6t-14 17.5t-9 21.5q-2 6 -3.5 12.5t-3.5 12.5q-2 -17 -5 -34.5t-8 -34.5q-5 -14 -12.5 -29t-22.5 -20q-17 -6 -30.5 4t-21.5 24q-9 16 -14 33.5t-8 34.5q-7 33 -7.5 67 t4.5 67q2 14 5.5 27.5t8.5 27.5q3 10 7 21t11 19q5 6 8 2t5 -9q2 -6 2 -11.5t-1 -11.5q-2 -12 -3 -23.5t-2 -23.5q-3 -34 -4.5 -67.5t0.5 -67.5q1 -18 2.5 -36.5t7.5 -35.5q3 -7 7 -13.5t12 -8.5q8 -1 13 4.5t8 10.5q9 16 13.5 34t7.5 36t5 36.5t2 37.5q1 19 1 37.5t4 37.5 q1 4 3 12.5t6 16.5t9 12.5t12 1.5q6 -3 6.5 -8.5t-0.5 -11.5l-2 -33q0 -36 -3 -70q-1 -17 -1.5 -33.5t1.5 -33.5q1 -10 4.5 -25t16.5 -17z"/>
<glyph glyph-name="v" unicode="v" horiz-adv-x="176" d="M123 278q4 7 13 15t17 7q4 0 3.5 -9.5t-3.5 -21.5t-6 -23.5t-4 -14.5q-8 -32 -14 -65t-13 -65q-4 -18 -8 -35.5t-10 -34.5q-5 -13 -13 -24.5t-25 -9.5q-16 3 -25.5 16t-15.5 27q-6 16 -10.5 32.5t-8.5 33.5q-7 32 -9.5 67.5t11.5 67.5q5 11 11.5 21t17.5 15q12 7 12 -8 q0 -5 -1 -10t-3 -10q-9 -29 -12 -59t-4 -60q0 -17 1 -35.5t6 -35.5q2 -6 5 -13.5t7.5 -14.5t10 -11.5t13.5 -3.5l-1 -1l3 1q0 2 1.5 4t2.5 4q2 5 3 9t3 9q2 10 3 19.5t2 20.5l4 42t5 42q4 29 10.5 57.5t20.5 54.5z"/>
<glyph glyph-name="w" unicode="w" horiz-adv-x="252" d="M186 261q7 28 28 45q2 2 6.5 5t7.5 1q2 -2 1.5 -6.5t-0.5 -6.5q-3 -17 -8 -33.5t-9 -33.5q-7 -30 -11.5 -60t-8.5 -60l-11 -70q-1 -7 -2.5 -16.5t-4.5 -18t-8.5 -15.5t-13.5 -10q-18 -4 -27 10.5t-13 28.5q-10 34 -12 71q-2 14 -1.5 29t0.5 30q-2 -6 -2 -8 q-8 -30 -16.5 -60.5t-20.5 -59.5q-2 -7 -6 -14.5t-11 -11.5q-13 -6 -24 5q-8 8 -10.5 18.5t-4.5 21.5q-14 70 -1 137q5 23 12.5 46t21.5 42q2 3 4.5 6t6.5 5q7 3 6.5 -4.5t-0.5 -11.5q-2 -12 -5.5 -24.5t-6.5 -24.5q-7 -32 -10.5 -65.5t-5.5 -67.5q-1 -9 -1.5 -18.5 t0.5 -19.5q1 -5 1.5 -12.5t4.5 -11.5t6.5 1.5t4.5 8.5l9 25q11 36 19.5 72t17.5 73q2 9 4.5 18.5t5.5 18.5q2 5 4 11.5t7 9.5q10 5 14.5 -2.5t4.5 -15.5q2 -35 1 -70.5t1 -70.5q0 -18 0.5 -36.5t3.5 -36.5q0 -1 1.5 -5t3.5 -8.5t4 -7.5t4 0q5 5 6.5 13t3.5 14q7 35 8.5 69.5 t5.5 69.5q2 23 5.5 46t9.5 46z"/>
<glyph glyph-name="x" unicode="x" horiz-adv-x="168" d="M156 316q1 3 4 4q4 3 10.5 4t11 -0.5t6 -5.5t-2.5 -11q-6 -8 -13 -16t-12 -16q-19 -28 -35.5 -56.5t-33.5 -57.5l-12 -20q3 -29 6 -58.5t9 -57.5q2 -8 4.5 -16.5t7.5 -16.5q5 -7 10.5 -6t11.5 6q11 8 18.5 19t12.5 22q0 1 3 5.5t6.5 8.5t6.5 5t4 -3q2 -8 -2.5 -17 t-8.5 -15q-5 -8 -13.5 -19t-18.5 -19t-21 -9t-21 10q-10 10 -15 23t-9 26q-9 26 -15 56q-2 4 -2 6l-33 -64q-14 -26 -28.5 -52.5t-32.5 -50.5q-2 -2 -4 -5t-5 -2q-4 0 -5.5 5.5t-0.5 8.5q1 5 4.5 9t5.5 7l14 22q18 30 34 61.5t32 63.5l12 26q-4 18 -7.5 36.5t-6.5 37.5 l-6 30t-7 29q-1 2 -2 4.5t-1 4.5t-1.5 4t-2.5 4q-2 5 1.5 10.5t9.5 3.5q15 -3 23.5 -18.5t13.5 -28.5q5 -14 8.5 -29t5.5 -29l24 49q11 23 25 46.5t33 41.5z"/>
<glyph glyph-name="y" unicode="y" horiz-adv-x="202" d="M-91 -150q-5 8 -6 17.5t4 17.5q3 5 6 4.5t5 -3.5t3 -7t2 -7q4 -16 15.5 -26t27.5 -13q21 -3 38 5t30 23t21.5 33.5t12.5 35.5q6 23 10 47t7 47q-7 -2 -13 -3t-12 1q-17 4 -27.5 17.5t-16.5 27.5q-7 17 -10 35t-5 35q-8 70 14 138q0 1 1.5 6.5t3.5 10.5t4.5 8t5.5 0 q4 -4 4.5 -8.5t0.5 -9.5l2 -22q3 -33 5.5 -65.5t4.5 -65.5q2 -17 3.5 -34t6.5 -33q2 -6 5 -11t10 -6q6 -1 16 3q5 42 10 83.5t16 83.5q5 16 10.5 31t13.5 29q8 15 17 25q3 2 6.5 5.5t7.5 3.5q6 1 5 -8t-2 -12q-3 -5 -6.5 -10t-5.5 -11q-6 -14 -10 -29.5t-6 -31.5 q-6 -36 -9 -72.5t-7 -73.5q-4 -36 -9 -72t-19 -71q-11 -30 -31.5 -56t-50.5 -40q-31 -15 -64 -6q-15 5 -26 13.5t-19 20.5z"/>
<glyph glyph-name="z" unicode="z" horiz-adv-x="215" d="M0 174q-3 -14 -4.5 -30.5t4.5 -30.5q1 -2 6 -8.5t4 -7.5q-2 -3 -8 2t-7 6q-9 10 -12 23t-3 27.5t3 28t6 25.5q5 16 12.5 32t20.5 27t27.5 10t26.5 -13q5 -5 8.5 -11.5t7 -13.5t8 -12.5t11.5 -8.5q3 -2 9 -2q7 14 15 28t19 26q5 5 11.5 8.5t14.5 1.5q17 -5 14 -22 q-2 -14 -12 -26.5t-20 -21.5q-5 -4 -9.5 -7.5t-9.5 -5.5q-3 -12 -5 -21.5t-4.5 -18.5t-6.5 -19t-10 -23l-10 -20q14 -5 23 -16.5t14 -25.5q7 -25 4 -54q12 8 22.5 14.5t18.5 14.5q6 5 13 10l14 10q1 0 6.5 3.5t5.5 -0.5q-1 -4 -4 -7.5t-5 -5.5q-8 -10 -18 -17t-20 -15 q-6 -5 -15 -10.5t-20 -12.5q-4 -17 -9.5 -33.5t-11.5 -31.5q-7 -15 -14.5 -29t-17.5 -28q-8 -11 -19 -23.5t-25 -17.5q-13 -6 -26 -4.5t-21 15.5q-11 16 -4.5 34.5t16.5 32.5q11 17 32.5 34t50.5 35l19 12q4 17 5 34t-4 34q-6 21 -23 29q-12 -17 -28 -30t-36 -19 q-8 -2 -15.5 -2.5t-15.5 4.5q-6 4 -7.5 11t0.5 15q5 14 17 23t25 14q18 7 35 8q7 14 13 27t10 23q5 12 8.5 21t8.5 19l-6 2q-15 4 -27 18q-5 6 -7.5 13t-7.5 14q-4 6 -9 11t-13 0q-7 -5 -11.5 -11t-8.5 -13q-7 -11 -11.5 -24t-7.5 -27zM58 -147q20 23 33 51.5t21 57.5l-8 -6 q-20 -14 -39.5 -29.5t-33.5 -31.5q-10 -12 -15.5 -24t-3.5 -23q1 -7 7.5 -11.5t13.5 -2.5q8 2 14 7.5t11 11.5zM36 51q11 10 24 32q-14 -1 -26.5 -5.5t-21.5 -14.5q-3 -4 -7 -12.5t5 -9.5q7 -1 14 2t12 8zM151 228q12 8 19 17q2 2 7 10.5t0 9.5q-7 0 -11 -6t-6 -11z"/>
<glyph glyph-name="braceleft" unicode="{" horiz-adv-x="240" d="M185 -152q11 -2 22 -2t21 -5q5 -2 5 -4t-2.5 -3.5t-6 -3t-5.5 -2.5q-21 -5 -42.5 0.5t-37.5 19.5q-19 17 -30 40t-17 48.5t-8 51.5t-2 50q0 23 0.5 45t-1.5 45q-1 11 -3.5 27.5t-15.5 21.5q-8 3 -16 7t-6 15q2 6 7 9t10 7q8 7 11 17.5t5 21.5q6 35 2.5 76t-2 81t14.5 75 t51 57q37 19 72 11q5 -2 11 -3t11 -4q7 -5 0 -7.5t-11 -2.5q-18 -1 -33 0.5t-32 -10.5q-14 -9 -21.5 -23.5t-12.5 -29.5q-11 -38 -8.5 -79t-1.5 -80q-2 -22 -6.5 -44t-12.5 -42q-5 -14 -14 -25q-1 -2 -4 -3.5t-3 -3.5q1 0 2 -1q2 -2 3 -2q2 -1 5 -2q8 -7 13 -18q6 -11 9 -23 t6 -25q5 -29 8 -57.5t5 -57.5q1 -20 1.5 -46t5 -50t17 -42.5t37.5 -24.5z"/>
<glyph glyph-name="bar" unicode="|" horiz-adv-x="199" d="M89 -66q0 -2 -2 -9.5t-5 -15t-6 -11t-4 2.5q-2 15 0.5 30.5t4.5 30.5q6 85 6 173q0 85 -7.5 169t-5.5 169q1 36 6.5 71.5t22.5 68.5q5 9 8.5 9t5.5 -5t2.5 -12t0.5 -12q-2 -15 -3 -29t-1 -28q-3 -83 -2 -165.5t-1 -164.5q-2 -69 -7 -136.5t-13 -135.5z"/>
<glyph glyph-name="braceright" unicode="}" horiz-adv-x="233" d="M36 -173q-3 -1 -11.5 -1.5t-17 0.5t-15 4.5t-6.5 10.5q0 2 7 3t15.5 2t16.5 1t10 1q14 4 22.5 14.5t13 24t6.5 28t3 26.5q2 38 2 74.5t5 73.5q2 18 5 37t9 37q0 1 3 6.5t6.5 12t7 11.5t5.5 5q-11 10 -16 24.5t-9 28.5q-11 37 -15 75q-5 39 -3.5 79.5t-9.5 78.5 q-5 17 -16 31.5t-31 16.5q-3 0 -10 -1.5t-14 -2t-9.5 1t3.5 9.5q11 13 31.5 11t32.5 -9q15 -8 25.5 -21t18.5 -28q19 -37 19.5 -77t1.5 -80q0 -21 0.5 -42.5t4.5 -42.5l4 -16t7 -16q2 -5 8 -7.5t9 -7.5q6 -8 0.5 -14.5t-13.5 -8.5q-10 -3 -13 -13q-8 -18 -8 -38.5v-40.5 q2 -42 1.5 -83t-11.5 -82q-8 -30 -25 -58.5t-50 -37.5z"/>
<glyph glyph-name="asciitilde" unicode="~" horiz-adv-x="241" d="M206 128q2 -6 -2 -14.5t-12 -4.5q-6 3 -8 14.5t-5 16.5q-4 8 -10.5 15.5t-17.5 1.5q-9 -5 -16 -13.5t-14 -16.5t-16.5 -15.5t-20.5 -12.5t-22.5 -5.5t-22.5 4.5q-18 8 -29 26.5t-19 36.5q-5 11 8 9q8 0 11 -9t6 -15q6 -8 13.5 -17.5t18.5 -11.5t20 7t15 17q7 8 15.5 17 t18 16t20.5 11t23 2q11 -2 18 -8.5t12 -15t8.5 -18t7.5 -17.5z"/>
<glyph glyph-name="exclamdown" unicode="" horiz-adv-x="175" d="M71 282q7 -71 8.5 -141t-0.5 -142l-2 -76t6 -75q3 -18 10 -33q2 -5 5.5 -11t2.5 -12q0 -10 -4.5 -11.5t-9.5 1t-10.5 7.5t-8.5 8q-26 26 -32.5 62t-4.5 71q2 42 8.5 83t11.5 83q9 78 6 157q0 12 -1.5 24t-0.5 23q0 9 2.5 8.5t5.5 -5.5t5.5 -11.5t2.5 -9.5zM60 433 q-17 0 -26 13.5t-10 29.5t6.5 29.5t25.5 13.5q16 0 25.5 -13.5t10.5 -29.5t-7 -29.5t-25 -13.5z"/>
<glyph glyph-name="cent" unicode="" horiz-adv-x="232" d="M106 549q-2 8 2.5 17t11 14t13.5 4t10 -13q4 -14 2 -29.5t-3 -29.5q-2 -19 -2.5 -37.5t-1.5 -36.5q22 0 44 -17q13 -12 19 -27.5t7 -32t-2 -33.5t-9 -32q-6 -16 -16 -27q-1 -1 -6 -5t-6 0q0 5 4 12.5t6 12.5q7 15 8 29q3 15 2 32.5t-6.5 33t-16.5 25.5t-29 10 q-2 -60 -3.5 -118t-1.5 -118q-1 -24 -1 -48v-48q14 2 27 13q2 1 7.5 4.5t11.5 6.5t11.5 3.5t8.5 -2.5q2 -3 0 -6.5t-5.5 -7.5t-7.5 -6.5t-5 -3.5q-11 -8 -23 -13.5t-26 -7.5q0 -11 -0.5 -22t-0.5 -22l-2 -51q-1 -11 -9 -8.5t-10 10.5q-4 11 -2.5 26.5t2.5 26.5v39 q-3 1 -6.5 1.5t-6.5 2.5q-24 8 -39 28t-24 45.5t-13 52t-5 48.5q-1 39 8 78.5t33 71.5q11 14 27.5 25t34.5 16q-1 27 -2 56.5t-9 57.5zM65 135q6 -15 18 -28t26 -18q0 3 0.5 6.5t0.5 6.5q2 42 3 82.5t2 82.5q2 38 2.5 74.5t-0.5 74.5q-17 -5 -28.5 -18.5t-18 -30.5 t-10.5 -35.5t-6 -32.5q-6 -40 -5 -83t16 -81z"/>
<glyph glyph-name="sterling" unicode="" horiz-adv-x="261" d="M111 299q11 4 24.5 1t15.5 -9q2 -8 -4 -16.5t-13 -15.5q-14 -14 -32.5 -25.5t-38.5 -20.5v-12t1 -12q12 8 24.5 13t25.5 7q9 2 20 -4t12 -14q0 -7 -7 -14l-13 -13q-13 -10 -28 -16t-32 -10q1 -30 1.5 -60t-0.5 -60q29 13 59 24.5t60 21.5q9 2 18.5 2.5t18.5 -4.5 t15.5 -14t3.5 -21q-5 -19 -22 -28.5t-31 -14.5q-38 -13 -77 -21t-77 -13q-14 -2 -26 -3.5t-26 -2.5q-7 -1 -14 1t-10 10q-4 11 4 19t16 10l51 19l8 3l-6 125q-8 -2 -11 -2q-3 -1 -10 -1t-12.5 1.5t-8.5 5t1 9.5q6 7 18 12.5t20 10.5h1q0 8 -0.5 15.5t-0.5 15.5l-15 -6 q-4 -2 -12 -4t-15 -2.5t-11 2t0 9.5q5 8 18.5 17.5t22.5 16.5l11 10v1q-1 38 0 76t5 76q3 35 10 71t23 68q13 28 35.5 51t52.5 19q15 -3 28 -12t23 -22.5t17.5 -29t13.5 -30.5q22 -61 22 -130.5t-26 -129.5q-11 -27 -36 -41q-2 -2 -9 -5t-9 2t-0.5 12t3.5 12q4 13 8 24l8 22 q20 51 27.5 108.5t-6.5 111.5q-3 14 -10 30t-16.5 29t-22 21t-27.5 6t-26 -12.5t-19 -24.5q-10 -15 -15.5 -32.5t-9.5 -35.5q-8 -37 -10 -76t-1 -77v-54q12 10 24.5 17.5t25.5 12.5z"/>
<glyph glyph-name="currency" unicode="" horiz-adv-x="337" d="M30 347q-7 8 3 12t19 -1q12 -5 20 -11t15 -14q14 -15 22 -32t15 -34q14 12 34 20q2 1 10.5 2.5t17 2.5t15 0t5.5 -5q13 -9 21 -20l8 23q7 18 12.5 37.5t12.5 37.5q3 9 13 5.5t12 -12.5q5 -21 -1 -38q-4 -23 -17 -40.5t-26 -37.5q18 -39 12 -84t-25 -81q-4 -6 -8 -12.5 t-9 -11.5q8 -8 15 -16.5t15 -16.5q12 -16 26.5 -32t26.5 -32q7 -8 -3 -12t-19 0q-12 5 -20 11t-15 14q-17 16 -25.5 34t-16.5 37l-10 -4t-11 -3q-18 -4 -35 2.5t-30 18.5l-5 4q-2 -9 -5 -18l-6 -18q-8 -19 -13.5 -38t-13.5 -37q-3 -9 -12.5 -5.5t-11.5 12.5q-4 22 1 39 q5 22 18 40t26 37l6 4q-14 25 -15.5 54.5t5.5 55.5q3 17 9 33.5t17 31.5q-7 8 -13 16.5t-14 16.5q-12 17 -26 32.5t-26 32.5zM215 189q-2 8 -5.5 20.5t-9 24.5t-14 22.5t-20.5 14.5q-9 -3 -15 -9q-15 -11 -23.5 -25t-12.5 -30t-4 -32t2 -31q1 -8 6.5 -27t14.5 -36t22.5 -26 t30.5 4q15 10 22 26.5t9 34.5t1 36t-4 33z"/>
<glyph glyph-name="yen" unicode="" horiz-adv-x="238" d="M11 25q-3 15 2 28q2 4 6.5 9.5t10.5 3.5q5 -2 4 -9t-1 -9q0 -7 -0.5 -13t1.5 -13q3 -10 11 -18t20 -10q14 -4 27 3t22 18q14 18 19.5 41.5t7.5 46.5q-24 -1 -48.5 3t-47.5 10q-3 0 -7 2.5t-7 5t-3 5.5t7 5q14 4 27.5 4t27.5 2q13 1 26 2.5t27 3.5v22q-25 -2 -50 1.5 t-48 9.5q-3 1 -7 3t-7 5t-3 6t7 5q14 4 27.5 4t27.5 2q13 1 26 2.5t27 3.5q-1 12 -1 23.5v23.5q-13 -18 -31.5 -29.5t-41.5 -3.5q-14 6 -24 17.5t-17 25.5t-10.5 29t-5.5 28q-10 57 1 116.5t35 110.5l4 10q4 6 6 2t4 -9q0 -4 -1.5 -9t-2.5 -10l-2 -24q-4 -30 -5.5 -61.5 t-1.5 -62.5q0 -17 0.5 -32t2.5 -32q3 -15 6.5 -30t11.5 -29q8 -11 18 -14.5t21 4.5q10 5 18.5 15t12.5 20q-1 28 -1.5 56t-0.5 56q0 29 1.5 59t6.5 59q3 13 6.5 25.5t9.5 23.5q2 4 6.5 7.5t7.5 -1.5t3.5 -11t-0.5 -13q-7 -26 -6.5 -54.5t1.5 -56.5l8 -131q2 -23 3 -46.5 t1 -46.5h16q12 1 14.5 -9.5t-5.5 -17.5q-13 -10 -26 -14q0 -6 -0.5 -11.5t-1.5 -11.5h19q12 1 14.5 -9.5t-5.5 -17.5q-16 -11 -34 -16q-6 -28 -17 -59q-9 -25 -27 -48t-46 -28q-27 -5 -50 10.5t-26 41.5z"/>
<glyph glyph-name="brokenbar" unicode="" horiz-adv-x="202" d="M77 289l-6 92t-1 92q1 36 6.5 71.5t22.5 68.5q5 9 8.5 9t5.5 -5t2.5 -12t0.5 -12q-2 -15 -3 -29t-1 -28q-2 -54 -1.5 -107.5t0.5 -107.5q0 -11 -0.5 -20.5t-3.5 -15t-10 -5.5t-20 9zM82 196q0 8 4 18t9.5 15.5t9.5 1.5t4 -25q-2 -69 -7 -136.5t-13 -135.5q0 -2 -2 -9.5 t-5 -15t-6 -11t-4 2.5q-2 15 0.5 30.5t4.5 30.5q6 85 6 173v31t-1 30z"/>
<glyph glyph-name="section" unicode="" horiz-adv-x="262" d="M50 57q2 8 8.5 16t15.5 8q5 0 6 -2.5t-0.5 -6.5t-3.5 -8l-3 -6q-8 -16 -5.5 -33.5t15.5 -30.5q14 -13 35 -13.5t34 13.5q16 18 13 42.5t-13 44.5q-9 19 -22 34.5t-27 32.5q-21 26 -35 57t-11 66q2 17 9.5 33t21.5 27q1 0 2 1t2 1t3 1q-2 2 -2 3q-18 23 -27.5 51.5 t-4.5 58.5q6 35 31 59.5t62 22.5q18 -1 33.5 -9t25.5 -20.5t14 -29t-1 -34.5q-1 -5 -3.5 -6t-4.5 0.5t-4 5t-2 6.5q-1 7 0 13.5t-1 13.5q-4 16 -16.5 26t-29.5 12q-23 1 -36.5 -10t-20.5 -28.5t-7.5 -37.5t4.5 -36q6 -20 16.5 -37t22.5 -33t24 -32.5t21 -34.5 q15 -31 16 -63.5t-19 -61.5q-6 -6 -13 -9q11 -18 17.5 -38t5.5 -42q0 -20 -7.5 -37t-20.5 -28.5t-30.5 -16t-37.5 1.5q-31 8 -43 36t-7 57zM145 285q-9 10 -19.5 18.5t-20.5 18.5q-3 -2 -6.5 -4t-6.5 -5q-11 -13 -14 -27q-5 -17 -0.5 -34t12.5 -31q10 -17 23 -29.5t27 -26.5 l22 -24q2 2 3.5 2.5t2.5 1.5q16 13 18.5 34t-2.5 39q-5 19 -15 35.5t-24 31.5z"/>
<glyph glyph-name="dieresis" unicode="" horiz-adv-x="187" d="M66 440q11 -8 10 -21.5t-8.5 -24t-20 -15.5t-23.5 3q-12 8 -11 21.5t9 24t20 15.5t24 -3zM158 459q11 -8 10 -21.5t-8.5 -24.5t-20 -16t-23.5 3q-12 8 -11 21.5t9 24.5t20 16t24 -3z"/>
<glyph glyph-name="copyright" unicode="" horiz-adv-x="367" d="M146 454q-3 0 -15.5 -1t-26.5 -1t-25.5 0.5t-12.5 3.5q-2 5 6 10t18 9.5t20 7.5t13 4q59 12 110 -17h10t10 -1q11 -2 9.5 -5.5t-8.5 -7.5q12 -10 22 -22q30 -37 44.5 -83t17 -94.5t-4.5 -97.5t-20 -92q-11 -35 -28.5 -70.5t-47.5 -59.5q-28 -22 -63 -23t-64 19 q-28 20 -45 48.5t-26.5 61.5t-12.5 67.5t-1 66.5q2 35 9.5 72t21 71.5t34 65t50.5 52.5q5 4 11.5 7.5t12.5 7.5q-5 1 -9 1h-9zM298 249q-3 25 -9.5 54t-18 55.5t-29 49t-41.5 34.5q-9 -2 -18 -5.5t-17 -8.5q-33 -20 -54.5 -51t-33 -68t-15 -76t-1.5 -74q2 -42 11 -83t29 -77 q9 -16 22 -29.5t29 -21.5t33 -7.5t35 12.5q15 11 26.5 26.5t20 33t14 36t9.5 36.5q9 40 11 81t-3 83zM250 79q4 5 7 8.5t8 7.5q2 2 9 6.5t9 -1.5q2 -4 0 -9t-4 -8q-5 -11 -13.5 -20.5t-17.5 -17.5q-13 -11 -27 -17.5t-31 -6.5q-18 1 -32.5 10t-25.5 23q-20 28 -26.5 63.5 t-4.5 69.5q2 32 13 65.5t36 56.5q11 10 26.5 16t29.5 -4q13 -10 14.5 -28t-0.5 -32q-2 -15 -6.5 -31t-15.5 -27q-6 -7 -15.5 -7.5t-14.5 8.5q-7 11 -2.5 28.5t9.5 28.5q13 28 25 40q-5 8 -14 7q-16 -2 -24.5 -17t-12.5 -29q-5 -17 -7 -35t-4 -35q-2 -18 -1 -36.5t3 -36.5 q2 -15 7 -29t13 -26q21 -27 51 -16q12 5 21.5 13t17.5 18zM189 222q8 13 12 31.5t2 34.5l-6 -12t-6 -14q-9 -21 -11.5 -31t-1 -13t5 -1t5.5 5z"/>
<glyph glyph-name="ordfeminine" unicode="" horiz-adv-x="225" d="M226 219q2 2 6.5 8t7.5 4t1 -8t-3 -8q-10 -24 -28 -43q-10 -11 -24.5 -17t-28.5 2t-21 23.5t-10 29.5q-5 18 -6 36q-1 -1 -1 -2q-12 -23 -26.5 -47t-35.5 -39q-9 -6 -19 -7.5t-19 5.5q-10 7 -13.5 18.5t-4.5 22.5q-4 35 3 71.5t18 69.5q11 31 26.5 62t41.5 53 q11 10 25.5 15.5t29.5 3.5q6 -1 12 -3t11 -7q3 -4 5 -8q0 -2 -3 -2.5t-5 -0.5q-14 -1 -25 -3t-22 -10q-13 -10 -22.5 -22.5t-17.5 -26.5q-17 -29 -30 -61.5t-21 -65.5q-4 -17 -6.5 -35.5t-0.5 -35.5q1 -6 3.5 -13.5t10.5 -9.5q6 -2 12 3t11 10q12 13 21 28t17 31q7 13 13 27 l12 28q1 15 2.5 30t4.5 29q2 16 6 33.5t12 31.5q5 9 16 11q2 0 4 -0.5t3 -0.5q11 -4 12 -14t-1 -19q-2 -13 -6 -25.5t-9 -25.5l-6 -14q-3 -27 -3 -53q-1 -21 -2 -42.5t4 -41.5q2 -6 5 -14t11 -9q9 -1 16.5 5.5t12.5 12.5z"/>
<glyph glyph-name="guillemotleft" unicode="" horiz-adv-x="380" d="M191 330q5 3 12 3t13 -3t9.5 -8.5t0.5 -11.5q-4 -10 -16.5 -14.5t-20.5 -9.5q-31 -17 -60 -39t-52 -49q-12 -12 -16 -24q-2 -4 3.5 -6t7.5 -3q17 -9 33.5 -19t31.5 -22q25 -20 48.5 -40.5t44.5 -44.5q4 -5 2.5 -7.5t-5 -3.5t-8 0t-7.5 4q-10 10 -21 19.5t-22 19.5 q-15 13 -31 24.5t-33 22.5q-15 9 -31 16t-30 16q-16 10 -12.5 25.5t17.5 34t35.5 38t43 36.5t39 29t24.5 17zM291 330q5 3 12 3t13 -3t9.5 -8.5t0.5 -11.5q-4 -10 -16.5 -14.5t-20.5 -9.5q-31 -17 -60 -39t-52 -49q-12 -12 -16 -24q-2 -4 3.5 -6t7.5 -3q17 -9 33.5 -19 t31.5 -22q25 -20 48.5 -40.5t44.5 -44.5q4 -5 2.5 -7.5t-5 -3.5t-8 0t-7.5 4q-10 10 -21 19.5t-22 19.5q-15 13 -31 24.5t-33 22.5q-15 9 -31 16t-30 16q-15 10 -12 25.5t17 34t35.5 38t43 36.5t39 29t24.5 17z"/>
<glyph glyph-name="logicalnot" unicode="" horiz-adv-x="214" d="M174 55q-2 -6 -8 -10.5t-11 -1.5q-4 2 -7 8.5t-5 11.5q-7 19 -5 43q-1 -1 -3 -1q-27 -8 -54 -2t-53 14q-3 1 -9 4t-10 7.5t-4.5 9t5.5 9.5q9 5 21.5 5.5t23.5 2.5q10 1 22 4t25 4.5t25 1t22 -4.5q8 -4 14 -16t2 -20v-2q3 -14 7.5 -33t1.5 -34z"/>
<glyph glyph-name="uni00AD" unicode="" horiz-adv-x="214" d="M149 160q8 -4 14 -16t2 -20t-13 -12.5t-17 -6.5q-27 -8 -54 -2t-53 14q-3 1 -9 4t-10 7.5t-4.5 9t5.5 9.5q9 5 21.5 5.5t23.5 2.5q10 1 22 4t25 4.5t25 1t22 -4.5z"/>
<glyph glyph-name="registered" unicode="" horiz-adv-x="367" d="M146 454q-3 0 -15.5 -1t-26.5 -1t-25.5 0.5t-12.5 3.5q-2 5 6 10t18 9.5t20 7.5t13 4q59 12 110 -17h10t10 -1q11 -2 9.5 -5.5t-8.5 -7.5q12 -10 22 -22q30 -37 44.5 -83t17 -94.5t-4.5 -97.5t-20 -92q-11 -35 -28.5 -70.5t-47.5 -59.5q-28 -22 -63 -23t-64 19 q-28 20 -45 48.5t-26.5 61.5t-12.5 67.5t-1 66.5q2 35 9.5 72t21 71.5t34 65t50.5 52.5q5 4 11.5 7.5t12.5 7.5q-5 1 -9 1h-9zM298 249q-3 25 -9.5 54t-18 55.5t-29 49t-41.5 34.5q-9 -2 -18 -5.5t-17 -8.5q-33 -20 -54.5 -51t-33 -68t-15 -76t-1.5 -74q2 -42 11 -83t29 -77 q9 -16 22 -29.5t29 -21.5t33 -7.5t35 12.5q15 11 26.5 26.5t20 33t14 36t9.5 36.5q9 40 11 81t-3 83zM232 218q-1 -1 1 -0.5t5 1.5t5.5 2.5t3.5 1.5q8 2 7.5 -4t-3.5 -10l-8 -10t-10 -7q-8 -3 -13.5 -0.5t-9 8.5t-5.5 13.5t-3 13.5q-3 17 -3.5 34.5t-1.5 35.5q0 4 0.5 9 t-1.5 10q-2 4 -6 -3.5t-5 -8.5q-14 -29 -23 -60.5t-15 -63.5q2 -12 2.5 -24t1.5 -24q1 -17 0.5 -35t-2.5 -36t-6 -36q-2 -6 -5.5 -12t-10.5 -7q-9 -1 -11 14.5t-0.5 36t4.5 39.5t4 24q0 4 1 7q-1 11 -2 23t-3 25t-3.5 26t-5.5 27q-3 9 5 13q5 3 11 0.5t8 -7.5q4 -8 5 -13 l11 47q5 17 10 33t13 31q7 14 23 19q8 2 14.5 -2.5t10.5 -10.5q9 -14 10.5 -31t1.5 -33q0 -8 -1 -17t-1 -17q-1 -5 -1.5 -11.5t1.5 -10.5z"/>
<glyph glyph-name="macron" unicode="" horiz-adv-x="241" d="M205 457q6 0 13 -10.5t7 -15.5q-2 -11 -9 -15q-26 -17 -58 -19t-63.5 4.5t-61.5 16.5q-5 1 -10 5.5t-7 9t0 8.5t10 6q15 4 31 4t31 2q29 2 58.5 5t58.5 -1z"/>
<glyph glyph-name="degree" unicode="" horiz-adv-x="212" d="M97 593q6 4 8 -1q5 3 10.5 4.5t10.5 3.5q19 5 36.5 -1.5t25.5 -24.5q8 -17 5.5 -35.5t-11.5 -35.5q-8 -13 -20.5 -27t-28 -24t-33 -14.5t-34.5 1.5q-19 6 -27 20.5t-8 31t6.5 34t15.5 29.5t20.5 21.5t23.5 17.5zM89 552q-6 -6 -14 -9q-6 -2 -9 -2q-8 -11 -13 -25 t-3 -31.5t18 -25.5t33.5 -2t32.5 19.5t26 30.5t13 31q3 17 -6.5 31t-29.5 12q-14 -2 -26 -10.5t-22 -18.5z"/>
<glyph glyph-name="plusminus" unicode="" horiz-adv-x="229" d="M74 233q0 12 10.5 14t16.5 -7q13 -20 16 -46q0 -5 0.5 -9.5t0.5 -9.5q13 2 25.5 3t25.5 1q13 1 15 -9.5t-6 -17.5q-19 -15 -46 -18q-5 -1 -8.5 -1.5t-8.5 -0.5q-5 -30 -12 -57q-1 -3 -3 -7t-5 -7t-6 -2.5t-5 7.5q-3 14 -3 27.5t-1 26.5q0 3 -0.5 6t-0.5 6q-17 1 -34 4 t-33 8q-3 0 -7 2.5t-7 5t-2.5 5.5t7.5 5q13 4 27 4t27 2q5 0 10 0.5t10 1.5q0 4 -0.5 7.5t-0.5 8.5q-2 11 -3 23t1 24zM169 19q13 1 15 -9.5t-6 -17.5q-19 -15 -46 -18q-29 -5 -60 -1.5t-60 11.5q-3 0 -7 2.5t-7 5t-2.5 5.5t7.5 5q13 4 27 4t27 2q28 2 56.5 7t55.5 4z"/>
<glyph glyph-name="twosuperior" unicode="" horiz-adv-x="319" d="M263 293q14 2 26.5 10.5t22.5 19.5q0 1 4 5.5l8 9t8 7t4 -0.5q1 -14 -10.5 -29.5t-21.5 -23.5q-13 -11 -27.5 -16t-31.5 -2q-23 4 -40 20.5t-34 30.5q-8 -14 -19 -30t-24 -28.5t-28 -19t-32 -2.5t-25 16.5t-9.5 28.5t3 32t11.5 28q18 31 50.5 37.5t63.5 -11.5q0 -1 1 -1 l11 28q4 11 8 22.5t8 23.5q-20 -4 -40.5 -1.5t-38.5 14.5q-33 22 -45.5 60t-15.5 75q-4 42 -0.5 83t15.5 81q10 34 28.5 68t52.5 50q20 9 37.5 6.5t32 -12t25.5 -25t18 -33.5q15 -40 16.5 -82.5t-3.5 -84.5q-7 -75 -29 -150l34 12q4 1 9.5 3t9 2t4.5 -2t-4 -8 q-18 -22 -46 -36l-19 -9q-10 -27 -20.5 -53.5t-23.5 -51.5l26 -34q8 -11 21.5 -20.5t28.5 -6.5zM143 491q28 -10 60 -4q18 60 29 122.5t9 124.5q0 15 -2.5 35.5t-9 39.5t-18 33.5t-30.5 16.5q-18 3 -33 -6.5t-27 -24.5t-20 -33t-13 -32q-10 -30 -17 -71t-3.5 -81t20.5 -73.5 t55 -46.5zM92 272q19 9 32.5 27t23.5 39q-14 6 -29 6q-17 0 -36 -11t-24 -28q-6 -17 4.5 -29.5t28.5 -3.5z"/>
<glyph glyph-name="threesuperior" unicode="" horiz-adv-x="299" d="M20 485q8 16 22.5 26.5t33.5 11.5q10 1 25 -4.5t20 -16.5q1 -2 -2 -2.5t-7 0.5t-7.5 2l-3.5 1q-17 3 -30 -1q-16 -5 -25 -19t-14 -28q-11 -35 -3.5 -73t34.5 -63q13 -13 31 -20.5t37 -8.5t37.5 4t33.5 16q28 21 41.5 56.5t14.5 74.5t-10.5 76t-33.5 62l-10 9 q-24 -21 -55 -24q-15 -2 -33 1t-26 17q-5 7 -3.5 14.5t7 13.5t12.5 10.5t13 6.5q23 8 46 5t43 -14l5 9q10 20 14 39q-29 -17 -61.5 -17t-60.5 20t-43.5 51t-13.5 66q3 34 25 62.5t57 36.5q19 4 37 -0.5t33 -15t26.5 -26t18.5 -32.5q8 -19 11 -39t3 -41q11 16 18 33t13 34 q1 2 3 10t5 16t6.5 14.5t6.5 6.5q4 -1 5.5 -8.5t1 -16.5t-2 -17.5t-2.5 -11.5q-8 -28 -22 -55.5t-35 -47.5l-4 -16l-4 -16q-9 -28 -25 -48q14 -10 27 -26q24 -31 32.5 -70.5t6.5 -77.5t-16.5 -74t-43.5 -62t-67 -31.5t-73 8.5q-30 11 -50 35t-29 54t-7 62t17 59zM209 683 q11 5 22 15q1 43 -13 86q-5 16 -15 31.5t-23 25.5t-29.5 13t-34.5 -6t-28.5 -24t-14 -32.5t-0.5 -36t12 -34.5q20 -34 54.5 -45t69.5 7zM168 585q12 4 22 13q-15 10 -36 13h-13.5t-16.5 -2t-14.5 -6t-6.5 -11q-1 -8 8 -10.5t20.5 -2.5t22.5 2t14 4z"/>
<glyph glyph-name="acute" unicode="" horiz-adv-x="231" d="M173 500q4 4 12.5 0.5t11.5 -5.5q5 -5 4 -10.5t-5 -10.5q-19 -22 -49 -39q-17 -9 -35 -17l-36 -16q-13 -6 -27 -14t-20 -22q-2 -3 -5.5 -2.5t-6.5 3t-4.5 6.5t0.5 8q8 14 21 25.5t27 21.5q27 20 56 36t56 36z"/>
<glyph glyph-name="mu" unicode="" horiz-adv-x="215" d="M188 33q6 0 11 3.5t10 6.5q4 3 8.5 7t9.5 3q5 0 2.5 -6t-4.5 -8q-5 -8 -16 -15q-9 -6 -19 -7t-19 6t-14 17.5t-9 21.5q-2 6 -3.5 12.5t-3.5 12.5q-2 -17 -5 -34.5t-8 -34.5q-5 -14 -12.5 -29t-22.5 -20q-17 -6 -30.5 4t-21.5 24q-7 11 -11 22.5t-7 24.5q0 -63 7 -124 t5 -123q-1 -26 -6 -52t-20 -50q-5 -7 -8 -7t-4.5 3.5t-2 9t-0.5 8.5q2 11 2.5 21t0.5 21q3 60 2 120.5t1 120.5q3 79 12 155q0 29 4 52q2 14 5.5 27.5t8.5 27.5q3 10 7 21t11 19q5 6 8 2t5 -9q2 -6 2 -11.5t-1 -11.5q-2 -12 -3 -23.5t-2 -23.5q-3 -34 -4.5 -67.5t0.5 -67.5 q1 -18 2.5 -36.5t7.5 -35.5q3 -7 7 -13.5t12 -8.5q8 -1 13 4.5t8 10.5q9 16 13.5 34t7.5 36t5 36.5t2 37.5q1 19 1 37.5t4 37.5q1 4 3 12.5t6 16.5t9 12.5t12 1.5q6 -3 6.5 -8.5t-0.5 -11.5l-2 -33q0 -36 -3 -70q-1 -17 -1.5 -33.5t1.5 -33.5q1 -10 4.5 -25t16.5 -17z"/>
<glyph glyph-name="paragraph" unicode="" horiz-adv-x="343" d="M226 -191q0 -2 -2 -9.5t-5 -15t-6 -11t-4 2.5q-2 15 0.5 30.5t4.5 30.5q6 85 6 173q0 85 -7.5 169t-5.5 169q0 26 2.5 51t10.5 50l-17 -7q-8 -3 -20 -4t-21 -6v-21q-3 -83 -2 -165.5t-1 -164.5q-2 -69 -7 -136.5t-13 -135.5q0 -2 -2 -9.5t-5 -15t-6 -11t-4 2.5 q-2 15 0.5 30.5t4.5 30.5q6 85 6 173q0 76 -6.5 152t-7.5 152q-18 -10 -35.5 -5.5t-31 18t-21 34t-6.5 42t12.5 42.5t36.5 36q35 22 74 23.5t77 -0.5q6 0 15 -2t16 -6.5t9.5 -10.5t-4.5 -15q-3 -3 -9 -7q-2 -14 -2.5 -26.5t-0.5 -25.5q-3 -83 -2 -165.5t-1 -164.5 q-2 -69 -7 -136.5t-13 -135.5z"/>
<glyph glyph-name="periodcentered" unicode="" horiz-adv-x="147" d="M64 208q17 0 25 -13.5t7 -29.5t-10.5 -29.5t-26.5 -13.5t-24.5 13.5t-6.5 29.5t10 29.5t26 13.5z"/>
<glyph glyph-name="cedilla" unicode="" horiz-adv-x="143" d="M49 -190q-7 -4 -15.5 2.5t-6.5 14.5q1 5 4 8t7 5q12 8 24.5 15t21.5 18q12 13 2.5 21t-22.5 11q-11 2 -21 0t-21 -1q-7 2 -8 7t1.5 11.5t5.5 12.5t5 9q5 11 9 23l8 24q2 5 6 3t6 -4q4 -4 4 -6.5t-2 -7.5q-4 -13 -10 -25.5t-9 -26.5q0 1 5.5 1t12 -0.5t12.5 -1l6 -0.5 q15 -3 28.5 -11.5t15.5 -24.5q2 -15 -4.5 -27t-17 -21.5t-23.5 -16.5t-24 -12z"/>
<glyph glyph-name="onesuperior" unicode="" horiz-adv-x="303" d="M301 293q4 -3 5 -9t0 -11.5t-5 -8.5t-11 0q-7 2 -13 6.5t-14 7.5q-24 11 -49 16t-51 7q-4 -19 -10 -31q-3 -5 -6 -2.5t-5.5 8t-4.5 11.5t-3 8l-2 7q-49 0 -95 -9q-19 -4 -40 -11t-35 -21q-5 -5 -10 2q-5 5 -2.5 9.5t6.5 9.5q9 9 20.5 16t23.5 12q27 12 56.5 18t58.5 8 q8 0 12 1l-3 44q-6 87 -6 174q-11 -9 -22 -16t-24 -11q-2 0 -10 -1.5t-16.5 -2t-15 0.5t-4.5 6q3 5 12.5 7t14.5 3q16 1 32 11q17 10 33 26q0 20 0.5 40t1.5 40q2 37 5.5 73.5t11.5 71.5q3 12 9 29.5t16 31t23.5 18.5t30.5 -8q12 -10 16 -26.5t2.5 -35t-5.5 -36.5t-8 -31 q-16 -64 -50 -122q-5 -8 -10 -15.5t-11 -15.5q2 -64 6.5 -127.5t7.5 -126.5q39 -2 73 -10q17 -4 35 -12t29 -23zM158 788q-7 -42 -8 -83.5t0 -83.5q13 22 24 45q17 36 29.5 77t10.5 81q0 6 -2.5 14.5t-6 15t-9.5 8.5t-14 -7q-12 -13 -16.5 -31.5t-7.5 -35.5z"/>
<glyph glyph-name="ordmasculine" unicode="" horiz-adv-x="367" d="M147 852q-3 0 -15.5 -1t-26.5 -1t-25.5 0.5t-12.5 3.5q-2 5 6 10t18 9.5t20 7.5t13 4q59 12 110 -17h10t10 -1q11 -2 9.5 -5.5t-8.5 -7.5q12 -10 22 -22q30 -37 44.5 -83t17 -94.5t-4.5 -97.5t-20 -92q-11 -35 -28.5 -70.5t-47.5 -59.5q-28 -22 -63 -23t-64 19 q-28 20 -45 48.5t-26.5 61.5t-12.5 67.5t-1 66.5q2 35 9.5 72t21 71.5t34 65t50.5 52.5q5 4 11.5 7.5t12.5 7.5q-5 1 -9 1h-9zM299 647q-3 25 -9.5 54t-18 55.5t-29 49t-41.5 34.5q-9 -2 -18 -5.5t-17 -8.5q-33 -20 -54.5 -51t-33 -68t-15 -76t-1.5 -74q2 -42 11 -83t29 -77 q9 -16 22 -29.5t29 -21.5t33 -7.5t35 12.5q15 11 26.5 26.5t20 33t14 36t9.5 36.5q9 40 11 81t-3 83z"/>
<glyph glyph-name="guillemotright" unicode="" horiz-adv-x="370" d="M33 270q-5 1 -9.5 5.5t-6.5 10.5t-1.5 12t5.5 9q8 6 19 1.5t19 -8.5q32 -13 62 -28t58 -35q13 -8 26.5 -19.5t18.5 -26.5q6 -19 -5.5 -28.5t-25.5 -17.5q-31 -20 -58.5 -44t-51.5 -52q-1 -2 -4.5 -6.5l-7 -9t-7.5 -8t-6 -2.5q-6 2 -6.5 6.5t1.5 9.5t5.5 9.5t5.5 6.5 q22 29 47 53t53 47q8 6 16 11.5t16 10.5q5 4 1.5 7.5l-6.5 6.5q-12 13 -27.5 22.5t-31.5 17.5q-23 12 -48 23t-51 16zM133 270q-5 1 -9.5 5.5t-6.5 10.5t-1.5 12t5.5 9q8 6 19 1.5t19 -8.5q32 -13 62 -28t58 -35q13 -8 26.5 -19.5t18.5 -26.5q6 -19 -5.5 -28.5t-25.5 -17.5 q-31 -20 -58.5 -44t-51.5 -52q-1 -2 -4.5 -6.5l-7 -9t-7.5 -8t-6 -2.5q-6 2 -6.5 6.5t1.5 9.5t5.5 9.5t5.5 6.5q22 29 47 53t53 47q8 6 16 11.5t16 10.5q5 4 1.5 7.5l-6.5 6.5q-12 13 -27.5 22.5t-31.5 17.5q-23 12 -48 23t-51 16z"/>
<glyph glyph-name="onequarter" unicode="" horiz-adv-x="919" d="M711 -269q1 -7 2.5 -20.5t-3.5 -19.5t-11.5 3.5t-8.5 12.5q-8 17 -10.5 37t-4.5 38q-6 50 -7.5 99t-1.5 99v59q-39 3 -76 -6l-30 -10q-12 -29 -31 -53q-4 -5 -11 -10t-14.5 -8t-14.5 -2t-12 8t-3.5 15t6 15t10.5 13.5t11 10.5q15 14 32 22q8 23 13.5 47.5t9.5 49.5 q5 38 5.5 76.5t-7.5 76.5q-2 9 -4 17.5t-4 16.5q-2 3 -3.5 7t0.5 7q3 4 11 6.5t16 2.5t14.5 -3t7.5 -9q9 -30 10 -62t-1 -62q-3 -40 -10.5 -79t-20.5 -76q45 15 96 13q0 63 2.5 124.5t7.5 123.5q3 26 7 52.5t13 50.5q4 11 10 6t8 -12q2 -5 2 -11v-11v-59q-2 -68 -5 -135 t-5 -134l21 -4q24 -5 45.5 -14t44.5 -19q5 -2 13.5 -9.5t13.5 -14.5t4 -11.5t-14 0.5q-29 10 -55 22.5t-55 20.5l-19 4v-38q-2 -40 -2.5 -79t0.5 -78q1 -26 0.5 -54t7.5 -53zM386 201q4 -3 5 -9t0 -11.5t-5 -8.5t-11 0q-7 2 -13 6.5t-14 7.5q-24 11 -49 16t-51 7 q-4 -19 -10 -31q-3 -5 -6 -2.5t-5.5 8t-4.5 11.5t-3 8l-2 7q-49 0 -95 -9q-19 -4 -40 -11t-35 -21q-5 -5 -10 2q-5 5 -2.5 9.5t6.5 9.5q9 9 20.5 16t23.5 12q27 12 56.5 18t58.5 8q8 0 12 1l-3 44q-6 87 -6 174q-11 -9 -22 -16t-24 -11q-2 0 -10 -1.5t-16.5 -2t-15 0.5 t-4.5 6q3 5 12.5 7t14.5 3q16 1 32 11q17 10 33 26q0 20 0.5 40t1.5 40q2 37 5.5 73.5t11.5 71.5q3 12 9 29.5t16 31t23.5 18.5t30.5 -8q12 -10 16 -26.5t2.5 -35t-5.5 -36.5t-8 -31q-16 -64 -50 -122q-5 -8 -10 -15.5t-11 -15.5q2 -64 6.5 -127.5t7.5 -126.5q39 -2 73 -10 q17 -4 35 -12t29 -23zM333 -36q-1 -2 -6 -8t-10.5 -12t-9.5 -8t-2 4q5 14 12.5 27t15.5 26q20 38 39 77.5t36 79.5q34 78 60.5 158t63.5 157q15 32 34 62.5t48 53.5q8 6 11 4.5t3 -6.5t-2 -12t-5 -11q-8 -12 -14 -24.5t-12 -25.5q-35 -75 -67.5 -151t-67.5 -151 q-30 -62 -61 -122t-66 -118zM243 696q-7 -42 -8 -83.5t0 -83.5q13 22 24 45q17 36 29.5 77t10.5 81q0 6 -2.5 14.5t-6 15t-9.5 8.5t-14 -7q-12 -13 -16.5 -31.5t-7.5 -35.5zM505 -18q6 6 13 18q-12 -9 -18 -21z"/>
<glyph glyph-name="onehalf" unicode="" horiz-adv-x="923" d="M738 -196q14 2 26.5 10.5t22.5 19.5q0 1 4 5.5l8 9t8 7t4 -0.5q1 -14 -10.5 -29.5t-21.5 -23.5q-13 -11 -27.5 -16t-31.5 -2q-23 5 -40 21t-34 30q-8 -14 -19 -30t-24 -28t-28 -19t-32 -3t-25 16.5t-9.5 28.5t3 32t11.5 28q18 31 50.5 37.5t63.5 -11.5l1 -1l11 28l16 46 q-20 -3 -40.5 -0.5t-38.5 13.5q-33 22 -45.5 60t-15.5 75q-4 42 -0.5 83t15.5 81q10 34 28.5 68t52.5 50q20 9 37.5 6.5t32 -12t25.5 -25t18 -33.5q15 -40 16.5 -82.5t-3.5 -84.5q-7 -75 -29 -150l34 12q4 1 9.5 3t9 2t4.5 -2t-4 -8q-18 -22 -46 -36l-19 -8 q-10 -28 -20.5 -54t-23.5 -52q7 -8 13 -16.5t13 -17.5q8 -11 21.5 -20.5t28.5 -6.5zM618 2q14 -5 29 -5.5t31 1.5q18 60 29 122.5t9 124.5q0 15 -2.5 35.5t-9 39.5t-18 33.5t-30.5 16.5q-18 3 -33 -6.5t-27 -24.5t-20 -33t-13 -32q-10 -30 -17 -71t-3.5 -81t20.5 -73.5 t55 -46.5zM399 189q4 -3 5 -9t0 -11.5t-5 -8.5t-11 0q-7 2 -13 6.5t-14 7.5q-24 11 -49 16t-51 7q-4 -19 -10 -31q-3 -5 -6 -2.5t-5.5 8t-4.5 11.5t-3 8l-2 7q-49 0 -95 -9q-19 -4 -40 -11t-35 -21q-5 -5 -10 2q-5 5 -2.5 9.5t6.5 9.5q9 9 20.5 16t23.5 12q27 12 56.5 18 t58.5 8q8 0 12 1l-3 44q-6 87 -6 174q-11 -9 -22 -16t-24 -11q-2 0 -10 -1.5t-16.5 -2t-15 0.5t-4.5 6q3 5 12.5 7t14.5 3q16 1 32 11q17 10 33 26q0 20 0.5 40t1.5 40q2 37 5.5 73.5t11.5 71.5q3 12 9 29.5t16 31t23.5 18.5t30.5 -8q12 -10 16 -26.5t2.5 -35t-5.5 -36.5 t-8 -31q-16 -64 -50 -122q-5 -8 -10 -15.5t-11 -15.5q2 -64 6.5 -127.5t7.5 -126.5q39 -2 73 -10q17 -4 35 -12t29 -23zM333 -36q-1 -2 -6 -8t-10.5 -12t-9.5 -8t-2 4q5 14 12.5 27t15.5 26q20 38 39 77.5t36 79.5q34 78 60.5 158t63.5 157q15 32 34 62.5t48 53.5 q8 6 11 4.5t3 -6.5t-2 -12t-5 -11q-8 -12 -14 -24.5t-12 -25.5q-35 -75 -67.5 -151t-67.5 -151q-30 -62 -61 -122t-66 -118zM256 684q-7 -42 -8 -83.5t0 -83.5q13 22 24 45q17 36 29.5 77t10.5 81q0 6 -2.5 14.5t-6 15t-9.5 8.5t-14 -7q-12 -13 -16.5 -31.5t-7.5 -35.5z M567 -217q19 9 32.5 27t23.5 39q-7 3 -14 5t-15 1q-17 0 -36 -11t-24 -28q-6 -17 4.5 -29.5t28.5 -3.5z"/>
<glyph glyph-name="threequarters" unicode="" horiz-adv-x="915" d="M127 308q8 16 22.5 26.5t33.5 11.5q10 1 25 -4.5t20 -16.5q1 -2 -2 -2.5t-7 0.5t-7.5 2l-3.5 1q-17 3 -30 -1q-16 -5 -25 -19t-14 -28q-11 -35 -3.5 -73t34.5 -63q13 -13 31 -20.5t37 -8.5t37.5 4t33.5 16q28 21 41.5 56.5t14.5 74.5t-10.5 76t-33.5 62l-10 9 q-24 -21 -55 -24q-15 -2 -33 1t-26 17q-5 7 -3.5 14.5t7 13.5t12.5 10.5t13 6.5q23 8 46 5t43 -14l5 9q10 20 14 39q-29 -17 -61.5 -17t-60.5 20t-43.5 51t-13.5 66q3 34 25 62.5t57 36.5q19 4 37 -0.5t33 -15t26.5 -26t18.5 -32.5q8 -19 11 -39t3 -41q11 16 18 33t13 34 q1 2 3 10t5 16t6.5 14.5t6.5 6.5q4 -1 5.5 -8.5t1 -16.5t-2 -17.5t-2.5 -11.5q-8 -28 -22 -55.5t-35 -47.5l-4 -16l-4 -16q-9 -28 -25 -48q14 -10 27 -26q24 -31 32.5 -70.5t6.5 -77.5t-16.5 -74t-43.5 -62t-67 -31.5t-73 8.5q-30 11 -50 35t-29 54t-7 62t17 59zM726 -234 q1 -7 2.5 -20.5t-3.5 -19.5t-11.5 3.5t-8.5 12.5q-8 17 -10.5 37t-4.5 38q-6 50 -7.5 99t-1.5 99v59q-39 3 -76 -6l-30 -10q-13 -32 -31 -53q-4 -5 -11 -10t-14.5 -8t-14.5 -2t-12 8t-3.5 15t6 15t10.5 13.5t11 10.5q15 14 32 22q8 23 13.5 47.5t9.5 49.5q5 38 5.5 76.5 t-7.5 76.5q-2 9 -4 17.5t-4 16.5q-2 3 -3.5 7t0.5 7q3 4 11 6.5t16 2.5t14.5 -3t7.5 -9q9 -30 10 -62t-1 -62q-3 -40 -10.5 -79t-20.5 -76q45 15 96 13q0 63 2.5 124.5t7.5 123.5q3 26 7 52.5t13 50.5q4 11 10 6t8 -12q2 -5 2 -11v-11v-59q-2 -68 -5 -135t-5 -134l21 -4 q24 -5 45.5 -14t44.5 -19q5 -2 13.5 -9.5t13.5 -14.5t4 -11.5t-14 0.5q-29 10 -55 22.5t-55 20.5l-19 4v-38q-2 -40 -2.5 -79t0.5 -78q1 -26 0.5 -54t7.5 -53zM316 506q11 5 22 15q1 43 -13 86q-5 16 -15 31.5t-23 25.5t-29.5 13t-34.5 -6t-28.5 -24t-14 -32.5t-0.5 -36 t12 -34.5q20 -34 54.5 -45t69.5 7zM329 -36q-1 -2 -6 -8t-10.5 -12t-9.5 -8t-2 4q5 14 12.5 27t15.5 26q20 38 39 77.5t36 79.5q34 78 60.5 158t63.5 157q15 32 34 62.5t48 53.5q8 6 11 4.5t3 -6.5t-2 -12t-5 -11q-8 -12 -14 -24.5t-12 -25.5q-35 -75 -67.5 -151t-67.5 -151 q-30 -62 -61 -122t-66 -118zM275 408q12 4 22 13q-15 10 -36 13h-13.5t-16.5 -2t-14.5 -6t-6.5 -11q-1 -8 8 -10.5t20.5 -2.5t22.5 2t14 4zM520 17q4 4 7 8t6 9q-12 -9 -18 -21z"/>
<glyph glyph-name="questiondown" unicode="" horiz-adv-x="310" d="M179 315q-2 9 -4.5 18.5t-6.5 18.5q-2 4 -5 9.5t-1 10.5q1 4 6 2t11 -7t10.5 -10.5t5.5 -6.5q14 -21 17 -52q2 -33 -7.5 -65.5t-26.5 -61.5q26 -5 44 -22.5t24 -45.5q8 -35 2 -73.5t-22.5 -74.5t-43 -65t-60.5 -43q-19 -8 -36 -6.5t-30 10.5t-21 24.5t-9 35.5 q-2 41 12.5 79.5t34.5 73.5q12 23 27.5 45t31.5 45q-18 -4 -35 -11.5t-33 -16.5q-1 0 -6.5 -3.5t-11.5 -7t-11 -5t-5 2.5q0 7 4.5 12.5t11.5 10t14 8t12 5.5q17 8 34 14.5t36 8.5h1q20 32 32 67t4 76zM225 83q-2 30 -16.5 48.5t-40.5 23.5l-1 -1q-23 -32 -46.5 -61 t-41.5 -63q-8 -14 -16.5 -33t-13 -39t-3.5 -39.5t12 -34.5q13 -16 30 -12.5t34 15.5t31.5 28t21.5 26q22 30 37 67t13 75zM176 481q-18 0 -25.5 13.5t-6.5 29.5t10 29.5t26 13.5t25 -13.5t7 -29.5t-10.5 -29.5t-25.5 -13.5z"/>
<glyph glyph-name="Agrave" unicode="" horiz-adv-x="315" d="M265 -3q13 -1 25.5 8.5t23.5 16.5q2 2 7 5.5t8 1.5t-0.5 -8t-5.5 -8q-7 -11 -17.5 -20t-22.5 -14t-24.5 -3.5t-23.5 12.5t-16.5 24t-10.5 27q-5 13 -8 26t-5 27q-9 42 -12 83q-20 -3 -38.5 -7t-37.5 -8q-10 -2 -19 -4.5t-19 -4.5q-6 -36 -11.5 -71.5t-10.5 -71.5 q-1 -5 -1.5 -10.5t-2.5 -10.5t-5 -3.5t-5 5.5q-7 16 -7 29q1 43 6 89l4 44q-14 3 -27 8t-27 11q-3 1 -9 3.5t-11 6t-8 7.5t0 10q4 9 15.5 10t19.5 3l43 3h12q5 42 13 82.5t17 82.5q16 73 39 147q5 17 10.5 34.5t12.5 34.5l12 32t17 29q5 6 12.5 9.5t13.5 -3.5q5 -5 6 -10.5 t3 -11.5l3 -25q2 -24 3 -48t3 -49q5 -74 5.5 -147t2.5 -147v-9q3 0 6 -0.5t7 -0.5q17 0 32.5 -1t32.5 -3q11 -2 8 -9.5t-11 -10.5q-10 -5 -21 -4t-22 0q-8 -1 -16 -1.5t-16 -2.5q1 -23 2.5 -46.5t4.5 -46.5q2 -14 4.5 -27t7.5 -26q3 -11 9.5 -24t19.5 -14zM80 214 q14 1 26.5 1h25.5h48q-6 73 -5.5 146t5.5 146l2 38t1 38v19.5t-1 19.5q0 5 -1 9q-2 8 -3 8q-3 -2 -5 -7.5t-4 -9.5l-6 -15q-3 -8 -6 -16.5t-5 -16.5q-5 -17 -9 -35t-8 -35q-15 -72 -27.5 -143.5t-26.5 -143.5q0 -1 -0.5 -1.5t-0.5 -1.5zM68 808q-4 6 1 13.5t10 10.5 q6 3 10.5 1t9.5 -5q12 -9 24.5 -16t25.5 -15q29 -17 57 -37t43 -51q2 -4 -2 -5t-7 -2q-6 -1 -8 0.5t-5 6.5q-9 12 -22.5 20t-27.5 14q-31 14 -58.5 26.5t-50.5 38.5z"/>
<glyph glyph-name="Aacute" unicode="" horiz-adv-x="315" d="M265 -3q13 -1 25.5 8.5t23.5 16.5q2 2 7 5.5t8 1.5t-0.5 -8t-5.5 -8q-7 -11 -17.5 -20t-22.5 -14t-24.5 -3.5t-23.5 12.5t-16.5 24t-10.5 27q-5 13 -8 26t-5 27q-9 42 -12 83q-20 -3 -38.5 -7t-37.5 -8q-10 -2 -19 -4.5t-19 -4.5q-6 -36 -11.5 -71.5t-10.5 -71.5 q-1 -5 -1.5 -10.5t-2.5 -10.5t-5 -3.5t-5 5.5q-7 16 -7 29q1 43 6 89l4 44q-14 3 -27 8t-27 11q-3 1 -9 3.5t-11 6t-8 7.5t0 10q4 9 15.5 10t19.5 3l43 3h12q5 42 13 82.5t17 82.5q16 73 39 147q5 17 10.5 34.5t12.5 34.5l12 32t17 29q5 6 12.5 9.5t13.5 -3.5q5 -5 6 -10.5 t3 -11.5l3 -25q2 -24 3 -48t3 -49q5 -74 5.5 -147t2.5 -147v-9q3 0 6 -0.5t7 -0.5q17 0 32.5 -1t32.5 -3q11 -2 8 -9.5t-11 -10.5q-10 -5 -21 -4t-22 0q-8 -1 -16 -1.5t-16 -2.5q1 -23 2.5 -46.5t4.5 -46.5q2 -14 4.5 -27t7.5 -26q3 -11 9.5 -24t19.5 -14zM80 214 q14 1 26.5 1h25.5h48q-6 73 -5.5 146t5.5 146l2 38t1 38v19.5t-1 19.5q0 5 -1 9q-2 8 -3 8q-3 -2 -5 -7.5t-4 -9.5l-6 -15q-3 -8 -6 -16.5t-5 -16.5q-5 -17 -9 -35t-8 -35q-15 -72 -27.5 -143.5t-26.5 -143.5q0 -1 -0.5 -1.5t-0.5 -1.5zM271 809q4 4 12.5 0.5t11.5 -5.5 q5 -5 4 -10.5t-5 -10.5q-19 -22 -49 -39q-17 -9 -35 -17l-36 -16q-13 -6 -27 -14t-20 -22q-2 -3 -5.5 -2.5t-6.5 3t-4.5 6.5t0.5 8q8 14 21 25.5t27 21.5q27 20 56 36t56 36z"/>
<glyph glyph-name="Acircumflex" unicode="" horiz-adv-x="315" d="M265 -3q13 -1 25.5 8.5t23.5 16.5q2 2 7 5.5t8 1.5t-0.5 -8t-5.5 -8q-7 -11 -17.5 -20t-22.5 -14t-24.5 -3.5t-23.5 12.5t-16.5 24t-10.5 27q-5 13 -8 26t-5 27q-9 42 -12 83q-20 -3 -38.5 -7t-37.5 -8q-10 -2 -19 -4.5t-19 -4.5q-6 -36 -11.5 -71.5t-10.5 -71.5 q-1 -5 -1.5 -10.5t-2.5 -10.5t-5 -3.5t-5 5.5q-7 16 -7 29q1 43 6 89l4 44q-14 3 -27 8t-27 11q-3 1 -9 3.5t-11 6t-8 7.5t0 10q4 9 15.5 10t19.5 3l43 3h12q5 42 13 82.5t17 82.5q16 73 39 147q5 17 10.5 34.5t12.5 34.5l12 32t17 29q5 6 12.5 9.5t13.5 -3.5q5 -5 6 -10.5 t3 -11.5l3 -25q2 -24 3 -48t3 -49q5 -74 5.5 -147t2.5 -147v-9q3 0 6 -0.5t7 -0.5q17 0 32.5 -1t32.5 -3q11 -2 8 -9.5t-11 -10.5q-10 -5 -21 -4t-22 0q-8 -1 -16 -1.5t-16 -2.5q1 -23 2.5 -46.5t4.5 -46.5q2 -14 4.5 -27t7.5 -26q3 -11 9.5 -24t19.5 -14zM80 214 q14 1 26.5 1h25.5h48q-6 73 -5.5 146t5.5 146l2 38t1 38v19.5t-1 19.5q0 5 -1 9q-2 8 -3 8q-3 -2 -5 -7.5t-4 -9.5l-6 -15q-3 -8 -6 -16.5t-5 -16.5q-5 -17 -9 -35t-8 -35q-15 -72 -27.5 -143.5t-26.5 -143.5q0 -1 -0.5 -1.5t-0.5 -1.5zM265 720q3 -5 0 -9.5t-9 -8.5 t-12.5 -5t-10.5 2q-5 5 -7.5 16t-4.5 17q-8 22 -18 45q-4 6 -5 6t-4 -4q-6 -8 -12.5 -15t-14.5 -13q-34 -31 -79 -51q-6 -3 -7.5 3.5t0.5 11.5t14 11t17 9q18 14 34.5 29t28.5 34q13 24 26.5 18.5t25.5 -24t22 -41t16 -31.5z"/>
<glyph glyph-name="Atilde" unicode="" horiz-adv-x="315" d="M265 -3q13 -1 25.5 8.5t23.5 16.5q2 2 7 5.5t8 1.5t-0.5 -8t-5.5 -8q-7 -11 -17.5 -20t-22.5 -14t-24.5 -3.5t-23.5 12.5t-16.5 24t-10.5 27q-5 13 -8 26t-5 27q-9 42 -12 83q-20 -3 -38.5 -7t-37.5 -8q-10 -2 -19 -4.5t-19 -4.5q-6 -36 -11.5 -71.5t-10.5 -71.5 q-1 -5 -1.5 -10.5t-2.5 -10.5t-5 -3.5t-5 5.5q-7 16 -7 29q1 43 6 89l4 44q-14 3 -27 8t-27 11q-3 1 -9 3.5t-11 6t-8 7.5t0 10q4 9 15.5 10t19.5 3l43 3h12q5 42 13 82.5t17 82.5q16 73 39 147q5 17 10.5 34.5t12.5 34.5l12 32t17 29q5 6 12.5 9.5t13.5 -3.5q5 -5 6 -10.5 t3 -11.5l3 -25q2 -24 3 -48t3 -49q5 -74 5.5 -147t2.5 -147v-9q3 0 6 -0.5t7 -0.5q17 0 32.5 -1t32.5 -3q11 -2 8 -9.5t-11 -10.5q-10 -5 -21 -4t-22 0q-8 -1 -16 -1.5t-16 -2.5q1 -23 2.5 -46.5t4.5 -46.5q2 -14 4.5 -27t7.5 -26q3 -11 9.5 -24t19.5 -14zM80 214 q14 1 26.5 1h25.5h48q-6 73 -5.5 146t5.5 146l2 38t1 38v19.5t-1 19.5q0 5 -1 9q-2 8 -3 8q-3 -2 -5 -7.5t-4 -9.5l-6 -15q-3 -8 -6 -16.5t-5 -16.5q-5 -17 -9 -35t-8 -35q-15 -72 -27.5 -143.5t-26.5 -143.5q0 -1 -0.5 -1.5t-0.5 -1.5zM279 740q2 -6 -2 -14.5t-12 -4.5 q-6 3 -8 14.5t-5 16.5q-4 8 -10.5 15.5t-17.5 1.5q-9 -5 -16 -13.5t-14 -16.5t-16.5 -15.5t-20.5 -12.5t-22.5 -5.5t-22.5 4.5q-18 8 -29 26.5t-19 36.5q-5 11 8 9q8 0 11 -9t6 -15q6 -8 13.5 -17.5t18.5 -11.5t20 7t15 17q7 8 15.5 17t18 16t20.5 11t23 2q11 -2 18 -8.5 t12 -15t8.5 -18t7.5 -17.5z"/>
<glyph glyph-name="Adieresis" unicode="" horiz-adv-x="315" d="M265 -3q13 -1 25.5 8.5t23.5 16.5q2 2 7 5.5t8 1.5t-0.5 -8t-5.5 -8q-7 -11 -17.5 -20t-22.5 -14t-24.5 -3.5t-23.5 12.5t-16.5 24t-10.5 27q-5 13 -8 26t-5 27q-9 42 -12 83q-20 -3 -38.5 -7t-37.5 -8q-10 -2 -19 -4.5t-19 -4.5q-6 -36 -11.5 -71.5t-10.5 -71.5 q-1 -5 -1.5 -10.5t-2.5 -10.5t-5 -3.5t-5 5.5q-7 16 -7 29q1 43 6 89l4 44q-14 3 -27 8t-27 11q-3 1 -9 3.5t-11 6t-8 7.5t0 10q4 9 15.5 10t19.5 3l43 3h12q5 42 13 82.5t17 82.5q16 73 39 147q5 17 10.5 34.5t12.5 34.5l12 32t17 29q5 6 12.5 9.5t13.5 -3.5q5 -5 6 -10.5 t3 -11.5l3 -25q2 -24 3 -48t3 -49q5 -74 5.5 -147t2.5 -147v-9q3 0 6 -0.5t7 -0.5q17 0 32.5 -1t32.5 -3q11 -2 8 -9.5t-11 -10.5q-10 -5 -21 -4t-22 0q-8 -1 -16 -1.5t-16 -2.5q1 -23 2.5 -46.5t4.5 -46.5q2 -14 4.5 -27t7.5 -26q3 -11 9.5 -24t19.5 -14zM80 214 q14 1 26.5 1h25.5h48q-6 73 -5.5 146t5.5 146l2 38t1 38v19.5t-1 19.5q0 5 -1 9q-2 8 -3 8q-3 -2 -5 -7.5t-4 -9.5l-6 -15q-3 -8 -6 -16.5t-5 -16.5q-5 -17 -9 -35t-8 -35q-15 -72 -27.5 -143.5t-26.5 -143.5q0 -1 -0.5 -1.5t-0.5 -1.5zM248 777q11 -8 10 -21.5t-8.5 -24.5 t-20 -16t-23.5 3q-12 8 -11 21.5t9 24.5t20 16t24 -3zM156 758q11 -8 10 -21.5t-8.5 -24t-20 -15.5t-23.5 3q-12 8 -11 21.5t9 24t20 15.5t24 -3z"/>
<glyph glyph-name="Aring" unicode="" horiz-adv-x="315" d="M265 -3q13 -1 25.5 8.5t23.5 16.5q2 2 7 5.5t8 1.5t-0.5 -8t-5.5 -8q-7 -11 -17.5 -20t-22.5 -14t-24.5 -3.5t-23.5 12.5t-16.5 24t-10.5 27q-5 13 -8 26t-5 27q-9 42 -12 83q-20 -3 -38.5 -7t-37.5 -8q-10 -2 -19 -4.5t-19 -4.5q-6 -36 -11.5 -71.5t-10.5 -71.5 q-1 -5 -1.5 -10.5t-2.5 -10.5t-5 -3.5t-5 5.5q-7 16 -7 29q1 43 6 89l4 44q-14 3 -27 8t-27 11q-3 1 -9 3.5t-11 6t-8 7.5t0 10q4 9 15.5 10t19.5 3l43 3h12q5 42 13 82.5t17 82.5q16 73 39 147q5 16 9.5 31.5t10.5 31.5q-16 7 -22.5 21t-5.5 30.5t7 32.5t15 28t20.5 21.5 t23.5 17.5q6 4 8 -1q5 3 10.5 4.5t10.5 3.5q19 5 36.5 -1.5t25.5 -24.5q8 -17 5.5 -35.5t-11.5 -35.5q-8 -14 -21.5 -28t-30.5 -25l5 -79q5 -74 5.5 -147t2.5 -147v-9q3 0 6 -0.5t7 -0.5q17 0 32.5 -1t32.5 -3q11 -2 8 -9.5t-11 -10.5q-10 -5 -21 -4t-22 0q-8 -1 -16 -1.5 t-16 -2.5q1 -23 2.5 -46.5t4.5 -46.5q2 -14 4.5 -27t7.5 -26q3 -11 9.5 -24t19.5 -14zM80 214q14 1 26.5 1h25.5h48q-6 73 -5.5 146t5.5 146l2 38t1 38v3q-8 -2 -15 -3.5t-14 -0.5q-2 -6 -2 -8q-5 -17 -9 -35t-8 -35q-15 -72 -27.5 -143.5t-26.5 -143.5q0 -1 -0.5 -1.5 t-0.5 -1.5zM163 698q-6 -6 -14 -9q-6 -2 -9 -2q-8 -11 -13 -25t-3 -31t16 -25q5 13 10.5 25.5t14.5 23.5q5 6 12.5 9.5t13.5 -3.5q5 -5 6 -10.5t3 -11.5l2 -21q17 13 29.5 31.5t15.5 34.5q3 17 -6.5 31t-29.5 12q-14 -2 -26 -10.5t-22 -18.5zM160 601q13 0 23 5 q0 4 -0.5 7.5t-0.5 8.5t-1 9q-2 8 -3 8q-3 -2 -5 -7.5t-4 -9.5l-6 -15z"/>
<glyph glyph-name="AE" unicode="" horiz-adv-x="365" d="M300 -21q20 6 38 19q7 6 12.5 12t11.5 12q1 2 5 6t6 0q2 -5 -1.5 -11.5t-5.5 -10.5q-4 -6 -8 -11.5t-9 -10.5q-23 -22 -53.5 -27.5t-57.5 11.5q-30 18 -48 50t-27 64q-15 45 -12 94q-10 -6 -20 -9.5t-24 -6.5q-10 -2 -19 -4.5t-19 -4.5q-6 -36 -11.5 -71.5t-10.5 -71.5 q-1 -5 -1.5 -10.5t-2.5 -10.5t-5 -3.5t-5 5.5q-7 16 -7 29q1 43 6 89l4 44q-14 3 -27 8t-27 11q-3 1 -9 3.5t-11 6t-8 7.5t0 10q4 9 15.5 10t19.5 3l43 3h12q5 42 13 82.5t17 82.5q16 73 39 147q5 17 10.5 34.5t12.5 34.5l12 32t17 29q5 6 12.5 9.5t13.5 -3.5 q5 -5 6.5 -10.5t2.5 -11.5l2 -30q15 27 39.5 51t57.5 24q17 0 30.5 -9.5t23 -23.5t15 -30t8.5 -31q2 -8 2.5 -14.5t1.5 -14.5q5 2 9 5t9 5q8 3 21.5 8t22.5 1q4 -2 0.5 -4.5t-5.5 -3.5q-7 -5 -14 -8t-15 -6q-16 -8 -28 -16q0 -24 -3 -48.5t-8 -47.5l-10 -34t-14 -32 q-4 -6 -9.5 -12t-12 -9.5t-13.5 -3t-14 6.5q-12 11 -12 27.5t2 30.5q6 32 23 63q16 30 39 53v3q-1 19 -2.5 37.5t-6.5 36.5q-3 14 -9.5 30t-22.5 21q-15 5 -29 -3t-24 -19q-11 -13 -18 -28t-12 -32q-9 -30 -10.5 -61t-2.5 -63q-1 -23 1 -45.5t6 -45.5q2 -12 6 -25t11 -24 q2 0 3 1q13 5 24.5 4t23.5 -4q8 -3 14 -7.5t8 -12.5q4 -14 -10 -25q-12 -8 -27 -5.5t-26 10.5q-6 3 -11 8l-2 -2q-24 -25 -30.5 -62.5t-5.5 -71.5q0 -33 5.5 -68t22.5 -64q12 -22 31.5 -34t44.5 -6zM156 215l3 10q6 23 20 45.5t35 36.5q-5 7 -11 18q-18 30 -26.5 65.5 t-8.5 70.5q1 28 4 54.5t11 52.5q0 17 -0.5 33t-0.5 21t-1 9q-2 8 -3 8q-3 -2 -5 -7.5t-4 -9.5l-6 -15q-3 -8 -6 -16.5t-5 -16.5q-5 -17 -9 -35t-8 -35q-15 -72 -27.5 -143.5t-26.5 -143.5q0 -1 -0.5 -1.5t-0.5 -1.5q14 1 26.5 1h25.5h24zM346 463q1 12 1.5 24.5t0.5 24.5 q-8 -10 -15 -21t-13 -23q-8 -16 -13 -33.5t-6 -34.5q0 -6 1.5 -15t9.5 -11q7 -2 11.5 6t6.5 13q8 17 11 35t5 35zM280 301q-18 3 -29 -2q3 -2 6.5 -4.5t7.5 -4.5q5 -3 13 -3.5t13 4.5q4 4 -2 6.5t-9 3.5z"/>
<glyph glyph-name="Ccedilla" unicode="" horiz-adv-x="230" d="M140 -212q-7 -4 -15.5 2.5t-6.5 14.5q1 5 4 8t7 5q12 8 24.5 15t21.5 18q12 13 2.5 21t-22.5 11q-11 2 -21 0t-21 -1q-7 2 -8 7t1.5 11.5t5.5 12.5t5 9q4 8 7 17l6 18q-15 3 -28 13q-25 19 -38.5 48t-22.5 58q-20 69 -26 141t-4 143q3 77 18 152q8 33 19.5 65.5 t33.5 59.5q9 11 22.5 22.5t28.5 18.5t30.5 7t29.5 -12t20 -29t11 -34t7 -35t3 -36q12 8 31 15q12 5 22 4q3 0 5 -1.5t-1 -3.5q-5 -5 -12 -8.5l-13 -6.5l-22 -11l-9 -6q1 -29 -3 -58.5t-12 -57.5q-7 -33 -24 -65q-3 -6 -7.5 -13t-10.5 -12.5t-13 -8.5t-16 -1 q-17 5 -20.5 22.5t-1.5 32.5q2 18 7 35t12 33q11 24 25 46.5t33 41.5l2 28q1 19 0.5 37t-4.5 36q-3 13 -10 28.5t-22 19.5q-15 3 -28.5 -6t-21.5 -20q-10 -14 -16.5 -30t-11.5 -33q-12 -35 -20 -70.5t-13 -71.5q-10 -71 -11.5 -143t8.5 -143q4 -30 10.5 -60.5t19.5 -58.5 q5 -11 12.5 -22.5t18.5 -19.5t24.5 -9.5t26.5 3.5q10 3 19 8.5t17 12.5q7 6 13 13.5t14 12.5q3 3 4 1t0.5 -5.5t-2 -7t-1.5 -4.5q-8 -17 -21 -29q-27 -25 -63 -27v-2q-4 -13 -10 -25.5t-9 -26.5q0 1 5.5 1t12 -0.5t12.5 -1l6 -0.5q15 -3 28.5 -11.5t15.5 -24.5 q2 -15 -4.5 -27t-17 -21.5t-23.5 -16.5t-24 -12zM188 398q5 23 8.5 46t5.5 46q-22 -26 -36 -57.5t-19 -64.5q-2 -9 -2 -19t3 -18q4 -8 9 -5t9 8q9 14 13.5 31t8.5 33z"/>
<glyph glyph-name="Egrave" unicode="" horiz-adv-x="220" d="M153 -21q20 6 38 19q7 6 12.5 12t11.5 12q1 2 5 6t6 0q2 -5 -1.5 -11.5t-5.5 -10.5q-4 -6 -8 -11.5t-9 -10.5q-23 -22 -53.5 -27.5t-57.5 11.5q-30 18 -48 50t-27 64q-11 34 -12.5 71t8.5 72q6 23 20 45.5t35 36.5q-5 7 -11 18q-18 30 -26.5 65.5t-8.5 70.5q1 37 7 72.5 t23 68.5q7 14 17.5 28.5t23 26.5t27.5 19.5t33 7.5q17 0 30.5 -9.5t23 -23.5t15 -30t8.5 -31q2 -8 2.5 -14.5t1.5 -14.5q5 2 9 5t9 5q8 3 21.5 8t22.5 1q4 -2 0.5 -4.5t-5.5 -3.5q-7 -5 -14 -8t-15 -6q-16 -8 -28 -16q0 -24 -3 -48.5t-8 -47.5l-10 -34t-14 -32 q-4 -6 -9.5 -12t-12 -9.5t-13.5 -3t-14 6.5q-12 11 -12 27.5t2 30.5q6 32 23 63q16 30 39 53v3q-1 19 -2.5 37.5t-6.5 36.5q-3 14 -9.5 30t-22.5 21q-15 5 -29 -3t-24 -19q-11 -13 -18 -28t-12 -32q-9 -30 -10.5 -61t-2.5 -63q-1 -23 1 -45.5t6 -45.5q2 -12 6 -25t11 -24 q2 0 3 1q13 5 24.5 4t23.5 -4q8 -3 14 -7.5t8 -12.5q4 -14 -10 -25q-12 -8 -27 -5.5t-26 10.5q-6 3 -11 8l-2 -2q-24 -25 -30.5 -62.5t-5.5 -71.5q0 -33 5.5 -68t22.5 -64q12 -22 31.5 -34t44.5 -6zM34 812q-4 6 1 13.5t10 10.5q6 3 10.5 1t9.5 -5q12 -9 24.5 -16t25.5 -15 q29 -17 57 -37t43 -51q2 -4 -2 -5t-7 -2q-6 -1 -8 0.5t-5 6.5q-9 12 -22.5 20t-27.5 14q-31 14 -58.5 26.5t-50.5 38.5zM199 463q1 12 1.5 24.5t0.5 24.5q-8 -10 -15 -21t-13 -23q-8 -16 -13 -33.5t-6 -34.5q0 -6 1.5 -15t9.5 -11q7 -2 11.5 6t6.5 13q8 17 11 35t5 35z M133 301q-18 3 -29 -2q3 -2 6.5 -4.5t7.5 -4.5q5 -3 13 -3.5t13 4.5q4 4 -2 6.5t-9 3.5z"/>
<glyph glyph-name="Eacute" unicode="" horiz-adv-x="220" d="M153 -21q20 6 38 19q7 6 12.5 12t11.5 12q1 2 5 6t6 0q2 -5 -1.5 -11.5t-5.5 -10.5q-4 -6 -8 -11.5t-9 -10.5q-23 -22 -53.5 -27.5t-57.5 11.5q-30 18 -48 50t-27 64q-11 34 -12.5 71t8.5 72q6 23 20 45.5t35 36.5q-5 7 -11 18q-18 30 -26.5 65.5t-8.5 70.5q1 37 7 72.5 t23 68.5q7 14 17.5 28.5t23 26.5t27.5 19.5t33 7.5q17 0 30.5 -9.5t23 -23.5t15 -30t8.5 -31q2 -8 2.5 -14.5t1.5 -14.5q5 2 9 5t9 5q8 3 21.5 8t22.5 1q4 -2 0.5 -4.5t-5.5 -3.5q-7 -5 -14 -8t-15 -6q-16 -8 -28 -16q0 -24 -3 -48.5t-8 -47.5l-10 -34t-14 -32 q-4 -6 -9.5 -12t-12 -9.5t-13.5 -3t-14 6.5q-12 11 -12 27.5t2 30.5q6 32 23 63q16 30 39 53v3q-1 19 -2.5 37.5t-6.5 36.5q-3 14 -9.5 30t-22.5 21q-15 5 -29 -3t-24 -19q-11 -13 -18 -28t-12 -32q-9 -30 -10.5 -61t-2.5 -63q-1 -23 1 -45.5t6 -45.5q2 -12 6 -25t11 -24 q2 0 3 1q13 5 24.5 4t23.5 -4q8 -3 14 -7.5t8 -12.5q4 -14 -10 -25q-12 -8 -27 -5.5t-26 10.5q-6 3 -11 8l-2 -2q-24 -25 -30.5 -62.5t-5.5 -71.5q0 -33 5.5 -68t22.5 -64q12 -22 31.5 -34t44.5 -6zM246 829q4 4 12.5 0.5t11.5 -5.5q5 -5 4 -10.5t-5 -10.5q-19 -22 -49 -39 q-17 -9 -35 -17l-36 -16q-13 -6 -27 -14t-20 -22q-2 -3 -5.5 -2.5t-6.5 3t-4.5 6.5t0.5 8q8 14 21 25.5t27 21.5q27 20 56 36t56 36zM199 463q1 12 1.5 24.5t0.5 24.5q-8 -10 -15 -21t-13 -23q-8 -16 -13 -33.5t-6 -34.5q0 -6 1.5 -15t9.5 -11q7 -2 11.5 6t6.5 13 q8 17 11 35t5 35zM133 301q-18 3 -29 -2q3 -2 6.5 -4.5t7.5 -4.5q5 -3 13 -3.5t13 4.5q4 4 -2 6.5t-9 3.5z"/>
<glyph glyph-name="Ecircumflex" unicode="" horiz-adv-x="220" d="M153 -21q20 6 38 19q7 6 12.5 12t11.5 12q1 2 5 6t6 0q2 -5 -1.5 -11.5t-5.5 -10.5q-4 -6 -8 -11.5t-9 -10.5q-23 -22 -53.5 -27.5t-57.5 11.5q-30 18 -48 50t-27 64q-11 34 -12.5 71t8.5 72q6 23 20 45.5t35 36.5q-5 7 -11 18q-18 30 -26.5 65.5t-8.5 70.5q1 37 7 72.5 t23 68.5q7 14 17.5 28.5t23 26.5t27.5 19.5t33 7.5q17 0 30.5 -9.5t23 -23.5t15 -30t8.5 -31q2 -8 2.5 -14.5t1.5 -14.5q5 2 9 5t9 5q8 3 21.5 8t22.5 1q4 -2 0.5 -4.5t-5.5 -3.5q-7 -5 -14 -8t-15 -6q-16 -8 -28 -16q0 -24 -3 -48.5t-8 -47.5l-10 -34t-14 -32 q-4 -6 -9.5 -12t-12 -9.5t-13.5 -3t-14 6.5q-12 11 -12 27.5t2 30.5q6 32 23 63q16 30 39 53v3q-1 19 -2.5 37.5t-6.5 36.5q-3 14 -9.5 30t-22.5 21q-15 5 -29 -3t-24 -19q-11 -13 -18 -28t-12 -32q-9 -30 -10.5 -61t-2.5 -63q-1 -23 1 -45.5t6 -45.5q2 -12 6 -25t11 -24 q2 0 3 1q13 5 24.5 4t23.5 -4q8 -3 14 -7.5t8 -12.5q4 -14 -10 -25q-12 -8 -27 -5.5t-26 10.5q-6 3 -11 8l-2 -2q-24 -25 -30.5 -62.5t-5.5 -71.5q0 -33 5.5 -68t22.5 -64q12 -22 31.5 -34t44.5 -6zM228 751q3 -5 0 -9.5t-9 -8.5t-12.5 -5t-10.5 2q-5 5 -7.5 16t-4.5 17 q-8 22 -18 45q-4 6 -5 6t-4 -4q-6 -8 -12.5 -15t-14.5 -13q-34 -31 -79 -51q-6 -3 -7.5 3.5t0.5 11.5t14 11t17 9q18 14 34.5 29t28.5 34q13 24 26.5 18.5t25.5 -24t22 -41t16 -31.5zM199 463q1 12 1.5 24.5t0.5 24.5q-8 -10 -15 -21t-13 -23q-8 -16 -13 -33.5t-6 -34.5 q0 -6 1.5 -15t9.5 -11q7 -2 11.5 6t6.5 13q8 17 11 35t5 35zM133 301q-18 3 -29 -2q3 -2 6.5 -4.5t7.5 -4.5q5 -3 13 -3.5t13 4.5q4 4 -2 6.5t-9 3.5z"/>
<glyph glyph-name="Edieresis" unicode="" horiz-adv-x="220" d="M153 -21q20 6 38 19q7 6 12.5 12t11.5 12q1 2 5 6t6 0q2 -5 -1.5 -11.5t-5.5 -10.5q-4 -6 -8 -11.5t-9 -10.5q-23 -22 -53.5 -27.5t-57.5 11.5q-30 18 -48 50t-27 64q-11 34 -12.5 71t8.5 72q6 23 20 45.5t35 36.5q-5 7 -11 18q-18 30 -26.5 65.5t-8.5 70.5q1 37 7 72.5 t23 68.5q7 14 17.5 28.5t23 26.5t27.5 19.5t33 7.5q17 0 30.5 -9.5t23 -23.5t15 -30t8.5 -31q2 -8 2.5 -14.5t1.5 -14.5q5 2 9 5t9 5q8 3 21.5 8t22.5 1q4 -2 0.5 -4.5t-5.5 -3.5q-7 -5 -14 -8t-15 -6q-16 -8 -28 -16q0 -24 -3 -48.5t-8 -47.5l-10 -34t-14 -32 q-4 -6 -9.5 -12t-12 -9.5t-13.5 -3t-14 6.5q-12 11 -12 27.5t2 30.5q6 32 23 63q16 30 39 53v3q-1 19 -2.5 37.5t-6.5 36.5q-3 14 -9.5 30t-22.5 21q-15 5 -29 -3t-24 -19q-11 -13 -18 -28t-12 -32q-9 -30 -10.5 -61t-2.5 -63q-1 -23 1 -45.5t6 -45.5q2 -12 6 -25t11 -24 q2 0 3 1q13 5 24.5 4t23.5 -4q8 -3 14 -7.5t8 -12.5q4 -14 -10 -25q-12 -8 -27 -5.5t-26 10.5q-6 3 -11 8l-2 -2q-24 -25 -30.5 -62.5t-5.5 -71.5q0 -33 5.5 -68t22.5 -64q12 -22 31.5 -34t44.5 -6zM199 463q1 12 1.5 24.5t0.5 24.5q-8 -10 -15 -21t-13 -23 q-8 -16 -13 -33.5t-6 -34.5q0 -6 1.5 -15t9.5 -11q7 -2 11.5 6t6.5 13q8 17 11 35t5 35zM220 802q11 -8 10 -21.5t-8.5 -24.5t-20 -16t-23.5 3q-12 8 -11 21.5t9 24.5t20 16t24 -3zM128 783q11 -8 10 -21.5t-8.5 -24t-20 -15.5t-23.5 3q-12 8 -11 21.5t9 24t20 15.5t24 -3z M133 301q-18 3 -29 -2q3 -2 6.5 -4.5t7.5 -4.5q5 -3 13 -3.5t13 4.5q4 4 -2 6.5t-9 3.5z"/>
<glyph glyph-name="Igrave" unicode="" horiz-adv-x="277" d="M24 -26q16 7 32.5 11.5t33.5 8.5q10 3 20 5.5t21 4.5q-4 23 -5.5 44.5t-3.5 44.5q-2 19 -3 37t-1 36q0 57 1.5 113.5t5.5 113.5q3 60 9 120l6 45q1 5 1.5 11t2.5 12h-4q-23 -3 -47 -5.5t-48 -4.5q-8 -1 -16.5 -0.5t-13.5 8.5q-6 11 3.5 18t17.5 9q45 13 89 27t89 28 q6 1 25.5 7t40 9t34.5 -0.5t8 -20.5q-6 -20 -25 -32t-36 -19q-14 -5 -28.5 -8t-29.5 -6l-35 -6v-2q-1 -10 -1 -19.5v-20.5q-2 -74 -2.5 -147t-1.5 -147q0 -60 -0.5 -119t-1.5 -119l14 3l32 6t32 5q14 2 29 -4.5t17 -22.5q1 -12 -5 -18.5t-15.5 -10t-20 -5t-18.5 -2.5 q-27 -3 -54.5 -6.5t-54.5 -7.5q-21 -3 -42 -5.5t-42 -3.5q-8 -1 -16 -0.5t-13 5.5q-5 4 -4 9t5.5 9t10 7t8.5 5zM66 817q-4 6 1 13.5t10 10.5q6 3 10.5 1t9.5 -5q12 -9 24.5 -16t25.5 -15q29 -17 57 -37t43 -51q2 -4 -2 -5t-7 -2q-6 -1 -8 0.5t-5 6.5q-9 12 -22.5 20 t-27.5 14q-31 14 -58.5 26.5t-50.5 38.5z"/>
<glyph glyph-name="Iacute" unicode="" horiz-adv-x="277" d="M24 -26q16 7 32.5 11.5t33.5 8.5q10 3 20 5.5t21 4.5q-4 23 -5.5 44.5t-3.5 44.5q-2 19 -3 37t-1 36q0 57 1.5 113.5t5.5 113.5q3 60 9 120l6 45q1 5 1.5 11t2.5 12h-4q-23 -3 -47 -5.5t-48 -4.5q-8 -1 -16.5 -0.5t-13.5 8.5q-6 11 3.5 18t17.5 9q45 13 89 27t89 28 q6 1 25.5 7t40 9t34.5 -0.5t8 -20.5q-6 -20 -25 -32t-36 -19q-14 -5 -28.5 -8t-29.5 -6l-35 -6v-2q-1 -10 -1 -19.5v-20.5q-2 -74 -2.5 -147t-1.5 -147q0 -60 -0.5 -119t-1.5 -119l14 3l32 6t32 5q14 2 29 -4.5t17 -22.5q1 -12 -5 -18.5t-15.5 -10t-20 -5t-18.5 -2.5 q-27 -3 -54.5 -6.5t-54.5 -7.5q-21 -3 -42 -5.5t-42 -3.5q-8 -1 -16 -0.5t-13 5.5q-5 4 -4 9t5.5 9t10 7t8.5 5zM257 806q4 4 12.5 0.5t11.5 -5.5q5 -5 4 -10.5t-5 -10.5q-19 -22 -49 -39q-17 -9 -35 -17l-36 -16q-13 -6 -27 -14t-20 -22q-2 -3 -5.5 -2.5t-6.5 3t-4.5 6.5 t0.5 8q8 14 21 25.5t27 21.5q27 20 56 36t56 36z"/>
<glyph glyph-name="Icircumflex" unicode="" horiz-adv-x="277" d="M24 -26q16 7 32.5 11.5t33.5 8.5q10 3 20 5.5t21 4.5q-4 23 -5.5 44.5t-3.5 44.5q-2 19 -3 37t-1 36q0 57 1.5 113.5t5.5 113.5q3 60 9 120l6 45q1 5 1.5 11t2.5 12h-4q-23 -3 -47 -5.5t-48 -4.5q-8 -1 -16.5 -0.5t-13.5 8.5q-6 11 3.5 18t17.5 9q45 13 89 27t89 28 q6 1 25.5 7t40 9t34.5 -0.5t8 -20.5q-6 -20 -25 -32t-36 -19q-14 -5 -28.5 -8t-29.5 -6l-35 -6v-2q-1 -10 -1 -19.5v-20.5q-2 -74 -2.5 -147t-1.5 -147q0 -60 -0.5 -119t-1.5 -119l14 3l32 6t32 5q14 2 29 -4.5t17 -22.5q1 -12 -5 -18.5t-15.5 -10t-20 -5t-18.5 -2.5 q-27 -3 -54.5 -6.5t-54.5 -7.5q-21 -3 -42 -5.5t-42 -3.5q-8 -1 -16 -0.5t-13 5.5q-5 4 -4 9t5.5 9t10 7t8.5 5zM271 731q3 -5 0 -9.5t-9 -8.5t-12.5 -5t-10.5 2q-5 5 -7.5 16t-4.5 17q-8 22 -18 45q-4 6 -5 6t-4 -4q-6 -8 -12.5 -15t-14.5 -13q-34 -31 -79 -51 q-6 -3 -7.5 3.5t0.5 11.5t14 11t17 9q18 14 34.5 29t28.5 34q13 24 26.5 18.5t25.5 -24t22 -41t16 -31.5z"/>
<glyph glyph-name="Idieresis" unicode="" horiz-adv-x="277" d="M24 -26q16 7 32.5 11.5t33.5 8.5q10 3 20 5.5t21 4.5q-4 23 -5.5 44.5t-3.5 44.5q-2 19 -3 37t-1 36q0 57 1.5 113.5t5.5 113.5q3 60 9 120l6 45q1 5 1.5 11t2.5 12h-4q-23 -3 -47 -5.5t-48 -4.5q-8 -1 -16.5 -0.5t-13.5 8.5q-6 11 3.5 18t17.5 9q45 13 89 27t89 28 q6 1 25.5 7t40 9t34.5 -0.5t8 -20.5q-6 -20 -25 -32t-36 -19q-14 -5 -28.5 -8t-29.5 -6l-35 -6v-2q-1 -10 -1 -19.5v-20.5q-2 -74 -2.5 -147t-1.5 -147q0 -60 -0.5 -119t-1.5 -119l14 3l32 6t32 5q14 2 29 -4.5t17 -22.5q1 -12 -5 -18.5t-15.5 -10t-20 -5t-18.5 -2.5 q-27 -3 -54.5 -6.5t-54.5 -7.5q-21 -3 -42 -5.5t-42 -3.5q-8 -1 -16 -0.5t-13 5.5q-5 4 -4 9t5.5 9t10 7t8.5 5zM228 767q11 -8 10 -21.5t-8.5 -24.5t-20 -16t-23.5 3q-12 8 -11 21.5t9 24.5t20 16t24 -3zM136 748q11 -8 10 -21.5t-8.5 -24t-20 -15.5t-23.5 3 q-12 8 -11 21.5t9 24t20 15.5t24 -3z"/>
<glyph glyph-name="Eth" unicode="" horiz-adv-x="305" d="M145 299q8 -4 14 -16t2 -20t-13 -12.5t-17 -6.5q-20 -7 -43 -4q0 -13 -0.5 -26t-1.5 -26q-3 -72 -13.5 -114t-17.5 -63.5t-5.5 -29t24.5 -11.5q29 -5 50 5t36 30t24.5 47.5t15 56.5t7.5 56.5t3 48.5q3 74 -0.5 148t-22.5 152q-8 31 -21 64t-42 51q-30 19 -63 12.5 t-55 -32.5q-21 -26 -26.5 -60t-2.5 -65q2 -16 4.5 -31.5t5.5 -31.5q0 -2 1.5 -9t2.5 -14.5t0.5 -12.5t-4.5 -3q-26 13 -38 42t-14 56q-3 27 2 54.5t17.5 51.5t32 42.5t46.5 27.5q28 10 57 6.5t55 -19.5q29 -17 48 -46t30 -60q14 -35 20 -71.5t10 -73.5q6 -75 3 -152 q-2 -38 -7 -76t-15 -76q-9 -32 -24.5 -64t-44.5 -52q-22 -15 -49 -19t-50.5 1t-39 18.5t-13.5 32.5q1 7 3.5 11t6 10.5t7.5 19t8.5 37t8 64t5.5 100.5q-7 2 -14 4.5t-14 4.5q-3 1 -9 4t-10 7.5t-4.5 9t5.5 9.5q9 5 21.5 5.5t23.5 2.5h2q1 50 -1.5 99t-4.5 99q-1 17 0.5 32.5 t4.5 31.5q2 8 4.5 15t5.5 15q2 4 4 8.5t5 8.5q1 2 4 -1.5t5.5 -9t4.5 -11t2 -7.5q3 -11 4 -22t1 -22q1 -24 0.5 -47.5t-0.5 -47.5v-58t-1 -58v-18q14 2 28 2.5t26 -4.5z"/>
<glyph glyph-name="Ntilde" unicode="" horiz-adv-x="301" d="M228 -23q6 1 11 4l10 6q11 8 20.5 18t18.5 21q1 0 4.5 4t7.5 7.5t7 5.5t3 -2q0 -11 -7 -22.5t-12 -19.5q-6 -9 -16.5 -21t-23 -19.5t-25 -7.5t-22.5 14q-8 11 -12 25t-6 28q-4 27 -6 56q-5 72 -2.5 143t7.5 143q3 37 7.5 74t9.5 75q3 19 5.5 38t4.5 39v1q-3 -7 -5 -13.5 t-4 -13.5q-11 -35 -18.5 -70.5t-14.5 -70.5q-14 -70 -28 -139t-31 -139q-4 -17 -8 -35t-9 -35q-4 -14 -8.5 -31.5t-16.5 -28.5q-12 -10 -22.5 -3.5t-14.5 19.5q-5 17 -6 34.5t-2 34.5q-2 72 0 144l4 144l3 121q1 17 1.5 33.5t-1.5 33.5q0 8 -1 16l-2 16q-2 7 -2.5 13.5 t-3.5 12.5q-1 6 -7 12q-2 2 -7 6.5t-4 7.5q0 5 6.5 3.5t9.5 -2.5q11 -6 19 -16q21 -26 23 -60.5t1 -65.5q0 -70 -3 -140t-5 -140q-2 -33 -2.5 -66t0.5 -66q0 -5 0.5 -9t0.5 -9q0 -2 1 -6t2 -7t2.5 -3.5t3.5 5.5q5 13 7.5 26t4.5 26q15 76 28.5 151t31.5 150q9 36 19.5 72.5 t22.5 71.5q6 17 13 33.5t16 33.5q6 12 16 22l5 4q6 3 14 -3l2 -2q1 -1 1.5 -2t-0.5 0q3 -5 2 -12.5t-1 -13.5l-3 -46q-4 -46 -6 -94q-5 -72 -10 -142t-10 -142q-2 -30 -3.5 -60.5t-1.5 -60.5q0 -16 0.5 -31.5t2.5 -30.5q1 -8 2 -15.5t3 -14.5q1 -3 3.5 -10t5.5 -7zM258 740 q2 -6 -2 -14.5t-12 -4.5q-6 3 -8 14.5t-5 16.5q-4 8 -10.5 15.5t-17.5 1.5q-9 -5 -16 -13.5t-14 -16.5t-16.5 -15.5t-20.5 -12.5t-22.5 -5.5t-22.5 4.5q-18 8 -29 26.5t-19 36.5q-5 11 8 9q8 0 11 -9t6 -15q6 -8 13.5 -17.5t18.5 -11.5t20 7t15 17q7 8 15.5 17t18 16 t20.5 11t23 2q11 -2 18 -8.5t12 -15t8.5 -18t7.5 -17.5z"/>
<glyph glyph-name="Ograve" unicode="" horiz-adv-x="319" d="M5 610q-8 -18 -12 -43.5t-1.5 -51t10.5 -49t24 -38.5q6 45 19.5 88.5t39.5 81.5q9 13 20.5 25.5t25 21t29 12t32.5 -1.5q16 -5 26.5 -15.5t16.5 -24.5t7 -30t0 -31q10 -24 15 -49t9 -51q5 -33 6 -66t0 -66q0 -36 -3.5 -72t-8.5 -71q-5 -37 -14 -74t-23 -72 q-5 -12 -11.5 -25t-15.5 -24.5t-20.5 -19.5t-25.5 -10q-18 -3 -32.5 4t-26 19.5t-19.5 28.5t-13 30q-14 34 -21.5 69.5t-12.5 71.5q-5 38 -6.5 75t-0.5 75q0 29 3 61q-24 13 -38.5 37t-21 52t-5.5 58t9 55q9 26 28 51.5t49 30.5q3 1 10 1.5t9 -3.5q1 -1 -1.5 -3.5t-6.5 -4.5 t-7 -4t-4 -3q-11 -9 -21 -20.5t-16 -24.5zM239 289q0 48 -3.5 97t-14.5 97q-15 -32 -39 -56q-22 -22 -52 -37.5t-62 -14.5q-5 -54 -6 -109t4 -109q3 -35 8.5 -72t20.5 -70q7 -14 17 -27t27 -14q15 -2 27 8.5t20 22.5q19 31 28.5 67t14.5 71q5 36 7.5 72.5t2.5 73.5zM72 409 h9.5t9.5 1q33 6 60 26.5t45 48.5q4 7 8 14.5t7 16.5l-13 46q-2 7 -4.5 13.5t-5.5 13.5q-2 4 -4.5 7.5t-4.5 8.5q-2 7 5 6.5t11 -2.5q5 -2 10 -5.5t9 -7.5l10 -12q-1 16 -9 31q-8 14 -22.5 20t-29.5 1q-14 -4 -24 -14.5t-17 -22.5q-18 -31 -26 -66.5t-15 -69.5zM39 793 q-4 6 1 13.5t10 10.5q6 3 10.5 1t9.5 -5q12 -9 24.5 -16t25.5 -15q29 -17 57 -37t43 -51q2 -4 -2 -5t-7 -2q-6 -1 -8 0.5t-5 6.5q-9 12 -22.5 20t-27.5 14q-31 14 -58.5 26.5t-50.5 38.5z"/>
<glyph glyph-name="Oacute" unicode="" horiz-adv-x="319" d="M5 610q-8 -18 -12 -43.5t-1.5 -51t10.5 -49t24 -38.5q6 45 19.5 88.5t39.5 81.5q9 13 20.5 25.5t25 21t29 12t32.5 -1.5q16 -5 26.5 -15.5t16.5 -24.5t7 -30t0 -31q10 -24 15 -49t9 -51q5 -33 6 -66t0 -66q0 -36 -3.5 -72t-8.5 -71q-5 -37 -14 -74t-23 -72 q-5 -12 -11.5 -25t-15.5 -24.5t-20.5 -19.5t-25.5 -10q-18 -3 -32.5 4t-26 19.5t-19.5 28.5t-13 30q-14 34 -21.5 69.5t-12.5 71.5q-5 38 -6.5 75t-0.5 75q0 29 3 61q-24 13 -38.5 37t-21 52t-5.5 58t9 55q9 26 28 51.5t49 30.5q3 1 10 1.5t9 -3.5q1 -1 -1.5 -3.5t-6.5 -4.5 t-7 -4t-4 -3q-11 -9 -21 -20.5t-16 -24.5zM239 289q0 48 -3.5 97t-14.5 97q-15 -32 -39 -56q-22 -22 -52 -37.5t-62 -14.5q-5 -54 -6 -109t4 -109q3 -35 8.5 -72t20.5 -70q7 -14 17 -27t27 -14q15 -2 27 8.5t20 22.5q19 31 28.5 67t14.5 71q5 36 7.5 72.5t2.5 73.5zM72 409 h9.5t9.5 1q33 6 60 26.5t45 48.5q4 7 8 14.5t7 16.5l-13 46q-2 7 -4.5 13.5t-5.5 13.5q-2 4 -4.5 7.5t-4.5 8.5q-2 7 5 6.5t11 -2.5q5 -2 10 -5.5t9 -7.5l10 -12q-1 16 -9 31q-8 14 -22.5 20t-29.5 1q-14 -4 -24 -14.5t-17 -22.5q-18 -31 -26 -66.5t-15 -69.5zM237 838 q4 4 12.5 0.5t11.5 -5.5q5 -5 4 -10.5t-5 -10.5q-19 -22 -49 -39q-17 -9 -35 -17l-36 -16q-13 -6 -27 -14t-20 -22q-2 -3 -5.5 -2.5t-6.5 3t-4.5 6.5t0.5 8q8 14 21 25.5t27 21.5q27 20 56 36t56 36z"/>
<glyph glyph-name="Ocircumflex" unicode="" horiz-adv-x="319" d="M5 610q-8 -18 -12 -43.5t-1.5 -51t10.5 -49t24 -38.5q6 45 19.5 88.5t39.5 81.5q9 13 20.5 25.5t25 21t29 12t32.5 -1.5q16 -5 26.5 -15.5t16.5 -24.5t7 -30t0 -31q10 -24 15 -49t9 -51q5 -33 6 -66t0 -66q0 -36 -3.5 -72t-8.5 -71q-5 -37 -14 -74t-23 -72 q-5 -12 -11.5 -25t-15.5 -24.5t-20.5 -19.5t-25.5 -10q-18 -3 -32.5 4t-26 19.5t-19.5 28.5t-13 30q-14 34 -21.5 69.5t-12.5 71.5q-5 38 -6.5 75t-0.5 75q0 29 3 61q-24 13 -38.5 37t-21 52t-5.5 58t9 55q9 26 28 51.5t49 30.5q3 1 10 1.5t9 -3.5q1 -1 -1.5 -3.5t-6.5 -4.5 t-7 -4t-4 -3q-11 -9 -21 -20.5t-16 -24.5zM239 289q0 48 -3.5 97t-14.5 97q-15 -32 -39 -56q-22 -22 -52 -37.5t-62 -14.5q-5 -54 -6 -109t4 -109q3 -35 8.5 -72t20.5 -70q7 -14 17 -27t27 -14q15 -2 27 8.5t20 22.5q19 31 28.5 67t14.5 71q5 36 7.5 72.5t2.5 73.5zM72 409 h9.5t9.5 1q33 6 60 26.5t45 48.5q4 7 8 14.5t7 16.5l-13 46q-2 7 -4.5 13.5t-5.5 13.5q-2 4 -4.5 7.5t-4.5 8.5q-2 7 5 6.5t11 -2.5q5 -2 10 -5.5t9 -7.5l10 -12q-1 16 -9 31q-8 14 -22.5 20t-29.5 1q-14 -4 -24 -14.5t-17 -22.5q-18 -31 -26 -66.5t-15 -69.5zM259 719 q3 -5 0 -9.5t-9 -8.5t-12.5 -5t-10.5 2q-5 5 -7.5 16t-4.5 17q-8 22 -18 45q-4 6 -5 6t-4 -4q-6 -8 -12.5 -15t-14.5 -13q-34 -31 -79 -51q-6 -3 -7.5 3.5t0.5 11.5t14 11t17 9q18 14 34.5 29t28.5 34q13 24 26.5 18.5t25.5 -24t22 -41t16 -31.5z"/>
<glyph glyph-name="Otilde" unicode="" horiz-adv-x="319" d="M5 610q-8 -18 -12 -43.5t-1.5 -51t10.5 -49t24 -38.5q6 45 19.5 88.5t39.5 81.5q9 13 20.5 25.5t25 21t29 12t32.5 -1.5q16 -5 26.5 -15.5t16.5 -24.5t7 -30t0 -31q10 -24 15 -49t9 -51q5 -33 6 -66t0 -66q0 -36 -3.5 -72t-8.5 -71q-5 -37 -14 -74t-23 -72 q-5 -12 -11.5 -25t-15.5 -24.5t-20.5 -19.5t-25.5 -10q-18 -3 -32.5 4t-26 19.5t-19.5 28.5t-13 30q-14 34 -21.5 69.5t-12.5 71.5q-5 38 -6.5 75t-0.5 75q0 29 3 61q-24 13 -38.5 37t-21 52t-5.5 58t9 55q9 26 28 51.5t49 30.5q3 1 10 1.5t9 -3.5q1 -1 -1.5 -3.5t-6.5 -4.5 t-7 -4t-4 -3q-11 -9 -21 -20.5t-16 -24.5zM239 289q0 48 -3.5 97t-14.5 97q-15 -32 -39 -56q-22 -22 -52 -37.5t-62 -14.5q-5 -54 -6 -109t4 -109q3 -35 8.5 -72t20.5 -70q7 -14 17 -27t27 -14q15 -2 27 8.5t20 22.5q19 31 28.5 67t14.5 71q5 36 7.5 72.5t2.5 73.5zM72 409 h9.5t9.5 1q33 6 60 26.5t45 48.5q4 7 8 14.5t7 16.5l-13 46q-2 7 -4.5 13.5t-5.5 13.5q-2 4 -4.5 7.5t-4.5 8.5q-2 7 5 6.5t11 -2.5q5 -2 10 -5.5t9 -7.5l10 -12q-1 16 -9 31q-8 14 -22.5 20t-29.5 1q-14 -4 -24 -14.5t-17 -22.5q-18 -31 -26 -66.5t-15 -69.5zM267 760 q2 -6 -2 -14.5t-12 -4.5q-6 3 -8 14.5t-5 16.5q-4 8 -10.5 15.5t-17.5 1.5q-9 -5 -16 -13.5t-14 -16.5t-16.5 -15.5t-20.5 -12.5t-22.5 -5.5t-22.5 4.5q-18 8 -29 26.5t-19 36.5q-5 11 8 9q8 0 11 -9t6 -15q6 -8 13.5 -17.5t18.5 -11.5t20 7t15 17q7 8 15.5 17t18 16 t20.5 11t23 2q11 -2 18 -8.5t12 -15t8.5 -18t7.5 -17.5z"/>
<glyph glyph-name="Odieresis" unicode="" horiz-adv-x="319" d="M5 610q-8 -18 -12 -43.5t-1.5 -51t10.5 -49t24 -38.5q6 45 19.5 88.5t39.5 81.5q9 13 20.5 25.5t25 21t29 12t32.5 -1.5q16 -5 26.5 -15.5t16.5 -24.5t7 -30t0 -31q10 -24 15 -49t9 -51q5 -33 6 -66t0 -66q0 -36 -3.5 -72t-8.5 -71q-5 -37 -14 -74t-23 -72 q-5 -12 -11.5 -25t-15.5 -24.5t-20.5 -19.5t-25.5 -10q-18 -3 -32.5 4t-26 19.5t-19.5 28.5t-13 30q-14 34 -21.5 69.5t-12.5 71.5q-5 38 -6.5 75t-0.5 75q0 29 3 61q-24 13 -38.5 37t-21 52t-5.5 58t9 55q9 26 28 51.5t49 30.5q3 1 10 1.5t9 -3.5q1 -1 -1.5 -3.5t-6.5 -4.5 t-7 -4t-4 -3q-11 -9 -21 -20.5t-16 -24.5zM239 289q0 48 -3.5 97t-14.5 97q-15 -32 -39 -56q-22 -22 -52 -37.5t-62 -14.5q-5 -54 -6 -109t4 -109q3 -35 8.5 -72t20.5 -70q7 -14 17 -27t27 -14q15 -2 27 8.5t20 22.5q19 31 28.5 67t14.5 71q5 36 7.5 72.5t2.5 73.5zM72 409 h9.5t9.5 1q33 6 60 26.5t45 48.5q4 7 8 14.5t7 16.5l-13 46q-2 7 -4.5 13.5t-5.5 13.5q-2 4 -4.5 7.5t-4.5 8.5q-2 7 5 6.5t11 -2.5q5 -2 10 -5.5t9 -7.5l10 -12q-1 16 -9 31q-8 14 -22.5 20t-29.5 1q-14 -4 -24 -14.5t-17 -22.5q-18 -31 -26 -66.5t-15 -69.5zM222 782 q11 -8 10 -21.5t-8.5 -24.5t-20 -16t-23.5 3q-12 8 -11 21.5t9 24.5t20 16t24 -3zM130 763q11 -8 10 -21.5t-8.5 -24t-20 -15.5t-23.5 3q-12 8 -11 21.5t9 24t20 15.5t24 -3z"/>
<glyph glyph-name="multiply" unicode="" horiz-adv-x="197" d="M129 224q8 11 16 3t6 -24q-2 -17 -7.5 -32t-13.5 -29l-12 -20q9 -11 18 -23t17 -25q9 -13 3.5 -25.5t-15.5 -10.5q-24 6 -42 30l-12 15q-11 -12 -23 -23t-23 -19q-2 -2 -6.5 -4t-8 -2t-5 3.5t1.5 11.5q7 18 16.5 31t17.5 26l8 13q-11 19 -19.5 39.5t-16.5 40.5 q-1 4 -2 10.5t-1 12.5t2 8t8 -3q11 -10 20 -24.5t18 -25.5q3 -5 6.5 -9.5t7.5 -9.5l11 18q7 11 14 24t16 23z"/>
<glyph glyph-name="Oslash" unicode="" horiz-adv-x="319" d="M36 14q-1 -2 -6 -7.5l-10 -11t-9 -7.5t-2 4q5 13 12.5 25t14.5 24l12 22q-9 28 -14 56.5t-9 57.5q-5 38 -6.5 75t-0.5 75q0 29 3 61q-24 13 -38.5 37t-21 52t-5.5 58t9 55q9 26 28 51.5t49 30.5q3 1 10 1.5t9 -3.5q1 -1 -1.5 -3.5t-6.5 -4.5t-7 -4t-4 -3 q-11 -9 -21 -20.5t-16 -24.5q-8 -18 -12 -43.5t-1.5 -51t10.5 -49t24 -38.5q6 45 19.5 88.5t39.5 81.5q9 13 20.5 25.5t25 21t29 12t32.5 -1.5q16 -5 26.5 -15.5t16.5 -24.5t7 -30t0 -31q3 -9 6.5 -18t5.5 -18q11 18 25 34.5t32 29.5q8 6 11 4.5t2.5 -6.5t-2.5 -11t-5 -10 q-7 -11 -13 -22.5t-12 -23.5l-27 -55q0 -1 0.5 -2t0.5 -2q5 -33 6 -66t0 -66q0 -36 -3.5 -72t-8.5 -71q-5 -37 -14 -74t-23 -72q-5 -12 -11.5 -25t-15.5 -24.5t-20.5 -19.5t-25.5 -10q-18 -3 -32.5 4t-26 19.5t-19.5 28.5t-13 30l-4 9q-5 -8 -9.5 -15.5t-9.5 -15.5zM239 289 q0 26 -1 52t-3 52q-19 -40 -37 -79.5t-38 -78.5q-21 -40 -41.5 -79.5t-43.5 -77.5q6 -31 20 -63q7 -14 17 -27t27 -14q15 -2 27 8.5t20 22.5q19 31 28.5 67t14.5 71q5 36 7.5 72.5t2.5 73.5zM225 463q-2 8 -4 20q-15 -32 -39 -56q-22 -22 -52 -37.5t-62 -14.5 q-5 -54 -6 -109t4 -109q1 -13 2 -25.5t3 -26.5q10 20 19.5 40t18.5 40q32 69 57 139t59 139zM72 409h9.5t9.5 1q33 6 60 26.5t45 48.5q4 7 8 14.5t7 16.5l-13 46q-2 7 -4.5 13.5t-5.5 13.5q-2 4 -4.5 7.5t-4.5 8.5q-2 7 5 6.5t11 -2.5q5 -2 10 -5.5t9 -7.5l10 -12 q-1 16 -9 31q-8 14 -22.5 20t-29.5 1q-14 -4 -24 -14.5t-17 -22.5q-18 -31 -26 -66.5t-15 -69.5z"/>
<glyph glyph-name="Ugrave" unicode="" horiz-adv-x="333" d="M265 11q10 -7 21.5 0.5t18.5 13.5q8 6 15.5 13t15.5 14q2 1 4.5 3t4.5 1t0.5 -4.5t-2.5 -5.5q-4 -8 -9.5 -15.5t-11.5 -14.5q-7 -8 -15.5 -15t-18.5 -11.5t-20 -4t-19 8.5q-16 12 -22.5 32.5t-11.5 38.5q-9 39 -12 79q-8 -35 -16.5 -70t-21.5 -68q-6 -15 -14 -31t-21 -27 q-14 -11 -30 -8t-28 16q-11 11 -17.5 26.5t-11.5 30.5q-6 17 -10 35.5t-7 36.5q-13 72 -15 147q-5 136 21 268q6 29 14 57.5t19 54.5q8 18 16 31q2 3 6 8t8.5 8t8.5 2t6 -9q6 -24 -1.5 -46.5t-13.5 -45.5q-6 -24 -10.5 -48t-9.5 -49q-11 -68 -15.5 -135.5t-5.5 -136.5 q0 -38 1 -75.5t8 -74.5q2 -17 6.5 -34t14.5 -32q4 -6 10 -11.5t14 -4.5t13 7t9 11q10 14 16.5 29t11.5 31q7 17 12 35.5t10 36.5q5 22 9.5 44.5t9.5 45.5q-1 33 -1 66t2 66q2 37 5 73.5t9 73.5q2 17 5.5 32.5t7.5 32.5q2 7 5.5 17.5t12.5 12.5q-1 -1 -2 -1q6 -1 10.5 -0.5 t9.5 -5.5q4 -5 3.5 -12t-1.5 -14l-10 -82l-5 -73q-3 -37 -5.5 -73t-4.5 -73q-2 -32 -2.5 -64t1.5 -64l2 -30t5 -30q2 -10 6 -22.5t13 -17.5zM77 746q-4 6 1 13.5t10 10.5q6 3 10.5 1t9.5 -5q12 -9 24.5 -16t25.5 -15q29 -17 57 -37t43 -51q2 -4 -2 -5t-7 -2q-6 -1 -8 0.5 t-5 6.5q-9 12 -22.5 20t-27.5 14q-31 14 -58.5 26.5t-50.5 38.5z"/>
</font>
</defs>
</svg>
