<?xml version="1.0" encoding="UTF-8" standalone="no"?>
<svg width="123px" height="98px" viewBox="0 0 123 98" version="1.1" xmlns="http://www.w3.org/2000/svg" xmlns:xlink="http://www.w3.org/1999/xlink">
    <!-- Generator: Sketch 46.1 (44463) - http://www.bohemiancoding.com/sketch -->
    <title>icn_lungs</title>
    <desc>Created with Sketch.</desc>
    <defs></defs>
    <g id="Page-1" stroke="none" stroke-width="1" fill="none" fill-rule="evenodd" fill-opacity="0.35">
        <g id="12.-Diagnostic-2" transform="translate(-145.000000, -312.000000)" fill="#000000">
            <path d="M196.598421,322.128913 C196.60401,319.464377 196.451511,316.782254 196.73016,314.146498 C196.812398,313.367843 198.038775,312.356551 198.905861,312.151094 C199.406472,312.031978 200.830858,313.310283 200.830858,313.959429 C200.831656,322.606179 200.860399,331.26572 200.357393,339.890885 C200.248808,341.755181 198.351756,343.819337 196.778864,345.233547 C193.067797,348.571212 189.054926,351.573112 184.796141,355.008308 C183.904304,353.753186 183.128237,352.66115 182.161348,351.300502 C185.410927,348.668744 188.655715,346.391137 191.45179,343.654652 C193.396747,341.751983 194.72612,339.217756 196.330949,336.965732 C193.241055,335.145406 190.345177,332.464082 187.014159,331.710209 C182.148573,330.60938 177.804357,333.347464 173.845779,336.114328 C162.991227,343.70102 156.282882,353.830732 154.503199,367.167801 C153.066837,377.936266 150.962994,388.62159 149.749392,399.410841 C149.079516,405.37227 149.919456,406.017419 155.991458,405.094864 C167.109489,403.404846 177.879409,399.928879 186.629319,392.867419 C189.95874,390.181299 191.336019,384.459702 192.485747,379.842133 C193.705737,374.938364 193.600345,369.702827 194.073809,364.611989 C193.685776,364.42412 193.296944,364.236252 192.908911,364.047584 C191.576344,364.930966 190.315635,365.973436 188.880072,366.629777 C188.149515,366.963144 186.609359,366.932765 186.307555,366.48188 C185.781395,365.695231 185.450049,363.816545 185.866826,363.503964 C191.438217,359.317293 196.960106,355.004311 202.902764,351.397235 C206.685689,349.102041 210.692172,350.908777 214.047941,353.29111 C218.031271,356.118731 221.831761,359.205372 225.716884,362.172895 C227.187578,363.296109 228.621545,364.683139 226.620698,366.219664 C225.874972,366.791264 224.037802,366.202876 222.811425,365.799158 C221.794235,365.464193 220.943915,364.62398 219.544281,363.691033 C218.353833,374.016609 220.14709,383.170204 224.588713,391.613896 C225.776766,393.873116 229.022353,395.270538 231.582095,396.542448 C239.90964,400.680353 248.469526,404.311412 257.854981,405.180404 C262.917777,405.648876 264.156929,404.748706 263.533361,399.657868 C262.225545,388.99333 260.417118,378.380755 258.500106,367.803356 C257.177919,360.50846 255.472489,353.287912 250.62846,347.256132 C244.970839,340.210662 238.323175,334.555419 229.748917,331.396029 C226.722098,330.280809 217.890748,333.243536 217.185741,336.21186 C216.787329,337.888287 217.941049,340.592794 219.295173,341.89988 C222.782682,345.263926 226.770003,348.107537 230.712613,351.283714 C229.819977,352.571613 229.103792,353.60529 228.069835,355.097046 C223.407847,351.220558 218.7251,347.63107 214.458331,343.60109 C213.108198,342.325982 212.28742,339.891685 212.221151,337.953841 C211.961664,330.368748 212.022344,322.769265 212.178835,315.179375 C212.200392,314.107326 213.406808,313.059259 214.065507,312 C214.936585,313.037674 216.432031,314.012992 216.54381,315.126612 C216.747407,317.161988 216.164559,319.283704 215.849981,321.360651 C215.418833,324.213055 214.380884,327.143804 216.273145,328.806641 C220.892816,328.347762 224.702089,327.969626 228.511362,327.591491 C231.931005,327.37884 236.751081,329.068857 240.042977,331.290503 C248.11343,336.734694 255.53237,343.21496 258.963191,352.680337 C261.437502,359.506761 263.120576,366.66895 264.583286,373.798361 C265.995695,380.683944 266.683137,387.718222 267.665995,394.690943 C267.832865,395.875714 267.935862,397.075675 267.974186,398.271638 C268.335871,409.471002 264.94577,411.157822 254.708398,409.408646 C244.24188,407.620297 234.130659,404.025212 225.238629,397.972647 C222.697251,396.242658 220.439312,393.447014 219.152256,390.634581 C215.212041,382.023007 214.247547,372.779075 214.55494,363.359265 C214.697059,358.997517 210.646662,355.022698 206.373506,355.040286 C202.161828,355.057874 198.10185,359.104642 198.213629,363.446404 C198.452357,372.695133 197.514211,381.681646 194.079398,390.416334 C192.492933,394.450312 189.878898,396.994931 186.292385,398.971149 C176.11729,404.576826 165.487894,408.940973 153.790208,409.7604 C147.193642,410.221677 145.247887,407.98724 145.035506,401.440621 C144.677015,390.416334 147.096235,379.781375 149.444395,369.135224 C151.155414,361.38065 152.284383,353.400633 157.062941,346.710914 C163.002405,338.395132 170.018142,331.291302 180.032754,328.052768 C185.153036,326.396327 187.070048,326.76407 196.597622,329.683627 C196.597622,327.015094 196.59363,324.572004 196.598421,322.128913 Z" id="icn_lungs"></path>
        </g>
    </g>
</svg>