<?xml version="1.0" encoding="UTF-8" standalone="no"?>
<svg width="123px" height="83px" viewBox="0 0 123 83" version="1.1" xmlns="http://www.w3.org/2000/svg" xmlns:xlink="http://www.w3.org/1999/xlink">
    <!-- Generator: Sketch 46.1 (44463) - http://www.bohemiancoding.com/sketch -->
    <title>icn_brain</title>
    <desc>Created with Sketch.</desc>
    <defs></defs>
    <g id="Page-1" stroke="none" stroke-width="1" fill="none" fill-rule="evenodd" fill-opacity="0.35">
        <g id="12.-Diagnostic-2" transform="translate(-313.000000, -320.000000)" fill="#000000">
            <path d="M360.896308,352.081684 C359.982584,349.684155 359.693956,346.343401 358.340113,345.834713 C353.175897,343.894046 351.026334,339.964075 349.768966,335.234397 C349.044206,332.505982 347.319612,331.724612 344.843945,331.644083 C338.08749,331.424024 332.843542,334.076694 328.874503,339.586148 C327.826033,341.042047 326.170008,342.19656 324.570592,343.093541 C321.115821,345.030221 318.060507,347.048228 317.743972,351.56582 C317.119674,360.479016 318.926392,362.366263 327.707233,361.812925 C330.120708,361.660638 331.868425,361.183843 332.938423,358.543133 C333.986096,355.955842 335.894073,353.716979 337.503854,351.201447 C340.167687,352.816012 340.94507,354.20972 339.419805,356.651102 C335.323195,363.206634 335.394156,363.249689 341.174697,368.232914 C341.67302,368.662667 342.155396,369.109164 342.811587,369.697583 C342.263831,370.976478 341.728034,372.22667 340.965003,374.009468 C338.41997,371.709212 336.366882,369.685624 334.124032,367.90123 C333.070777,367.064049 331.67388,366.258759 330.39339,366.191785 C327.759856,366.053052 325.072901,366.254773 322.460894,366.659012 C321.334286,366.832827 319.917456,367.602237 319.350564,368.536691 C314.555505,376.442877 320.388669,388.845127 329.542654,390.439759 C334.31459,391.270562 334.903807,390.856755 336.100578,386.101562 C336.500831,384.512512 337.064533,382.964921 337.64179,381.11754 C339.214894,382.192322 340.391733,382.996814 341.520732,383.767819 C338.451863,391.695531 338.817831,392.532713 346.554985,395.79533 C346.917764,395.948415 347.223934,396.255382 347.594686,396.370992 C354.061716,398.392189 360.491272,398.70952 367.498882,396.135784 C366.183311,394.302755 365.261613,392.895492 364.217927,391.587097 C360.329417,386.713104 357.064408,381.46517 358.183839,374.967045 C359.109523,369.592338 356.734319,366.777015 352.231875,364.89216 C351.666578,364.655357 351.216892,364.142683 350.672325,363.726484 C351.075767,362.446792 351.428978,361.328955 351.875475,359.914516 C353.850427,360.850565 355.960125,361.326563 357.319549,362.602268 C360.25128,365.353806 362.816245,365.270088 365.53589,362.318424 C366.67366,363.21062 367.674291,363.995179 368.867076,364.931228 C368.177398,365.690273 367.780334,366.452507 367.158428,366.761068 C361.728706,369.448821 361.154639,374.667254 362.929464,378.940868 C365.294303,384.634501 369.461874,389.583441 372.909468,394.816226 C373.144676,395.172627 373.817611,395.329698 374.315136,395.411821 C380.763828,396.473049 387.025151,395.9827 392.823232,392.738421 C393.699483,392.247274 394.660249,390.987515 394.690547,390.054655 C394.877118,384.339494 396.329828,378.190593 389.985585,374.333976 C391.057975,373.088568 391.895157,372.115843 392.645431,371.244376 C393.166876,371.334473 393.461883,371.318527 393.681144,371.439719 C394.013625,371.621507 394.296672,371.893392 394.594869,372.135776 C399.510322,376.126342 399.985522,381.552875 399.369197,387.262455 C399.004026,390.640682 400.435208,392.177908 403.657162,393.229567 C409.900146,395.267507 415.997222,395.034691 421.984268,392.832504 C429.514917,390.062628 435.243632,379.431217 428.36439,371.777781 C427.591791,370.918274 427.198714,369.457591 427.147686,368.253644 C426.927627,363.076671 424.601059,359.267893 420.304323,356.446989 C417.526474,354.623527 415.195919,354.064609 412.772079,357.096801 C411.396708,358.817409 409.280632,359.934449 407.823936,361.607218 C407.091202,362.449184 406.407902,364.400216 406.855994,365.038069 C410.374549,370.042821 413.27678,375.907878 420.573816,376.58161 C420.573816,377.503307 420.636006,378.287068 420.550693,379.054086 C420.495679,379.553206 420.223794,380.029204 420.298742,379.821902 C417.003435,380.67503 414.094028,381.046579 411.415844,382.120564 C410.752477,382.386867 409.550125,381.581578 408.380462,380.611245 C410.966158,377.825423 409.566071,375.907878 407.472319,373.721637 C405.487002,371.648616 403.563876,369.25587 402.485108,366.64466 C401.19505,363.522371 398.834995,362.718676 396.091431,362.147798 C383.564799,359.539778 378.920434,365.29321 378.388624,365.29321 C377.865584,364.45842 377.256435,363.488086 376.452741,362.2068 C378.195673,360.820267 379.715358,359.360381 381.480615,358.318289 C382.326567,357.818372 383.639747,358.108595 384.74084,358.040823 C384.422711,356.612033 380.313345,353.580638 379.585395,352.538546 C381.064416,351.600105 382.041926,350.98059 382.402312,350.751761 C384.439455,352.651765 385.945585,354.884249 388.031363,355.809933 C391.245344,357.237926 394.834861,357.86063 398.303185,358.661135 C404.042266,359.985477 407.477103,356.277958 410.687895,352.525789 C411.348072,351.754784 411.406276,349.910592 410.988483,348.861324 C407.787259,340.824379 402.437269,335.031879 393.708253,332.88072 C391.07711,332.231705 387.749911,332.040349 386.060398,330.334093 C377.847246,322.036425 363.391907,324.009782 355.670699,329.787931 C354.655716,330.547773 353.969227,332.728433 354.22676,334.035234 C355.284001,339.401968 358.318586,341.751658 364.642896,342.514689 C367.367325,342.843981 370.125241,342.89182 373.129527,343.08477 C373.009133,344.687375 372.915049,345.942351 372.799439,347.487549 L364.559975,347.487549 C364.411674,349.168291 364.288888,350.555621 364.154939,352.081684 L360.896308,352.081684 Z M399.083758,396.210732 C398.094288,395.88144 396.711743,395.861508 395.879345,396.337505 C389.518358,399.968482 382.706887,400.72673 375.539016,400.257111 C372.718112,400.072133 369.736151,400.3791 367.005343,401.120604 C356.652993,403.93194 347.119485,402.529461 338.21506,396.479427 C337.019086,395.666165 335.297681,395.120801 333.876067,395.225249 C320.226017,396.222692 309.136149,382.499289 314.73251,368.025612 C315.734736,365.433537 315.506703,363.382043 314.537167,360.863322 C311.232292,352.277026 313.060538,343.18284 321.934665,339.398778 C323.195222,338.861387 324.435048,337.852783 325.241932,336.741324 C330.783278,329.113402 338.30117,326.539666 347.437614,327.46535 C349.007529,327.624016 350.898763,327.026029 352.286093,326.188847 C362.423168,320.072636 373.354371,317.238178 383.823927,323.594381 C390.178535,327.451795 397.597561,327.938956 403.565471,332.175095 C408.887555,335.953576 412.732213,340.713552 415.138512,346.820196 C415.796298,348.487383 417.52169,350.255033 419.180107,350.916805 C426.375884,353.788737 430.606443,358.731299 431.437246,366.508319 C431.530532,367.386164 431.748199,368.41231 432.283996,369.058136 C441.003443,379.588288 433.713583,396.994494 417.352659,398.59072 C415.503683,398.770914 408.453018,399.325846 399.083758,396.210732 L399.083758,396.210732 Z" id="icn_brain"></path>
        </g>
    </g>
</svg>